  0
SECTION
  2
ENTITIES
  0
POLYLINE
  8
0
 10
0
 20
0
 39
0
 70
1
 66
1
  0
VERTEX
  8
0
 10
0
 20
0
 42
-0
  0
VERTEX
  8
0
 10
800
 20
0
 42
-0
  0
VERTEX
  8
0
 10
800
 20
600
 42
-0
  0
VERTEX
  8
0
 10
0
 20
600
 42
-0
  0
SEQEND
  0
POLYLINE
  8
0
 10
0
 20
0
 39
0
 70
1
 66
1
  0
VERTEX
  8
0
 10
10.107692718505859
 20
10.107692718505859
 42
0
  0
VERTEX
  8
0
 10
170.10769653320312
 20
10.107692718505859
 42
0
  0
VERTEX
  8
0
 10
170.10769653320312
 20
360.107666015625
 42
0
  0
VERTEX
  8
0
 10
10.107692718505859
 20
360.107666015625
 42
0
  0
SEQEND
  0
POLYLINE
  8
0
 10
0
 20
0
 39
0
 70
1
 66
1
  0
VERTEX
  8
0
 10
119.75077819824219
 20
23.240612030029297
 42
-0
  0
VERTEX
  8
0
 10
60.464603424072266
 20
23.240612030029297
 42
-0.40095469355583191
  0
VERTEX
  8
0
 10
60.464603424072266
 20
79.889968872070312
 42
0
  0
VERTEX
  8
0
 10
119.75077819824219
 20
79.889968872070312
 42
-0.40095469355583191
  0
SEQEND
  0
POLYLINE
  8
0
 10
0
 20
0
 39
0
 70
1
 66
1
  0
VERTEX
  8
0
 10
180.19999694824219
 20
10.107692718505859
 42
0
  0
VERTEX
  8
0
 10
340.20001220703125
 20
10.107692718505859
 42
0
  0
VERTEX
  8
0
 10
340.20001220703125
 20
360.107666015625
 42
0
  0
VERTEX
  8
0
 10
180.19999694824219
 20
360.107666015625
 42
0
  0
SEQEND
  0
POLYLINE
  8
0
 10
0
 20
0
 39
0
 70
1
 66
1
  0
VERTEX
  8
0
 10
289.84307861328125
 20
23.240612030029297
 42
-0
  0
VERTEX
  8
0
 10
230.55691528320312
 20
23.240612030029297
 42
-0.40095469355583191
  0
VERTEX
  8
0
 10
230.55691528320312
 20
79.889968872070312
 42
0
  0
VERTEX
  8
0
 10
289.84307861328125
 20
79.889968872070312
 42
-0.40095469355583191
  0
SEQEND
  0
POLYLINE
  8
0
 10
0
 20
0
 39
0
 70
1
 66
1
  0
VERTEX
  8
0
 10
360.107666015625
 20
370.10769653320312
 42
0
  0
VERTEX
  8
0
 10
360.107666015625
 20
530.10772705078125
 42
0
  0
VERTEX
  8
0
 10
10.107692718505859
 20
530.10772705078125
 42
0
  0
VERTEX
  8
0
 10
10.107692718505859
 20
370.10769653320312
 42
0
  0
SEQEND
  0
POLYLINE
  8
0
 10
0
 20
0
 39
0
 70
1
 66
1
  0
VERTEX
  8
0
 10
346.97476196289062
 20
479.75079345703125
 42
-0
  0
VERTEX
  8
0
 10
346.97476196289062
 20
420.464599609375
 42
-0.40095469355583191
  0
VERTEX
  8
0
 10
290.32540893554687
 20
420.464599609375
 42
0
  0
VERTEX
  8
0
 10
290.32540893554687
 20
479.75079345703125
 42
-0.40095469355583191
  0
SEQEND
  0
POLYLINE
  8
0
 10
0
 20
0
 39
0
 70
1
 66
1
  0
VERTEX
  8
0
 10
350.29229736328125
 20
10.107692718505859
 42
0
  0
VERTEX
  8
0
 10
510.29232788085937
 20
10.107692718505859
 42
0
  0
VERTEX
  8
0
 10
510.29232788085937
 20
360.107666015625
 42
0
  0
VERTEX
  8
0
 10
350.29229736328125
 20
360.107666015625
 42
0
  0
SEQEND
  0
POLYLINE
  8
0
 10
0
 20
0
 39
0
 70
1
 66
1
  0
VERTEX
  8
0
 10
459.93539428710937
 20
23.240612030029297
 42
-0
  0
VERTEX
  8
0
 10
400.64923095703125
 20
23.240612030029297
 42
-0.40095469355583191
  0
VERTEX
  8
0
 10
400.64923095703125
 20
79.889968872070312
 42
0
  0
VERTEX
  8
0
 10
459.93539428710937
 20
79.889968872070312
 42
-0.40095469355583191
  0
SEQEND
  0
POLYLINE
  8
0
 10
0
 20
0
 39
0
 70
1
 66
1
  0
VERTEX
  8
0
 10
520.3846435546875
 20
10.107692718505859
 42
0
  0
VERTEX
  8
0
 10
680.3846435546875
 20
10.107692718505859
 42
0
  0
VERTEX
  8
0
 10
680.3846435546875
 20
360.107666015625
 42
0
  0
VERTEX
  8
0
 10
520.3846435546875
 20
360.107666015625
 42
0
  0
SEQEND
  0
POLYLINE
  8
0
 10
0
 20
0
 39
0
 70
1
 66
1
  0
VERTEX
  8
0
 10
630.0277099609375
 20
23.240612030029297
 42
-0
  0
VERTEX
  8
0
 10
570.74151611328125
 20
23.240612030029297
 42
-0.40095469355583191
  0
VERTEX
  8
0
 10
570.74151611328125
 20
79.889968872070312
 42
0
  0
VERTEX
  8
0
 10
630.0277099609375
 20
79.889968872070312
 42
-0.40095469355583191
  0
SEQEND
  0
POLYLINE
  8
0
 10
0
 20
0
 39
0
 70
1
 66
1
  0
VERTEX
  8
0
 10
370.16921997070312
 20
576.107666015625
 42
0
  0
VERTEX
  8
0
 10
370.16921997070312
 20
374.10769653320312
 42
0.41421356797218323
  0
VERTEX
  8
0
 10
374.16921997070312
 20
370.10769653320312
 42
0
  0
VERTEX
  8
0
 10
521.16925048828125
 20
370.10769653320312
 42
0.41421356797218323
  0
VERTEX
  8
0
 10
525.16925048828125
 20
374.10769653320312
 42
0
  0
VERTEX
  8
0
 10
525.16925048828125
 20
576.107666015625
 42
0.41421356797218323
  0
VERTEX
  8
0
 10
521.16925048828125
 20
580.107666015625
 42
0
  0
VERTEX
  8
0
 10
374.16921997070312
 20
580.107666015625
 42
0.41421356797218323
  0
SEQEND
  0
POLYLINE
  8
0
 10
0
 20
0
 39
0
 70
1
 66
1
  0
VERTEX
  8
0
 10
496.16921997070312
 20
415.7230224609375
 42
-0.21597428619861603
  0
VERTEX
  8
0
 10
444.16925048828125
 20
415.7230224609375
 42
-0
  0
VERTEX
  8
0
 10
444.16921997070312
 20
490.90768432617187
 42
-0.41421356797218323
  0
VERTEX
  8
0
 10
445.36923217773437
 20
492.10769653320312
 42
0
  0
VERTEX
  8
0
 10
494.96923828125
 20
492.10769653320312
 42
-0.41421356797218323
  0
VERTEX
  8
0
 10
496.16921997070312
 20
490.90768432617187
 42
0
  0
SEQEND
  0
POLYLINE
  8
0
 10
0
 20
0
 39
0
 70
1
 66
1
  0
VERTEX
  8
0
 10
535.27691650390625
 20
576.107666015625
 42
0
  0
VERTEX
  8
0
 10
535.27691650390625
 20
374.10769653320312
 42
0.41421356797218323
  0
VERTEX
  8
0
 10
539.27691650390625
 20
370.10769653320312
 42
0
  0
VERTEX
  8
0
 10
686.27691650390625
 20
370.10769653320312
 42
0.41421356797218323
  0
VERTEX
  8
0
 10
690.27691650390625
 20
374.10769653320312
 42
0
  0
VERTEX
  8
0
 10
690.27691650390625
 20
576.107666015625
 42
0.41421356797218323
  0
VERTEX
  8
0
 10
686.27691650390625
 20
580.107666015625
 42
0
  0
VERTEX
  8
0
 10
539.27691650390625
 20
580.107666015625
 42
0.41421356797218323
  0
SEQEND
  0
POLYLINE
  8
0
 10
0
 20
0
 39
0
 70
1
 66
1
  0
VERTEX
  8
0
 10
661.27691650390625
 20
415.7230224609375
 42
-0.21597428619861603
  0
VERTEX
  8
0
 10
609.27691650390625
 20
415.7230224609375
 42
-0
  0
VERTEX
  8
0
 10
609.27691650390625
 20
490.90768432617187
 42
-0.41421356797218323
  0
VERTEX
  8
0
 10
610.4769287109375
 20
492.10769653320312
 42
0
  0
VERTEX
  8
0
 10
660.076904296875
 20
492.10769653320312
 42
-0.41421356797218323
  0
VERTEX
  8
0
 10
661.27691650390625
 20
490.90768432617187
 42
0
  0
SEQEND
  0
POLYLINE
  8
0
 10
0
 20
0
 39
0
 70
1
 66
1
  0
VERTEX
  8
0
 10
775.4769287109375
 20
10.107692718505859
 42
-0
  0
VERTEX
  8
0
 10
775.4769287109375
 20
95.107688903808594
 42
-0
  0
VERTEX
  8
0
 10
725.4769287109375
 20
95.107688903808594
 42
0
  0
VERTEX
  8
0
 10
690.4769287109375
 20
60.107692718505859
 42
0
  0
VERTEX
  8
0
 10
690.4769287109375
 20
10.107692718505859
 42
0
  0
SEQEND
  0
POLYLINE
  8
0
 10
0
 20
0
 39
0
 70
1
 66
1
  0
VERTEX
  8
0
 10
775.4769287109375
 20
105.12307739257812
 42
-0
  0
VERTEX
  8
0
 10
775.4769287109375
 20
190.12307739257812
 42
-0
  0
VERTEX
  8
0
 10
725.4769287109375
 20
190.12307739257812
 42
0
  0
VERTEX
  8
0
 10
690.4769287109375
 20
155.12307739257812
 42
0
  0
VERTEX
  8
0
 10
690.4769287109375
 20
105.12307739257812
 42
0
  0
SEQEND
  0
POLYLINE
  8
0
 10
0
 20
0
 39
0
 70
1
 66
1
  0
VERTEX
  8
0
 10
775.4769287109375
 20
200.13845825195312
 42
-0
  0
VERTEX
  8
0
 10
775.4769287109375
 20
285.13845825195312
 42
-0
  0
VERTEX
  8
0
 10
725.4769287109375
 20
285.13845825195312
 42
0
  0
VERTEX
  8
0
 10
690.4769287109375
 20
250.13845825195312
 42
0
  0
VERTEX
  8
0
 10
690.4769287109375
 20
200.13845825195312
 42
0
  0
SEQEND
  0
POLYLINE
  8
0
 10
0
 20
0
 39
0
 70
1
 66
1
  0
VERTEX
  8
0
 10
775.4769287109375
 20
295.15383911132812
 42
-0
  0
VERTEX
  8
0
 10
775.4769287109375
 20
380.15383911132812
 42
-0
  0
VERTEX
  8
0
 10
725.4769287109375
 20
380.15383911132812
 42
0
  0
VERTEX
  8
0
 10
690.4769287109375
 20
345.15383911132812
 42
0
  0
VERTEX
  8
0
 10
690.4769287109375
 20
295.15383911132812
 42
0
  0
SEQEND
  0
POLYLINE
  8
0
 10
0
 20
0
 39
0
 70
1
 66
1
  0
VERTEX
  8
0
 10
785.3846435546875
 20
390.16921997070312
 42
-0
  0
VERTEX
  8
0
 10
785.3846435546875
 20
475.16921997070312
 42
-0
  0
VERTEX
  8
0
 10
735.3846435546875
 20
475.16921997070312
 42
0
  0
VERTEX
  8
0
 10
700.3846435546875
 20
440.16921997070312
 42
0
  0
VERTEX
  8
0
 10
700.3846435546875
 20
390.16921997070312
 42
0
  0
SEQEND
  0
POLYLINE
  8
0
 10
0
 20
0
 39
0
 70
1
 66
1
  0
VERTEX
  8
0
 10
785.3846435546875
 20
485.18460083007812
 42
-0
  0
VERTEX
  8
0
 10
785.3846435546875
 20
570.18463134765625
 42
-0
  0
VERTEX
  8
0
 10
735.3846435546875
 20
570.18463134765625
 42
0
  0
VERTEX
  8
0
 10
700.3846435546875
 20
535.18463134765625
 42
0
  0
VERTEX
  8
0
 10
700.3846435546875
 20
485.18460083007812
 42
0
  0
SEQEND
  0
POLYLINE
  8
0
 10
0
 20
0
 39
0
 70
1
 66
1
  0
VERTEX
  8
0
 10
110.10768890380859
 20
540.13848876953125
 42
0
  0
VERTEX
  8
0
 10
110.10768890380859
 20
572.13848876953125
 42
0
  0
VERTEX
  8
0
 10
18.107692718505859
 20
572.13848876953125
 42
0
  0
VERTEX
  8
0
 10
10.107692718505859
 20
564.13848876953125
 42
0
  0
VERTEX
  8
0
 10
10.107692718505859
 20
540.13848876953125
 42
0
  0
SEQEND
  0
POLYLINE
  8
0
 10
0
 20
0
 39
0
 70
1
 66
1
  0
VERTEX
  8
0
 10
220.19999694824219
 20
540.13848876953125
 42
0
  0
VERTEX
  8
0
 10
220.19999694824219
 20
572.13848876953125
 42
0
  0
VERTEX
  8
0
 10
128.19999694824219
 20
572.13848876953125
 42
0
  0
VERTEX
  8
0
 10
120.19999694824219
 20
564.13848876953125
 42
0
  0
VERTEX
  8
0
 10
120.19999694824219
 20
540.13848876953125
 42
0
  0
SEQEND
  0
POLYLINE
  8
0
 10
0
 20
0
 39
0
 70
1
 66
1
  0
VERTEX
  8
0
 10
330.29229736328125
 20
540.13848876953125
 42
0
  0
VERTEX
  8
0
 10
330.29229736328125
 20
572.13848876953125
 42
0
  0
VERTEX
  8
0
 10
238.29231262207031
 20
572.13848876953125
 42
0
  0
VERTEX
  8
0
 10
230.29231262207031
 20
564.13848876953125
 42
0
  0
VERTEX
  8
0
 10
230.29231262207031
 20
540.13848876953125
 42
0
  0
SEQEND
  0
ENDSEC
  0
EOF
