  0
SECTION
  2
ENTITIES
  0
POLYLINE
  8
0
 10
0
 20
0
 39
0
 70
1
 66
1
  0
VERTEX
  8
0
 10
0
 20
0
 42
-0
  0
VERTEX
  8
0
 10
700
 20
0
 42
-0
  0
VERTEX
  8
0
 10
700
 20
500
 42
-0
  0
VERTEX
  8
0
 10
0
 20
500
 42
-0
  0
SEQEND
  0
POLYLINE
  8
0
 10
0
 20
0
 39
0
 70
1
 66
1
  0
VERTEX
  8
0
 10
259.65093994140625
 20
339.99923706054687
 42
1
  0
VERTEX
  8
0
 10
260.34906005859375
 20
180.00076293945313
 42
1
  0
SEQEND
  0
POLYLINE
  8
0
 10
0
 20
0
 39
0
 70
1
 66
1
  0
VERTEX
  8
0
 10
260.09817504882812
 20
237.50021362304687
 42
-1
  0
VERTEX
  8
0
 10
259.90182495117187
 20
282.49978637695312
 42
-1
  0
SEQEND
  0
POLYLINE
  8
0
 10
0
 20
0
 39
0
 70
1
 66
1
  0
VERTEX
  8
0
 10
259.65093994140625
 20
169.99923706054687
 42
1
  0
VERTEX
  8
0
 10
260.34906005859375
 20
10.000761985778809
 42
1
  0
SEQEND
  0
POLYLINE
  8
0
 10
0
 20
0
 39
0
 70
1
 66
1
  0
VERTEX
  8
0
 10
260.09817504882812
 20
67.500213623046875
 42
-1
  0
VERTEX
  8
0
 10
259.90182495117187
 20
112.49978637695312
 42
-1
  0
SEQEND
  0
POLYLINE
  8
0
 10
0
 20
0
 39
0
 70
1
 66
1
  0
VERTEX
  8
0
 10
89.650932312011719
 20
169.99923706054687
 42
1
  0
VERTEX
  8
0
 10
90.34906005859375
 20
10.000761985778809
 42
1
  0
SEQEND
  0
POLYLINE
  8
0
 10
0
 20
0
 39
0
 70
1
 66
1
  0
VERTEX
  8
0
 10
90.098175048828125
 20
67.500213623046875
 42
-1
  0
VERTEX
  8
0
 10
89.901824951171875
 20
112.49978637695312
 42
-1
  0
SEQEND
  0
POLYLINE
  8
0
 10
0
 20
0
 39
0
 70
1
 66
1
  0
VERTEX
  8
0
 10
429.65093994140625
 20
339.99923706054687
 42
1
  0
VERTEX
  8
0
 10
430.34906005859375
 20
180.00076293945313
 42
1
  0
SEQEND
  0
POLYLINE
  8
0
 10
0
 20
0
 39
0
 70
1
 66
1
  0
VERTEX
  8
0
 10
430.09817504882812
 20
237.50021362304687
 42
-1
  0
VERTEX
  8
0
 10
429.90182495117187
 20
282.49978637695312
 42
-1
  0
SEQEND
  0
POLYLINE
  8
0
 10
0
 20
0
 39
0
 70
1
 66
1
  0
VERTEX
  8
0
 10
599.65093994140625
 20
169.99923706054687
 42
1
  0
VERTEX
  8
0
 10
600.34906005859375
 20
10.000761985778809
 42
1
  0
SEQEND
  0
POLYLINE
  8
0
 10
0
 20
0
 39
0
 70
1
 66
1
  0
VERTEX
  8
0
 10
600.09814453125
 20
67.500213623046875
 42
-1
  0
VERTEX
  8
0
 10
599.90179443359375
 20
112.49978637695312
 42
-1
  0
SEQEND
  0
POLYLINE
  8
0
 10
0
 20
0
 39
0
 70
1
 66
1
  0
VERTEX
  8
0
 10
345
 20
350
 42
-0
  0
VERTEX
  8
0
 10
670
 20
350
 42
-0
  0
VERTEX
  8
0
 10
670
 20
475
 42
-0
  0
VERTEX
  8
0
 10
345
 20
475
 42
-0
  0
SEQEND
  0
POLYLINE
  8
0
 10
0
 20
0
 39
0
 70
1
 66
1
  0
VERTEX
  8
0
 10
390
 20
380
 42
0
  0
VERTEX
  8
0
 10
390
 20
445
 42
0
  0
VERTEX
  8
0
 10
545
 20
445
 42
0
  0
VERTEX
  8
0
 10
545
 20
380
 42
0
  0
SEQEND
  0
POLYLINE
  8
0
 10
0
 20
0
 39
0
 70
1
 66
1
  0
VERTEX
  8
0
 10
10
 20
350
 42
-0
  0
VERTEX
  8
0
 10
335
 20
350
 42
-0
  0
VERTEX
  8
0
 10
335
 20
475
 42
-0
  0
VERTEX
  8
0
 10
10
 20
475
 42
-0
  0
SEQEND
  0
POLYLINE
  8
0
 10
0
 20
0
 39
0
 70
1
 66
1
  0
VERTEX
  8
0
 10
55
 20
380
 42
0
  0
VERTEX
  8
0
 10
55
 20
445
 42
0
  0
VERTEX
  8
0
 10
210
 20
445
 42
0
  0
VERTEX
  8
0
 10
210
 20
380
 42
0
  0
SEQEND
  0
POLYLINE
  8
0
 10
0
 20
0
 39
0
 70
1
 66
1
  0
VERTEX
  8
0
 10
429.65093994140625
 20
169.99923706054687
 42
1
  0
VERTEX
  8
0
 10
430.34906005859375
 20
10.000761985778809
 42
1
  0
SEQEND
  0
POLYLINE
  8
0
 10
0
 20
0
 39
0
 70
1
 66
1
  0
VERTEX
  8
0
 10
430.09817504882812
 20
67.500213623046875
 42
-1
  0
VERTEX
  8
0
 10
429.90182495117187
 20
112.49978637695312
 42
-1
  0
SEQEND
  0
POLYLINE
  8
0
 10
0
 20
0
 39
0
 70
1
 66
1
  0
VERTEX
  8
0
 10
599.65093994140625
 20
339.99923706054687
 42
1
  0
VERTEX
  8
0
 10
600.34906005859375
 20
180.00076293945313
 42
1
  0
SEQEND
  0
POLYLINE
  8
0
 10
0
 20
0
 39
0
 70
1
 66
1
  0
VERTEX
  8
0
 10
600.09814453125
 20
237.50021362304687
 42
-1
  0
VERTEX
  8
0
 10
599.90179443359375
 20
282.49978637695312
 42
-1
  0
SEQEND
  0
POLYLINE
  8
0
 10
0
 20
0
 39
0
 70
1
 66
1
  0
VERTEX
  8
0
 10
89.650932312011719
 20
339.99923706054687
 42
1
  0
VERTEX
  8
0
 10
90.34906005859375
 20
180.00076293945313
 42
1
  0
SEQEND
  0
POLYLINE
  8
0
 10
0
 20
0
 39
0
 70
1
 66
1
  0
VERTEX
  8
0
 10
90.098175048828125
 20
237.50021362304687
 42
-1
  0
VERTEX
  8
0
 10
89.901824951171875
 20
282.49978637695312
 42
-1
  0
SEQEND
  0
ENDSEC
  0
EOF
