  0
SECTION
  2
ENTITIES
  0
POLYLINE
  8
0
 10
0
 20
0
 39
0
 70
1
 66
1
  0
VERTEX
  8
0
 10
0
 20
0
 42
-0
  0
VERTEX
  8
0
 10
700
 20
0
 42
-0
  0
VERTEX
  8
0
 10
700
 20
300
 42
-0
  0
VERTEX
  8
0
 10
0
 20
300
 42
-0
  0
SEQEND
  0
POLYLINE
  8
0
 10
0
 20
0
 39
0
 70
1
 66
1
  0
VERTEX
  8
0
 10
213.99999765976725
 20
153.99999765976725
 42
0
  0
VERTEX
  8
0
 10
358.99999765976725
 20
153.99999765976725
 42
-0
  0
VERTEX
  8
0
 10
358.99999765976725
 20
233.99999765976725
 42
-0
  0
VERTEX
  8
0
 10
213.99999765976725
 20
233.99999765976725
 42
-0
  0
SEQEND
  0
POLYLINE
  8
0
 10
0
 20
0
 39
0
 70
1
 66
1
  0
VERTEX
  8
0
 10
368.99999765976725
 20
275
 42
0
  0
VERTEX
  8
0
 10
368.99999765976725
 20
130
 42
-0
  0
VERTEX
  8
0
 10
448.99999765976725
 20
130
 42
-0
  0
VERTEX
  8
0
 10
448.99999765976725
 20
275
 42
-0
  0
SEQEND
  0
POLYLINE
  8
0
 10
0
 20
0
 39
0
 70
1
 66
1
  0
VERTEX
  8
0
 10
638.99999765976725
 20
288
 42
0
  0
VERTEX
  8
0
 10
638.99999765976725
 20
154
 42
0
  0
VERTEX
  8
0
 10
658.99999765976725
 20
154
 42
0
  0
VERTEX
  8
0
 10
658.99999765976725
 20
288
 42
0
  0
SEQEND
  0
POLYLINE
  8
0
 10
0
 20
0
 39
0
 70
1
 66
1
  0
VERTEX
  8
0
 10
458.99999765976725
 20
275
 42
0
  0
VERTEX
  8
0
 10
458.99999765976725
 20
130
 42
-0
  0
VERTEX
  8
0
 10
538.99999765976725
 20
130
 42
-0
  0
VERTEX
  8
0
 10
538.99999765976725
 20
275
 42
-0
  0
SEQEND
  0
POLYLINE
  8
0
 10
0
 20
0
 39
0
 70
1
 66
1
  0
VERTEX
  8
0
 10
548.99999765976725
 20
275
 42
0
  0
VERTEX
  8
0
 10
548.99999765976725
 20
130
 42
-0
  0
VERTEX
  8
0
 10
628.99999765976725
 20
130
 42
-0
  0
VERTEX
  8
0
 10
628.99999765976725
 20
275
 42
-0
  0
SEQEND
  0
POLYLINE
  8
0
 10
0
 20
0
 39
0
 70
1
 66
1
  0
VERTEX
  8
0
 10
668.99999765976725
 20
144
 42
0
  0
VERTEX
  8
0
 10
668.99999765976725
 20
10
 42
0
  0
VERTEX
  8
0
 10
688.99999765976725
 20
10
 42
0
  0
VERTEX
  8
0
 10
688.99999765976725
 20
144
 42
0
  0
SEQEND
  0
POLYLINE
  8
0
 10
0
 20
0
 39
0
 70
1
 66
1
  0
VERTEX
  8
0
 10
638.99999765976725
 20
144
 42
0
  0
VERTEX
  8
0
 10
638.99999765976725
 20
10
 42
0
  0
VERTEX
  8
0
 10
658.99999765976725
 20
10
 42
0
  0
VERTEX
  8
0
 10
658.99999765976725
 20
144
 42
0
  0
SEQEND
  0
POLYLINE
  8
0
 10
0
 20
0
 39
0
 70
1
 66
1
  0
VERTEX
  8
0
 10
106.70765711841835
 20
287.99935752785888
 42
1
  0
VERTEX
  8
0
 10
107.29234054134889
 20
154.00063545144286
 42
1
  0
SEQEND
  0
POLYLINE
  8
0
 10
0
 20
0
 39
0
 70
1
 66
1
  0
VERTEX
  8
0
 10
213.99999765976725
 20
243.99999765976725
 42
0
  0
VERTEX
  8
0
 10
347.99999765976725
 20
243.99999765976725
 42
0
  0
VERTEX
  8
0
 10
347.99999765976725
 20
263.99999765976725
 42
0
  0
VERTEX
  8
0
 10
213.99999765976725
 20
263.99999765976725
 42
0
  0
SEQEND
  0
POLYLINE
  8
0
 10
0
 20
0
 39
0
 70
1
 66
1
  0
VERTEX
  8
0
 10
10
 20
288
 42
0
  0
VERTEX
  8
0
 10
10.000000000000009
 20
154
 42
0
  0
VERTEX
  8
0
 10
30.000000000000007
 20
154
 42
0
  0
VERTEX
  8
0
 10
30
 20
288
 42
0
  0
SEQEND
  0
POLYLINE
  8
0
 10
0
 20
0
 39
0
 70
1
 66
1
  0
VERTEX
  8
0
 10
183.99999765976725
 20
287.99999765976725
 42
0
  0
VERTEX
  8
0
 10
183.99999765976725
 20
153.99999765976725
 42
0
  0
VERTEX
  8
0
 10
203.99999765976725
 20
153.99999765976725
 42
0
  0
VERTEX
  8
0
 10
203.99999765976725
 20
287.99999765976725
 42
0
  0
SEQEND
  0
POLYLINE
  8
0
 10
0
 20
0
 39
0
 70
1
 66
1
  0
VERTEX
  8
0
 10
10
 20
144
 42
0
  0
VERTEX
  8
0
 10
10.000000000000009
 20
10
 42
0
  0
VERTEX
  8
0
 10
30.000000000000007
 20
10
 42
0
  0
VERTEX
  8
0
 10
30
 20
144
 42
0
  0
SEQEND
  0
POLYLINE
  8
0
 10
0
 20
0
 39
0
 70
1
 66
1
  0
VERTEX
  8
0
 10
250.7076547781856
 20
143.99935986809163
 42
1
  0
VERTEX
  8
0
 10
251.29233820111614
 20
10.000637791675615
 42
1
  0
SEQEND
  0
POLYLINE
  8
0
 10
0
 20
0
 39
0
 70
1
 66
1
  0
VERTEX
  8
0
 10
106.70765711841835
 20
143.99935986809163
 42
1
  0
VERTEX
  8
0
 10
107.29234054134889
 20
10.000637791675615
 42
1
  0
SEQEND
  0
POLYLINE
  8
0
 10
0
 20
0
 39
0
 70
1
 66
1
  0
VERTEX
  8
0
 10
668.99999765976725
 20
288
 42
0
  0
VERTEX
  8
0
 10
668.99999765976725
 20
154
 42
0
  0
VERTEX
  8
0
 10
688.99999765976725
 20
154
 42
0
  0
VERTEX
  8
0
 10
688.99999765976725
 20
288
 42
0
  0
SEQEND
  0
POLYLINE
  8
0
 10
0
 20
0
 39
0
 70
1
 66
1
  0
VERTEX
  8
0
 10
327.99999531953449
 20
70
 42
0
  0
VERTEX
  8
0
 10
619.99999531953449
 20
70
 42
0
  0
VERTEX
  8
0
 10
619.99999531953449
 20
120
 42
0
  0
VERTEX
  8
0
 10
327.99999531953449
 20
120
 42
0
  0
SEQEND
  0
POLYLINE
  8
0
 10
0
 20
0
 39
0
 70
1
 66
1
  0
VERTEX
  8
0
 10
327.99999531953449
 20
10
 42
0
  0
VERTEX
  8
0
 10
619.99999531953449
 20
10
 42
0
  0
VERTEX
  8
0
 10
619.99999531953449
 20
60
 42
0
  0
VERTEX
  8
0
 10
327.99999531953449
 20
60
 42
0
  0
SEQEND
  0
ENDSEC
  0
EOF
