  0
SECTION
  2
ENTITIES
  0
POLYLINE
  8
0
 10
0
 20
0
 39
0
 70
1
 66
1
  0
VERTEX
  8
0
 10
0
 20
0
 42
-0
  0
VERTEX
  8
0
 10
3000
 20
0
 42
-0
  0
VERTEX
  8
0
 10
3000
 20
1500
 42
-0
  0
VERTEX
  8
0
 10
0
 20
1500
 42
-0
  0
SEQEND
  0
POLYLINE
  8
0
 10
0
 20
0
 39
0
 70
1
 66
1
  0
VERTEX
  8
0
 10
1365.270751953125
 20
1367.2684326171875
 42
-0
  0
VERTEX
  8
0
 10
1336.7391357421875
 20
1357.998046875
 42
-0
  0
VERTEX
  8
0
 10
1599.438232421875
 20
549.49041748046875
 42
-0
  0
VERTEX
  8
0
 10
1627.969970703125
 20
558.76092529296875
 42
-0.067145183682441711
  0
VERTEX
  8
0
 10
1742.8463134765625
 20
576.95538330078125
 42
-0
  0
VERTEX
  8
0
 10
1772.8463134765625
 20
576.95538330078125
 42
-0
  0
VERTEX
  8
0
 10
1772.84716796875
 20
1489.949951171875
 42
-0
  0
VERTEX
  8
0
 10
1742.84716796875
 20
1489.9500732421875
 42
-0
  0
SEQEND
  0
POLYLINE
  8
0
 10
0
 20
0
 39
0
 70
1
 66
1
  0
VERTEX
  8
0
 10
2959.949951171875
 20
162.46026611328125
 42
-0
  0
VERTEX
  8
0
 10
2989.949951171875
 20
162.46026611328125
 42
-0
  0
VERTEX
  8
0
 10
2989.949951171875
 20
1081.953369140625
 42
-0
  0
VERTEX
  8
0
 10
2959.949951171875
 20
1081.953369140625
 42
-0.067145183682441711
  0
VERTEX
  8
0
 10
2845.07373046875
 20
1100.14794921875
 42
-0
  0
VERTEX
  8
0
 10
2816.5419921875
 20
1109.41845703125
 42
-0
  0
VERTEX
  8
0
 10
2462.34765625
 20
19.32049560546875
 42
-0
  0
VERTEX
  8
0
 10
2490.87939453125
 20
10.04998779296875
 42
-0
  0
SEQEND
  0
POLYLINE
  8
0
 10
0
 20
0
 39
0
 70
1
 66
1
  0
VERTEX
  8
0
 10
40.0499267578125
 20
1198.2427978515625
 42
-0
  0
VERTEX
  8
0
 10
10.0499267578125
 20
1198.24267578125
 42
-0
  0
VERTEX
  8
0
 10
10.0501708984375
 20
37.51507568359375
 42
-0
  0
VERTEX
  8
0
 10
40.0501708984375
 20
37.515106201171875
 42
-0.067145183682441711
  0
VERTEX
  8
0
 10
154.926513671875
 20
19.32049560546875
 42
-0
  0
VERTEX
  8
0
 10
183.458251953125
 20
10.04998779296875
 42
-0
  0
VERTEX
  8
0
 10
542.142578125
 20
1113.9677734375
 42
-0
  0
VERTEX
  8
0
 10
513.6109619140625
 20
1123.23828125
 42
-0
  0
VERTEX
  8
0
 10
314.332763671875
 20
1397.52099609375
 42
-0
  0
SEQEND
  0
POLYLINE
  8
0
 10
0
 20
0
 39
0
 70
1
 66
1
  0
VERTEX
  8
0
 10
2281.96630859375
 20
10.050048828125
 42
-0
  0
VERTEX
  8
0
 10
2310.497802734375
 20
19.3204345703125
 42
-0
  0
VERTEX
  8
0
 10
1956.3046875
 20
1109.4188232421875
 42
-0
  0
VERTEX
  8
0
 10
1927.77294921875
 20
1100.1484375
 42
-0.067145183682441711
  0
VERTEX
  8
0
 10
1812.896728515625
 20
1081.953857421875
 42
-0
  0
VERTEX
  8
0
 10
1782.896728515625
 20
1081.953857421875
 42
-0
  0
VERTEX
  8
0
 10
1782.895751953125
 20
162.4608154296875
 42
-0
  0
VERTEX
  8
0
 10
1812.895751953125
 20
162.4608154296875
 42
-0
  0
SEQEND
  0
POLYLINE
  8
0
 10
0
 20
0
 39
0
 70
1
 66
1
  0
VERTEX
  8
0
 10
1255.304443359375
 20
10.050048828125
 42
-0
  0
VERTEX
  8
0
 10
1283.836181640625
 20
19.320556640625
 42
-0
  0
VERTEX
  8
0
 10
1001.706298828125
 20
887.63043212890625
 42
-0
  0
VERTEX
  8
0
 10
973.174560546875
 20
878.35992431640625
 42
-0.067145183682441711
  0
VERTEX
  8
0
 10
858.2982177734375
 20
860.1654052734375
 42
-0
  0
VERTEX
  8
0
 10
828.2982177734375
 20
860.16546630859375
 42
-0
  0
VERTEX
  8
0
 10
828.2972412109375
 20
10.050537109375
 42
-0
  0
VERTEX
  8
0
 10
858.2972412109375
 20
10.050537109375
 42
-0
  0
SEQEND
  0
POLYLINE
  8
0
 10
0
 20
0
 39
0
 70
1
 66
1
  0
VERTEX
  8
0
 10
887.97186279296875
 20
1367.2685546875
 42
-0
  0
VERTEX
  8
0
 10
859.44024658203125
 20
1357.998046875
 42
-0
  0
VERTEX
  8
0
 10
1122.138916015625
 20
549.49053955078125
 42
-0
  0
VERTEX
  8
0
 10
1150.6705322265625
 20
558.76092529296875
 42
-0.067145183682441711
  0
VERTEX
  8
0
 10
1265.547119140625
 20
576.95538330078125
 42
-0
  0
VERTEX
  8
0
 10
1295.546875
 20
576.95538330078125
 42
-0
  0
VERTEX
  8
0
 10
1295.54833984375
 20
1489.949951171875
 42
-0
  0
VERTEX
  8
0
 10
1265.54833984375
 20
1489.949951171875
 42
-0
  0
SEQEND
  0
POLYLINE
  8
0
 10
0
 20
0
 39
0
 70
1
 66
1
  0
VERTEX
  8
0
 10
2413.89208984375
 20
1290.922607421875
 42
-0
  0
VERTEX
  8
0
 10
2383.8916015625
 20
1290.922607421875
 42
-0
  0
VERTEX
  8
0
 10
2383.89208984375
 20
371.42950439453125
 42
-0
  0
VERTEX
  8
0
 10
2413.89208984375
 20
371.42950439453125
 42
-0.067145183682441711
  0
VERTEX
  8
0
 10
2528.76806640625
 20
353.23492431640625
 42
-0
  0
VERTEX
  8
0
 10
2557.2998046875
 20
343.96441650390625
 42
-0
  0
VERTEX
  8
0
 10
2911.49462890625
 20
1434.0625
 42
-0
  0
VERTEX
  8
0
 10
2882.96240234375
 20
1443.3330078125
 42
-0
  0
SEQEND
  0
POLYLINE
  8
0
 10
0
 20
0
 39
0
 70
1
 66
1
  0
VERTEX
  8
0
 10
788.24755859375
 20
209.328125
 42
-0
  0
VERTEX
  8
0
 10
818.24755859375
 20
209.327880859375
 42
-0
  0
VERTEX
  8
0
 10
818.24810791015625
 20
1370.0556640625
 42
-0
  0
VERTEX
  8
0
 10
788.24810791015625
 20
1370.0556640625
 42
-0.067145183682441711
  0
VERTEX
  8
0
 10
673.3719482421875
 20
1388.2503662109375
 42
-0
  0
VERTEX
  8
0
 10
644.8402099609375
 20
1397.5208740234375
 42
-0
  0
VERTEX
  8
0
 10
286.155029296875
 20
293.603515625
 42
-0
  0
VERTEX
  8
0
 10
314.6865234375
 20
284.3330078125
 42
-0
  0
VERTEX
  8
0
 10
513.9644775390625
 20
10.0498046875
 42
-0
  0
SEQEND
  0
POLYLINE
  8
0
 10
0
 20
0
 39
0
 70
1
 66
1
  0
VERTEX
  8
0
 10
1874.7711181640625
 20
1489.949951171875
 42
-0
  0
VERTEX
  8
0
 10
1846.239501953125
 20
1480.679443359375
 42
-0
  0
VERTEX
  8
0
 10
2200.433349609375
 20
390.581298828125
 42
-0
  0
VERTEX
  8
0
 10
2228.965087890625
 20
399.851806640625
 42
-0.067145183682441711
  0
VERTEX
  8
0
 10
2343.84130859375
 20
418.0465087890625
 42
-0
  0
VERTEX
  8
0
 10
2373.84130859375
 20
418.0465087890625
 42
-0
  0
VERTEX
  8
0
 10
2373.841796875
 20
1337.539306640625
 42
-0
  0
VERTEX
  8
0
 10
2343.841796875
 20
1337.53955078125
 42
-0
  0
SEQEND
  0
POLYLINE
  8
0
 10
0
 20
0
 39
0
 70
1
 66
1
  0
VERTEX
  8
0
 10
1335.5975341796875
 20
860.165283203125
 42
-0
  0
VERTEX
  8
0
 10
1305.5975341796875
 20
860.165283203125
 42
-0
  0
VERTEX
  8
0
 10
1305.59716796875
 20
10.05029296875
 42
-0
  0
VERTEX
  8
0
 10
1335.59716796875
 20
10.05029296875
 42
-0
  0
VERTEX
  8
0
 10
1732.604248046875
 20
10.050048828125
 42
-0
  0
VERTEX
  8
0
 10
1761.135986328125
 20
19.320556640625
 42
-0
  0
VERTEX
  8
0
 10
1479.0054931640625
 20
887.6302490234375
 42
-0
  0
VERTEX
  8
0
 10
1450.473876953125
 20
878.3597412109375
 42
-0.067145183682441711
  0
SEQEND
  0
ENDSEC
  0
EOF
