  0
SECTION
  2
ENTITIES
  0
POLYLINE
  8
0
 10
0
 20
0
 39
0
 70
1
 66
1
  0
VERTEX
  8
0
 10
0
 20
0
 42
-0
  0
VERTEX
  8
0
 10
700
 20
0
 42
-0
  0
VERTEX
  8
0
 10
700
 20
600
 42
-0
  0
VERTEX
  8
0
 10
0
 20
600
 42
-0
  0
SEQEND
  0
POLYLINE
  8
0
 10
0
 20
0
 39
0
 70
1
 66
1
  0
VERTEX
  8
0
 10
411.68799999999999
 20
162.90998840332031
 42
0
  0
VERTEX
  8
0
 10
411.68799999999999
 20
10
 42
0
  0
VERTEX
  8
0
 10
496.18799999999999
 20
10
 42
0
  0
VERTEX
  8
0
 10
496.18799999999999
 20
315.82998657226562
 42
0
  0
SEQEND
  0
POLYLINE
  8
0
 10
0
 20
0
 39
0
 70
1
 66
1
  0
VERTEX
  8
0
 10
496.18800000000005
 20
336.87915477294916
 42
0
  0
VERTEX
  8
0
 10
496.18799999999999
 20
489.78914317626948
 42
0
  0
VERTEX
  8
0
 10
411.68799999999999
 20
489.78914317626948
 42
0
  0
VERTEX
  8
0
 10
411.68800000000005
 20
183.95915660400385
 42
0
  0
SEQEND
  0
POLYLINE
  8
0
 10
0
 20
0
 39
0
 70
1
 66
1
  0
VERTEX
  8
0
 10
470
 20
499.78914317626948
 42
0
  0
VERTEX
  8
0
 10
690
 20
499.78914317626948
 42
0
  0
VERTEX
  8
0
 10
690
 20
579.78914317626948
 42
0
  0
VERTEX
  8
0
 10
470
 20
579.78914317626948
 42
0
  0
SEQEND
  0
POLYLINE
  8
0
 10
0
 20
0
 39
0
 70
1
 66
1
  0
VERTEX
  8
0
 10
10
 20
499.78914317626948
 42
0
  0
VERTEX
  8
0
 10
230
 20
499.78914317626948
 42
0
  0
VERTEX
  8
0
 10
230
 20
579.78914317626948
 42
0
  0
VERTEX
  8
0
 10
10
 20
579.78914317626948
 42
0
  0
SEQEND
  0
POLYLINE
  8
0
 10
0
 20
0
 39
0
 70
1
 66
1
  0
VERTEX
  8
0
 10
600.68799999999999
 20
230
 42
0
  0
VERTEX
  8
0
 10
600.68799999999999
 20
10
 42
0
  0
VERTEX
  8
0
 10
680.68799999999999
 20
10
 42
0
  0
VERTEX
  8
0
 10
680.68799999999999
 20
230
 42
0
  0
SEQEND
  0
POLYLINE
  8
0
 10
0
 20
0
 39
0
 70
1
 66
1
  0
VERTEX
  8
0
 10
600.68799999999999
 20
460
 42
0
  0
VERTEX
  8
0
 10
600.68799999999999
 20
240
 42
0
  0
VERTEX
  8
0
 10
680.68799999999999
 20
240
 42
0
  0
VERTEX
  8
0
 10
680.68799999999999
 20
460
 42
0
  0
SEQEND
  0
POLYLINE
  8
0
 10
0
 20
0
 39
0
 70
1
 66
1
  0
VERTEX
  8
0
 10
125
 20
194.26499999999993
 42
0
  0
VERTEX
  8
0
 10
80
 20
324.26499999999993
 42
0
  0
VERTEX
  8
0
 10
65
 20
324.26499999999993
 42
0
  0
VERTEX
  8
0
 10
65
 20
184.26499999999993
 42
0
  0
VERTEX
  8
0
 10
75
 20
174.26499999999993
 42
0
  0
VERTEX
  8
0
 10
125
 20
174.26499999999993
 42
0
  0
SEQEND
  0
POLYLINE
  8
0
 10
0
 20
0
 39
0
 70
1
 66
1
  0
VERTEX
  8
0
 10
97.687999999999988
 20
304.26499999999993
 42
0
  0
VERTEX
  8
0
 10
142.68800000000002
 20
174.26499999999993
 42
0
  0
VERTEX
  8
0
 10
157.68800000000002
 20
174.26499999999993
 42
0
  0
VERTEX
  8
0
 10
157.68799999999999
 20
314.26499999999993
 42
0
  0
VERTEX
  8
0
 10
147.68799999999999
 20
324.26499999999993
 42
0
  0
VERTEX
  8
0
 10
97.687999999999988
 20
324.26499999999993
 42
0
  0
SEQEND
  0
POLYLINE
  8
0
 10
0
 20
0
 39
0
 70
1
 66
1
  0
VERTEX
  8
0
 10
506.18799999999999
 20
162.90998840332031
 42
0
  0
VERTEX
  8
0
 10
506.18799999999999
 20
10
 42
0
  0
VERTEX
  8
0
 10
590.68799999999999
 20
10
 42
0
  0
VERTEX
  8
0
 10
590.68799999999999
 20
315.82998657226562
 42
0
  0
SEQEND
  0
POLYLINE
  8
0
 10
0
 20
0
 39
0
 70
1
 66
1
  0
VERTEX
  8
0
 10
590.6880000000001
 20
336.87915477294916
 42
0
  0
VERTEX
  8
0
 10
590.6880000000001
 20
489.78914317626948
 42
0
  0
VERTEX
  8
0
 10
506.18800000000005
 20
489.78914317626948
 42
0
  0
VERTEX
  8
0
 10
506.1880000000001
 20
183.95915660400385
 42
0
  0
SEQEND
  0
POLYLINE
  8
0
 10
0
 20
0
 39
0
 70
1
 66
1
  0
VERTEX
  8
0
 10
240
 20
499.78914317626948
 42
0
  0
VERTEX
  8
0
 10
460
 20
499.78914317626948
 42
0
  0
VERTEX
  8
0
 10
460
 20
579.78914317626948
 42
0
  0
VERTEX
  8
0
 10
240
 20
579.78914317626948
 42
0
  0
SEQEND
  0
POLYLINE
  8
0
 10
0
 20
0
 39
0
 70
1
 66
1
  0
VERTEX
  8
0
 10
167.68800000000002
 20
310
 42
0
  0
VERTEX
  8
0
 10
167.68800000000005
 20
10
 42
-0
  0
VERTEX
  8
0
 10
190.99331501770024
 20
10
 42
-0
  0
VERTEX
  8
0
 10
212.68800000000005
 20
37.564361572265625
 42
-0
  0
VERTEX
  8
0
 10
212.68800000000002
 20
310
 42
-0
  0
SEQEND
  0
POLYLINE
  8
0
 10
0
 20
0
 39
0
 70
1
 66
1
  0
VERTEX
  8
0
 10
10
 20
474.26499999999993
 42
0
  0
VERTEX
  8
0
 10
10.000000000000018
 20
174.26499999999993
 42
-0
  0
VERTEX
  8
0
 10
33.30531501770021
 20
174.26499999999993
 42
-0
  0
VERTEX
  8
0
 10
55.000000000000014
 20
201.82936157226555
 42
-0
  0
VERTEX
  8
0
 10
55
 20
474.26499999999993
 42
-0
  0
SEQEND
  0
POLYLINE
  8
0
 10
0
 20
0
 39
0
 70
1
 66
1
  0
VERTEX
  8
0
 10
222.68799999999999
 20
162.90998840332031
 42
0
  0
VERTEX
  8
0
 10
222.68800000000002
 20
10
 42
0
  0
VERTEX
  8
0
 10
307.18799999999999
 20
10
 42
0
  0
VERTEX
  8
0
 10
307.18799999999999
 20
315.82998657226562
 42
0
  0
SEQEND
  0
POLYLINE
  8
0
 10
0
 20
0
 39
0
 70
1
 66
1
  0
VERTEX
  8
0
 10
307.18800000000005
 20
336.87915477294916
 42
0
  0
VERTEX
  8
0
 10
307.18799999999999
 20
489.78914317626948
 42
0
  0
VERTEX
  8
0
 10
222.68799999999999
 20
489.78914317626948
 42
0
  0
VERTEX
  8
0
 10
222.68800000000005
 20
183.95915660400385
 42
0
  0
SEQEND
  0
POLYLINE
  8
0
 10
0
 20
0
 39
0
 70
1
 66
1
  0
VERTEX
  8
0
 10
205
 20
488.52999999999986
 42
0
  0
VERTEX
  8
0
 10
65
 20
488.52999999999986
 42
0
  0
VERTEX
  8
0
 10
65
 20
348.52999999999986
 42
0
  0
SEQEND
  0
POLYLINE
  8
0
 10
0
 20
0
 39
0
 70
1
 66
1
  0
VERTEX
  8
0
 10
65.000000000000028
 20
334.26499999999987
 42
0
  0
VERTEX
  8
0
 10
205.00000000000003
 20
334.26499999999993
 42
0
  0
VERTEX
  8
0
 10
205
 20
474.26499999999993
 42
0
  0
SEQEND
  0
POLYLINE
  8
0
 10
0
 20
0
 39
0
 70
1
 66
1
  0
VERTEX
  8
0
 10
150
 20
164.26499999999993
 42
0
  0
VERTEX
  8
0
 10
10
 20
164.26499999999993
 42
0
  0
VERTEX
  8
0
 10
10
 20
24.264999999999944
 42
0
  0
SEQEND
  0
POLYLINE
  8
0
 10
0
 20
0
 39
0
 70
1
 66
1
  0
VERTEX
  8
0
 10
10.000000000000028
 20
10
 42
0
  0
VERTEX
  8
0
 10
150.00000000000003
 20
10.000000000000028
 42
0
  0
VERTEX
  8
0
 10
150
 20
150.00000000000003
 42
0
  0
SEQEND
  0
POLYLINE
  8
0
 10
0
 20
0
 39
0
 70
1
 66
1
  0
VERTEX
  8
0
 10
317.18799999999999
 20
162.90998840332031
 42
0
  0
VERTEX
  8
0
 10
317.18799999999999
 20
10
 42
0
  0
VERTEX
  8
0
 10
401.68799999999999
 20
10
 42
0
  0
VERTEX
  8
0
 10
401.68799999999999
 20
315.82998657226562
 42
0
  0
SEQEND
  0
POLYLINE
  8
0
 10
0
 20
0
 39
0
 70
1
 66
1
  0
VERTEX
  8
0
 10
401.68800000000005
 20
336.87915477294916
 42
0
  0
VERTEX
  8
0
 10
401.68799999999999
 20
489.78914317626948
 42
0
  0
VERTEX
  8
0
 10
317.18799999999999
 20
489.78914317626948
 42
0
  0
VERTEX
  8
0
 10
317.18800000000005
 20
183.95915660400385
 42
0
  0
SEQEND
  0
ENDSEC
  0
EOF
