  0
SECTION
  2
ENTITIES
  0
POLYLINE
  8
0
 10
0
 20
0
 39
0
 70
1
 66
1
  0
VERTEX
  8
0
 10
0
 20
0
 42
-0
  0
VERTEX
  8
0
 10
1000
 20
0
 42
-0
  0
VERTEX
  8
0
 10
1000
 20
700
 42
-0
  0
VERTEX
  8
0
 10
0
 20
700
 42
-0
  0
SEQEND
  0
POLYLINE
  8
0
 10
0
 20
0
 39
0
 70
1
 66
1
  0
VERTEX
  8
0
 10
680
 20
40
 42
0
  0
VERTEX
  8
0
 10
680
 20
159
 42
0
  0
VERTEX
  8
0
 10
350
 20
309
 42
0
  0
VERTEX
  8
0
 10
350
 20
40
 42
0
  0
VERTEX
  8
0
 10
380
 20
10
 42
0
  0
VERTEX
  8
0
 10
650
 20
10
 42
0
  0
SEQEND
  0
POLYLINE
  8
0
 10
0
 20
0
 39
0
 70
1
 66
1
  0
VERTEX
  8
0
 10
350
 20
439.34399999999994
 42
0
  0
VERTEX
  8
0
 10
350
 20
320.34399999999994
 42
0
  0
VERTEX
  8
0
 10
680
 20
170.34399999999997
 42
0
  0
VERTEX
  8
0
 10
680
 20
439.34399999999999
 42
0
  0
VERTEX
  8
0
 10
650
 20
469.34399999999994
 42
0
  0
VERTEX
  8
0
 10
380
 20
469.34399999999994
 42
0
  0
SEQEND
  0
POLYLINE
  8
0
 10
0
 20
0
 39
0
 70
1
 66
1
  0
VERTEX
  8
0
 10
721.5697691179812
 20
544.48276540213828
 42
0
  0
VERTEX
  8
0
 10
721.09858405217528
 20
562.47659739428764
 42
0
  0
VERTEX
  8
0
 10
676.1140040718019
 20
561.29863472977286
 42
0
  0
VERTEX
  8
0
 10
673.68030310980976
 20
558.73404902727907
 42
0
  0
VERTEX
  8
0
 10
543.72484983317554
 20
555.33104577423637
 42
0
  0
VERTEX
  8
0
 10
536.03109272569418
 20
562.63214866021281
 42
0
  0
VERTEX
  8
0
 10
491.0465127453208
 20
561.45418599569803
 42
0
  0
VERTEX
  8
0
 10
491.51769781112671
 20
543.46035400354867
 42
0
  0
VERTEX
  8
0
 10
494.59520065411925
 20
540.5399128491581
 42
0
  0
VERTEX
  8
0
 10
526.58423530682921
 20
541.37757518836861
 42
0
  0
VERTEX
  8
0
 10
545.21446922235191
 20
479.34400000000005
 42
0
  0
VERTEX
  8
0
 10
667.17266383580863
 20
482.53758766824012
 42
0
  0
VERTEX
  8
0
 10
680.66234931349754
 20
540.41053853133326
 42
0
  0
VERTEX
  8
0
 10
718.64932796359062
 20
541.40526255914574
 42
0
  0
SEQEND
  0
POLYLINE
  8
0
 10
0
 20
0
 39
0
 70
1
 66
1
  0
VERTEX
  8
0
 10
240.5232563726604
 20
637.77091406235104
 42
0
  0
VERTEX
  8
0
 10
240.05207130685449
 20
655.76474605450039
 42
0
  0
VERTEX
  8
0
 10
195.0674913264811
 20
654.58678338998561
 42
0
  0
VERTEX
  8
0
 10
192.63379036448896
 20
652.02219768749183
 42
0
  0
VERTEX
  8
0
 10
62.678337087854743
 20
648.61919443444913
 42
0
  0
VERTEX
  8
0
 10
54.984579980373383
 20
655.92029732042556
 42
0
  0
VERTEX
  8
0
 10
10
 20
654.74233465591078
 42
0
  0
VERTEX
  8
0
 10
10.471185065805912
 20
636.74850266376143
 42
0
  0
VERTEX
  8
0
 10
13.548687908798456
 20
633.82806150937085
 42
0
  0
VERTEX
  8
0
 10
45.537722561508417
 20
634.66572384858137
 42
0
  0
VERTEX
  8
0
 10
64.167956477031112
 20
572.63214866021281
 42
0
  0
VERTEX
  8
0
 10
186.12615109048784
 20
575.82573632845288
 42
0
  0
VERTEX
  8
0
 10
199.61583656817675
 20
633.69868719154601
 42
0
  0
VERTEX
  8
0
 10
237.60281521826982
 20
634.6934112193585
 42
0
  0
SEQEND
  0
POLYLINE
  8
0
 10
0
 20
0
 39
0
 70
1
 66
1
  0
VERTEX
  8
0
 10
721.5697691179812
 20
637.77091406235104
 42
0
  0
VERTEX
  8
0
 10
721.09858405217528
 20
655.76474605450039
 42
0
  0
VERTEX
  8
0
 10
676.1140040718019
 20
654.58678338998561
 42
0
  0
VERTEX
  8
0
 10
673.68030310980976
 20
652.02219768749183
 42
0
  0
VERTEX
  8
0
 10
543.72484983317554
 20
648.61919443444913
 42
0
  0
VERTEX
  8
0
 10
536.03109272569418
 20
655.92029732042556
 42
0
  0
VERTEX
  8
0
 10
491.0465127453208
 20
654.74233465591078
 42
0
  0
VERTEX
  8
0
 10
491.51769781112671
 20
636.74850266376143
 42
0
  0
VERTEX
  8
0
 10
494.59520065411925
 20
633.82806150937085
 42
0
  0
VERTEX
  8
0
 10
526.58423530682921
 20
634.66572384858137
 42
0
  0
VERTEX
  8
0
 10
545.21446922235191
 20
572.63214866021281
 42
0
  0
VERTEX
  8
0
 10
667.17266383580863
 20
575.82573632845288
 42
0
  0
VERTEX
  8
0
 10
680.66234931349754
 20
633.69868719154601
 42
0
  0
VERTEX
  8
0
 10
718.64932796359062
 20
634.6934112193585
 42
0
  0
SEQEND
  0
POLYLINE
  8
0
 10
0
 20
0
 39
0
 70
1
 66
1
  0
VERTEX
  8
0
 10
481.0465127453208
 20
544.48276540213828
 42
0
  0
VERTEX
  8
0
 10
480.57532767951488
 20
562.47659739428764
 42
0
  0
VERTEX
  8
0
 10
435.5907476991415
 20
561.29863472977286
 42
0
  0
VERTEX
  8
0
 10
433.15704673714936
 20
558.73404902727907
 42
0
  0
VERTEX
  8
0
 10
303.20159346051514
 20
555.33104577423637
 42
0
  0
VERTEX
  8
0
 10
295.50783635303378
 20
562.63214866021281
 42
0
  0
VERTEX
  8
0
 10
250.5232563726604
 20
561.45418599569803
 42
0
  0
VERTEX
  8
0
 10
250.99444143846631
 20
543.46035400354867
 42
0
  0
VERTEX
  8
0
 10
254.07194428145885
 20
540.5399128491581
 42
0
  0
VERTEX
  8
0
 10
286.06097893416882
 20
541.37757518836861
 42
0
  0
VERTEX
  8
0
 10
304.69121284969151
 20
479.34400000000005
 42
0
  0
VERTEX
  8
0
 10
426.64940746314824
 20
482.53758766824012
 42
0
  0
VERTEX
  8
0
 10
440.13909294083714
 20
540.41053853133326
 42
0
  0
VERTEX
  8
0
 10
478.12607159093022
 20
541.40526255914574
 42
0
  0
SEQEND
  0
POLYLINE
  8
0
 10
0
 20
0
 39
0
 70
1
 66
1
  0
VERTEX
  8
0
 10
749.71915237605572
 20
630.52327926084399
 42
0
  0
VERTEX
  8
0
 10
731.72532038390636
 20
630.05209419503808
 42
0
  0
VERTEX
  8
0
 10
732.90328304842114
 20
585.0675142146647
 42
0
  0
VERTEX
  8
0
 10
735.46786875091493
 20
582.63381325267255
 42
0
  0
VERTEX
  8
0
 10
738.87087200395763
 20
452.67835997603834
 42
0
  0
VERTEX
  8
0
 10
731.5697691179812
 20
444.98460286855698
 42
0
  0
VERTEX
  8
0
 10
732.74773178249598
 20
400.00002288818359
 42
0
  0
VERTEX
  8
0
 10
750.74156377464533
 20
400.47120795398951
 42
0
  0
VERTEX
  8
0
 10
753.6620049290359
 20
403.54871079698205
 42
0
  0
VERTEX
  8
0
 10
752.82434258982539
 20
435.53774544969201
 42
0
  0
VERTEX
  8
0
 10
814.85791777819395
 20
454.16797936521471
 42
0
  0
VERTEX
  8
0
 10
811.66433010995388
 20
576.12617397867143
 42
0
  0
VERTEX
  8
0
 10
753.79137924686074
 20
589.61585945636034
 42
0
  0
VERTEX
  8
0
 10
752.79665521904826
 20
627.60283810645342
 42
0
  0
SEQEND
  0
POLYLINE
  8
0
 10
0
 20
0
 39
0
 70
1
 66
1
  0
VERTEX
  8
0
 10
940
 20
114.00000762939453
 42
0.41421356797218323
  0
VERTEX
  8
0
 10
924
 20
130.00000762939453
 42
0
  0
VERTEX
  8
0
 10
870
 20
130.00000762939453
 42
-0
  0
VERTEX
  8
0
 10
870
 20
66.000007629394531
 42
-0
  0
VERTEX
  8
0
 10
820
 20
66.000007629394531
 42
0
  0
VERTEX
  8
0
 10
820
 20
26
 42
0.41421356797218323
  0
VERTEX
  8
0
 10
836
 20
10
 42
0
  0
VERTEX
  8
0
 10
924
 20
10
 42
0.41421356797218323
  0
VERTEX
  8
0
 10
940
 20
26
 42
0
  0
SEQEND
  0
POLYLINE
  8
0
 10
0
 20
0
 39
0
 70
1
 66
1
  0
VERTEX
  8
0
 10
481.0465127453208
 20
637.77091406235104
 42
0
  0
VERTEX
  8
0
 10
480.57532767951488
 20
655.76474605450039
 42
0
  0
VERTEX
  8
0
 10
435.5907476991415
 20
654.58678338998561
 42
0
  0
VERTEX
  8
0
 10
433.15704673714936
 20
652.02219768749183
 42
0
  0
VERTEX
  8
0
 10
303.20159346051514
 20
648.61919443444913
 42
0
  0
VERTEX
  8
0
 10
295.50783635303378
 20
655.92029732042556
 42
0
  0
VERTEX
  8
0
 10
250.5232563726604
 20
654.74233465591078
 42
0
  0
VERTEX
  8
0
 10
250.99444143846631
 20
636.74850266376143
 42
0
  0
VERTEX
  8
0
 10
254.07194428145885
 20
633.82806150937085
 42
0
  0
VERTEX
  8
0
 10
286.06097893416882
 20
634.66572384858137
 42
0
  0
VERTEX
  8
0
 10
304.69121284969151
 20
572.63214866021281
 42
0
  0
VERTEX
  8
0
 10
426.64940746314824
 20
575.82573632845288
 42
0
  0
VERTEX
  8
0
 10
440.13909294083714
 20
633.69868719154601
 42
0
  0
VERTEX
  8
0
 10
478.12607159093022
 20
634.6934112193585
 42
0
  0
SEQEND
  0
POLYLINE
  8
0
 10
0
 20
0
 39
0
 70
1
 66
1
  0
VERTEX
  8
0
 10
810
 20
114.00000762939453
 42
0.41421356797218323
  0
VERTEX
  8
0
 10
794
 20
130.00000762939453
 42
0
  0
VERTEX
  8
0
 10
740
 20
130.00000762939453
 42
-0
  0
VERTEX
  8
0
 10
740
 20
66.000007629394531
 42
-0
  0
VERTEX
  8
0
 10
690
 20
66.000007629394531
 42
0
  0
VERTEX
  8
0
 10
690
 20
26
 42
0.41421356797218323
  0
VERTEX
  8
0
 10
706
 20
10
 42
0
  0
VERTEX
  8
0
 10
794
 20
10
 42
0.41421356797218323
  0
VERTEX
  8
0
 10
810
 20
26
 42
0
  0
SEQEND
  0
POLYLINE
  8
0
 10
0
 20
0
 39
0
 70
1
 66
1
  0
VERTEX
  8
0
 10
240.5232563726604
 20
544.48276540213828
 42
0
  0
VERTEX
  8
0
 10
240.05207130685449
 20
562.47659739428764
 42
0
  0
VERTEX
  8
0
 10
195.0674913264811
 20
561.29863472977286
 42
0
  0
VERTEX
  8
0
 10
192.63379036448896
 20
558.73404902727907
 42
0
  0
VERTEX
  8
0
 10
62.678337087854743
 20
555.33104577423637
 42
0
  0
VERTEX
  8
0
 10
54.984579980373383
 20
562.63214866021281
 42
0
  0
VERTEX
  8
0
 10
10
 20
561.45418599569803
 42
0
  0
VERTEX
  8
0
 10
10.471185065805912
 20
543.46035400354867
 42
0
  0
VERTEX
  8
0
 10
13.548687908798456
 20
540.5399128491581
 42
0
  0
VERTEX
  8
0
 10
45.537722561508417
 20
541.37757518836861
 42
0
  0
VERTEX
  8
0
 10
64.167956477031112
 20
479.34400000000005
 42
0
  0
VERTEX
  8
0
 10
186.12615109048784
 20
482.53758766824012
 42
0
  0
VERTEX
  8
0
 10
199.61583656817675
 20
540.41053853133326
 42
0
  0
VERTEX
  8
0
 10
237.60281521826982
 20
541.40526255914574
 42
0
  0
SEQEND
  0
POLYLINE
  8
0
 10
0
 20
0
 39
0
 70
1
 66
1
  0
VERTEX
  8
0
 10
810
 20
244.00001525878906
 42
0.41421356797218323
  0
VERTEX
  8
0
 10
794
 20
260.00001525878906
 42
0
  0
VERTEX
  8
0
 10
740
 20
260.00001525878906
 42
-0
  0
VERTEX
  8
0
 10
740
 20
196.00001525878906
 42
-0
  0
VERTEX
  8
0
 10
690
 20
196.00001525878906
 42
0
  0
VERTEX
  8
0
 10
690
 20
156.00000762939453
 42
0.41421356797218323
  0
VERTEX
  8
0
 10
706
 20
140.00000762939453
 42
0
  0
VERTEX
  8
0
 10
794
 20
140.00000762939453
 42
0.41421356797218323
  0
VERTEX
  8
0
 10
810
 20
156.00000762939453
 42
0
  0
SEQEND
  0
POLYLINE
  8
0
 10
0
 20
0
 39
0
 70
1
 66
1
  0
VERTEX
  8
0
 10
843.00730103626847
 20
630.52327926084399
 42
0
  0
VERTEX
  8
0
 10
825.01346904411912
 20
630.05209419503808
 42
0
  0
VERTEX
  8
0
 10
826.1914317086339
 20
585.0675142146647
 42
0
  0
VERTEX
  8
0
 10
828.75601741112769
 20
582.63381325267255
 42
0
  0
VERTEX
  8
0
 10
832.15902066417038
 20
452.67835997603834
 42
0
  0
VERTEX
  8
0
 10
824.85791777819395
 20
444.98460286855698
 42
0
  0
VERTEX
  8
0
 10
826.03588044270873
 20
400.00002288818359
 42
0
  0
VERTEX
  8
0
 10
844.02971243485808
 20
400.47120795398951
 42
0
  0
VERTEX
  8
0
 10
846.95015358924866
 20
403.54871079698205
 42
0
  0
VERTEX
  8
0
 10
846.11249125003815
 20
435.53774544969201
 42
0
  0
VERTEX
  8
0
 10
908.14606643840671
 20
454.16797936521471
 42
0
  0
VERTEX
  8
0
 10
904.95247877016664
 20
576.12617397867143
 42
0
  0
VERTEX
  8
0
 10
847.0795279070735
 20
589.61585945636034
 42
0
  0
VERTEX
  8
0
 10
846.08480387926102
 20
627.60283810645342
 42
0
  0
SEQEND
  0
POLYLINE
  8
0
 10
0
 20
0
 39
0
 70
1
 66
1
  0
VERTEX
  8
0
 10
940
 20
244.00001525878906
 42
0.41421356797218323
  0
VERTEX
  8
0
 10
924
 20
260.00001525878906
 42
0
  0
VERTEX
  8
0
 10
870
 20
260.00001525878906
 42
-0
  0
VERTEX
  8
0
 10
870
 20
196.00001525878906
 42
-0
  0
VERTEX
  8
0
 10
820
 20
196.00001525878906
 42
0
  0
VERTEX
  8
0
 10
820
 20
156.00000762939453
 42
0.41421356797218323
  0
VERTEX
  8
0
 10
836
 20
140.00000762939453
 42
0
  0
VERTEX
  8
0
 10
924
 20
140.00000762939453
 42
0.41421356797218323
  0
VERTEX
  8
0
 10
940
 20
156.00000762939453
 42
0
  0
SEQEND
  0
POLYLINE
  8
0
 10
0
 20
0
 39
0
 70
1
 66
1
  0
VERTEX
  8
0
 10
940
 20
374.00002288818359
 42
0.41421356797218323
  0
VERTEX
  8
0
 10
924
 20
390.00002288818359
 42
0
  0
VERTEX
  8
0
 10
870
 20
390.00002288818359
 42
-0
  0
VERTEX
  8
0
 10
870
 20
326.00002288818359
 42
-0
  0
VERTEX
  8
0
 10
820
 20
326.00002288818359
 42
0
  0
VERTEX
  8
0
 10
820
 20
286.00001525878906
 42
0.41421356797218323
  0
VERTEX
  8
0
 10
836
 20
270.00001525878906
 42
0
  0
VERTEX
  8
0
 10
924
 20
270.00001525878906
 42
0.41421356797218323
  0
VERTEX
  8
0
 10
940
 20
286.00001525878906
 42
0
  0
SEQEND
  0
POLYLINE
  8
0
 10
0
 20
0
 39
0
 70
1
 66
1
  0
VERTEX
  8
0
 10
810
 20
374.00002288818359
 42
0.41421356797218323
  0
VERTEX
  8
0
 10
794
 20
390.00002288818359
 42
0
  0
VERTEX
  8
0
 10
740
 20
390.00002288818359
 42
-0
  0
VERTEX
  8
0
 10
740
 20
326.00002288818359
 42
-0
  0
VERTEX
  8
0
 10
690
 20
326.00002288818359
 42
0
  0
VERTEX
  8
0
 10
690
 20
286.00001525878906
 42
0.41421356797218323
  0
VERTEX
  8
0
 10
706
 20
270.00001525878906
 42
0
  0
VERTEX
  8
0
 10
794
 20
270.00001525878906
 42
0.41421356797218323
  0
VERTEX
  8
0
 10
810
 20
286.00001525878906
 42
0
  0
SEQEND
  0
POLYLINE
  8
0
 10
0
 20
0
 39
0
 70
1
 66
1
  0
VERTEX
  8
0
 10
340
 20
40
 42
0
  0
VERTEX
  8
0
 10
340
 20
159
 42
0
  0
VERTEX
  8
0
 10
10
 20
309
 42
0
  0
VERTEX
  8
0
 10
10
 20
40
 42
0
  0
VERTEX
  8
0
 10
40
 20
10
 42
0
  0
VERTEX
  8
0
 10
310
 20
10
 42
0
  0
SEQEND
  0
POLYLINE
  8
0
 10
0
 20
0
 39
0
 70
1
 66
1
  0
VERTEX
  8
0
 10
9.9999999999999858
 20
439.34399999999994
 42
0
  0
VERTEX
  8
0
 10
10
 20
320.34399999999994
 42
0
  0
VERTEX
  8
0
 10
340
 20
170.34399999999997
 42
0
  0
VERTEX
  8
0
 10
340
 20
439.34399999999999
 42
0
  0
VERTEX
  8
0
 10
310
 20
469.34399999999994
 42
0
  0
VERTEX
  8
0
 10
39.999999999999986
 20
469.34399999999994
 42
0
  0
SEQEND
  0
ENDSEC
  0
EOF
