  0
SECTION
  2
ENTITIES
  0
POLYLINE
  8
0
 10
0
 20
0
 39
0
 70
1
 66
1
  0
VERTEX
  8
0
 10
0
 20
0
 42
-0
  0
VERTEX
  8
0
 10
600
 20
0
 42
-0
  0
VERTEX
  8
0
 10
600
 20
400
 42
-0
  0
VERTEX
  8
0
 10
0
 20
400
 42
-0
  0
SEQEND
  0
POLYLINE
  8
0
 10
0
 20
0
 39
0
 70
1
 66
1
  0
VERTEX
  8
0
 10
116
 20
130
 42
-0
  0
VERTEX
  8
0
 10
116
 20
10
 42
-0
  0
VERTEX
  8
0
 10
212
 20
10
 42
-0
  0
VERTEX
  8
0
 10
212
 20
130
 42
-0
  0
SEQEND
  0
POLYLINE
  8
0
 10
0
 20
0
 39
0
 70
1
 66
1
  0
VERTEX
  8
0
 10
10
 20
390
 42
-0
  0
VERTEX
  8
0
 10
10
 20
270
 42
-0
  0
VERTEX
  8
0
 10
106
 20
270
 42
-0
  0
VERTEX
  8
0
 10
106
 20
390
 42
-0
  0
SEQEND
  0
POLYLINE
  8
0
 10
0
 20
0
 39
0
 70
1
 66
1
  0
VERTEX
  8
0
 10
485
 20
327.57000732421875
 42
-0
  0
VERTEX
  8
0
 10
485
 20
207.57000732421875
 42
-0
  0
VERTEX
  8
0
 10
581
 20
207.57000732421875
 42
-0
  0
VERTEX
  8
0
 10
581
 20
327.57000732421875
 42
-0
  0
SEQEND
  0
POLYLINE
  8
0
 10
0
 20
0
 39
0
 70
1
 66
1
  0
VERTEX
  8
0
 10
10
 20
260
 42
-0
  0
VERTEX
  8
0
 10
10
 20
140
 42
-0
  0
VERTEX
  8
0
 10
106
 20
140
 42
-0
  0
VERTEX
  8
0
 10
106
 20
260
 42
-0
  0
SEQEND
  0
POLYLINE
  8
0
 10
0
 20
0
 39
0
 70
1
 66
1
  0
VERTEX
  8
0
 10
412
 20
38.784999847412109
 42
0
  0
VERTEX
  8
0
 10
487
 20
88.785003662109375
 42
0
  0
VERTEX
  8
0
 10
487
 20
98.785003662109375
 42
0
  0
VERTEX
  8
0
 10
402
 20
98.785003662109375
 42
0
  0
VERTEX
  8
0
 10
402
 20
38.784999847412109
 42
0
  0
SEQEND
  0
POLYLINE
  8
0
 10
0
 20
0
 39
0
 70
1
 66
1
  0
VERTEX
  8
0
 10
477
 20
70
 42
0
  0
VERTEX
  8
0
 10
402
 20
20
 42
0
  0
VERTEX
  8
0
 10
402
 20
10
 42
0
  0
VERTEX
  8
0
 10
487
 20
10
 42
0
  0
VERTEX
  8
0
 10
487
 20
70
 42
0
  0
SEQEND
  0
POLYLINE
  8
0
 10
0
 20
0
 39
0
 70
1
 66
1
  0
VERTEX
  8
0
 10
116
 20
260
 42
-0
  0
VERTEX
  8
0
 10
116
 20
140
 42
-0
  0
VERTEX
  8
0
 10
212
 20
140
 42
-0
  0
VERTEX
  8
0
 10
212
 20
260
 42
-0
  0
SEQEND
  0
POLYLINE
  8
0
 10
0
 20
0
 39
0
 70
1
 66
1
  0
VERTEX
  8
0
 10
507
 20
38.784999847412109
 42
0
  0
VERTEX
  8
0
 10
582
 20
88.785003662109375
 42
0
  0
VERTEX
  8
0
 10
582
 20
98.785003662109375
 42
0
  0
VERTEX
  8
0
 10
497
 20
98.785003662109375
 42
0
  0
VERTEX
  8
0
 10
497
 20
38.784999847412109
 42
0
  0
SEQEND
  0
POLYLINE
  8
0
 10
0
 20
0
 39
0
 70
1
 66
1
  0
VERTEX
  8
0
 10
572
 20
70
 42
0
  0
VERTEX
  8
0
 10
497
 20
20
 42
0
  0
VERTEX
  8
0
 10
497
 20
10
 42
0
  0
VERTEX
  8
0
 10
582
 20
10
 42
0
  0
VERTEX
  8
0
 10
582
 20
70
 42
0
  0
SEQEND
  0
POLYLINE
  8
0
 10
0
 20
0
 39
0
 70
1
 66
1
  0
VERTEX
  8
0
 10
10
 20
130
 42
-0
  0
VERTEX
  8
0
 10
10
 20
10
 42
-0
  0
VERTEX
  8
0
 10
106
 20
10
 42
-0
  0
VERTEX
  8
0
 10
106
 20
130
 42
-0
  0
SEQEND
  0
POLYLINE
  8
0
 10
0
 20
0
 39
0
 70
1
 66
1
  0
VERTEX
  8
0
 10
340
 20
252.78500366210937
 42
0
  0
VERTEX
  8
0
 10
415
 20
302.78500366210937
 42
0
  0
VERTEX
  8
0
 10
415
 20
312.78500366210937
 42
0
  0
VERTEX
  8
0
 10
330
 20
312.78500366210937
 42
0
  0
VERTEX
  8
0
 10
330
 20
252.78500366210937
 42
0
  0
SEQEND
  0
POLYLINE
  8
0
 10
0
 20
0
 39
0
 70
1
 66
1
  0
VERTEX
  8
0
 10
405
 20
284
 42
0
  0
VERTEX
  8
0
 10
330
 20
234
 42
0
  0
VERTEX
  8
0
 10
330
 20
224
 42
0
  0
VERTEX
  8
0
 10
415
 20
224
 42
0
  0
VERTEX
  8
0
 10
415
 20
284
 42
0
  0
SEQEND
  0
POLYLINE
  8
0
 10
0
 20
0
 39
0
 70
1
 66
1
  0
VERTEX
  8
0
 10
425
 20
287.78500366210937
 42
0
  0
VERTEX
  8
0
 10
425
 20
133.78500366210937
 42
1
  0
VERTEX
  8
0
 10
475
 20
133.78500366210937
 42
0
  0
VERTEX
  8
0
 10
475
 20
287.78500366210937
 42
1
  0
SEQEND
  0
POLYLINE
  8
0
 10
0
 20
0
 39
0
 70
1
 66
1
  0
VERTEX
  8
0
 10
141
 20
270
 42
0
  0
VERTEX
  8
0
 10
295
 20
270
 42
1
  0
VERTEX
  8
0
 10
295
 20
320
 42
0
  0
VERTEX
  8
0
 10
141
 20
320
 42
1
  0
SEQEND
  0
POLYLINE
  8
0
 10
0
 20
0
 39
0
 70
1
 66
1
  0
VERTEX
  8
0
 10
282
 20
189
 42
0
  0
VERTEX
  8
0
 10
282
 20
35
 42
1
  0
VERTEX
  8
0
 10
332
 20
35
 42
0
  0
VERTEX
  8
0
 10
332
 20
189
 42
1
  0
SEQEND
  0
POLYLINE
  8
0
 10
0
 20
0
 39
0
 70
1
 66
1
  0
VERTEX
  8
0
 10
222
 20
189
 42
0
  0
VERTEX
  8
0
 10
222
 20
35
 42
1
  0
VERTEX
  8
0
 10
272
 20
35
 42
0
  0
VERTEX
  8
0
 10
272
 20
189
 42
1
  0
SEQEND
  0
POLYLINE
  8
0
 10
0
 20
0
 39
0
 70
1
 66
1
  0
VERTEX
  8
0
 10
141
 20
330
 42
0
  0
VERTEX
  8
0
 10
295
 20
330
 42
1
  0
VERTEX
  8
0
 10
295
 20
380
 42
0
  0
VERTEX
  8
0
 10
141
 20
380
 42
1
  0
SEQEND
  0
POLYLINE
  8
0
 10
0
 20
0
 39
0
 70
1
 66
1
  0
VERTEX
  8
0
 10
495
 20
137.57000732421875
 42
0
  0
VERTEX
  8
0
 10
570
 20
187.57000732421875
 42
0
  0
VERTEX
  8
0
 10
570
 20
197.57000732421875
 42
0
  0
VERTEX
  8
0
 10
485
 20
197.57000732421875
 42
0
  0
VERTEX
  8
0
 10
485
 20
137.57000732421875
 42
0
  0
SEQEND
  0
POLYLINE
  8
0
 10
0
 20
0
 39
0
 70
1
 66
1
  0
VERTEX
  8
0
 10
560
 20
168.78500366210937
 42
0
  0
VERTEX
  8
0
 10
485
 20
118.78500366210937
 42
0
  0
VERTEX
  8
0
 10
485
 20
108.78500366210937
 42
0
  0
VERTEX
  8
0
 10
570
 20
108.78500366210937
 42
0
  0
VERTEX
  8
0
 10
570
 20
168.78500366210937
 42
0
  0
SEQEND
  0
POLYLINE
  8
0
 10
0
 20
0
 39
0
 70
1
 66
1
  0
VERTEX
  8
0
 10
342
 20
189
 42
0
  0
VERTEX
  8
0
 10
342
 20
35
 42
1
  0
VERTEX
  8
0
 10
392
 20
35
 42
0
  0
VERTEX
  8
0
 10
392
 20
189
 42
1
  0
SEQEND
  0
POLYLINE
  8
0
 10
0
 20
0
 39
0
 70
1
 66
1
  0
VERTEX
  8
0
 10
355
 20
337.57000732421875
 42
0
  0
VERTEX
  8
0
 10
509
 20
337.57000732421875
 42
1
  0
VERTEX
  8
0
 10
509
 20
387.57000732421875
 42
0
  0
VERTEX
  8
0
 10
355
 20
387.57000732421875
 42
1
  0
SEQEND
  0
ENDSEC
  0
EOF
