  0
SECTION
  2
ENTITIES
  0
POLYLINE
  8
0
 10
0
 20
0
 39
0
 70
1
 66
1
  0
VERTEX
  8
0
 10
0
 20
0
 42
-0
  0
VERTEX
  8
0
 10
310
 20
0
 42
-0
  0
VERTEX
  8
0
 10
310
 20
1250
 42
-0
  0
VERTEX
  8
0
 10
0
 20
1250
 42
-0
  0
SEQEND
  0
POLYLINE
  8
0
 10
0
 20
0
 39
0
 70
1
 66
1
  0
VERTEX
  8
0
 10
69.554549544626752
 20
221.65637197563774
 42
0
  0
VERTEX
  8
0
 10
59.791535064795426
 20
295.81383526697755
 42
-1
  0
VERTEX
  8
0
 10
89.534881636717728
 20
299.72962081804872
 42
0
  0
VERTEX
  8
0
 10
91.2317220421819
 20
286.84083730354905
 42
0
  0
VERTEX
  8
0
 10
89.509884640791824
 20
284.59689516201615
 42
0
  0
VERTEX
  8
0
 10
92.120408341505936
 20
264.76799744740129
 42
0
  0
VERTEX
  8
0
 10
94.364350483038834
 20
263.04616004601121
 42
0
  0
VERTEX
  8
0
 10
99.297896116549055
 20
225.57215752670891
 42
0
  0
VERTEX
  8
0
 10
99.313217465357411
 20
18.600724791489483
 42
0.83581632375717163
  0
VERTEX
  8
0
 10
59.992154827718878
 20
20.469637139314727
 42
0
  0
VERTEX
  8
0
 10
64.247754955954406
 20
110.00766931533144
 42
0.96443647146224976
  0
VERTEX
  8
0
 10
66.145517019059298
 20
149.93632849437563
 42
0
  0
SEQEND
  0
POLYLINE
  8
0
 10
0
 20
0
 39
0
 70
1
 66
1
  0
VERTEX
  8
0
 10
40.008668036784911
 20
101.36535653109149
 42
0
  0
VERTEX
  8
0
 10
49.771682516616238
 20
27.207893239751684
 42
-1
  0
VERTEX
  8
0
 10
20.028335944693936
 20
23.292107688680517
 42
0
  0
VERTEX
  8
0
 10
18.331495539229763
 20
36.180891203180181
 42
0
  0
VERTEX
  8
0
 10
20.053332940619839
 20
38.424833344713079
 42
0
  0
VERTEX
  8
0
 10
17.442809239905728
 20
58.253731059327947
 42
0
  0
VERTEX
  8
0
 10
15.19886709837283
 20
59.975568460718023
 42
0
  0
VERTEX
  8
0
 10
10.265321464862609
 20
97.449570980020326
 42
0
  0
VERTEX
  8
0
 10
10.250000116054252
 20
304.42100371523975
 42
0.83581632375717163
  0
VERTEX
  8
0
 10
49.571062753692786
 20
302.5520913674145
 42
0
  0
VERTEX
  8
0
 10
45.315462625457258
 20
213.01405919139779
 42
0.96443647146224976
  0
VERTEX
  8
0
 10
43.417700562352366
 20
173.0854000123536
 42
0
  0
SEQEND
  0
POLYLINE
  8
0
 10
0
 20
0
 39
0
 70
1
 66
1
  0
VERTEX
  8
0
 10
69.554549544626752
 20
519.65637197563774
 42
0
  0
VERTEX
  8
0
 10
59.791535064795426
 20
593.81383526697755
 42
-1
  0
VERTEX
  8
0
 10
89.534881636717728
 20
597.72962081804872
 42
0
  0
VERTEX
  8
0
 10
91.2317220421819
 20
584.84083730354905
 42
0
  0
VERTEX
  8
0
 10
89.509884640791824
 20
582.59689516201615
 42
0
  0
VERTEX
  8
0
 10
92.120408341505936
 20
562.76799744740129
 42
0
  0
VERTEX
  8
0
 10
94.364350483038834
 20
561.04616004601121
 42
0
  0
VERTEX
  8
0
 10
99.297896116549055
 20
523.57215752670891
 42
0
  0
VERTEX
  8
0
 10
99.313217465357411
 20
316.60072479148948
 42
0.83581632375717163
  0
VERTEX
  8
0
 10
59.992154827718878
 20
318.46963713931473
 42
0
  0
VERTEX
  8
0
 10
64.247754955954406
 20
408.00766931533144
 42
0.96443647146224976
  0
VERTEX
  8
0
 10
66.145517019059298
 20
447.93632849437563
 42
0
  0
SEQEND
  0
POLYLINE
  8
0
 10
0
 20
0
 39
0
 70
1
 66
1
  0
VERTEX
  8
0
 10
40.008668036784911
 20
399.36535653109149
 42
0
  0
VERTEX
  8
0
 10
49.771682516616238
 20
325.20789323975168
 42
-1
  0
VERTEX
  8
0
 10
20.028335944693936
 20
321.29210768868052
 42
0
  0
VERTEX
  8
0
 10
18.331495539229763
 20
334.18089120318018
 42
0
  0
VERTEX
  8
0
 10
20.053332940619839
 20
336.42483334471308
 42
0
  0
VERTEX
  8
0
 10
17.442809239905728
 20
356.25373105932795
 42
0
  0
VERTEX
  8
0
 10
15.19886709837283
 20
357.97556846071802
 42
0
  0
VERTEX
  8
0
 10
10.265321464862609
 20
395.44957098002033
 42
0
  0
VERTEX
  8
0
 10
10.250000116054252
 20
602.42100371523975
 42
0.83581632375717163
  0
VERTEX
  8
0
 10
49.571062753692786
 20
600.5520913674145
 42
0
  0
VERTEX
  8
0
 10
45.315462625457258
 20
511.01405919139779
 42
0.96443647146224976
  0
VERTEX
  8
0
 10
43.417700562352366
 20
471.0854000123536
 42
0
  0
SEQEND
  0
POLYLINE
  8
0
 10
0
 20
0
 39
0
 70
1
 66
1
  0
VERTEX
  8
0
 10
69.554549544626752
 20
817.65637197563774
 42
0
  0
VERTEX
  8
0
 10
59.791535064795426
 20
891.81383526697755
 42
-1
  0
VERTEX
  8
0
 10
89.534881636717728
 20
895.72962081804872
 42
0
  0
VERTEX
  8
0
 10
91.2317220421819
 20
882.84083730354905
 42
0
  0
VERTEX
  8
0
 10
89.509884640791824
 20
880.59689516201615
 42
0
  0
VERTEX
  8
0
 10
92.120408341505936
 20
860.76799744740129
 42
0
  0
VERTEX
  8
0
 10
94.364350483038834
 20
859.04616004601121
 42
0
  0
VERTEX
  8
0
 10
99.297896116549055
 20
821.57215752670891
 42
0
  0
VERTEX
  8
0
 10
99.313217465357411
 20
614.60072479148948
 42
0.83581632375717163
  0
VERTEX
  8
0
 10
59.992154827718878
 20
616.46963713931473
 42
0
  0
VERTEX
  8
0
 10
64.247754955954406
 20
706.00766931533144
 42
0.96443647146224976
  0
VERTEX
  8
0
 10
66.145517019059298
 20
745.93632849437563
 42
0
  0
SEQEND
  0
POLYLINE
  8
0
 10
0
 20
0
 39
0
 70
1
 66
1
  0
VERTEX
  8
0
 10
40.008668036784911
 20
697.36535653109149
 42
0
  0
VERTEX
  8
0
 10
49.771682516616238
 20
623.20789323975168
 42
-1
  0
VERTEX
  8
0
 10
20.028335944693936
 20
619.29210768868052
 42
0
  0
VERTEX
  8
0
 10
18.331495539229763
 20
632.18089120318018
 42
0
  0
VERTEX
  8
0
 10
20.053332940619839
 20
634.42483334471308
 42
0
  0
VERTEX
  8
0
 10
17.442809239905728
 20
654.25373105932795
 42
0
  0
VERTEX
  8
0
 10
15.19886709837283
 20
655.97556846071802
 42
0
  0
VERTEX
  8
0
 10
10.265321464862609
 20
693.44957098002033
 42
0
  0
VERTEX
  8
0
 10
10.250000116054252
 20
900.42100371523975
 42
0.83581632375717163
  0
VERTEX
  8
0
 10
49.571062753692786
 20
898.5520913674145
 42
0
  0
VERTEX
  8
0
 10
45.315462625457258
 20
809.01405919139779
 42
0.96443647146224976
  0
VERTEX
  8
0
 10
43.417700562352366
 20
769.0854000123536
 42
0
  0
SEQEND
  0
POLYLINE
  8
0
 10
0
 20
0
 39
0
 70
1
 66
1
  0
VERTEX
  8
0
 10
69.554549544626752
 20
1115.6563719756377
 42
0
  0
VERTEX
  8
0
 10
59.791535064795426
 20
1189.8138352669775
 42
-1
  0
VERTEX
  8
0
 10
89.534881636717728
 20
1193.7296208180487
 42
0
  0
VERTEX
  8
0
 10
91.2317220421819
 20
1180.8408373035491
 42
0
  0
VERTEX
  8
0
 10
89.509884640791824
 20
1178.5968951620162
 42
0
  0
VERTEX
  8
0
 10
92.120408341505936
 20
1158.7679974474013
 42
0
  0
VERTEX
  8
0
 10
94.364350483038834
 20
1157.0461600460112
 42
0
  0
VERTEX
  8
0
 10
99.297896116549055
 20
1119.5721575267089
 42
0
  0
VERTEX
  8
0
 10
99.313217465357411
 20
912.60072479148948
 42
0.83581632375717163
  0
VERTEX
  8
0
 10
59.992154827718878
 20
914.46963713931473
 42
0
  0
VERTEX
  8
0
 10
64.247754955954406
 20
1004.0076693153314
 42
0.96443647146224976
  0
VERTEX
  8
0
 10
66.145517019059298
 20
1043.9363284943756
 42
0
  0
SEQEND
  0
POLYLINE
  8
0
 10
0
 20
0
 39
0
 70
1
 66
1
  0
VERTEX
  8
0
 10
40.008668036784911
 20
995.36535653109149
 42
0
  0
VERTEX
  8
0
 10
49.771682516616238
 20
921.20789323975168
 42
-1
  0
VERTEX
  8
0
 10
20.028335944693936
 20
917.29210768868052
 42
0
  0
VERTEX
  8
0
 10
18.331495539229763
 20
930.18089120318018
 42
0
  0
VERTEX
  8
0
 10
20.053332940619839
 20
932.42483334471308
 42
0
  0
VERTEX
  8
0
 10
17.442809239905728
 20
952.25373105932795
 42
0
  0
VERTEX
  8
0
 10
15.19886709837283
 20
953.97556846071802
 42
0
  0
VERTEX
  8
0
 10
10.265321464862609
 20
991.44957098002033
 42
0
  0
VERTEX
  8
0
 10
10.250000116054252
 20
1198.4210037152397
 42
0.83581632375717163
  0
VERTEX
  8
0
 10
49.571062753692786
 20
1196.5520913674145
 42
0
  0
VERTEX
  8
0
 10
45.315462625457258
 20
1107.0140591913978
 42
0.96443647146224976
  0
VERTEX
  8
0
 10
43.417700562352366
 20
1067.0854000123536
 42
0
  0
SEQEND
  0
POLYLINE
  8
0
 10
0
 20
0
 39
0
 70
1
 66
1
  0
VERTEX
  8
0
 10
168.80454954462675
 20
221.65637197563774
 42
0
  0
VERTEX
  8
0
 10
159.04153506479543
 20
295.81383526697755
 42
-1
  0
VERTEX
  8
0
 10
188.78488163671773
 20
299.72962081804872
 42
0
  0
VERTEX
  8
0
 10
190.4817220421819
 20
286.84083730354905
 42
0
  0
VERTEX
  8
0
 10
188.75988464079182
 20
284.59689516201615
 42
0
  0
VERTEX
  8
0
 10
191.37040834150594
 20
264.76799744740129
 42
0
  0
VERTEX
  8
0
 10
193.61435048303883
 20
263.04616004601121
 42
0
  0
VERTEX
  8
0
 10
198.54789611654905
 20
225.57215752670891
 42
0
  0
VERTEX
  8
0
 10
198.56321746535741
 20
18.600724791489483
 42
0.83581632375717163
  0
VERTEX
  8
0
 10
159.24215482771888
 20
20.469637139314727
 42
0
  0
VERTEX
  8
0
 10
163.49775495595441
 20
110.00766931533144
 42
0.96443647146224976
  0
VERTEX
  8
0
 10
165.3955170190593
 20
149.93632849437563
 42
0
  0
SEQEND
  0
POLYLINE
  8
0
 10
0
 20
0
 39
0
 70
1
 66
1
  0
VERTEX
  8
0
 10
139.25866803678491
 20
101.36535653109149
 42
0
  0
VERTEX
  8
0
 10
149.02168251661624
 20
27.207893239751684
 42
-1
  0
VERTEX
  8
0
 10
119.27833594469394
 20
23.292107688680517
 42
0
  0
VERTEX
  8
0
 10
117.58149553922976
 20
36.180891203180181
 42
0
  0
VERTEX
  8
0
 10
119.30333294061984
 20
38.424833344713079
 42
0
  0
VERTEX
  8
0
 10
116.69280923990573
 20
58.253731059327947
 42
0
  0
VERTEX
  8
0
 10
114.44886709837283
 20
59.975568460718023
 42
0
  0
VERTEX
  8
0
 10
109.51532146486261
 20
97.449570980020326
 42
0
  0
VERTEX
  8
0
 10
109.50000011605425
 20
304.42100371523975
 42
0.83581632375717163
  0
VERTEX
  8
0
 10
148.82106275369279
 20
302.5520913674145
 42
0
  0
VERTEX
  8
0
 10
144.56546262545726
 20
213.01405919139779
 42
0.96443647146224976
  0
VERTEX
  8
0
 10
142.66770056235237
 20
173.0854000123536
 42
0
  0
SEQEND
  0
POLYLINE
  8
0
 10
0
 20
0
 39
0
 70
1
 66
1
  0
VERTEX
  8
0
 10
168.80454954462675
 20
519.65637197563774
 42
0
  0
VERTEX
  8
0
 10
159.04153506479543
 20
593.81383526697755
 42
-1
  0
VERTEX
  8
0
 10
188.78488163671773
 20
597.72962081804872
 42
0
  0
VERTEX
  8
0
 10
190.4817220421819
 20
584.84083730354905
 42
0
  0
VERTEX
  8
0
 10
188.75988464079182
 20
582.59689516201615
 42
0
  0
VERTEX
  8
0
 10
191.37040834150594
 20
562.76799744740129
 42
0
  0
VERTEX
  8
0
 10
193.61435048303883
 20
561.04616004601121
 42
0
  0
VERTEX
  8
0
 10
198.54789611654905
 20
523.57215752670891
 42
0
  0
VERTEX
  8
0
 10
198.56321746535741
 20
316.60072479148948
 42
0.83581632375717163
  0
VERTEX
  8
0
 10
159.24215482771888
 20
318.46963713931473
 42
0
  0
VERTEX
  8
0
 10
163.49775495595441
 20
408.00766931533144
 42
0.96443647146224976
  0
VERTEX
  8
0
 10
165.3955170190593
 20
447.93632849437563
 42
0
  0
SEQEND
  0
POLYLINE
  8
0
 10
0
 20
0
 39
0
 70
1
 66
1
  0
VERTEX
  8
0
 10
139.25866803678491
 20
399.36535653109149
 42
0
  0
VERTEX
  8
0
 10
149.02168251661624
 20
325.20789323975168
 42
-1
  0
VERTEX
  8
0
 10
119.27833594469394
 20
321.29210768868052
 42
0
  0
VERTEX
  8
0
 10
117.58149553922976
 20
334.18089120318018
 42
0
  0
VERTEX
  8
0
 10
119.30333294061984
 20
336.42483334471308
 42
0
  0
VERTEX
  8
0
 10
116.69280923990573
 20
356.25373105932795
 42
0
  0
VERTEX
  8
0
 10
114.44886709837283
 20
357.97556846071802
 42
0
  0
VERTEX
  8
0
 10
109.51532146486261
 20
395.44957098002033
 42
0
  0
VERTEX
  8
0
 10
109.50000011605425
 20
602.42100371523975
 42
0.83581632375717163
  0
VERTEX
  8
0
 10
148.82106275369279
 20
600.5520913674145
 42
0
  0
VERTEX
  8
0
 10
144.56546262545726
 20
511.01405919139779
 42
0.96443647146224976
  0
VERTEX
  8
0
 10
142.66770056235237
 20
471.0854000123536
 42
0
  0
SEQEND
  0
POLYLINE
  8
0
 10
0
 20
0
 39
0
 70
1
 66
1
  0
VERTEX
  8
0
 10
168.80454954462675
 20
817.65637197563774
 42
0
  0
VERTEX
  8
0
 10
159.04153506479543
 20
891.81383526697755
 42
-1
  0
VERTEX
  8
0
 10
188.78488163671773
 20
895.72962081804872
 42
0
  0
VERTEX
  8
0
 10
190.4817220421819
 20
882.84083730354905
 42
0
  0
VERTEX
  8
0
 10
188.75988464079182
 20
880.59689516201615
 42
0
  0
VERTEX
  8
0
 10
191.37040834150594
 20
860.76799744740129
 42
0
  0
VERTEX
  8
0
 10
193.61435048303883
 20
859.04616004601121
 42
0
  0
VERTEX
  8
0
 10
198.54789611654905
 20
821.57215752670891
 42
0
  0
VERTEX
  8
0
 10
198.56321746535741
 20
614.60072479148948
 42
0.83581632375717163
  0
VERTEX
  8
0
 10
159.24215482771888
 20
616.46963713931473
 42
0
  0
VERTEX
  8
0
 10
163.49775495595441
 20
706.00766931533144
 42
0.96443647146224976
  0
VERTEX
  8
0
 10
165.3955170190593
 20
745.93632849437563
 42
0
  0
SEQEND
  0
POLYLINE
  8
0
 10
0
 20
0
 39
0
 70
1
 66
1
  0
VERTEX
  8
0
 10
139.25866803678491
 20
697.36535653109149
 42
0
  0
VERTEX
  8
0
 10
149.02168251661624
 20
623.20789323975168
 42
-1
  0
VERTEX
  8
0
 10
119.27833594469394
 20
619.29210768868052
 42
0
  0
VERTEX
  8
0
 10
117.58149553922976
 20
632.18089120318018
 42
0
  0
VERTEX
  8
0
 10
119.30333294061984
 20
634.42483334471308
 42
0
  0
VERTEX
  8
0
 10
116.69280923990573
 20
654.25373105932795
 42
0
  0
VERTEX
  8
0
 10
114.44886709837283
 20
655.97556846071802
 42
0
  0
VERTEX
  8
0
 10
109.51532146486261
 20
693.44957098002033
 42
0
  0
VERTEX
  8
0
 10
109.50000011605425
 20
900.42100371523975
 42
0.83581632375717163
  0
VERTEX
  8
0
 10
148.82106275369279
 20
898.5520913674145
 42
0
  0
VERTEX
  8
0
 10
144.56546262545726
 20
809.01405919139779
 42
0.96443647146224976
  0
VERTEX
  8
0
 10
142.66770056235237
 20
769.0854000123536
 42
0
  0
SEQEND
  0
POLYLINE
  8
0
 10
0
 20
0
 39
0
 70
1
 66
1
  0
VERTEX
  8
0
 10
168.80454954462675
 20
1115.6563719756377
 42
0
  0
VERTEX
  8
0
 10
159.04153506479543
 20
1189.8138352669775
 42
-1
  0
VERTEX
  8
0
 10
188.78488163671773
 20
1193.7296208180487
 42
0
  0
VERTEX
  8
0
 10
190.4817220421819
 20
1180.8408373035491
 42
0
  0
VERTEX
  8
0
 10
188.75988464079182
 20
1178.5968951620162
 42
0
  0
VERTEX
  8
0
 10
191.37040834150594
 20
1158.7679974474013
 42
0
  0
VERTEX
  8
0
 10
193.61435048303883
 20
1157.0461600460112
 42
0
  0
VERTEX
  8
0
 10
198.54789611654905
 20
1119.5721575267089
 42
0
  0
VERTEX
  8
0
 10
198.56321746535741
 20
912.60072479148948
 42
0.83581632375717163
  0
VERTEX
  8
0
 10
159.24215482771888
 20
914.46963713931473
 42
0
  0
VERTEX
  8
0
 10
163.49775495595441
 20
1004.0076693153314
 42
0.96443647146224976
  0
VERTEX
  8
0
 10
165.3955170190593
 20
1043.9363284943756
 42
0
  0
SEQEND
  0
POLYLINE
  8
0
 10
0
 20
0
 39
0
 70
1
 66
1
  0
VERTEX
  8
0
 10
139.25866803678491
 20
995.36535653109149
 42
0
  0
VERTEX
  8
0
 10
149.02168251661624
 20
921.20789323975168
 42
-1
  0
VERTEX
  8
0
 10
119.27833594469394
 20
917.29210768868052
 42
0
  0
VERTEX
  8
0
 10
117.58149553922976
 20
930.18089120318018
 42
0
  0
VERTEX
  8
0
 10
119.30333294061984
 20
932.42483334471308
 42
0
  0
VERTEX
  8
0
 10
116.69280923990573
 20
952.25373105932795
 42
0
  0
VERTEX
  8
0
 10
114.44886709837283
 20
953.97556846071802
 42
0
  0
VERTEX
  8
0
 10
109.51532146486261
 20
991.44957098002033
 42
0
  0
VERTEX
  8
0
 10
109.50000011605425
 20
1198.4210037152397
 42
0.83581632375717163
  0
VERTEX
  8
0
 10
148.82106275369279
 20
1196.5520913674145
 42
0
  0
VERTEX
  8
0
 10
144.56546262545726
 20
1107.0140591913978
 42
0.96443647146224976
  0
VERTEX
  8
0
 10
142.66770056235237
 20
1067.0854000123536
 42
0
  0
SEQEND
  0
POLYLINE
  8
0
 10
0
 20
0
 39
0
 70
1
 66
1
  0
VERTEX
  8
0
 10
268.05454954462675
 20
221.65637197563774
 42
0
  0
VERTEX
  8
0
 10
258.29153506479543
 20
295.81383526697755
 42
-1
  0
VERTEX
  8
0
 10
288.03488163671773
 20
299.72962081804872
 42
0
  0
VERTEX
  8
0
 10
289.7317220421819
 20
286.84083730354905
 42
0
  0
VERTEX
  8
0
 10
288.00988464079182
 20
284.59689516201615
 42
0
  0
VERTEX
  8
0
 10
290.62040834150594
 20
264.76799744740129
 42
0
  0
VERTEX
  8
0
 10
292.86435048303883
 20
263.04616004601121
 42
0
  0
VERTEX
  8
0
 10
297.79789611654905
 20
225.57215752670891
 42
0
  0
VERTEX
  8
0
 10
297.81321746535741
 20
18.600724791489483
 42
0.83581632375717163
  0
VERTEX
  8
0
 10
258.49215482771888
 20
20.469637139314727
 42
0
  0
VERTEX
  8
0
 10
262.74775495595441
 20
110.00766931533144
 42
0.96443647146224976
  0
VERTEX
  8
0
 10
264.6455170190593
 20
149.93632849437563
 42
0
  0
SEQEND
  0
POLYLINE
  8
0
 10
0
 20
0
 39
0
 70
1
 66
1
  0
VERTEX
  8
0
 10
238.50866803678491
 20
101.36535653109149
 42
0
  0
VERTEX
  8
0
 10
248.27168251661624
 20
27.207893239751684
 42
-1
  0
VERTEX
  8
0
 10
218.52833594469394
 20
23.292107688680517
 42
0
  0
VERTEX
  8
0
 10
216.83149553922976
 20
36.180891203180181
 42
0
  0
VERTEX
  8
0
 10
218.55333294061984
 20
38.424833344713079
 42
0
  0
VERTEX
  8
0
 10
215.94280923990573
 20
58.253731059327947
 42
0
  0
VERTEX
  8
0
 10
213.69886709837283
 20
59.975568460718023
 42
0
  0
VERTEX
  8
0
 10
208.76532146486261
 20
97.449570980020326
 42
0
  0
VERTEX
  8
0
 10
208.75000011605425
 20
304.42100371523975
 42
0.83581632375717163
  0
VERTEX
  8
0
 10
248.07106275369279
 20
302.5520913674145
 42
0
  0
VERTEX
  8
0
 10
243.81546262545726
 20
213.01405919139779
 42
0.96443647146224976
  0
VERTEX
  8
0
 10
241.91770056235237
 20
173.0854000123536
 42
0
  0
SEQEND
  0
POLYLINE
  8
0
 10
0
 20
0
 39
0
 70
1
 66
1
  0
VERTEX
  8
0
 10
268.05454954462675
 20
519.65637197563774
 42
0
  0
VERTEX
  8
0
 10
258.29153506479543
 20
593.81383526697755
 42
-1
  0
VERTEX
  8
0
 10
288.03488163671773
 20
597.72962081804872
 42
0
  0
VERTEX
  8
0
 10
289.7317220421819
 20
584.84083730354905
 42
0
  0
VERTEX
  8
0
 10
288.00988464079182
 20
582.59689516201615
 42
0
  0
VERTEX
  8
0
 10
290.62040834150594
 20
562.76799744740129
 42
0
  0
VERTEX
  8
0
 10
292.86435048303883
 20
561.04616004601121
 42
0
  0
VERTEX
  8
0
 10
297.79789611654905
 20
523.57215752670891
 42
0
  0
VERTEX
  8
0
 10
297.81321746535741
 20
316.60072479148948
 42
0.83581632375717163
  0
VERTEX
  8
0
 10
258.49215482771888
 20
318.46963713931473
 42
0
  0
VERTEX
  8
0
 10
262.74775495595441
 20
408.00766931533144
 42
0.96443647146224976
  0
VERTEX
  8
0
 10
264.6455170190593
 20
447.93632849437563
 42
0
  0
SEQEND
  0
POLYLINE
  8
0
 10
0
 20
0
 39
0
 70
1
 66
1
  0
VERTEX
  8
0
 10
238.50866803678491
 20
399.36535653109149
 42
0
  0
VERTEX
  8
0
 10
248.27168251661624
 20
325.20789323975168
 42
-1
  0
VERTEX
  8
0
 10
218.52833594469394
 20
321.29210768868052
 42
0
  0
VERTEX
  8
0
 10
216.83149553922976
 20
334.18089120318018
 42
0
  0
VERTEX
  8
0
 10
218.55333294061984
 20
336.42483334471308
 42
0
  0
VERTEX
  8
0
 10
215.94280923990573
 20
356.25373105932795
 42
0
  0
VERTEX
  8
0
 10
213.69886709837283
 20
357.97556846071802
 42
0
  0
VERTEX
  8
0
 10
208.76532146486261
 20
395.44957098002033
 42
0
  0
VERTEX
  8
0
 10
208.75000011605425
 20
602.42100371523975
 42
0.83581632375717163
  0
VERTEX
  8
0
 10
248.07106275369279
 20
600.5520913674145
 42
0
  0
VERTEX
  8
0
 10
243.81546262545726
 20
511.01405919139779
 42
0.96443647146224976
  0
VERTEX
  8
0
 10
241.91770056235237
 20
471.0854000123536
 42
0
  0
SEQEND
  0
POLYLINE
  8
0
 10
0
 20
0
 39
0
 70
1
 66
1
  0
VERTEX
  8
0
 10
268.05454954462675
 20
817.65637197563774
 42
0
  0
VERTEX
  8
0
 10
258.29153506479543
 20
891.81383526697755
 42
-1
  0
VERTEX
  8
0
 10
288.03488163671773
 20
895.72962081804872
 42
0
  0
VERTEX
  8
0
 10
289.7317220421819
 20
882.84083730354905
 42
0
  0
VERTEX
  8
0
 10
288.00988464079182
 20
880.59689516201615
 42
0
  0
VERTEX
  8
0
 10
290.62040834150594
 20
860.76799744740129
 42
0
  0
VERTEX
  8
0
 10
292.86435048303883
 20
859.04616004601121
 42
0
  0
VERTEX
  8
0
 10
297.79789611654905
 20
821.57215752670891
 42
0
  0
VERTEX
  8
0
 10
297.81321746535741
 20
614.60072479148948
 42
0.83581632375717163
  0
VERTEX
  8
0
 10
258.49215482771888
 20
616.46963713931473
 42
0
  0
VERTEX
  8
0
 10
262.74775495595441
 20
706.00766931533144
 42
0.96443647146224976
  0
VERTEX
  8
0
 10
264.6455170190593
 20
745.93632849437563
 42
0
  0
SEQEND
  0
POLYLINE
  8
0
 10
0
 20
0
 39
0
 70
1
 66
1
  0
VERTEX
  8
0
 10
238.50866803678491
 20
697.36535653109149
 42
0
  0
VERTEX
  8
0
 10
248.27168251661624
 20
623.20789323975168
 42
-1
  0
VERTEX
  8
0
 10
218.52833594469394
 20
619.29210768868052
 42
0
  0
VERTEX
  8
0
 10
216.83149553922976
 20
632.18089120318018
 42
0
  0
VERTEX
  8
0
 10
218.55333294061984
 20
634.42483334471308
 42
0
  0
VERTEX
  8
0
 10
215.94280923990573
 20
654.25373105932795
 42
0
  0
VERTEX
  8
0
 10
213.69886709837283
 20
655.97556846071802
 42
0
  0
VERTEX
  8
0
 10
208.76532146486261
 20
693.44957098002033
 42
0
  0
VERTEX
  8
0
 10
208.75000011605425
 20
900.42100371523975
 42
0.83581632375717163
  0
VERTEX
  8
0
 10
248.07106275369279
 20
898.5520913674145
 42
0
  0
VERTEX
  8
0
 10
243.81546262545726
 20
809.01405919139779
 42
0.96443647146224976
  0
VERTEX
  8
0
 10
241.91770056235237
 20
769.0854000123536
 42
0
  0
SEQEND
  0
POLYLINE
  8
0
 10
0
 20
0
 39
0
 70
1
 66
1
  0
VERTEX
  8
0
 10
268.05454954462675
 20
1115.6563719756377
 42
0
  0
VERTEX
  8
0
 10
258.29153506479543
 20
1189.8138352669775
 42
-1
  0
VERTEX
  8
0
 10
288.03488163671773
 20
1193.7296208180487
 42
0
  0
VERTEX
  8
0
 10
289.7317220421819
 20
1180.8408373035491
 42
0
  0
VERTEX
  8
0
 10
288.00988464079182
 20
1178.5968951620162
 42
0
  0
VERTEX
  8
0
 10
290.62040834150594
 20
1158.7679974474013
 42
0
  0
VERTEX
  8
0
 10
292.86435048303883
 20
1157.0461600460112
 42
0
  0
VERTEX
  8
0
 10
297.79789611654905
 20
1119.5721575267089
 42
0
  0
VERTEX
  8
0
 10
297.81321746535741
 20
912.60072479148948
 42
0.83581632375717163
  0
VERTEX
  8
0
 10
258.49215482771888
 20
914.46963713931473
 42
0
  0
VERTEX
  8
0
 10
262.74775495595441
 20
1004.0076693153314
 42
0.96443647146224976
  0
VERTEX
  8
0
 10
264.6455170190593
 20
1043.9363284943756
 42
0
  0
SEQEND
  0
POLYLINE
  8
0
 10
0
 20
0
 39
0
 70
1
 66
1
  0
VERTEX
  8
0
 10
238.50866803678491
 20
995.36535653109149
 42
0
  0
VERTEX
  8
0
 10
248.27168251661624
 20
921.20789323975168
 42
-1
  0
VERTEX
  8
0
 10
218.52833594469394
 20
917.29210768868052
 42
0
  0
VERTEX
  8
0
 10
216.83149553922976
 20
930.18089120318018
 42
0
  0
VERTEX
  8
0
 10
218.55333294061984
 20
932.42483334471308
 42
0
  0
VERTEX
  8
0
 10
215.94280923990573
 20
952.25373105932795
 42
0
  0
VERTEX
  8
0
 10
213.69886709837283
 20
953.97556846071802
 42
0
  0
VERTEX
  8
0
 10
208.76532146486261
 20
991.44957098002033
 42
0
  0
VERTEX
  8
0
 10
208.75000011605425
 20
1198.4210037152397
 42
0.83581632375717163
  0
VERTEX
  8
0
 10
248.07106275369279
 20
1196.5520913674145
 42
0
  0
VERTEX
  8
0
 10
243.81546262545726
 20
1107.0140591913978
 42
0.96443647146224976
  0
VERTEX
  8
0
 10
241.91770056235237
 20
1067.0854000123536
 42
0
  0
SEQEND
  0
ENDSEC
  0
EOF
