  0
SECTION
  2
ENTITIES
  0
POLYLINE
  8
0
 10
0
 20
0
 39
0
 70
1
 66
1
  0
VERTEX
  8
0
 10
0
 20
0
 42
-0
  0
VERTEX
  8
0
 10
1500
 20
0
 42
-0
  0
VERTEX
  8
0
 10
1500
 20
740
 42
-0
  0
VERTEX
  8
0
 10
0
 20
740
 42
-0
  0
SEQEND
  0
POLYLINE
  8
0
 10
0
 20
0
 39
0
 70
1
 66
1
  0
VERTEX
  8
0
 10
850.00000000000728
 20
409.9999931888749
 42
0
  0
VERTEX
  8
0
 10
990.00000000000728
 20
409.9999931888749
 42
-0
  0
VERTEX
  8
0
 10
1070.0000000000073
 20
499.9999931888749
 42
0
  0
VERTEX
  8
0
 10
1070.0000000000073
 20
639.9999931888749
 42
-0
  0
VERTEX
  8
0
 10
990.00000000000728
 20
729.9999931888749
 42
0
  0
VERTEX
  8
0
 10
850.00000000000728
 20
729.9999931888749
 42
-0
  0
VERTEX
  8
0
 10
770.00000000000728
 20
639.9999931888749
 42
0
  0
VERTEX
  8
0
 10
770.00000000000728
 20
499.9999931888749
 42
0
  0
SEQEND
  0
POLYLINE
  8
0
 10
0
 20
0
 39
0
 70
1
 66
1
  0
VERTEX
  8
0
 10
882.00000000000728
 20
469.9999931888749
 42
-1
  0
VERTEX
  8
0
 10
958.00000000000728
 20
469.9999931888749
 42
-1
  0
SEQEND
  0
POLYLINE
  8
0
 10
0
 20
0
 39
0
 70
1
 66
1
  0
VERTEX
  8
0
 10
94.629117239784492
 20
699.99918789235505
 42
1
  0
VERTEX
  8
0
 10
95.370879791263533
 20
530.00080913869294
 42
1
  0
SEQEND
  0
POLYLINE
  8
0
 10
0
 20
0
 39
0
 70
1
 66
1
  0
VERTEX
  8
0
 10
94.821102841343773
 20
655.99960750905427
 42
-1
  0
VERTEX
  8
0
 10
95.178894189704252
 20
574.00038952199372
 42
-1
  0
SEQEND
  0
POLYLINE
  8
0
 10
0
 20
0
 39
0
 70
1
 66
1
  0
VERTEX
  8
0
 10
10
 20
270
 42
-0
  0
VERTEX
  8
0
 10
260
 20
270
 42
-0
  0
VERTEX
  8
0
 10
260
 20
520
 42
-0
  0
VERTEX
  8
0
 10
10
 20
520
 42
-0
  0
SEQEND
  0
POLYLINE
  8
0
 10
0
 20
0
 39
0
 70
1
 66
1
  0
VERTEX
  8
0
 10
106.5
 20
400
 42
-1
  0
VERTEX
  8
0
 10
163.5
 20
400
 42
-1
  0
SEQEND
  0
POLYLINE
  8
0
 10
0
 20
0
 39
0
 70
1
 66
1
  0
VERTEX
  8
0
 10
1160.0000000000073
 20
409.9999931888749
 42
0
  0
VERTEX
  8
0
 10
1300.0000000000073
 20
409.9999931888749
 42
-0
  0
VERTEX
  8
0
 10
1380.0000000000073
 20
499.9999931888749
 42
0
  0
VERTEX
  8
0
 10
1380.0000000000073
 20
639.9999931888749
 42
-0
  0
VERTEX
  8
0
 10
1300.0000000000073
 20
729.9999931888749
 42
0
  0
VERTEX
  8
0
 10
1160.0000000000073
 20
729.9999931888749
 42
-0
  0
VERTEX
  8
0
 10
1080.0000000000073
 20
639.9999931888749
 42
0
  0
VERTEX
  8
0
 10
1080.0000000000073
 20
499.9999931888749
 42
0
  0
SEQEND
  0
POLYLINE
  8
0
 10
0
 20
0
 39
0
 70
1
 66
1
  0
VERTEX
  8
0
 10
1192.0000000000073
 20
469.9999931888749
 42
-1
  0
VERTEX
  8
0
 10
1268.0000000000073
 20
469.9999931888749
 42
-1
  0
SEQEND
  0
POLYLINE
  8
0
 10
0
 20
0
 39
0
 70
1
 66
1
  0
VERTEX
  8
0
 10
10
 20
10
 42
-0
  0
VERTEX
  8
0
 10
260
 20
10
 42
-0
  0
VERTEX
  8
0
 10
260
 20
260
 42
-0
  0
VERTEX
  8
0
 10
10
 20
260
 42
-0
  0
SEQEND
  0
POLYLINE
  8
0
 10
0
 20
0
 39
0
 70
1
 66
1
  0
VERTEX
  8
0
 10
106.5
 20
140
 42
-1
  0
VERTEX
  8
0
 10
163.5
 20
140
 42
-1
  0
SEQEND
  0
POLYLINE
  8
0
 10
0
 20
0
 39
0
 70
1
 66
1
  0
VERTEX
  8
0
 10
854.5210785276289
 20
399.99813692952046
 42
1
  0
VERTEX
  8
0
 10
856.22276908690435
 20
10.001856259354412
 42
1
  0
SEQEND
  0
POLYLINE
  8
0
 10
0
 20
0
 39
0
 70
1
 66
1
  0
VERTEX
  8
0
 10
919.90718182907642
 20
232.11457276919603
 42
0.19855155050754547
  0
VERTEX
  8
0
 10
881.92229833267197
 20
269.76941361851652
 42
0
  0
VERTEX
  8
0
 10
881.64938342019343
 20
332.3165084624635
 42
-0.29705095291137695
  0
VERTEX
  8
0
 10
982.4542766730234
 20
232.38748768167457
 42
-0
  0
SEQEND
  0
POLYLINE
  8
0
 10
0
 20
0
 39
0
 70
1
 66
1
  0
VERTEX
  8
0
 10
920.1413408313457
 20
178.44962206903213
 42
0
  0
VERTEX
  8
0
 10
982.68843567529268
 20
178.72253698151067
 42
-0.29705095291137695
  0
VERTEX
  8
0
 10
882.75941489450372
 20
77.917643728680645
 42
-0
  0
VERTEX
  8
0
 10
882.48649998202518
 20
140.46473857262762
 42
0.19855155050754547
  0
SEQEND
  0
POLYLINE
  8
0
 10
0
 20
0
 39
0
 70
1
 66
1
  0
VERTEX
  8
0
 10
828.25734763250807
 20
269.53525461624724
 42
0.19855155050754547
  0
VERTEX
  8
0
 10
790.60250678318755
 20
231.55037111984271
 42
0
  0
VERTEX
  8
0
 10
728.05541193924057
 20
231.27745620736417
 42
-0.29705095291137695
  0
VERTEX
  8
0
 10
827.98443272002953
 20
332.08234946019422
 42
-0
  0
SEQEND
  0
POLYLINE
  8
0
 10
0
 20
0
 39
0
 70
1
 66
1
  0
VERTEX
  8
0
 10
790.83666578545683
 20
177.88542041967881
 42
0.19855155050754547
  0
VERTEX
  8
0
 10
828.82154928186128
 20
140.23057957035834
 42
0
  0
VERTEX
  8
0
 10
829.09446419433982
 20
77.683484726411365
 42
-0.29705095291137695
  0
VERTEX
  8
0
 10
728.28957094150985
 20
177.61250550720027
 42
-0
  0
SEQEND
  0
POLYLINE
  8
0
 10
0
 20
0
 39
0
 70
1
 66
1
  0
VERTEX
  8
0
 10
582.87792968750728
 20
490.94080526270409
 42
0
  0
VERTEX
  8
0
 10
697.12207031250728
 20
490.94080526270409
 42
0.29410767555236816
  0
VERTEX
  8
0
 10
715.32910156250728
 20
502.66346151270409
 42
0
  0
VERTEX
  8
0
 10
758.20703125000728
 20
596.99549276270409
 42
0.10706308484077454
  0
VERTEX
  8
0
 10
760.00000000000728
 20
605.27283651270409
 42
-0
  0
VERTEX
  8
0
 10
760.00000000000728
 20
690.94080526270409
 42
0.41421356797218323
  0
VERTEX
  8
0
 10
740.00000000000728
 20
710.94080526270409
 42
-0
  0
VERTEX
  8
0
 10
540.00000000000728
 20
710.94080526270409
 42
0.41421356797218323
  0
VERTEX
  8
0
 10
520.00000000000728
 20
690.94080526270409
 42
0
  0
VERTEX
  8
0
 10
520.00000000000728
 20
605.27283651270409
 42
0.10706308484077454
  0
VERTEX
  8
0
 10
521.79296875000728
 20
596.99549276270409
 42
-0
  0
VERTEX
  8
0
 10
564.67089843750728
 20
502.66346151270409
 42
0.29410767555236816
  0
SEQEND
  0
POLYLINE
  8
0
 10
0
 20
0
 39
0
 70
1
 66
1
  0
VERTEX
  8
0
 10
590.00000000000728
 20
615.94080526270409
 42
-1
  0
VERTEX
  8
0
 10
690.00000000000728
 20
615.94080526270409
 42
-1
  0
SEQEND
  0
POLYLINE
  8
0
 10
0
 20
0
 39
0
 70
1
 66
1
  0
VERTEX
  8
0
 10
1254.5210717165037
 20
399.99813692952046
 42
1
  0
VERTEX
  8
0
 10
1256.2227622757791
 20
10.001856259354412
 42
1
  0
SEQEND
  0
POLYLINE
  8
0
 10
0
 20
0
 39
0
 70
1
 66
1
  0
VERTEX
  8
0
 10
1319.9071750179512
 20
232.11457276919603
 42
0.19855155050754547
  0
VERTEX
  8
0
 10
1281.9222915215466
 20
269.76941361851652
 42
0
  0
VERTEX
  8
0
 10
1281.6493766090682
 20
332.3165084624635
 42
-0.29705095291137695
  0
VERTEX
  8
0
 10
1382.4542698618982
 20
232.38748768167457
 42
-0
  0
SEQEND
  0
POLYLINE
  8
0
 10
0
 20
0
 39
0
 70
1
 66
1
  0
VERTEX
  8
0
 10
1320.1413340202205
 20
178.44962206903213
 42
0
  0
VERTEX
  8
0
 10
1382.6884288641675
 20
178.72253698151067
 42
-0.29705095291137695
  0
VERTEX
  8
0
 10
1282.7594080833785
 20
77.917643728680645
 42
-0
  0
VERTEX
  8
0
 10
1282.4864931709001
 20
140.46473857262762
 42
0.19855155050754547
  0
SEQEND
  0
POLYLINE
  8
0
 10
0
 20
0
 39
0
 70
1
 66
1
  0
VERTEX
  8
0
 10
1228.2573408213827
 20
269.53525461624724
 42
0.19855155050754547
  0
VERTEX
  8
0
 10
1190.6024999720623
 20
231.55037111984271
 42
0
  0
VERTEX
  8
0
 10
1128.0554051281154
 20
231.27745620736417
 42
-0.29705095291137695
  0
VERTEX
  8
0
 10
1227.9844259089043
 20
332.08234946019422
 42
-0
  0
SEQEND
  0
POLYLINE
  8
0
 10
0
 20
0
 39
0
 70
1
 66
1
  0
VERTEX
  8
0
 10
1190.8366589743316
 20
177.88542041967881
 42
0.19855155050754547
  0
VERTEX
  8
0
 10
1228.8215424707362
 20
140.23057957035834
 42
0
  0
VERTEX
  8
0
 10
1229.0944573832146
 20
77.683484726411365
 42
-0.29705095291137695
  0
VERTEX
  8
0
 10
1128.2895641303846
 20
177.61250550720027
 42
-0
  0
SEQEND
  0
POLYLINE
  8
0
 10
0
 20
0
 39
0
 70
1
 66
1
  0
VERTEX
  8
0
 10
298.16519481410796
 20
98.794367477858032
 42
-0
  0
VERTEX
  8
0
 10
334.19488377323432
 20
81.415708473745326
 42
0
  0
VERTEX
  8
0
 10
531.65479423945362
 20
14.704905165686796
 42
0.51879560947418213
  0
VERTEX
  8
0
 10
650.3561714344105
 20
101.68287759353552
 42
-0
  0
VERTEX
  8
0
 10
649.62854125934246
 20
378.91972726127278
 42
0
  0
VERTEX
  8
0
 10
631.61457636790874
 20
387.60863250037801
 42
-0.22677740454673767
  0
VERTEX
  8
0
 10
411.99394542981463
 20
145.36498932503309
 42
-0
  0
SEQEND
  0
POLYLINE
  8
0
 10
0
 20
0
 39
0
 70
1
 66
1
  0
VERTEX
  8
0
 10
528.84833619500569
 20
115.20475113890279
 42
-1
  0
VERTEX
  8
0
 10
591.89721331502369
 20
84.793582802034507
 42
-1
  0
SEQEND
  0
POLYLINE
  8
0
 10
0
 20
0
 39
0
 70
1
 66
1
  0
VERTEX
  8
0
 10
622.20673239872121
 20
392.14643776675075
 42
-0
  0
VERTEX
  8
0
 10
586.17704343959485
 20
409.52509677086346
 42
0
  0
VERTEX
  8
0
 10
388.71713297337556
 20
476.23590007892199
 42
0.51879560947418213
  0
VERTEX
  8
0
 10
270.01575577841868
 20
389.25792765107326
 42
-0
  0
VERTEX
  8
0
 10
270.74338595348672
 20
112.021077983336
 42
0
  0
VERTEX
  8
0
 10
288.75735084492044
 20
103.33217274423077
 42
-0.22677740454673767
  0
VERTEX
  8
0
 10
508.37798178301455
 20
345.57581591957569
 42
-0
  0
SEQEND
  0
POLYLINE
  8
0
 10
0
 20
0
 39
0
 70
1
 66
1
  0
VERTEX
  8
0
 10
391.52359101782349
 20
375.73605410570599
 42
-1
  0
VERTEX
  8
0
 10
328.47471389780549
 20
406.14722244257428
 42
-1
  0
SEQEND
  0
POLYLINE
  8
0
 10
0
 20
0
 39
0
 70
1
 66
1
  0
VERTEX
  8
0
 10
332.87792968750364
 20
490.94080526270409
 42
0
  0
VERTEX
  8
0
 10
447.12207031250364
 20
490.94080526270409
 42
0.29410767555236816
  0
VERTEX
  8
0
 10
465.32910156250364
 20
502.66346151270409
 42
0
  0
VERTEX
  8
0
 10
508.20703125000364
 20
596.99549276270409
 42
0.10706308484077454
  0
VERTEX
  8
0
 10
510.00000000000364
 20
605.27283651270409
 42
-0
  0
VERTEX
  8
0
 10
510.00000000000364
 20
690.94080526270409
 42
0.41421356797218323
  0
VERTEX
  8
0
 10
490.00000000000364
 20
710.94080526270409
 42
-0
  0
VERTEX
  8
0
 10
290.00000000000364
 20
710.94080526270409
 42
0.41421356797218323
  0
VERTEX
  8
0
 10
270.00000000000364
 20
690.94080526270409
 42
0
  0
VERTEX
  8
0
 10
270.00000000000364
 20
605.27283651270409
 42
0.10706308484077454
  0
VERTEX
  8
0
 10
271.79296875000364
 20
596.99549276270409
 42
-0
  0
VERTEX
  8
0
 10
314.67089843750364
 20
502.66346151270409
 42
0.29410767555236816
  0
SEQEND
  0
POLYLINE
  8
0
 10
0
 20
0
 39
0
 70
1
 66
1
  0
VERTEX
  8
0
 10
340.00000000000364
 20
615.94080526270409
 42
-1
  0
VERTEX
  8
0
 10
440.00000000000364
 20
615.94080526270409
 42
-1
  0
SEQEND
  0
ENDSEC
  0
EOF
