  0
SECTION
  2
ENTITIES
  0
POLYLINE
  8
0
 10
0
 20
0
 39
0
 70
1
 66
1
  0
VERTEX
  8
0
 10
0
 20
0
 42
-0
  0
VERTEX
  8
0
 10
3000
 20
0
 42
-0
  0
VERTEX
  8
0
 10
3000
 20
1500
 42
-0
  0
VERTEX
  8
0
 10
0
 20
1500
 42
-0
  0
SEQEND
  0
POLYLINE
  8
0
 10
0
 20
0
 39
0
 70
1
 66
1
  0
VERTEX
  8
0
 10
2611.3818359375
 20
600.04998779296875
 42
-0
  0
VERTEX
  8
0
 10
2611.3818359375
 20
10.04998779296875
 42
1
  0
SEQEND
  0
POLYLINE
  8
0
 10
0
 20
0
 39
0
 70
1
 66
1
  0
VERTEX
  8
0
 10
2784.930908203125
 20
1179.8251953125
 42
-0
  0
VERTEX
  8
0
 10
2194.930908203125
 20
1179.824951171875
 42
1
  0
SEQEND
  0
POLYLINE
  8
0
 10
0
 20
0
 39
0
 70
1
 66
1
  0
VERTEX
  8
0
 10
2526.144775390625
 20
1489.949951171875
 42
-0
  0
VERTEX
  8
0
 10
1936.144775390625
 20
1489.94970703125
 42
1
  0
SEQEND
  0
POLYLINE
  8
0
 10
0
 20
0
 39
0
 70
1
 66
1
  0
VERTEX
  8
0
 10
1631.3865966796875
 20
973.0811767578125
 42
-0
  0
VERTEX
  8
0
 10
2221.38671875
 20
973.0811767578125
 42
1
  0
SEQEND
  0
POLYLINE
  8
0
 10
0
 20
0
 39
0
 70
1
 66
1
  0
VERTEX
  8
0
 10
10.050048828125
 20
10.04998779296875
 42
-0
  0
VERTEX
  8
0
 10
950.050048828125
 20
10.04998779296875
 42
1
  0
SEQEND
  0
POLYLINE
  8
0
 10
0
 20
0
 39
0
 70
1
 66
1
  0
VERTEX
  8
0
 10
10.04998779296875
 20
490.0999755859375
 42
-0
  0
VERTEX
  8
0
 10
950.04998779296875
 20
490.0999755859375
 42
1
  0
SEQEND
  0
POLYLINE
  8
0
 10
0
 20
0
 39
0
 70
1
 66
1
  0
VERTEX
  8
0
 10
10.050048828125
 20
970.14996337890625
 42
-0
  0
VERTEX
  8
0
 10
950.050048828125
 20
970.14996337890625
 42
1
  0
SEQEND
  0
POLYLINE
  8
0
 10
0
 20
0
 39
0
 70
1
 66
1
  0
VERTEX
  8
0
 10
1775.69091796875
 20
480.0501708984375
 42
-0
  0
VERTEX
  8
0
 10
835.69091796875
 20
480.0498046875
 42
1
  0
SEQEND
  0
POLYLINE
  8
0
 10
0
 20
0
 39
0
 70
1
 66
1
  0
VERTEX
  8
0
 10
1775.69091796875
 20
960.10015869140625
 42
-0
  0
VERTEX
  8
0
 10
835.69091796875
 20
960.09979248046875
 42
1
  0
SEQEND
  0
POLYLINE
  8
0
 10
0
 20
0
 39
0
 70
1
 66
1
  0
VERTEX
  8
0
 10
1775.69091796875
 20
1440.150146484375
 42
-0
  0
VERTEX
  8
0
 10
835.69091796875
 20
1440.14990234375
 42
1
  0
SEQEND
  0
POLYLINE
  8
0
 10
0
 20
0
 39
0
 70
1
 66
1
  0
VERTEX
  8
0
 10
1661.33154296875
 20
10.050003051757812
 42
-0
  0
VERTEX
  8
0
 10
2601.33154296875
 20
10.050003051757812
 42
1
  0
SEQEND
  0
POLYLINE
  8
0
 10
0
 20
0
 39
0
 70
1
 66
1
  0
VERTEX
  8
0
 10
1661.331787109375
 20
490.10015869140625
 42
-0
  0
VERTEX
  8
0
 10
2601.331787109375
 20
490.10015869140625
 42
1
  0
SEQEND
  0
ENDSEC
  0
EOF
