  0
SECTION
  2
ENTITIES
  0
POLYLINE
  8
0
 10
0
 20
0
 39
0
 70
1
 66
1
  0
VERTEX
  8
0
 10
0
 20
0
 42
-0
  0
VERTEX
  8
0
 10
800
 20
0
 42
-0
  0
VERTEX
  8
0
 10
800
 20
600
 42
-0
  0
VERTEX
  8
0
 10
0
 20
600
 42
-0
  0
SEQEND
  0
POLYLINE
  8
0
 10
0
 20
0
 39
0
 70
1
 66
1
  0
VERTEX
  8
0
 10
10.107692307692329
 20
10.107692307692304
 42
-0
  0
VERTEX
  8
0
 10
10.107692307692307
 20
360.10767704890327
 42
-0
  0
VERTEX
  8
0
 10
170.10769993708684
 20
360.10767704890327
 42
-0
  0
VERTEX
  8
0
 10
170.10769993708686
 20
10.107692307692311
 42
-0
  0
SEQEND
  0
POLYLINE
  8
0
 10
0
 20
0
 39
0
 70
1
 66
1
  0
VERTEX
  8
0
 10
119.75078160212593
 20
23.240611619215745
 42
0.40095469355583191
  0
VERTEX
  8
0
 10
119.75078160212593
 20
79.889966553908124
 42
-0
  0
VERTEX
  8
0
 10
60.464604920607357
 20
79.889966553908124
 42
0.40095469355583191
  0
VERTEX
  8
0
 10
60.464604920607364
 20
23.240611619215741
 42
0
  0
SEQEND
  0
POLYLINE
  8
0
 10
0
 20
0
 39
0
 70
1
 66
1
  0
VERTEX
  8
0
 10
180.20000000000002
 20
10.107692307692304
 42
-0
  0
VERTEX
  8
0
 10
180.19999999999999
 20
360.10767704890327
 42
-0
  0
VERTEX
  8
0
 10
340.20000762939452
 20
360.10767704890327
 42
-0
  0
VERTEX
  8
0
 10
340.20000762939458
 20
10.107692307692311
 42
-0
  0
SEQEND
  0
POLYLINE
  8
0
 10
0
 20
0
 39
0
 70
1
 66
1
  0
VERTEX
  8
0
 10
289.84308929443364
 20
23.240611619215745
 42
0.40095469355583191
  0
VERTEX
  8
0
 10
289.84308929443364
 20
79.889966553908124
 42
-0
  0
VERTEX
  8
0
 10
230.55691261291506
 20
79.889966553908124
 42
0.40095469355583191
  0
VERTEX
  8
0
 10
230.55691261291506
 20
23.240611619215741
 42
0
  0
SEQEND
  0
POLYLINE
  8
0
 10
0
 20
0
 39
0
 70
1
 66
1
  0
VERTEX
  8
0
 10
360.10767704890327
 20
370.10769230769233
 42
-0
  0
VERTEX
  8
0
 10
10.107692307692332
 20
370.10769230769233
 42
-0
  0
VERTEX
  8
0
 10
10.107692307692332
 20
530.10769993708686
 42
-0
  0
VERTEX
  8
0
 10
360.10767704890327
 20
530.10769993708686
 42
-0
  0
SEQEND
  0
POLYLINE
  8
0
 10
0
 20
0
 39
0
 70
1
 66
1
  0
VERTEX
  8
0
 10
346.97475773737983
 20
479.75078160212593
 42
0.40095469355583191
  0
VERTEX
  8
0
 10
290.32540280268745
 20
479.75078160212593
 42
-0
  0
VERTEX
  8
0
 10
290.32540280268745
 20
420.46460492060737
 42
0.40095469355583191
  0
VERTEX
  8
0
 10
346.97475773737983
 20
420.46460492060737
 42
0
  0
SEQEND
  0
POLYLINE
  8
0
 10
0
 20
0
 39
0
 70
1
 66
1
  0
VERTEX
  8
0
 10
350.2923076923077
 20
10.107692307692304
 42
-0
  0
VERTEX
  8
0
 10
350.2923076923077
 20
360.10767704890327
 42
-0
  0
VERTEX
  8
0
 10
510.29231532170218
 20
360.10767704890327
 42
-0
  0
VERTEX
  8
0
 10
510.29231532170223
 20
10.107692307692311
 42
-0
  0
SEQEND
  0
POLYLINE
  8
0
 10
0
 20
0
 39
0
 70
1
 66
1
  0
VERTEX
  8
0
 10
459.9353969867413
 20
23.240611619215745
 42
0.40095469355583191
  0
VERTEX
  8
0
 10
459.9353969867413
 20
79.889966553908124
 42
-0
  0
VERTEX
  8
0
 10
400.64922030522274
 20
79.889966553908124
 42
0.40095469355583191
  0
VERTEX
  8
0
 10
400.64922030522274
 20
23.240611619215741
 42
0
  0
SEQEND
  0
POLYLINE
  8
0
 10
0
 20
0
 39
0
 70
1
 66
1
  0
VERTEX
  8
0
 10
520.38461538461536
 20
10.107692307692304
 42
-0
  0
VERTEX
  8
0
 10
520.38461538461536
 20
360.10767704890327
 42
-0
  0
VERTEX
  8
0
 10
680.38462301400989
 20
360.10767704890327
 42
-0
  0
VERTEX
  8
0
 10
680.38462301400989
 20
10.107692307692311
 42
-0
  0
SEQEND
  0
POLYLINE
  8
0
 10
0
 20
0
 39
0
 70
1
 66
1
  0
VERTEX
  8
0
 10
630.02770467904895
 20
23.240611619215745
 42
0.40095469355583191
  0
VERTEX
  8
0
 10
630.02770467904895
 20
79.889966553908124
 42
-0
  0
VERTEX
  8
0
 10
570.7415279975304
 20
79.889966553908124
 42
0.40095469355583191
  0
VERTEX
  8
0
 10
570.7415279975304
 20
23.240611619215741
 42
0
  0
SEQEND
  0
POLYLINE
  8
0
 10
0
 20
0
 39
0
 70
1
 66
1
  0
VERTEX
  8
0
 10
370.16923076923075
 20
576.10769230769233
 42
-0.41421356797218323
  0
VERTEX
  8
0
 10
374.16923076923075
 20
580.10769230769233
 42
-0
  0
VERTEX
  8
0
 10
521.16923076923081
 20
580.10769230769233
 42
-0.41421356797218323
  0
VERTEX
  8
0
 10
525.16923076923081
 20
576.10769230769233
 42
-0
  0
VERTEX
  8
0
 10
525.16923076923081
 20
374.10769230769233
 42
-0.41421356797218323
  0
VERTEX
  8
0
 10
521.16923076923081
 20
370.10769230769233
 42
-0
  0
VERTEX
  8
0
 10
374.16923076923075
 20
370.10769230769233
 42
-0.41421356797218323
  0
VERTEX
  8
0
 10
370.16923076923075
 20
374.10769230769233
 42
-0
  0
SEQEND
  0
POLYLINE
  8
0
 10
0
 20
0
 39
0
 70
1
 66
1
  0
VERTEX
  8
0
 10
496.16923076923075
 20
415.72302586482124
 42
-0
  0
VERTEX
  8
0
 10
496.16923076923075
 20
490.90769535945014
 42
0.41421356797218323
  0
VERTEX
  8
0
 10
494.96923382098856
 20
492.10769230769233
 42
-0
  0
VERTEX
  8
0
 10
445.36922771747294
 20
492.10769230769233
 42
0.41421356797218323
  0
VERTEX
  8
0
 10
444.16923076923075
 20
490.90769535945014
 42
0
  0
VERTEX
  8
0
 10
444.16923839862528
 20
415.72302205012397
 42
0.21597428619861603
  0
SEQEND
  0
POLYLINE
  8
0
 10
0
 20
0
 39
0
 70
1
 66
1
  0
VERTEX
  8
0
 10
535.27692307692303
 20
576.10769230769233
 42
-0.41421356797218323
  0
VERTEX
  8
0
 10
539.27692307692303
 20
580.10769230769233
 42
-0
  0
VERTEX
  8
0
 10
686.27692307692303
 20
580.10769230769233
 42
-0.41421356797218323
  0
VERTEX
  8
0
 10
690.27692307692303
 20
576.10769230769233
 42
-0
  0
VERTEX
  8
0
 10
690.27692307692303
 20
374.10769230769233
 42
-0.41421356797218323
  0
VERTEX
  8
0
 10
686.27692307692303
 20
370.10769230769233
 42
-0
  0
VERTEX
  8
0
 10
539.27692307692303
 20
370.10769230769233
 42
-0.41421356797218323
  0
VERTEX
  8
0
 10
535.27692307692303
 20
374.10769230769233
 42
-0
  0
SEQEND
  0
POLYLINE
  8
0
 10
0
 20
0
 39
0
 70
1
 66
1
  0
VERTEX
  8
0
 10
661.27692307692303
 20
415.72302586482124
 42
-0
  0
VERTEX
  8
0
 10
661.27692307692303
 20
490.90769535945014
 42
0.41421356797218323
  0
VERTEX
  8
0
 10
660.07692612868084
 20
492.10769230769233
 42
-0
  0
VERTEX
  8
0
 10
610.47692002516521
 20
492.10769230769233
 42
0.41421356797218323
  0
VERTEX
  8
0
 10
609.27692307692303
 20
490.90769535945014
 42
0
  0
VERTEX
  8
0
 10
609.27693070631756
 20
415.72302205012397
 42
0.21597428619861603
  0
SEQEND
  0
POLYLINE
  8
0
 10
0
 20
0
 39
0
 70
1
 66
1
  0
VERTEX
  8
0
 10
775.47692307692307
 20
10.107692307692307
 42
-0
  0
VERTEX
  8
0
 10
690.47692307692307
 20
10.107692307692307
 42
-0
  0
VERTEX
  8
0
 10
690.47692307692307
 20
60.107692307692304
 42
-0
  0
VERTEX
  8
0
 10
725.47692307692307
 20
95.107692307692304
 42
0
  0
VERTEX
  8
0
 10
775.47692307692307
 20
95.107692307692304
 42
0
  0
SEQEND
  0
POLYLINE
  8
0
 10
0
 20
0
 39
0
 70
1
 66
1
  0
VERTEX
  8
0
 10
775.47692307692307
 20
105.12307692307692
 42
-0
  0
VERTEX
  8
0
 10
690.47692307692307
 20
105.12307692307692
 42
-0
  0
VERTEX
  8
0
 10
690.47692307692307
 20
155.12307692307692
 42
-0
  0
VERTEX
  8
0
 10
725.47692307692307
 20
190.12307692307692
 42
0
  0
VERTEX
  8
0
 10
775.47692307692307
 20
190.12307692307692
 42
0
  0
SEQEND
  0
POLYLINE
  8
0
 10
0
 20
0
 39
0
 70
1
 66
1
  0
VERTEX
  8
0
 10
775.47692307692307
 20
200.13846153846154
 42
-0
  0
VERTEX
  8
0
 10
690.47692307692307
 20
200.13846153846154
 42
-0
  0
VERTEX
  8
0
 10
690.47692307692307
 20
250.13846153846154
 42
-0
  0
VERTEX
  8
0
 10
725.47692307692307
 20
285.13846153846157
 42
0
  0
VERTEX
  8
0
 10
775.47692307692307
 20
285.13846153846157
 42
0
  0
SEQEND
  0
POLYLINE
  8
0
 10
0
 20
0
 39
0
 70
1
 66
1
  0
VERTEX
  8
0
 10
775.47692307692307
 20
295.15384615384613
 42
-0
  0
VERTEX
  8
0
 10
690.47692307692307
 20
295.15384615384613
 42
-0
  0
VERTEX
  8
0
 10
690.47692307692307
 20
345.15384615384613
 42
-0
  0
VERTEX
  8
0
 10
725.47692307692307
 20
380.15384615384613
 42
0
  0
VERTEX
  8
0
 10
775.47692307692307
 20
380.15384615384613
 42
0
  0
SEQEND
  0
POLYLINE
  8
0
 10
0
 20
0
 39
0
 70
1
 66
1
  0
VERTEX
  8
0
 10
785.38461538461536
 20
390.16923076923075
 42
-0
  0
VERTEX
  8
0
 10
700.38461538461536
 20
390.16923076923075
 42
-0
  0
VERTEX
  8
0
 10
700.38461538461536
 20
440.16923076923075
 42
-0
  0
VERTEX
  8
0
 10
735.38461538461536
 20
475.16923076923075
 42
0
  0
VERTEX
  8
0
 10
785.38461538461536
 20
475.16923076923075
 42
0
  0
SEQEND
  0
POLYLINE
  8
0
 10
0
 20
0
 39
0
 70
1
 66
1
  0
VERTEX
  8
0
 10
785.38461538461536
 20
485.18461538461537
 42
-0
  0
VERTEX
  8
0
 10
700.38461538461536
 20
485.18461538461537
 42
-0
  0
VERTEX
  8
0
 10
700.38461538461536
 20
535.18461538461543
 42
-0
  0
VERTEX
  8
0
 10
735.38461538461536
 20
570.18461538461543
 42
0
  0
VERTEX
  8
0
 10
785.38461538461536
 20
570.18461538461543
 42
0
  0
SEQEND
  0
POLYLINE
  8
0
 10
0
 20
0
 39
0
 70
1
 66
1
  0
VERTEX
  8
0
 10
110.1076923076923
 20
540.13846153846157
 42
-0
  0
VERTEX
  8
0
 10
10.107692307692304
 20
540.13846153846157
 42
-0
  0
VERTEX
  8
0
 10
10.107692307692304
 20
564.13846153846157
 42
-0
  0
VERTEX
  8
0
 10
18.107692307692304
 20
572.13846153846157
 42
-0
  0
VERTEX
  8
0
 10
110.1076923076923
 20
572.13846153846157
 42
-0
  0
SEQEND
  0
POLYLINE
  8
0
 10
0
 20
0
 39
0
 70
1
 66
1
  0
VERTEX
  8
0
 10
220.19999999999999
 20
540.13846153846157
 42
-0
  0
VERTEX
  8
0
 10
120.19999999999999
 20
540.13846153846157
 42
-0
  0
VERTEX
  8
0
 10
120.19999999999999
 20
564.13846153846157
 42
-0
  0
VERTEX
  8
0
 10
128.19999999999999
 20
572.13846153846157
 42
-0
  0
VERTEX
  8
0
 10
220.19999999999999
 20
572.13846153846157
 42
-0
  0
SEQEND
  0
POLYLINE
  8
0
 10
0
 20
0
 39
0
 70
1
 66
1
  0
VERTEX
  8
0
 10
330.2923076923077
 20
540.13846153846157
 42
-0
  0
VERTEX
  8
0
 10
230.2923076923077
 20
540.13846153846157
 42
-0
  0
VERTEX
  8
0
 10
230.2923076923077
 20
564.13846153846157
 42
-0
  0
VERTEX
  8
0
 10
238.2923076923077
 20
572.13846153846157
 42
-0
  0
VERTEX
  8
0
 10
330.2923076923077
 20
572.13846153846157
 42
-0
  0
SEQEND
  0
ENDSEC
  0
EOF
