  0
SECTION
  2
ENTITIES
  0
POLYLINE
  8
0
 10
0
 20
0
 39
0
 70
1
 66
1
  0
VERTEX
  8
0
 10
0
 20
0
 42
-0
  0
VERTEX
  8
0
 10
800
 20
0
 42
-0
  0
VERTEX
  8
0
 10
800
 20
500
 42
-0
  0
VERTEX
  8
0
 10
0
 20
500
 42
-0
  0
SEQEND
  0
POLYLINE
  8
0
 10
0
 20
0
 39
0
 70
1
 66
1
  0
VERTEX
  8
0
 10
10.10769230769232
 20
337.25620297358591
 42
-0
  0
VERTEX
  8
0
 10
179.1076923076923
 20
337.25620297358591
 42
0
  0
VERTEX
  8
0
 10
10.107692307692339
 20
31.426216401320264
 42
-0
  0
SEQEND
  0
POLYLINE
  8
0
 10
0
 20
0
 39
0
 70
1
 66
1
  0
VERTEX
  8
0
 10
179.10769230769228
 20
10.107692307692332
 42
-0
  0
VERTEX
  8
0
 10
10.107692307692275
 20
10.107692307692332
 42
0
  0
VERTEX
  8
0
 10
179.1076923076923
 20
315.93767887995796
 42
-0
  0
SEQEND
  0
POLYLINE
  8
0
 10
0
 20
0
 39
0
 70
1
 66
1
  0
VERTEX
  8
0
 10
189.1846153846154
 20
337.25620297358591
 42
-0
  0
VERTEX
  8
0
 10
358.18461538461543
 20
337.25620297358591
 42
0
  0
VERTEX
  8
0
 10
189.18461538461543
 20
31.426216401320264
 42
-0
  0
SEQEND
  0
POLYLINE
  8
0
 10
0
 20
0
 39
0
 70
1
 66
1
  0
VERTEX
  8
0
 10
358.18461538461543
 20
10.107692307692332
 42
-0
  0
VERTEX
  8
0
 10
189.1846153846154
 20
10.107692307692332
 42
0
  0
VERTEX
  8
0
 10
358.18461538461543
 20
315.93767887995796
 42
-0
  0
SEQEND
  0
POLYLINE
  8
0
 10
0
 20
0
 39
0
 70
1
 66
1
  0
VERTEX
  8
0
 10
320.10769230769233
 20
347.27692307692308
 42
-0
  0
VERTEX
  8
0
 10
30.107692307692332
 20
347.27692307692308
 42
0
  0
VERTEX
  8
0
 10
10.107692307692332
 20
487.27692307692308
 42
-0
  0
VERTEX
  8
0
 10
340.10769230769233
 20
487.27692307692308
 42
-0
  0
SEQEND
  0
POLYLINE
  8
0
 10
0
 20
0
 39
0
 70
1
 66
1
  0
VERTEX
  8
0
 10
393.26153846153846
 20
10.107692307692309
 42
-0
  0
VERTEX
  8
0
 10
368.26153846153846
 20
10.107692307692307
 42
-0
  0
VERTEX
  8
0
 10
368.26153846153846
 20
185.1076923076923
 42
-0
  0
VERTEX
  8
0
 10
378.26153846153846
 20
195.1076923076923
 42
-0
  0
VERTEX
  8
0
 10
498.26153846153846
 20
195.1076923076923
 42
-0
  0
VERTEX
  8
0
 10
498.26153846153846
 20
175.1076923076923
 42
0
  0
SEQEND
  0
POLYLINE
  8
0
 10
0
 20
0
 39
0
 70
1
 66
1
  0
VERTEX
  8
0
 10
523.04503846153852
 20
195.1076923076923
 42
-0
  0
VERTEX
  8
0
 10
548.04503846153852
 20
195.1076923076923
 42
-0
  0
VERTEX
  8
0
 10
548.04503846153852
 20
20.107692307692304
 42
-0
  0
VERTEX
  8
0
 10
538.04503846153852
 20
10.107692307692304
 42
-0
  0
VERTEX
  8
0
 10
418.04503846153852
 20
10.107692307692304
 42
-0
  0
VERTEX
  8
0
 10
418.04503846153852
 20
30.107692307692304
 42
0
  0
SEQEND
  0
POLYLINE
  8
0
 10
0
 20
0
 39
0
 70
1
 66
1
  0
VERTEX
  8
0
 10
393.26153846153846
 20
205.12307692307692
 42
-0
  0
VERTEX
  8
0
 10
368.26153846153846
 20
205.12307692307692
 42
-0
  0
VERTEX
  8
0
 10
368.26153846153846
 20
380.12307692307695
 42
-0
  0
VERTEX
  8
0
 10
378.26153846153846
 20
390.12307692307695
 42
-0
  0
VERTEX
  8
0
 10
498.26153846153846
 20
390.12307692307695
 42
-0
  0
VERTEX
  8
0
 10
498.26153846153846
 20
370.12307692307695
 42
0
  0
SEQEND
  0
POLYLINE
  8
0
 10
0
 20
0
 39
0
 70
1
 66
1
  0
VERTEX
  8
0
 10
523.04503846153852
 20
390.12307692307695
 42
-0
  0
VERTEX
  8
0
 10
548.04503846153852
 20
390.12307692307695
 42
-0
  0
VERTEX
  8
0
 10
548.04503846153852
 20
215.12307692307695
 42
-0
  0
VERTEX
  8
0
 10
538.04503846153852
 20
205.12307692307695
 42
-0
  0
VERTEX
  8
0
 10
418.04503846153852
 20
205.12307692307695
 42
-0
  0
VERTEX
  8
0
 10
418.04503846153852
 20
225.12307692307695
 42
0
  0
SEQEND
  0
POLYLINE
  8
0
 10
0
 20
0
 39
0
 70
1
 66
1
  0
VERTEX
  8
0
 10
583.10769230769233
 20
10.107692307692309
 42
-0
  0
VERTEX
  8
0
 10
558.10769230769233
 20
10.107692307692307
 42
-0
  0
VERTEX
  8
0
 10
558.10769230769233
 20
185.1076923076923
 42
-0
  0
VERTEX
  8
0
 10
568.10769230769233
 20
195.1076923076923
 42
-0
  0
VERTEX
  8
0
 10
688.10769230769233
 20
195.1076923076923
 42
-0
  0
VERTEX
  8
0
 10
688.10769230769233
 20
175.1076923076923
 42
0
  0
SEQEND
  0
POLYLINE
  8
0
 10
0
 20
0
 39
0
 70
1
 66
1
  0
VERTEX
  8
0
 10
712.89119230769234
 20
195.1076923076923
 42
-0
  0
VERTEX
  8
0
 10
737.89119230769234
 20
195.1076923076923
 42
-0
  0
VERTEX
  8
0
 10
737.89119230769234
 20
20.107692307692304
 42
-0
  0
VERTEX
  8
0
 10
727.89119230769234
 20
10.107692307692304
 42
-0
  0
VERTEX
  8
0
 10
607.89119230769234
 20
10.107692307692304
 42
-0
  0
VERTEX
  8
0
 10
607.89119230769234
 20
30.107692307692304
 42
0
  0
SEQEND
  0
POLYLINE
  8
0
 10
0
 20
0
 39
0
 70
1
 66
1
  0
VERTEX
  8
0
 10
583.10769230769233
 20
205.12307692307692
 42
-0
  0
VERTEX
  8
0
 10
558.10769230769233
 20
205.12307692307692
 42
-0
  0
VERTEX
  8
0
 10
558.10769230769233
 20
380.12307692307695
 42
-0
  0
VERTEX
  8
0
 10
568.10769230769233
 20
390.12307692307695
 42
-0
  0
VERTEX
  8
0
 10
688.10769230769233
 20
390.12307692307695
 42
-0
  0
VERTEX
  8
0
 10
688.10769230769233
 20
370.12307692307695
 42
0
  0
SEQEND
  0
POLYLINE
  8
0
 10
0
 20
0
 39
0
 70
1
 66
1
  0
VERTEX
  8
0
 10
712.89119230769234
 20
390.12307692307695
 42
-0
  0
VERTEX
  8
0
 10
737.89119230769234
 20
390.12307692307695
 42
-0
  0
VERTEX
  8
0
 10
737.89119230769234
 20
215.12307692307695
 42
-0
  0
VERTEX
  8
0
 10
727.89119230769234
 20
205.12307692307695
 42
-0
  0
VERTEX
  8
0
 10
607.89119230769234
 20
205.12307692307695
 42
-0
  0
VERTEX
  8
0
 10
607.89119230769234
 20
225.12307692307695
 42
0
  0
SEQEND
  0
POLYLINE
  8
0
 10
0
 20
0
 39
0
 70
1
 66
1
  0
VERTEX
  8
0
 10
531.96923076923076
 20
400.13846153846151
 42
-0
  0
VERTEX
  8
0
 10
346.96923076923076
 20
400.13846153846151
 42
-0
  0
VERTEX
  8
0
 10
346.96923076923076
 20
463.13846153846151
 42
-0
  0
VERTEX
  8
0
 10
356.96923076923076
 20
473.13846153846151
 42
-0
  0
VERTEX
  8
0
 10
521.96923076923076
 20
473.13846153846151
 42
-0
  0
VERTEX
  8
0
 10
531.96923076923076
 20
463.13846153846151
 42
-0
  0
SEQEND
  0
POLYLINE
  8
0
 10
0
 20
0
 39
0
 70
1
 66
1
  0
VERTEX
  8
0
 10
727.04615384615386
 20
400.13846153846151
 42
-0
  0
VERTEX
  8
0
 10
542.04615384615386
 20
400.13846153846151
 42
-0
  0
VERTEX
  8
0
 10
542.04615384615386
 20
463.13846153846151
 42
-0
  0
VERTEX
  8
0
 10
552.04615384615386
 20
473.13846153846151
 42
-0
  0
VERTEX
  8
0
 10
717.04615384615386
 20
473.13846153846151
 42
-0
  0
VERTEX
  8
0
 10
727.04615384615386
 20
463.13846153846151
 42
-0
  0
SEQEND
  0
POLYLINE
  8
0
 10
0
 20
0
 39
0
 70
1
 66
1
  0
VERTEX
  8
0
 10
728.13846153846157
 20
479.87692307692305
 42
0
  0
VERTEX
  8
0
 10
778.13846153846157
 20
404.87692307692305
 42
0
  0
VERTEX
  8
0
 10
788.13846153846157
 20
404.87692307692305
 42
0
  0
VERTEX
  8
0
 10
788.13846153846157
 20
489.87692307692305
 42
0
  0
VERTEX
  8
0
 10
728.13846153846157
 20
489.87692307692305
 42
0
  0
SEQEND
  0
POLYLINE
  8
0
 10
0
 20
0
 39
0
 70
1
 66
1
  0
VERTEX
  8
0
 10
747.95384615384614
 20
10.107692307692307
 42
-0
  0
VERTEX
  8
0
 10
747.95384615384614
 20
110.1076923076923
 42
-0
  0
VERTEX
  8
0
 10
771.95384615384614
 20
110.1076923076923
 42
-0
  0
VERTEX
  8
0
 10
779.95384615384614
 20
102.1076923076923
 42
-0
  0
VERTEX
  8
0
 10
779.95384615384614
 20
10.107692307692309
 42
-0
  0
SEQEND
  0
POLYLINE
  8
0
 10
0
 20
0
 39
0
 70
1
 66
1
  0
VERTEX
  8
0
 10
747.95384615384614
 20
120.13846153846154
 42
-0
  0
VERTEX
  8
0
 10
747.95384615384614
 20
220.13846153846154
 42
-0
  0
VERTEX
  8
0
 10
771.95384615384614
 20
220.13846153846154
 42
-0
  0
VERTEX
  8
0
 10
779.95384615384614
 20
212.13846153846154
 42
-0
  0
VERTEX
  8
0
 10
779.95384615384614
 20
120.13846153846154
 42
-0
  0
SEQEND
  0
POLYLINE
  8
0
 10
0
 20
0
 39
0
 70
1
 66
1
  0
VERTEX
  8
0
 10
747.95384615384614
 20
230.16923076923078
 42
-0
  0
VERTEX
  8
0
 10
747.95384615384614
 20
330.16923076923081
 42
-0
  0
VERTEX
  8
0
 10
771.95384615384614
 20
330.16923076923081
 42
-0
  0
VERTEX
  8
0
 10
779.95384615384614
 20
322.16923076923081
 42
-0
  0
VERTEX
  8
0
 10
779.95384615384614
 20
230.16923076923078
 42
-0
  0
SEQEND
  0
POLYLINE
  8
0
 10
0
 20
0
 39
0
 70
1
 66
1
  0
VERTEX
  8
0
 10
336.13846153846151
 20
347.27692307692308
 42
0
  0
VERTEX
  8
0
 10
336.13846153846151
 20
387.27692307692308
 42
0
  0
VERTEX
  8
0
 10
356.13846153846151
 20
387.27692307692308
 42
0
  0
VERTEX
  8
0
 10
356.13846153846151
 20
347.27692307692308
 42
0
  0
SEQEND
  0
POLYLINE
  8
0
 10
0
 20
0
 39
0
 70
1
 66
1
  0
VERTEX
  8
0
 10
747.95384615384614
 20
340.19999999999999
 42
0
  0
VERTEX
  8
0
 10
747.95384615384614
 20
380.19999999999999
 42
0
  0
VERTEX
  8
0
 10
767.95384615384614
 20
380.19999999999999
 42
0
  0
VERTEX
  8
0
 10
767.95384615384614
 20
340.19999999999999
 42
0
  0
SEQEND
  0
ENDSEC
  0
EOF
