  0
SECTION
  2
ENTITIES
  0
POLYLINE
  8
0
 10
0
 20
0
 39
0
 70
1
 66
1
  0
VERTEX
  8
0
 10
0
 20
0
 42
-0
  0
VERTEX
  8
0
 10
1000
 20
0
 42
-0
  0
VERTEX
  8
0
 10
1000
 20
600
 42
-0
  0
VERTEX
  8
0
 10
0
 20
600
 42
-0
  0
SEQEND
  0
POLYLINE
  8
0
 10
0
 20
0
 39
0
 70
1
 66
1
  0
VERTEX
  8
0
 10
280.19999999999999
 20
20.199999999999999
 42
0
  0
VERTEX
  8
0
 10
270.19999999999999
 20
10.199999999999999
 42
0
  0
VERTEX
  8
0
 10
20.199999999999989
 20
10.199999999999999
 42
0
  0
VERTEX
  8
0
 10
10.199999999999989
 20
20.199999999999999
 42
0
  0
VERTEX
  8
0
 10
10.199999999999989
 20
384.19999999999999
 42
0
  0
VERTEX
  8
0
 10
45.199999999999989
 20
384.19999999999999
 42
0
  0
VERTEX
  8
0
 10
45.199999999999989
 20
250.19999999999999
 42
1
  0
VERTEX
  8
0
 10
245.19999999999999
 20
250.19999999999999
 42
0
  0
VERTEX
  8
0
 10
245.19999999999999
 20
384.19999999999999
 42
0
  0
VERTEX
  8
0
 10
280.19999999999999
 20
384.19999999999999
 42
0
  0
SEQEND
  0
POLYLINE
  8
0
 10
0
 20
0
 39
0
 70
1
 66
1
  0
VERTEX
  8
0
 10
62.399999999999999
 20
579.70000000000005
 42
0
  0
VERTEX
  8
0
 10
72.400000000000006
 20
589.70000000000005
 42
0
  0
VERTEX
  8
0
 10
322.39999999999998
 20
589.70000000000005
 42
0
  0
VERTEX
  8
0
 10
332.39999999999998
 20
579.70000000000005
 42
0
  0
VERTEX
  8
0
 10
332.40000000000003
 20
215.7000000000001
 42
0
  0
VERTEX
  8
0
 10
297.40000000000003
 20
215.7000000000001
 42
0
  0
VERTEX
  8
0
 10
297.40000000000003
 20
349.70000000000005
 42
1
  0
VERTEX
  8
0
 10
97.400000000000034
 20
349.70000000000005
 42
0
  0
VERTEX
  8
0
 10
97.400000000000034
 20
215.70000000000005
 42
0
  0
VERTEX
  8
0
 10
62.400000000000041
 20
215.70000000000005
 42
0
  0
SEQEND
  0
POLYLINE
  8
0
 10
0
 20
0
 39
0
 70
1
 66
1
  0
VERTEX
  8
0
 10
612.60000000000002
 20
20.199999999999999
 42
0
  0
VERTEX
  8
0
 10
602.60000000000002
 20
10.199999999999999
 42
0
  0
VERTEX
  8
0
 10
352.60000000000002
 20
10.199999999999999
 42
0
  0
VERTEX
  8
0
 10
342.60000000000002
 20
20.199999999999999
 42
0
  0
VERTEX
  8
0
 10
342.60000000000002
 20
384.19999999999999
 42
0
  0
VERTEX
  8
0
 10
377.60000000000002
 20
384.19999999999999
 42
0
  0
VERTEX
  8
0
 10
377.60000000000002
 20
250.19999999999999
 42
1
  0
VERTEX
  8
0
 10
577.60000000000002
 20
250.19999999999999
 42
0
  0
VERTEX
  8
0
 10
577.60000000000002
 20
384.19999999999999
 42
0
  0
VERTEX
  8
0
 10
612.60000000000002
 20
384.19999999999999
 42
0
  0
SEQEND
  0
POLYLINE
  8
0
 10
0
 20
0
 39
0
 70
1
 66
1
  0
VERTEX
  8
0
 10
394.80000000000001
 20
579.70000000000005
 42
0
  0
VERTEX
  8
0
 10
404.80000000000001
 20
589.70000000000005
 42
0
  0
VERTEX
  8
0
 10
654.79999999999995
 20
589.70000000000005
 42
0
  0
VERTEX
  8
0
 10
664.79999999999995
 20
579.70000000000005
 42
0
  0
VERTEX
  8
0
 10
664.80000000000007
 20
215.7000000000001
 42
0
  0
VERTEX
  8
0
 10
629.80000000000007
 20
215.7000000000001
 42
0
  0
VERTEX
  8
0
 10
629.80000000000007
 20
349.70000000000005
 42
1
  0
VERTEX
  8
0
 10
429.80000000000007
 20
349.70000000000005
 42
0
  0
VERTEX
  8
0
 10
429.80000000000007
 20
215.70000000000005
 42
0
  0
VERTEX
  8
0
 10
394.80000000000007
 20
215.70000000000005
 42
0
  0
SEQEND
  0
POLYLINE
  8
0
 10
0
 20
0
 39
0
 70
1
 66
1
  0
VERTEX
  8
0
 10
945
 20
20.199999999999999
 42
0
  0
VERTEX
  8
0
 10
935
 20
10.199999999999999
 42
0
  0
VERTEX
  8
0
 10
685
 20
10.199999999999999
 42
0
  0
VERTEX
  8
0
 10
675
 20
20.199999999999999
 42
0
  0
VERTEX
  8
0
 10
675
 20
384.19999999999999
 42
0
  0
VERTEX
  8
0
 10
710
 20
384.19999999999999
 42
0
  0
VERTEX
  8
0
 10
710
 20
250.19999999999999
 42
1
  0
VERTEX
  8
0
 10
910
 20
250.19999999999999
 42
0
  0
VERTEX
  8
0
 10
910
 20
384.19999999999999
 42
0
  0
VERTEX
  8
0
 10
945
 20
384.19999999999999
 42
0
  0
SEQEND
  0
POLYLINE
  8
0
 10
0
 20
0
 39
0
 70
1
 66
1
  0
VERTEX
  8
0
 10
159.09999999999997
 20
326.10000000000002
 42
-0
  0
VERTEX
  8
0
 10
159.09999999999999
 20
168.10000000000002
 42
-0
  0
VERTEX
  8
0
 10
109.10000000000001
 20
168.10000000000002
 42
-0
  0
VERTEX
  8
0
 10
109.09999999999998
 20
326.10000000000002
 42
-0
  0
VERTEX
  8
0
 10
120.59999999999998
 20
326.10000000000002
 42
0
  0
VERTEX
  8
0
 10
120.59999999999997
 20
396.10000000000002
 42
-0
  0
VERTEX
  8
0
 10
147.59999999999997
 20
396.10000000000002
 42
-0
  0
VERTEX
  8
0
 10
147.59999999999997
 20
326.10000000000002
 42
-0
  0
SEQEND
  0
POLYLINE
  8
0
 10
0
 20
0
 39
0
 70
1
 66
1
  0
VERTEX
  8
0
 10
169.30000000000001
 20
255.90000000000001
 42
-0
  0
VERTEX
  8
0
 10
169.30000000000001
 20
413.89999999999998
 42
-0
  0
VERTEX
  8
0
 10
219.30000000000001
 20
413.89999999999998
 42
-0
  0
VERTEX
  8
0
 10
219.30000000000001
 20
255.90000000000001
 42
-0
  0
VERTEX
  8
0
 10
207.80000000000001
 20
255.90000000000001
 42
0
  0
VERTEX
  8
0
 10
207.80000000000001
 20
185.90000000000001
 42
-0
  0
VERTEX
  8
0
 10
180.80000000000001
 20
185.90000000000001
 42
-0
  0
VERTEX
  8
0
 10
180.80000000000001
 20
255.90000000000001
 42
-0
  0
SEQEND
  0
POLYLINE
  8
0
 10
0
 20
0
 39
0
 70
1
 66
1
  0
VERTEX
  8
0
 10
491.5
 20
326.10000000000002
 42
-0
  0
VERTEX
  8
0
 10
491.50000000000006
 20
168.10000000000002
 42
-0
  0
VERTEX
  8
0
 10
441.50000000000006
 20
168.10000000000002
 42
-0
  0
VERTEX
  8
0
 10
441.5
 20
326.10000000000002
 42
-0
  0
VERTEX
  8
0
 10
453
 20
326.10000000000002
 42
0
  0
VERTEX
  8
0
 10
453
 20
396.10000000000002
 42
-0
  0
VERTEX
  8
0
 10
480
 20
396.10000000000002
 42
-0
  0
VERTEX
  8
0
 10
480
 20
326.10000000000002
 42
-0
  0
SEQEND
  0
POLYLINE
  8
0
 10
0
 20
0
 39
0
 70
1
 66
1
  0
VERTEX
  8
0
 10
501.69999999999999
 20
255.90000000000001
 42
-0
  0
VERTEX
  8
0
 10
501.69999999999999
 20
413.89999999999998
 42
-0
  0
VERTEX
  8
0
 10
551.69999999999993
 20
413.89999999999998
 42
-0
  0
VERTEX
  8
0
 10
551.69999999999993
 20
255.90000000000001
 42
-0
  0
VERTEX
  8
0
 10
540.19999999999993
 20
255.90000000000001
 42
0
  0
VERTEX
  8
0
 10
540.20000000000005
 20
185.90000000000001
 42
-0
  0
VERTEX
  8
0
 10
513.20000000000005
 20
185.90000000000001
 42
-0
  0
VERTEX
  8
0
 10
513.19999999999993
 20
255.90000000000001
 42
-0
  0
SEQEND
  0
POLYLINE
  8
0
 10
0
 20
0
 39
0
 70
1
 66
1
  0
VERTEX
  8
0
 10
708.79999999999995
 20
394.39999999999998
 42
-0
  0
VERTEX
  8
0
 10
708.79999999999995
 20
552.39999999999998
 42
-0
  0
VERTEX
  8
0
 10
758.79999999999995
 20
552.39999999999998
 42
-0
  0
VERTEX
  8
0
 10
758.79999999999995
 20
394.39999999999998
 42
-0
  0
VERTEX
  8
0
 10
747.29999999999995
 20
394.39999999999998
 42
0
  0
VERTEX
  8
0
 10
747.29999999999995
 20
324.39999999999998
 42
-0
  0
VERTEX
  8
0
 10
720.29999999999995
 20
324.39999999999998
 42
-0
  0
VERTEX
  8
0
 10
720.29999999999995
 20
394.39999999999998
 42
-0
  0
SEQEND
  0
POLYLINE
  8
0
 10
0
 20
0
 39
0
 70
1
 66
1
  0
VERTEX
  8
0
 10
807.70000000000005
 20
335.30000000000001
 42
-0
  0
VERTEX
  8
0
 10
807.70000000000005
 20
177.30000000000001
 42
-0
  0
VERTEX
  8
0
 10
757.70000000000005
 20
177.30000000000001
 42
-0
  0
VERTEX
  8
0
 10
757.70000000000005
 20
335.30000000000001
 42
-0
  0
VERTEX
  8
0
 10
769.20000000000005
 20
335.30000000000001
 42
0
  0
VERTEX
  8
0
 10
769.20000000000005
 20
405.30000000000001
 42
-0
  0
VERTEX
  8
0
 10
796.20000000000005
 20
405.30000000000001
 42
-0
  0
VERTEX
  8
0
 10
796.20000000000005
 20
335.30000000000001
 42
-0
  0
SEQEND
  0
POLYLINE
  8
0
 10
0
 20
0
 39
0
 70
1
 66
1
  0
VERTEX
  8
0
 10
794.89999999999998
 20
423.89999999999998
 42
-0
  0
VERTEX
  8
0
 10
794.89999999999998
 20
581.89999999999998
 42
-0
  0
VERTEX
  8
0
 10
844.89999999999998
 20
581.89999999999998
 42
-0
  0
VERTEX
  8
0
 10
844.89999999999998
 20
423.89999999999998
 42
-0
  0
VERTEX
  8
0
 10
833.39999999999998
 20
423.89999999999998
 42
0
  0
VERTEX
  8
0
 10
833.39999999999998
 20
353.89999999999998
 42
-0
  0
VERTEX
  8
0
 10
806.39999999999998
 20
353.89999999999998
 42
-0
  0
VERTEX
  8
0
 10
806.39999999999998
 20
423.89999999999998
 42
-0
  0
SEQEND
  0
POLYLINE
  8
0
 10
0
 20
0
 39
0
 70
1
 66
1
  0
VERTEX
  8
0
 10
893.79999999999995
 20
376.19999999999999
 42
-0
  0
VERTEX
  8
0
 10
893.79999999999995
 20
218.19999999999999
 42
-0
  0
VERTEX
  8
0
 10
843.79999999999995
 20
218.19999999999999
 42
-0
  0
VERTEX
  8
0
 10
843.79999999999995
 20
376.19999999999999
 42
-0
  0
VERTEX
  8
0
 10
855.29999999999995
 20
376.19999999999999
 42
0
  0
VERTEX
  8
0
 10
855.29999999999995
 20
446.19999999999999
 42
-0
  0
VERTEX
  8
0
 10
882.29999999999995
 20
446.19999999999999
 42
-0
  0
VERTEX
  8
0
 10
882.29999999999995
 20
376.19999999999999
 42
-0
  0
SEQEND
  0
POLYLINE
  8
0
 10
0
 20
0
 39
0
 70
1
 66
1
  0
VERTEX
  8
0
 10
50.200000000000003
 20
394.30000000000001
 42
-0
  0
VERTEX
  8
0
 10
10.200000000000003
 20
394.30000000000001
 42
0
  0
VERTEX
  8
0
 10
10.200000000000003
 20
406.70928649902345
 42
1
  0
VERTEX
  8
0
 10
10.200000000000003
 20
426.70928649902345
 42
0
  0
VERTEX
  8
0
 10
10.200000000000003
 20
511.89071350097657
 42
1
  0
VERTEX
  8
0
 10
10.200000000000003
 20
531.89071350097652
 42
0
  0
VERTEX
  8
0
 10
10.200000000000003
 20
544.29999999999995
 42
0
  0
VERTEX
  8
0
 10
50.199999999999996
 20
544.29999999999995
 42
0
  0
VERTEX
  8
0
 10
50.199999999999996
 20
504.30000000000001
 42
-0
  0
VERTEX
  8
0
 10
30.200000000000003
 20
504.30000000000001
 42
-0
  0
VERTEX
  8
0
 10
30.200000000000003
 20
434.30000000000001
 42
0
  0
VERTEX
  8
0
 10
50.199999999999996
 20
434.30000000000001
 42
0
  0
SEQEND
  0
POLYLINE
  8
0
 10
0
 20
0
 39
0
 70
1
 66
1
  0
VERTEX
  8
0
 10
330.39999999999998
 20
10.199999999999999
 42
-0
  0
VERTEX
  8
0
 10
290.39999999999998
 20
10.199999999999999
 42
0
  0
VERTEX
  8
0
 10
290.39999999999998
 20
22.609286499023437
 42
1
  0
VERTEX
  8
0
 10
290.39999999999998
 20
42.60928649902344
 42
0
  0
VERTEX
  8
0
 10
290.39999999999998
 20
127.79071350097657
 42
1
  0
VERTEX
  8
0
 10
290.39999999999998
 20
147.79071350097655
 42
0
  0
VERTEX
  8
0
 10
290.39999999999998
 20
160.19999999999999
 42
0
  0
VERTEX
  8
0
 10
330.39999999999998
 20
160.19999999999999
 42
0
  0
VERTEX
  8
0
 10
330.39999999999998
 20
120.2
 42
-0
  0
VERTEX
  8
0
 10
310.39999999999998
 20
120.2
 42
-0
  0
VERTEX
  8
0
 10
310.39999999999998
 20
50.200000000000003
 42
0
  0
VERTEX
  8
0
 10
330.39999999999998
 20
50.200000000000003
 42
0
  0
SEQEND
  0
POLYLINE
  8
0
 10
0
 20
0
 39
0
 70
1
 66
1
  0
VERTEX
  8
0
 10
382.60000000000002
 20
394.30000000000001
 42
-0
  0
VERTEX
  8
0
 10
342.60000000000002
 20
394.30000000000001
 42
0
  0
VERTEX
  8
0
 10
342.60000000000002
 20
406.70928649902345
 42
1
  0
VERTEX
  8
0
 10
342.60000000000002
 20
426.70928649902345
 42
0
  0
VERTEX
  8
0
 10
342.60000000000002
 20
511.89071350097657
 42
1
  0
VERTEX
  8
0
 10
342.60000000000002
 20
531.89071350097652
 42
0
  0
VERTEX
  8
0
 10
342.60000000000002
 20
544.29999999999995
 42
0
  0
VERTEX
  8
0
 10
382.60000000000002
 20
544.29999999999995
 42
0
  0
VERTEX
  8
0
 10
382.60000000000002
 20
504.30000000000001
 42
-0
  0
VERTEX
  8
0
 10
362.60000000000002
 20
504.30000000000001
 42
-0
  0
VERTEX
  8
0
 10
362.60000000000002
 20
434.30000000000001
 42
0
  0
VERTEX
  8
0
 10
382.60000000000002
 20
434.30000000000001
 42
0
  0
SEQEND
  0
POLYLINE
  8
0
 10
0
 20
0
 39
0
 70
1
 66
1
  0
VERTEX
  8
0
 10
662.79999999999995
 20
10.199999999999999
 42
-0
  0
VERTEX
  8
0
 10
622.79999999999995
 20
10.199999999999999
 42
0
  0
VERTEX
  8
0
 10
622.79999999999995
 20
22.609286499023437
 42
1
  0
VERTEX
  8
0
 10
622.79999999999995
 20
42.60928649902344
 42
0
  0
VERTEX
  8
0
 10
622.79999999999995
 20
127.79071350097657
 42
1
  0
VERTEX
  8
0
 10
622.79999999999995
 20
147.79071350097655
 42
0
  0
VERTEX
  8
0
 10
622.79999999999995
 20
160.19999999999999
 42
0
  0
VERTEX
  8
0
 10
662.79999999999995
 20
160.19999999999999
 42
0
  0
VERTEX
  8
0
 10
662.79999999999995
 20
120.2
 42
-0
  0
VERTEX
  8
0
 10
642.79999999999995
 20
120.2
 42
-0
  0
VERTEX
  8
0
 10
642.79999999999995
 20
50.200000000000003
 42
0
  0
VERTEX
  8
0
 10
662.79999999999995
 20
50.200000000000003
 42
0
  0
SEQEND
  0
POLYLINE
  8
0
 10
0
 20
0
 39
0
 70
1
 66
1
  0
VERTEX
  8
0
 10
932.39999999999998
 20
395.19999999999999
 42
-0
  0
VERTEX
  8
0
 10
892.39999999999998
 20
395.19999999999999
 42
0
  0
VERTEX
  8
0
 10
892.39999999999998
 20
407.60928649902343
 42
1
  0
VERTEX
  8
0
 10
892.39999999999998
 20
427.60928649902343
 42
0
  0
VERTEX
  8
0
 10
892.39999999999998
 20
512.79071350097661
 42
1
  0
VERTEX
  8
0
 10
892.39999999999998
 20
532.79071350097661
 42
0
  0
VERTEX
  8
0
 10
892.39999999999998
 20
545.20000000000005
 42
0
  0
VERTEX
  8
0
 10
932.39999999999998
 20
545.20000000000005
 42
0
  0
VERTEX
  8
0
 10
932.39999999999998
 20
505.19999999999999
 42
-0
  0
VERTEX
  8
0
 10
912.39999999999998
 20
505.19999999999999
 42
-0
  0
VERTEX
  8
0
 10
912.39999999999998
 20
435.19999999999999
 42
0
  0
VERTEX
  8
0
 10
932.39999999999998
 20
435.19999999999999
 42
0
  0
SEQEND
  0
POLYLINE
  8
0
 10
0
 20
0
 39
0
 70
1
 66
1
  0
VERTEX
  8
0
 10
941.60000000000002
 20
589.79999999999995
 42
-0
  0
VERTEX
  8
0
 10
981.60000000000002
 20
589.79999999999995
 42
0
  0
VERTEX
  8
0
 10
981.60000000000002
 20
577.39071350097652
 42
1
  0
VERTEX
  8
0
 10
981.60000000000002
 20
557.39071350097652
 42
0
  0
VERTEX
  8
0
 10
981.60000000000002
 20
472.20928649902339
 42
1
  0
VERTEX
  8
0
 10
981.60000000000002
 20
452.20928649902339
 42
0
  0
VERTEX
  8
0
 10
981.60000000000002
 20
439.79999999999995
 42
0
  0
VERTEX
  8
0
 10
941.60000000000002
 20
439.79999999999995
 42
0
  0
VERTEX
  8
0
 10
941.60000000000002
 20
479.79999999999995
 42
-0
  0
VERTEX
  8
0
 10
961.60000000000002
 20
479.79999999999995
 42
-0
  0
VERTEX
  8
0
 10
961.60000000000002
 20
549.79999999999995
 42
0
  0
VERTEX
  8
0
 10
941.60000000000002
 20
549.79999999999995
 42
0
  0
SEQEND
  0
ENDSEC
  0
EOF
