  0
SECTION
  2
ENTITIES
  0
POLYLINE
  8
0
 10
0
 20
0
 39
0
 70
1
 66
1
  0
VERTEX
  8
0
 10
0
 20
0
 42
-0
  0
VERTEX
  8
0
 10
1000
 20
0
 42
-0
  0
VERTEX
  8
0
 10
1000
 20
600
 42
-0
  0
VERTEX
  8
0
 10
0
 20
600
 42
-0
  0
SEQEND
  0
POLYLINE
  8
0
 10
0
 20
0
 39
0
 70
1
 66
1
  0
VERTEX
  8
0
 10
280.20001220703125
 20
20.200000762939453
 42
-0
  0
VERTEX
  8
0
 10
280.20001220703125
 20
384.20001220703125
 42
-0
  0
VERTEX
  8
0
 10
245.19999694824219
 20
384.20001220703125
 42
-0
  0
VERTEX
  8
0
 10
245.19999694824219
 20
250.19999694824219
 42
-1
  0
VERTEX
  8
0
 10
45.200000762939453
 20
250.19999694824219
 42
-0
  0
VERTEX
  8
0
 10
45.200000762939453
 20
384.20001220703125
 42
-0
  0
VERTEX
  8
0
 10
10.199999809265137
 20
384.20001220703125
 42
-0
  0
VERTEX
  8
0
 10
10.199999809265137
 20
20.200000762939453
 42
-0
  0
VERTEX
  8
0
 10
20.200000762939453
 20
10.199999809265137
 42
-0
  0
VERTEX
  8
0
 10
270.20001220703125
 20
10.199999809265137
 42
-0
  0
SEQEND
  0
POLYLINE
  8
0
 10
0
 20
0
 39
0
 70
1
 66
1
  0
VERTEX
  8
0
 10
62.400001525878906
 20
579.70001220703125
 42
-0
  0
VERTEX
  8
0
 10
62.400001525878906
 20
215.69999694824219
 42
-0
  0
VERTEX
  8
0
 10
97.400001525878906
 20
215.69999694824219
 42
-0
  0
VERTEX
  8
0
 10
97.400001525878906
 20
349.70001220703125
 42
-1
  0
VERTEX
  8
0
 10
297.39999389648437
 20
349.70001220703125
 42
-0
  0
VERTEX
  8
0
 10
297.39999389648437
 20
215.69999694824219
 42
-0
  0
VERTEX
  8
0
 10
332.39999389648437
 20
215.69999694824219
 42
-0
  0
VERTEX
  8
0
 10
332.39999389648437
 20
579.70001220703125
 42
-0
  0
VERTEX
  8
0
 10
322.39999389648438
 20
589.70001220703125
 42
-0
  0
VERTEX
  8
0
 10
72.400001525878906
 20
589.70001220703125
 42
-0
  0
SEQEND
  0
POLYLINE
  8
0
 10
0
 20
0
 39
0
 70
1
 66
1
  0
VERTEX
  8
0
 10
612.5999755859375
 20
20.200000762939453
 42
-0
  0
VERTEX
  8
0
 10
612.5999755859375
 20
384.20001220703125
 42
-0
  0
VERTEX
  8
0
 10
577.5999755859375
 20
384.20001220703125
 42
-0
  0
VERTEX
  8
0
 10
577.5999755859375
 20
250.19999694824219
 42
-1
  0
VERTEX
  8
0
 10
377.60000610351562
 20
250.19999694824219
 42
-0
  0
VERTEX
  8
0
 10
377.60000610351562
 20
384.20001220703125
 42
-0
  0
VERTEX
  8
0
 10
342.60000610351562
 20
384.20001220703125
 42
-0
  0
VERTEX
  8
0
 10
342.60000610351562
 20
20.200000762939453
 42
-0
  0
VERTEX
  8
0
 10
352.60000610351562
 20
10.199999809265137
 42
-0
  0
VERTEX
  8
0
 10
602.5999755859375
 20
10.199999809265137
 42
-0
  0
SEQEND
  0
POLYLINE
  8
0
 10
0
 20
0
 39
0
 70
1
 66
1
  0
VERTEX
  8
0
 10
394.79998779296875
 20
579.70001220703125
 42
-0
  0
VERTEX
  8
0
 10
394.79998779296875
 20
215.69999694824219
 42
-0
  0
VERTEX
  8
0
 10
429.79998779296875
 20
215.69999694824219
 42
-0
  0
VERTEX
  8
0
 10
429.79998779296875
 20
349.70001220703125
 42
-1
  0
VERTEX
  8
0
 10
629.79998779296875
 20
349.70001220703125
 42
-0
  0
VERTEX
  8
0
 10
629.79998779296875
 20
215.69999694824219
 42
-0
  0
VERTEX
  8
0
 10
664.79998779296875
 20
215.69999694824219
 42
-0
  0
VERTEX
  8
0
 10
664.79998779296875
 20
579.70001220703125
 42
-0
  0
VERTEX
  8
0
 10
654.79998779296875
 20
589.70001220703125
 42
-0
  0
VERTEX
  8
0
 10
404.79998779296875
 20
589.70001220703125
 42
-0
  0
SEQEND
  0
POLYLINE
  8
0
 10
0
 20
0
 39
0
 70
1
 66
1
  0
VERTEX
  8
0
 10
945
 20
20.200000762939453
 42
-0
  0
VERTEX
  8
0
 10
945
 20
384.20001220703125
 42
-0
  0
VERTEX
  8
0
 10
910
 20
384.20001220703125
 42
-0
  0
VERTEX
  8
0
 10
910
 20
250.19999694824219
 42
-1
  0
VERTEX
  8
0
 10
710
 20
250.19999694824219
 42
-0
  0
VERTEX
  8
0
 10
710
 20
384.20001220703125
 42
-0
  0
VERTEX
  8
0
 10
675
 20
384.20001220703125
 42
-0
  0
VERTEX
  8
0
 10
675
 20
20.200000762939453
 42
-0
  0
VERTEX
  8
0
 10
685
 20
10.199999809265137
 42
-0
  0
VERTEX
  8
0
 10
935
 20
10.199999809265137
 42
-0
  0
SEQEND
  0
POLYLINE
  8
0
 10
0
 20
0
 39
0
 70
1
 66
1
  0
VERTEX
  8
0
 10
159.10000610351562
 20
326.10000610351562
 42
0
  0
VERTEX
  8
0
 10
147.60000610351562
 20
326.10000610351562
 42
0
  0
VERTEX
  8
0
 10
147.60000610351562
 20
396.10000610351562
 42
0
  0
VERTEX
  8
0
 10
120.59999847412109
 20
396.10000610351562
 42
-0
  0
VERTEX
  8
0
 10
120.59999847412109
 20
326.10000610351562
 42
0
  0
VERTEX
  8
0
 10
109.09999847412109
 20
326.10000610351562
 42
0
  0
VERTEX
  8
0
 10
109.09999847412109
 20
168.10000610351562
 42
0
  0
VERTEX
  8
0
 10
159.10000610351562
 20
168.10000610351562
 42
0
  0
SEQEND
  0
POLYLINE
  8
0
 10
0
 20
0
 39
0
 70
1
 66
1
  0
VERTEX
  8
0
 10
169.30000305175781
 20
255.89999389648437
 42
0
  0
VERTEX
  8
0
 10
180.80000305175781
 20
255.89999389648437
 42
0
  0
VERTEX
  8
0
 10
180.80000305175781
 20
185.89999389648437
 42
0
  0
VERTEX
  8
0
 10
207.80000305175781
 20
185.89999389648437
 42
-0
  0
VERTEX
  8
0
 10
207.80000305175781
 20
255.89999389648437
 42
0
  0
VERTEX
  8
0
 10
219.30000305175781
 20
255.89999389648437
 42
0
  0
VERTEX
  8
0
 10
219.30000305175781
 20
413.89999389648437
 42
0
  0
VERTEX
  8
0
 10
169.30000305175781
 20
413.89999389648437
 42
0
  0
SEQEND
  0
POLYLINE
  8
0
 10
0
 20
0
 39
0
 70
1
 66
1
  0
VERTEX
  8
0
 10
491.5
 20
326.10000610351562
 42
0
  0
VERTEX
  8
0
 10
480
 20
326.10000610351562
 42
0
  0
VERTEX
  8
0
 10
480
 20
396.10000610351562
 42
0
  0
VERTEX
  8
0
 10
453
 20
396.10000610351562
 42
-0
  0
VERTEX
  8
0
 10
453
 20
326.10000610351562
 42
0
  0
VERTEX
  8
0
 10
441.5
 20
326.10000610351562
 42
0
  0
VERTEX
  8
0
 10
441.5
 20
168.10000610351562
 42
0
  0
VERTEX
  8
0
 10
491.5
 20
168.10000610351562
 42
0
  0
SEQEND
  0
POLYLINE
  8
0
 10
0
 20
0
 39
0
 70
1
 66
1
  0
VERTEX
  8
0
 10
501.70001220703125
 20
255.89999389648437
 42
0
  0
VERTEX
  8
0
 10
513.20001220703125
 20
255.89999389648437
 42
0
  0
VERTEX
  8
0
 10
513.20001220703125
 20
185.89999389648437
 42
0
  0
VERTEX
  8
0
 10
540.20001220703125
 20
185.89999389648437
 42
-0
  0
VERTEX
  8
0
 10
540.20001220703125
 20
255.89999389648437
 42
0
  0
VERTEX
  8
0
 10
551.70001220703125
 20
255.89999389648437
 42
0
  0
VERTEX
  8
0
 10
551.70001220703125
 20
413.89999389648437
 42
0
  0
VERTEX
  8
0
 10
501.70001220703125
 20
413.89999389648437
 42
0
  0
SEQEND
  0
POLYLINE
  8
0
 10
0
 20
0
 39
0
 70
1
 66
1
  0
VERTEX
  8
0
 10
708.79998779296875
 20
394.39999389648437
 42
0
  0
VERTEX
  8
0
 10
720.29998779296875
 20
394.39999389648437
 42
0
  0
VERTEX
  8
0
 10
720.29998779296875
 20
324.39999389648437
 42
0
  0
VERTEX
  8
0
 10
747.29998779296875
 20
324.39999389648437
 42
-0
  0
VERTEX
  8
0
 10
747.29998779296875
 20
394.39999389648437
 42
0
  0
VERTEX
  8
0
 10
758.79998779296875
 20
394.39999389648437
 42
0
  0
VERTEX
  8
0
 10
758.79998779296875
 20
552.4000244140625
 42
0
  0
VERTEX
  8
0
 10
708.79998779296875
 20
552.4000244140625
 42
0
  0
SEQEND
  0
POLYLINE
  8
0
 10
0
 20
0
 39
0
 70
1
 66
1
  0
VERTEX
  8
0
 10
807.70001220703125
 20
335.29998779296875
 42
0
  0
VERTEX
  8
0
 10
796.20001220703125
 20
335.29998779296875
 42
0
  0
VERTEX
  8
0
 10
796.20001220703125
 20
405.29998779296875
 42
0
  0
VERTEX
  8
0
 10
769.20001220703125
 20
405.29998779296875
 42
-0
  0
VERTEX
  8
0
 10
769.20001220703125
 20
335.29998779296875
 42
0
  0
VERTEX
  8
0
 10
757.70001220703125
 20
335.29998779296875
 42
0
  0
VERTEX
  8
0
 10
757.70001220703125
 20
177.30000305175781
 42
0
  0
VERTEX
  8
0
 10
807.70001220703125
 20
177.30000305175781
 42
0
  0
SEQEND
  0
POLYLINE
  8
0
 10
0
 20
0
 39
0
 70
1
 66
1
  0
VERTEX
  8
0
 10
794.9000244140625
 20
423.89999389648437
 42
0
  0
VERTEX
  8
0
 10
806.4000244140625
 20
423.89999389648437
 42
0
  0
VERTEX
  8
0
 10
806.4000244140625
 20
353.89999389648437
 42
0
  0
VERTEX
  8
0
 10
833.4000244140625
 20
353.89999389648437
 42
-0
  0
VERTEX
  8
0
 10
833.4000244140625
 20
423.89999389648437
 42
0
  0
VERTEX
  8
0
 10
844.9000244140625
 20
423.89999389648437
 42
0
  0
VERTEX
  8
0
 10
844.9000244140625
 20
581.9000244140625
 42
0
  0
VERTEX
  8
0
 10
794.9000244140625
 20
581.9000244140625
 42
0
  0
SEQEND
  0
POLYLINE
  8
0
 10
0
 20
0
 39
0
 70
1
 66
1
  0
VERTEX
  8
0
 10
893.79998779296875
 20
376.20001220703125
 42
0
  0
VERTEX
  8
0
 10
882.29998779296875
 20
376.20001220703125
 42
0
  0
VERTEX
  8
0
 10
882.29998779296875
 20
446.20001220703125
 42
0
  0
VERTEX
  8
0
 10
855.29998779296875
 20
446.20001220703125
 42
-0
  0
VERTEX
  8
0
 10
855.29998779296875
 20
376.20001220703125
 42
0
  0
VERTEX
  8
0
 10
843.79998779296875
 20
376.20001220703125
 42
0
  0
VERTEX
  8
0
 10
843.79998779296875
 20
218.19999694824219
 42
0
  0
VERTEX
  8
0
 10
893.79998779296875
 20
218.19999694824219
 42
0
  0
SEQEND
  0
POLYLINE
  8
0
 10
0
 20
0
 39
0
 70
1
 66
1
  0
VERTEX
  8
0
 10
50.200000762939453
 20
394.29998779296875
 42
-0
  0
VERTEX
  8
0
 10
50.200000762939453
 20
434.29998779296875
 42
-0
  0
VERTEX
  8
0
 10
30.200000762939453
 20
434.29998779296875
 42
0
  0
VERTEX
  8
0
 10
30.200000762939453
 20
504.29998779296875
 42
0
  0
VERTEX
  8
0
 10
50.200000762939453
 20
504.29998779296875
 42
-0
  0
VERTEX
  8
0
 10
50.200000762939453
 20
544.29998779296875
 42
-0
  0
VERTEX
  8
0
 10
10.199999809265137
 20
544.29998779296875
 42
-0
  0
VERTEX
  8
0
 10
10.199999809265137
 20
531.89068603515625
 42
-1
  0
VERTEX
  8
0
 10
10.199999809265137
 20
511.89071655273437
 42
-0
  0
VERTEX
  8
0
 10
10.199999809265137
 20
426.70928955078125
 42
-1
  0
VERTEX
  8
0
 10
10.199999809265137
 20
406.70928955078125
 42
-0
  0
VERTEX
  8
0
 10
10.199999809265137
 20
394.29998779296875
 42
0
  0
SEQEND
  0
POLYLINE
  8
0
 10
0
 20
0
 39
0
 70
1
 66
1
  0
VERTEX
  8
0
 10
330.39999389648438
 20
10.199999809265137
 42
-0
  0
VERTEX
  8
0
 10
330.39999389648438
 20
50.200000762939453
 42
-0
  0
VERTEX
  8
0
 10
310.39999389648437
 20
50.200000762939453
 42
0
  0
VERTEX
  8
0
 10
310.39999389648437
 20
120.19999694824219
 42
0
  0
VERTEX
  8
0
 10
330.39999389648438
 20
120.19999694824219
 42
-0
  0
VERTEX
  8
0
 10
330.39999389648438
 20
160.19999694824219
 42
-0
  0
VERTEX
  8
0
 10
290.39999389648437
 20
160.19999694824219
 42
-0
  0
VERTEX
  8
0
 10
290.39999389648437
 20
147.79071044921875
 42
-1
  0
VERTEX
  8
0
 10
290.39999389648437
 20
127.79071044921875
 42
-0
  0
VERTEX
  8
0
 10
290.39999389648437
 20
42.609287261962891
 42
-1
  0
VERTEX
  8
0
 10
290.39999389648437
 20
22.609287261962891
 42
-0
  0
VERTEX
  8
0
 10
290.39999389648437
 20
10.199999809265137
 42
0
  0
SEQEND
  0
POLYLINE
  8
0
 10
0
 20
0
 39
0
 70
1
 66
1
  0
VERTEX
  8
0
 10
382.60000610351562
 20
394.29998779296875
 42
-0
  0
VERTEX
  8
0
 10
382.60000610351562
 20
434.29998779296875
 42
-0
  0
VERTEX
  8
0
 10
362.60000610351562
 20
434.29998779296875
 42
0
  0
VERTEX
  8
0
 10
362.60000610351562
 20
504.29998779296875
 42
0
  0
VERTEX
  8
0
 10
382.60000610351562
 20
504.29998779296875
 42
-0
  0
VERTEX
  8
0
 10
382.60000610351562
 20
544.29998779296875
 42
-0
  0
VERTEX
  8
0
 10
342.60000610351562
 20
544.29998779296875
 42
-0
  0
VERTEX
  8
0
 10
342.60000610351562
 20
531.89068603515625
 42
-1
  0
VERTEX
  8
0
 10
342.60000610351562
 20
511.89071655273437
 42
-0
  0
VERTEX
  8
0
 10
342.60000610351562
 20
426.70928955078125
 42
-1
  0
VERTEX
  8
0
 10
342.60000610351562
 20
406.70928955078125
 42
-0
  0
VERTEX
  8
0
 10
342.60000610351562
 20
394.29998779296875
 42
0
  0
SEQEND
  0
POLYLINE
  8
0
 10
0
 20
0
 39
0
 70
1
 66
1
  0
VERTEX
  8
0
 10
662.79998779296875
 20
10.199999809265137
 42
-0
  0
VERTEX
  8
0
 10
662.79998779296875
 20
50.200000762939453
 42
-0
  0
VERTEX
  8
0
 10
642.79998779296875
 20
50.200000762939453
 42
0
  0
VERTEX
  8
0
 10
642.79998779296875
 20
120.19999694824219
 42
0
  0
VERTEX
  8
0
 10
662.79998779296875
 20
120.19999694824219
 42
-0
  0
VERTEX
  8
0
 10
662.79998779296875
 20
160.19999694824219
 42
-0
  0
VERTEX
  8
0
 10
622.79998779296875
 20
160.19999694824219
 42
-0
  0
VERTEX
  8
0
 10
622.79998779296875
 20
147.79071044921875
 42
-1
  0
VERTEX
  8
0
 10
622.79998779296875
 20
127.79071044921875
 42
-0
  0
VERTEX
  8
0
 10
622.79998779296875
 20
42.609287261962891
 42
-1
  0
VERTEX
  8
0
 10
622.79998779296875
 20
22.609287261962891
 42
-0
  0
VERTEX
  8
0
 10
622.79998779296875
 20
10.199999809265137
 42
0
  0
SEQEND
  0
POLYLINE
  8
0
 10
0
 20
0
 39
0
 70
1
 66
1
  0
VERTEX
  8
0
 10
932.4000244140625
 20
395.20001220703125
 42
-0
  0
VERTEX
  8
0
 10
932.4000244140625
 20
435.20001220703125
 42
-0
  0
VERTEX
  8
0
 10
912.4000244140625
 20
435.20001220703125
 42
0
  0
VERTEX
  8
0
 10
912.4000244140625
 20
505.20001220703125
 42
0
  0
VERTEX
  8
0
 10
932.4000244140625
 20
505.20001220703125
 42
-0
  0
VERTEX
  8
0
 10
932.4000244140625
 20
545.20001220703125
 42
-0
  0
VERTEX
  8
0
 10
892.4000244140625
 20
545.20001220703125
 42
-0
  0
VERTEX
  8
0
 10
892.4000244140625
 20
532.79071044921875
 42
-1
  0
VERTEX
  8
0
 10
892.4000244140625
 20
512.79071044921875
 42
-0
  0
VERTEX
  8
0
 10
892.4000244140625
 20
427.60928344726562
 42
-1
  0
VERTEX
  8
0
 10
892.4000244140625
 20
407.60928344726562
 42
-0
  0
VERTEX
  8
0
 10
892.4000244140625
 20
395.20001220703125
 42
0
  0
SEQEND
  0
POLYLINE
  8
0
 10
0
 20
0
 39
0
 70
1
 66
1
  0
VERTEX
  8
0
 10
941.5999755859375
 20
589.79998779296875
 42
-0
  0
VERTEX
  8
0
 10
941.5999755859375
 20
549.79998779296875
 42
-0
  0
VERTEX
  8
0
 10
961.5999755859375
 20
549.79998779296875
 42
0
  0
VERTEX
  8
0
 10
961.5999755859375
 20
479.79998779296875
 42
0
  0
VERTEX
  8
0
 10
941.5999755859375
 20
479.79998779296875
 42
-0
  0
VERTEX
  8
0
 10
941.5999755859375
 20
439.79998779296875
 42
-0
  0
VERTEX
  8
0
 10
981.5999755859375
 20
439.79998779296875
 42
-0
  0
VERTEX
  8
0
 10
981.5999755859375
 20
452.20928955078125
 42
-1
  0
VERTEX
  8
0
 10
981.5999755859375
 20
472.20928955078125
 42
-0
  0
VERTEX
  8
0
 10
981.5999755859375
 20
557.39068603515625
 42
-1
  0
VERTEX
  8
0
 10
981.5999755859375
 20
577.39068603515625
 42
-0
  0
VERTEX
  8
0
 10
981.5999755859375
 20
589.79998779296875
 42
0
  0
SEQEND
  0
ENDSEC
  0
EOF
