  0
SECTION
  2
ENTITIES
  0
POLYLINE
  8
0
 10
0
 20
0
 39
0
 70
1
 66
1
  0
VERTEX
  8
0
 10
0
 20
0
 42
-0
  0
VERTEX
  8
0
 10
1000
 20
0
 42
-0
  0
VERTEX
  8
0
 10
1000
 20
500
 42
-0
  0
VERTEX
  8
0
 10
0
 20
500
 42
-0
  0
SEQEND
  0
POLYLINE
  8
0
 10
0
 20
0
 39
0
 70
1
 66
1
  0
VERTEX
  8
0
 10
116.43438979554867
 20
94.698614876986539
 42
0
  0
VERTEX
  8
0
 10
27.481851424462548
 20
81.007509630442655
 42
-1
  0
VERTEX
  8
0
 10
22.918149675614586
 20
110.65835575413803
 42
0
  0
VERTEX
  8
0
 10
35.766849662549248
 20
112.63595984530548
 42
0
  0
VERTEX
  8
0
 10
38.047819520718804
 20
110.96348355364898
 42
0
  0
VERTEX
  8
0
 10
57.815050269849053
 20
114.00595138621429
 42
0
  0
VERTEX
  8
0
 10
59.487526561505547
 20
116.28692124438385
 42
0
  0
VERTEX
  8
0
 10
116.61173479668741
 20
125.07917789489875
 42
0
  0
VERTEX
  8
0
 10
323.81077864934286
 20
90.702813809570216
 42
0
  0
VERTEX
  8
0
 10
592.52348762322163
 20
123.9634990210543
 42
0.96622377634048462
  0
VERTEX
  8
0
 10
597.36186185172937
 20
83.274306871149747
 42
0
  0
VERTEX
  8
0
 10
520.96672087779098
 20
77.594033826382656
 42
0
  0
VERTEX
  8
0
 10
369.0460852736951
 20
65.198955706124252
 42
0.90064483880996704
  0
VERTEX
  8
0
 10
328.40464312172207
 20
61.883124100662826
 42
0
  0
VERTEX
  8
0
 10
318.90078666377758
 20
61.107537847281492
 42
0
  0
SEQEND
  0
POLYLINE
  8
0
 10
0
 20
0
 39
0
 70
1
 66
1
  0
VERTEX
  8
0
 10
124.26980932814604
 20
43.791077167214098
 42
0
  0
VERTEX
  8
0
 10
35.317270957059918
 20
30.099971920670214
 42
-1
  0
VERTEX
  8
0
 10
30.753569208211957
 20
59.750818044365587
 42
0
  0
VERTEX
  8
0
 10
43.602269195146619
 20
61.728422135533037
 42
0
  0
VERTEX
  8
0
 10
45.883239053316174
 20
60.055945843876543
 42
0
  0
VERTEX
  8
0
 10
65.650469802446423
 20
63.098413676441851
 42
0
  0
VERTEX
  8
0
 10
67.322946094102917
 20
65.379383534611407
 42
0
  0
VERTEX
  8
0
 10
124.44715432928479
 20
74.171640185126307
 42
0
  0
VERTEX
  8
0
 10
331.64619818194024
 20
39.795276099797775
 42
0
  0
VERTEX
  8
0
 10
600.358907155819
 20
73.055961311281862
 42
0.96622377634048462
  0
VERTEX
  8
0
 10
605.19728138432674
 20
32.366769161377306
 42
0
  0
VERTEX
  8
0
 10
528.80214041038835
 20
26.686496116610215
 42
0
  0
VERTEX
  8
0
 10
376.88150480629247
 20
14.291417996351811
 42
0.90064483880996704
  0
VERTEX
  8
0
 10
336.24006265431944
 20
10.975586390890385
 42
0
  0
VERTEX
  8
0
 10
326.73620619637495
 20
10.200000137509051
 42
0
  0
SEQEND
  0
POLYLINE
  8
0
 10
0
 20
0
 39
0
 70
1
 66
1
  0
VERTEX
  8
0
 10
116.43438979554867
 20
197.59861487698709
 42
0
  0
VERTEX
  8
0
 10
27.481851424462548
 20
183.9075096304432
 42
-1
  0
VERTEX
  8
0
 10
22.918149675614586
 20
213.55835575413857
 42
0
  0
VERTEX
  8
0
 10
35.766849662549248
 20
215.53595984530602
 42
0
  0
VERTEX
  8
0
 10
38.047819520718804
 20
213.86348355364953
 42
0
  0
VERTEX
  8
0
 10
57.815050269849053
 20
216.90595138621484
 42
0
  0
VERTEX
  8
0
 10
59.487526561505547
 20
219.18692124438439
 42
0
  0
VERTEX
  8
0
 10
116.61173479668741
 20
227.97917789489929
 42
0
  0
VERTEX
  8
0
 10
323.81077864934286
 20
193.60281380957076
 42
0
  0
VERTEX
  8
0
 10
592.52348762322163
 20
226.86349902105485
 42
0.96622377634048462
  0
VERTEX
  8
0
 10
597.36186185172937
 20
186.17430687115029
 42
0
  0
VERTEX
  8
0
 10
520.96672087779098
 20
180.4940338263832
 42
0
  0
VERTEX
  8
0
 10
369.0460852736951
 20
168.0989557061248
 42
0.90064483880996704
  0
VERTEX
  8
0
 10
328.40464312172207
 20
164.78312410066337
 42
0
  0
VERTEX
  8
0
 10
318.90078666377758
 20
164.00753784728204
 42
0
  0
SEQEND
  0
POLYLINE
  8
0
 10
0
 20
0
 39
0
 70
1
 66
1
  0
VERTEX
  8
0
 10
124.26980932814604
 20
146.69107716721464
 42
0
  0
VERTEX
  8
0
 10
35.317270957059918
 20
132.99997192067076
 42
-1
  0
VERTEX
  8
0
 10
30.753569208211957
 20
162.65081804436613
 42
0
  0
VERTEX
  8
0
 10
43.602269195146619
 20
164.62842213553358
 42
0
  0
VERTEX
  8
0
 10
45.883239053316174
 20
162.95594584387709
 42
0
  0
VERTEX
  8
0
 10
65.650469802446423
 20
165.9984136764424
 42
0
  0
VERTEX
  8
0
 10
67.322946094102917
 20
168.27938353461195
 42
0
  0
VERTEX
  8
0
 10
124.44715432928479
 20
177.07164018512685
 42
0
  0
VERTEX
  8
0
 10
331.64619818194024
 20
142.69527609979832
 42
0
  0
VERTEX
  8
0
 10
600.358907155819
 20
175.95596131128241
 42
0.96622377634048462
  0
VERTEX
  8
0
 10
605.19728138432674
 20
135.26676916137785
 42
0
  0
VERTEX
  8
0
 10
528.80214041038835
 20
129.58649611661076
 42
0
  0
VERTEX
  8
0
 10
376.88150480629247
 20
117.19141799635236
 42
0.90064483880996704
  0
VERTEX
  8
0
 10
336.24006265431944
 20
113.87558639089093
 42
0
  0
VERTEX
  8
0
 10
326.73620619637495
 20
113.1000001375096
 42
0
  0
SEQEND
  0
POLYLINE
  8
0
 10
0
 20
0
 39
0
 70
1
 66
1
  0
VERTEX
  8
0
 10
116.43438979554867
 20
300.49861487698672
 42
0
  0
VERTEX
  8
0
 10
27.481851424462548
 20
286.80750963044284
 42
-1
  0
VERTEX
  8
0
 10
22.918149675614586
 20
316.45835575413821
 42
0
  0
VERTEX
  8
0
 10
35.766849662549248
 20
318.43595984530566
 42
0
  0
VERTEX
  8
0
 10
38.047819520718804
 20
316.76348355364917
 42
0
  0
VERTEX
  8
0
 10
57.815050269849053
 20
319.80595138621447
 42
0
  0
VERTEX
  8
0
 10
59.487526561505547
 20
322.08692124438403
 42
0
  0
VERTEX
  8
0
 10
116.61173479668741
 20
330.87917789489893
 42
0
  0
VERTEX
  8
0
 10
323.81077864934286
 20
296.5028138095704
 42
0
  0
VERTEX
  8
0
 10
592.52348762322163
 20
329.76349902105449
 42
0.96622377634048462
  0
VERTEX
  8
0
 10
597.36186185172937
 20
289.07430687114993
 42
0
  0
VERTEX
  8
0
 10
520.96672087779098
 20
283.39403382638284
 42
0
  0
VERTEX
  8
0
 10
369.0460852736951
 20
270.99895570612443
 42
0.90064483880996704
  0
VERTEX
  8
0
 10
328.40464312172207
 20
267.68312410066301
 42
0
  0
VERTEX
  8
0
 10
318.90078666377758
 20
266.90753784728167
 42
0
  0
SEQEND
  0
POLYLINE
  8
0
 10
0
 20
0
 39
0
 70
1
 66
1
  0
VERTEX
  8
0
 10
124.26980932814604
 20
249.59107716721428
 42
0
  0
VERTEX
  8
0
 10
35.317270957059918
 20
235.8999719206704
 42
-1
  0
VERTEX
  8
0
 10
30.753569208211957
 20
265.55081804436577
 42
0
  0
VERTEX
  8
0
 10
43.602269195146619
 20
267.52842213553322
 42
0
  0
VERTEX
  8
0
 10
45.883239053316174
 20
265.85594584387673
 42
0
  0
VERTEX
  8
0
 10
65.650469802446423
 20
268.89841367644203
 42
0
  0
VERTEX
  8
0
 10
67.322946094102917
 20
271.17938353461159
 42
0
  0
VERTEX
  8
0
 10
124.44715432928479
 20
279.97164018512649
 42
0
  0
VERTEX
  8
0
 10
331.64619818194024
 20
245.59527609979796
 42
0
  0
VERTEX
  8
0
 10
600.358907155819
 20
278.85596131128204
 42
0.96622377634048462
  0
VERTEX
  8
0
 10
605.19728138432674
 20
238.16676916137749
 42
0
  0
VERTEX
  8
0
 10
528.80214041038835
 20
232.4864961166104
 42
0
  0
VERTEX
  8
0
 10
376.88150480629247
 20
220.09141799635199
 42
0.90064483880996704
  0
VERTEX
  8
0
 10
336.24006265431944
 20
216.77558639089057
 42
0
  0
VERTEX
  8
0
 10
326.73620619637495
 20
216.00000013750923
 42
0
  0
SEQEND
  0
POLYLINE
  8
0
 10
0
 20
0
 39
0
 70
1
 66
1
  0
VERTEX
  8
0
 10
83.200000000000017
 20
336.10000000000002
 42
0
  0
VERTEX
  8
0
 10
10.200000000000017
 20
336.10000000000002
 42
0
  0
VERTEX
  8
0
 10
10.199999999999999
 20
474.68119201660159
 42
0
  0
VERTEX
  8
0
 10
342.83693237304686
 20
474.68119201660164
 42
0
  0
VERTEX
  8
0
 10
342.83693237304686
 20
336.10000000000002
 42
0
  0
VERTEX
  8
0
 10
272.67131347656249
 20
336.10000000000002
 42
0
  0
VERTEX
  8
0
 10
185.19999999999999
 20
379.91157684326174
 42
0
  0
VERTEX
  8
0
 10
83.200000000000017
 20
379.91157684326174
 42
0
  0
SEQEND
  0
POLYLINE
  8
0
 10
0
 20
0
 39
0
 70
1
 66
1
  0
VERTEX
  8
0
 10
426
 20
329.80000000000001
 42
0
  0
VERTEX
  8
0
 10
353
 20
329.80000000000001
 42
0
  0
VERTEX
  8
0
 10
353
 20
468.38119201660157
 42
0
  0
VERTEX
  8
0
 10
685.63693237304687
 20
468.38119201660163
 42
0
  0
VERTEX
  8
0
 10
685.63693237304687
 20
329.80000000000007
 42
0
  0
VERTEX
  8
0
 10
615.4713134765625
 20
329.80000000000007
 42
0
  0
VERTEX
  8
0
 10
528
 20
373.61157684326179
 42
0
  0
VERTEX
  8
0
 10
426
 20
373.61157684326173
 42
0
  0
SEQEND
  0
POLYLINE
  8
0
 10
0
 20
0
 39
0
 70
1
 66
1
  0
VERTEX
  8
0
 10
834.38119201660152
 20
83.200000000000017
 42
0
  0
VERTEX
  8
0
 10
834.38119201660152
 20
10.200000000000008
 42
0
  0
VERTEX
  8
0
 10
695.79999999999995
 20
10.199999999999999
 42
0
  0
VERTEX
  8
0
 10
695.79999999999995
 20
342.83693237304686
 42
0
  0
VERTEX
  8
0
 10
834.38119201660152
 20
342.83693237304686
 42
0
  0
VERTEX
  8
0
 10
834.38119201660152
 20
272.67131347656249
 42
0
  0
VERTEX
  8
0
 10
790.5696151733398
 20
185.19999999999999
 42
0
  0
VERTEX
  8
0
 10
790.5696151733398
 20
83.200000000000003
 42
0
  0
SEQEND
  0
POLYLINE
  8
0
 10
0
 20
0
 39
0
 70
1
 66
1
  0
VERTEX
  8
0
 10
800.79999999999995
 20
353.03693237304685
 42
0
  0
VERTEX
  8
0
 10
800.79999999999995
 20
426.03693237304685
 42
0
  0
VERTEX
  8
0
 10
939.38119201660152
 20
426.03693237304685
 42
0
  0
VERTEX
  8
0
 10
939.38119201660163
 20
93.399999999999977
 42
0
  0
VERTEX
  8
0
 10
800.79999999999995
 20
93.399999999999977
 42
0
  0
VERTEX
  8
0
 10
800.79999999999995
 20
163.56561889648435
 42
0
  0
VERTEX
  8
0
 10
844.61157684326167
 20
251.03693237304682
 42
0
  0
VERTEX
  8
0
 10
844.61157684326167
 20
353.03693237304685
 42
0
  0
SEQEND
  0
POLYLINE
  8
0
 10
0
 20
0
 39
0
 70
1
 66
1
  0
VERTEX
  8
0
 10
676.70000000000005
 20
72.700000000000003
 42
-0
  0
VERTEX
  8
0
 10
619.70000000000005
 20
72.700000000000003
 42
0.41421356797218323
  0
VERTEX
  8
0
 10
611.70000000000005
 20
80.700000000000003
 42
0
  0
VERTEX
  8
0
 10
611.70000000000005
 20
127.2
 42
1
  0
VERTEX
  8
0
 10
611.70000000000005
 20
143.19999999999999
 42
0
  0
VERTEX
  8
0
 10
611.70000000000005
 20
189.69999999999999
 42
0.41421356797218323
  0
VERTEX
  8
0
 10
619.70000000000005
 20
197.69999999999999
 42
0
  0
VERTEX
  8
0
 10
676.70000000000005
 20
197.69999999999999
 42
0
  0
SEQEND
  0
POLYLINE
  8
0
 10
0
 20
0
 39
0
 70
1
 66
1
  0
VERTEX
  8
0
 10
760.79999999999995
 20
352.89999999999998
 42
-0
  0
VERTEX
  8
0
 10
703.79999999999995
 20
352.89999999999998
 42
0.41421356797218323
  0
VERTEX
  8
0
 10
695.79999999999995
 20
360.89999999999998
 42
0
  0
VERTEX
  8
0
 10
695.79999999999995
 20
407.39999999999998
 42
1
  0
VERTEX
  8
0
 10
695.79999999999995
 20
423.39999999999998
 42
0
  0
VERTEX
  8
0
 10
695.79999999999995
 20
469.89999999999998
 42
0.41421356797218323
  0
VERTEX
  8
0
 10
703.79999999999995
 20
477.89999999999998
 42
0
  0
VERTEX
  8
0
 10
760.79999999999995
 20
477.89999999999998
 42
0
  0
SEQEND
  0
POLYLINE
  8
0
 10
0
 20
0
 39
0
 70
1
 66
1
  0
VERTEX
  8
0
 10
844.5
 20
10.199999999999999
 42
-0
  0
VERTEX
  8
0
 10
844.5
 20
67.200000000000003
 42
0.41421356797218323
  0
VERTEX
  8
0
 10
852.5
 20
75.200000000000003
 42
0
  0
VERTEX
  8
0
 10
899
 20
75.200000000000003
 42
1
  0
VERTEX
  8
0
 10
915
 20
75.200000000000003
 42
0
  0
VERTEX
  8
0
 10
961.5
 20
75.200000000000017
 42
0.41421356797218323
  0
VERTEX
  8
0
 10
969.5
 20
67.200000000000003
 42
0
  0
VERTEX
  8
0
 10
969.5
 20
10.200000000000015
 42
0
  0
SEQEND
  0
POLYLINE
  8
0
 10
0
 20
0
 39
0
 70
1
 66
1
  0
VERTEX
  8
0
 10
655.29999999999995
 20
207.80000000000001
 42
-0
  0
VERTEX
  8
0
 10
641.29999999999995
 20
207.80000000000001
 42
1
  0
VERTEX
  8
0
 10
629.29999999999995
 20
207.80000000000001
 42
-0
  0
VERTEX
  8
0
 10
615.29999999999995
 20
207.80000000000001
 42
0
  0
VERTEX
  8
0
 10
615.29999999999995
 20
316.80000000000001
 42
0.15721188485622406
  0
VERTEX
  8
0
 10
618.80445938110347
 20
317.9298065185547
 42
0
  0
VERTEX
  8
0
 10
630.00660018920894
 20
311.95167999267579
 42
1.6671469211578369
  0
VERTEX
  8
0
 10
640.59339981079097
 20
311.95167999267579
 42
0
  0
VERTEX
  8
0
 10
651.79553894996639
 20
317.9298065185547
 42
0.15721188485622406
  0
VERTEX
  8
0
 10
655.29999999999995
 20
316.80000000000001
 42
0
  0
SEQEND
  0
POLYLINE
  8
0
 10
0
 20
0
 39
0
 70
1
 66
1
  0
VERTEX
  8
0
 10
770.89999999999998
 20
436.10000000000002
 42
-0
  0
VERTEX
  8
0
 10
770.89999999999998
 20
450.10000000000002
 42
1
  0
VERTEX
  8
0
 10
770.89999999999998
 20
462.10000000000002
 42
-0
  0
VERTEX
  8
0
 10
770.89999999999998
 20
476.10000000000002
 42
0
  0
VERTEX
  8
0
 10
879.89999999999998
 20
476.10000000000002
 42
0.15721188485622406
  0
VERTEX
  8
0
 10
881.02980651855466
 20
472.59554061889651
 42
0
  0
VERTEX
  8
0
 10
875.05167999267576
 20
461.39339981079104
 42
1.6671469211578369
  0
VERTEX
  8
0
 10
875.05167999267576
 20
450.80660018920901
 42
0
  0
VERTEX
  8
0
 10
881.02980651855466
 20
439.60446105003359
 42
0.15721188485622406
  0
VERTEX
  8
0
 10
879.89999999999998
 20
436.10000000000002
 42
0
  0
SEQEND
  0
POLYLINE
  8
0
 10
0
 20
0
 39
0
 70
1
 66
1
  0
VERTEX
  8
0
 10
989.5
 20
85.299999999999997
 42
-0
  0
VERTEX
  8
0
 10
975.5
 20
85.299999999999997
 42
1
  0
VERTEX
  8
0
 10
963.5
 20
85.299999999999997
 42
-0
  0
VERTEX
  8
0
 10
949.5
 20
85.299999999999997
 42
0
  0
VERTEX
  8
0
 10
949.5
 20
194.30000000000001
 42
0.15721188485622406
  0
VERTEX
  8
0
 10
953.00445938110352
 20
195.4298065185547
 42
0
  0
VERTEX
  8
0
 10
964.20660018920898
 20
189.45167999267579
 42
1.6671469211578369
  0
VERTEX
  8
0
 10
974.79339981079102
 20
189.45167999267579
 42
0
  0
VERTEX
  8
0
 10
985.99553894996643
 20
195.4298065185547
 42
0.15721188485622406
  0
VERTEX
  8
0
 10
989.5
 20
194.30000000000001
 42
0
  0
SEQEND
  0
POLYLINE
  8
0
 10
0
 20
0
 39
0
 70
1
 66
1
  0
VERTEX
  8
0
 10
989.5
 20
205.5
 42
-0
  0
VERTEX
  8
0
 10
975.5
 20
205.5
 42
1
  0
VERTEX
  8
0
 10
963.5
 20
205.5
 42
-0
  0
VERTEX
  8
0
 10
949.5
 20
205.5
 42
0
  0
VERTEX
  8
0
 10
949.5
 20
314.5
 42
0.15721188485622406
  0
VERTEX
  8
0
 10
953.00445938110352
 20
315.62980651855469
 42
0
  0
VERTEX
  8
0
 10
964.20660018920898
 20
309.65167999267578
 42
1.6671469211578369
  0
VERTEX
  8
0
 10
974.79339981079102
 20
309.65167999267578
 42
0
  0
VERTEX
  8
0
 10
985.99553894996643
 20
315.62980651855469
 42
0.15721188485622406
  0
VERTEX
  8
0
 10
989.5
 20
314.5
 42
0
  0
SEQEND
  0
POLYLINE
  8
0
 10
0
 20
0
 39
0
 70
1
 66
1
  0
VERTEX
  8
0
 10
989.5
 20
325.69999999999999
 42
-0
  0
VERTEX
  8
0
 10
975.5
 20
325.69999999999999
 42
1
  0
VERTEX
  8
0
 10
963.5
 20
325.69999999999999
 42
-0
  0
VERTEX
  8
0
 10
949.5
 20
325.69999999999999
 42
0
  0
VERTEX
  8
0
 10
949.5
 20
434.69999999999999
 42
0.15721188485622406
  0
VERTEX
  8
0
 10
953.00445938110352
 20
435.82980651855468
 42
0
  0
VERTEX
  8
0
 10
964.20660018920898
 20
429.85167999267577
 42
1.6671469211578369
  0
VERTEX
  8
0
 10
974.79339981079102
 20
429.85167999267577
 42
0
  0
VERTEX
  8
0
 10
985.99553894996643
 20
435.82980651855468
 42
0.15721188485622406
  0
VERTEX
  8
0
 10
989.5
 20
434.69999999999999
 42
0
  0
SEQEND
  0
ENDSEC
  0
EOF
