  0
SECTION
  2
ENTITIES
  0
POLYLINE
  8
0
 10
0
 20
0
 39
0
 70
1
 66
1
  0
VERTEX
  8
0
 10
0
 20
0
 42
-0
  0
VERTEX
  8
0
 10
700
 20
0
 42
-0
  0
VERTEX
  8
0
 10
700
 20
300
 42
-0
  0
VERTEX
  8
0
 10
0
 20
300
 42
-0
  0
SEQEND
  0
POLYLINE
  8
0
 10
0
 20
0
 39
0
 70
1
 66
1
  0
VERTEX
  8
0
 10
290
 20
190
 42
0
  0
VERTEX
  8
0
 10
560
 20
190
 42
-0
  0
VERTEX
  8
0
 10
560
 20
201.07278442382812
 42
-1
  0
VERTEX
  8
0
 10
560
 20
233.07278442382812
 42
-0
  0
VERTEX
  8
0
 10
560
 20
244.14556884765625
 42
0.21420902013778687
  0
VERTEX
  8
0
 10
527.5843505859375
 20
280
 42
-0
  0
VERTEX
  8
0
 10
290
 20
280
 42
-0
  0
SEQEND
  0
POLYLINE
  8
0
 10
0
 20
0
 39
0
 70
1
 66
1
  0
VERTEX
  8
0
 10
360.423095703125
 20
235
 42
-1
  0
VERTEX
  8
0
 10
400.423095703125
 20
235
 42
-1
  0
SEQEND
  0
POLYLINE
  8
0
 10
0
 20
0
 39
0
 70
1
 66
1
  0
VERTEX
  8
0
 10
454.62911987304687
 20
179.99919128417969
 42
1
  0
VERTEX
  8
0
 10
455.37088012695312
 20
10.000808715820312
 42
1
  0
SEQEND
  0
POLYLINE
  8
0
 10
0
 20
0
 39
0
 70
1
 66
1
  0
VERTEX
  8
0
 10
454.82110595703125
 20
135.99960327148437
 42
-1
  0
VERTEX
  8
0
 10
455.17889404296875
 20
54.000389099121094
 42
-1
  0
SEQEND
  0
POLYLINE
  8
0
 10
0
 20
0
 39
0
 70
1
 66
1
  0
VERTEX
  8
0
 10
10
 20
190
 42
0
  0
VERTEX
  8
0
 10
280
 20
190
 42
-0
  0
VERTEX
  8
0
 10
280
 20
201.07278442382812
 42
-1
  0
VERTEX
  8
0
 10
280
 20
233.07278442382812
 42
-0
  0
VERTEX
  8
0
 10
280
 20
244.14556884765625
 42
0.21420902013778687
  0
VERTEX
  8
0
 10
247.5843505859375
 20
280
 42
-0
  0
VERTEX
  8
0
 10
10
 20
280
 42
-0
  0
SEQEND
  0
POLYLINE
  8
0
 10
0
 20
0
 39
0
 70
1
 66
1
  0
VERTEX
  8
0
 10
80.423110961914063
 20
235
 42
-1
  0
VERTEX
  8
0
 10
120.42311096191406
 20
235
 42
-1
  0
SEQEND
  0
POLYLINE
  8
0
 10
0
 20
0
 39
0
 70
1
 66
1
  0
VERTEX
  8
0
 10
570
 20
220
 42
0
  0
VERTEX
  8
0
 10
680
 20
220
 42
-0
  0
VERTEX
  8
0
 10
680
 20
232
 42
-1
  0
VERTEX
  8
0
 10
680
 20
258
 42
-0
  0
VERTEX
  8
0
 10
680
 20
270
 42
-0
  0
VERTEX
  8
0
 10
570
 20
270
 42
-0
  0
SEQEND
  0
POLYLINE
  8
0
 10
0
 20
0
 39
0
 70
1
 66
1
  0
VERTEX
  8
0
 10
612
 20
245
 42
-1
  0
VERTEX
  8
0
 10
638
 20
245
 42
-1
  0
SEQEND
  0
POLYLINE
  8
0
 10
0
 20
0
 39
0
 70
1
 66
1
  0
VERTEX
  8
0
 10
570
 20
210
 42
0
  0
VERTEX
  8
0
 10
570
 20
10
 42
-0
  0
VERTEX
  8
0
 10
620
 20
10
 42
-0
  0
VERTEX
  8
0
 10
620
 20
210
 42
-0
  0
SEQEND
  0
POLYLINE
  8
0
 10
0
 20
0
 39
0
 70
1
 66
1
  0
VERTEX
  8
0
 10
595
 20
173.32667541503906
 42
-1
  0
VERTEX
  8
0
 10
595
 20
143.32667541503906
 42
-1
  0
SEQEND
  0
POLYLINE
  8
0
 10
0
 20
0
 39
0
 70
1
 66
1
  0
VERTEX
  8
0
 10
274.62911987304687
 20
179.99919128417969
 42
1
  0
VERTEX
  8
0
 10
275.37088012695312
 20
10.000808715820312
 42
1
  0
SEQEND
  0
POLYLINE
  8
0
 10
0
 20
0
 39
0
 70
1
 66
1
  0
VERTEX
  8
0
 10
274.82110595703125
 20
135.99960327148437
 42
-1
  0
VERTEX
  8
0
 10
275.17889404296875
 20
54.000389099121094
 42
-1
  0
SEQEND
  0
POLYLINE
  8
0
 10
0
 20
0
 39
0
 70
1
 66
1
  0
VERTEX
  8
0
 10
94.629119873046875
 20
179.99919128417969
 42
1
  0
VERTEX
  8
0
 10
95.370880126953125
 20
10.000808715820312
 42
1
  0
SEQEND
  0
POLYLINE
  8
0
 10
0
 20
0
 39
0
 70
1
 66
1
  0
VERTEX
  8
0
 10
94.82110595703125
 20
135.99960327148437
 42
-1
  0
VERTEX
  8
0
 10
95.17889404296875
 20
54.000389099121094
 42
-1
  0
SEQEND
  0
POLYLINE
  8
0
 10
0
 20
0
 39
0
 70
1
 66
1
  0
VERTEX
  8
0
 10
630
 20
210
 42
0
  0
VERTEX
  8
0
 10
630
 20
10
 42
-0
  0
VERTEX
  8
0
 10
680
 20
10
 42
-0
  0
VERTEX
  8
0
 10
680
 20
210
 42
-0
  0
SEQEND
  0
POLYLINE
  8
0
 10
0
 20
0
 39
0
 70
1
 66
1
  0
VERTEX
  8
0
 10
655
 20
173.32667541503906
 42
-1
  0
VERTEX
  8
0
 10
655
 20
143.32667541503906
 42
-1
  0
SEQEND
  0
ENDSEC
  0
EOF
