  0
SECTION
  2
ENTITIES
  0
POLYLINE
  8
0
 10
0
 20
0
 39
0
 70
1
 66
1
  0
VERTEX
  8
0
 10
0
 20
0
 42
-0
  0
VERTEX
  8
0
 10
1200
 20
0
 42
-0
  0
VERTEX
  8
0
 10
1200
 20
900
 42
-0
  0
VERTEX
  8
0
 10
0
 20
900
 42
-0
  0
SEQEND
  0
POLYLINE
  8
0
 10
0
 20
0
 39
0
 70
1
 66
1
  0
VERTEX
  8
0
 10
10.169230461120605
 20
88.178993225097656
 42
0
  0
VERTEX
  8
0
 10
135.16923522949219
 20
10.169230461120605
 42
-0
  0
VERTEX
  8
0
 10
135.16923522949219
 20
646.69854736328125
 42
-0
  0
VERTEX
  8
0
 10
10.169230461120605
 20
724.70831298828125
 42
0
  0
SEQEND
  0
POLYLINE
  8
0
 10
0
 20
0
 39
0
 70
1
 66
1
  0
VERTEX
  8
0
 10
145.30769348144531
 20
88.178993225097656
 42
0
  0
VERTEX
  8
0
 10
270.30767822265625
 20
10.169230461120605
 42
-0
  0
VERTEX
  8
0
 10
270.30767822265625
 20
646.69854736328125
 42
-0
  0
VERTEX
  8
0
 10
145.30769348144531
 20
724.70831298828125
 42
0
  0
SEQEND
  0
POLYLINE
  8
0
 10
0
 20
0
 39
0
 70
1
 66
1
  0
VERTEX
  8
0
 10
280.4461669921875
 20
88.178993225097656
 42
0
  0
VERTEX
  8
0
 10
405.4461669921875
 20
10.169230461120605
 42
-0
  0
VERTEX
  8
0
 10
405.4461669921875
 20
646.69854736328125
 42
-0
  0
VERTEX
  8
0
 10
280.4461669921875
 20
724.70831298828125
 42
0
  0
SEQEND
  0
POLYLINE
  8
0
 10
0
 20
0
 39
0
 70
1
 66
1
  0
VERTEX
  8
0
 10
415.58462524414062
 20
88.178993225097656
 42
0
  0
VERTEX
  8
0
 10
540.5845947265625
 20
10.169230461120605
 42
-0
  0
VERTEX
  8
0
 10
540.5845947265625
 20
646.69854736328125
 42
-0
  0
VERTEX
  8
0
 10
415.58462524414062
 20
724.70831298828125
 42
0
  0
SEQEND
  0
POLYLINE
  8
0
 10
0
 20
0
 39
0
 70
1
 66
1
  0
VERTEX
  8
0
 10
550.72308349609375
 20
88.178993225097656
 42
0
  0
VERTEX
  8
0
 10
675.72308349609375
 20
10.169230461120605
 42
-0
  0
VERTEX
  8
0
 10
675.72308349609375
 20
646.69854736328125
 42
-0
  0
VERTEX
  8
0
 10
550.72308349609375
 20
724.70831298828125
 42
0
  0
SEQEND
  0
POLYLINE
  8
0
 10
0
 20
0
 39
0
 70
1
 66
1
  0
VERTEX
  8
0
 10
935.86151123046875
 20
10.169230461120605
 42
-0
  0
VERTEX
  8
0
 10
935.86151123046875
 20
260.16921997070312
 42
-0
  0
VERTEX
  8
0
 10
685.86151123046875
 20
260.16921997070312
 42
-0
  0
VERTEX
  8
0
 10
685.86151123046875
 20
10.169230461120605
 42
-0
  0
SEQEND
  0
POLYLINE
  8
0
 10
0
 20
0
 39
0
 70
1
 66
1
  0
VERTEX
  8
0
 10
839.36151123046875
 20
140.16923522949219
 42
-1
  0
VERTEX
  8
0
 10
782.36151123046875
 20
140.16923522949219
 42
-1
  0
SEQEND
  0
POLYLINE
  8
0
 10
0
 20
0
 39
0
 70
1
 66
1
  0
VERTEX
  8
0
 10
935.86151123046875
 20
270.20001220703125
 42
-0
  0
VERTEX
  8
0
 10
935.86151123046875
 20
520.20001220703125
 42
-0
  0
VERTEX
  8
0
 10
685.86151123046875
 20
520.20001220703125
 42
-0
  0
VERTEX
  8
0
 10
685.86151123046875
 20
270.20001220703125
 42
-0
  0
SEQEND
  0
POLYLINE
  8
0
 10
0
 20
0
 39
0
 70
1
 66
1
  0
VERTEX
  8
0
 10
839.36151123046875
 20
400.20001220703125
 42
-1
  0
VERTEX
  8
0
 10
782.36151123046875
 20
400.20001220703125
 42
-1
  0
SEQEND
  0
POLYLINE
  8
0
 10
0
 20
0
 39
0
 70
1
 66
1
  0
VERTEX
  8
0
 10
935.86151123046875
 20
530.23077392578125
 42
-0
  0
VERTEX
  8
0
 10
935.86151123046875
 20
780.23077392578125
 42
-0
  0
VERTEX
  8
0
 10
685.86151123046875
 20
780.23077392578125
 42
-0
  0
VERTEX
  8
0
 10
685.86151123046875
 20
530.23077392578125
 42
-0
  0
SEQEND
  0
POLYLINE
  8
0
 10
0
 20
0
 39
0
 70
1
 66
1
  0
VERTEX
  8
0
 10
839.36151123046875
 20
660.23077392578125
 42
-1
  0
VERTEX
  8
0
 10
782.36151123046875
 20
660.23077392578125
 42
-1
  0
SEQEND
  0
POLYLINE
  8
0
 10
0
 20
0
 39
0
 70
1
 66
1
  0
VERTEX
  8
0
 10
945.984619140625
 20
90.169227600097656
 42
0
  0
VERTEX
  8
0
 10
1025.984619140625
 20
10.169230461120605
 42
0
  0
VERTEX
  8
0
 10
1160.984619140625
 20
10.169230461120605
 42
0
  0
VERTEX
  8
0
 10
1160.984619140625
 20
266.16921997070312
 42
0
  0
VERTEX
  8
0
 10
1025.984619140625
 20
266.16921997070312
 42
0
  0
VERTEX
  8
0
 10
945.984619140625
 20
186.16923522949219
 42
0
  0
SEQEND
  0
POLYLINE
  8
0
 10
0
 20
0
 39
0
 70
1
 66
1
  0
VERTEX
  8
0
 10
945.984619140625
 20
356.20001220703125
 42
0
  0
VERTEX
  8
0
 10
1025.984619140625
 20
276.20001220703125
 42
0
  0
VERTEX
  8
0
 10
1160.984619140625
 20
276.20001220703125
 42
0
  0
VERTEX
  8
0
 10
1160.984619140625
 20
532.20001220703125
 42
0
  0
VERTEX
  8
0
 10
1025.984619140625
 20
532.20001220703125
 42
0
  0
VERTEX
  8
0
 10
945.984619140625
 20
452.20001220703125
 42
0
  0
SEQEND
  0
POLYLINE
  8
0
 10
0
 20
0
 39
0
 70
1
 66
1
  0
VERTEX
  8
0
 10
945.984619140625
 20
622.23077392578125
 42
0
  0
VERTEX
  8
0
 10
1025.984619140625
 20
542.23077392578125
 42
0
  0
VERTEX
  8
0
 10
1160.984619140625
 20
542.23077392578125
 42
0
  0
VERTEX
  8
0
 10
1160.984619140625
 20
798.23077392578125
 42
0
  0
VERTEX
  8
0
 10
1025.984619140625
 20
798.23077392578125
 42
0
  0
VERTEX
  8
0
 10
945.984619140625
 20
718.23077392578125
 42
0
  0
SEQEND
  0
POLYLINE
  8
0
 10
0
 20
0
 39
0
 70
1
 66
1
  0
VERTEX
  8
0
 10
180.16923522949219
 20
819.78460693359375
 42
-0
  0
VERTEX
  8
0
 10
10.169230461120605
 20
764.78460693359375
 42
0
  0
VERTEX
  8
0
 10
10.169230461120605
 20
744.78460693359375
 42
0
  0
VERTEX
  8
0
 10
20.169231414794922
 20
734.78460693359375
 42
0
  0
VERTEX
  8
0
 10
200.16923522949219
 20
734.78460693359375
 42
-0
  0
VERTEX
  8
0
 10
210.16923522949219
 20
744.78460693359375
 42
0
  0
VERTEX
  8
0
 10
210.16923522949219
 20
819.78460693359375
 42
0
  0
SEQEND
  0
POLYLINE
  8
0
 10
0
 20
0
 39
0
 70
1
 66
1
  0
VERTEX
  8
0
 10
40.169231414794922
 20
785.24761962890625
 42
-0
  0
VERTEX
  8
0
 10
210.16923522949219
 20
840.24761962890625
 42
0
  0
VERTEX
  8
0
 10
210.16923522949219
 20
860.24761962890625
 42
0
  0
VERTEX
  8
0
 10
200.16923522949219
 20
870.24761962890625
 42
0
  0
VERTEX
  8
0
 10
20.169231414794922
 20
870.24761962890625
 42
-0
  0
VERTEX
  8
0
 10
10.169230461120605
 20
860.24761962890625
 42
0
  0
VERTEX
  8
0
 10
10.169230461120605
 20
785.24761962890625
 42
0
  0
SEQEND
  0
POLYLINE
  8
0
 10
0
 20
0
 39
0
 70
1
 66
1
  0
VERTEX
  8
0
 10
390.35385131835937
 20
819.78460693359375
 42
-0
  0
VERTEX
  8
0
 10
220.35385131835937
 20
764.78460693359375
 42
0
  0
VERTEX
  8
0
 10
220.35385131835937
 20
744.78460693359375
 42
0
  0
VERTEX
  8
0
 10
230.35385131835937
 20
734.78460693359375
 42
0
  0
VERTEX
  8
0
 10
410.35385131835937
 20
734.78460693359375
 42
-0
  0
VERTEX
  8
0
 10
420.35385131835938
 20
744.78460693359375
 42
0
  0
VERTEX
  8
0
 10
420.35385131835938
 20
819.78460693359375
 42
0
  0
SEQEND
  0
POLYLINE
  8
0
 10
0
 20
0
 39
0
 70
1
 66
1
  0
VERTEX
  8
0
 10
250.35385131835937
 20
785.24761962890625
 42
-0
  0
VERTEX
  8
0
 10
420.35385131835938
 20
840.24761962890625
 42
0
  0
VERTEX
  8
0
 10
420.35385131835938
 20
860.24761962890625
 42
0
  0
VERTEX
  8
0
 10
410.35385131835937
 20
870.24761962890625
 42
0
  0
VERTEX
  8
0
 10
230.35385131835937
 20
870.24761962890625
 42
-0
  0
VERTEX
  8
0
 10
220.35385131835937
 20
860.24761962890625
 42
0
  0
VERTEX
  8
0
 10
220.35385131835937
 20
785.24761962890625
 42
0
  0
SEQEND
  0
POLYLINE
  8
0
 10
0
 20
0
 39
0
 70
1
 66
1
  0
VERTEX
  8
0
 10
600.5384521484375
 20
819.78460693359375
 42
-0
  0
VERTEX
  8
0
 10
430.5384521484375
 20
764.78460693359375
 42
0
  0
VERTEX
  8
0
 10
430.5384521484375
 20
744.78460693359375
 42
0
  0
VERTEX
  8
0
 10
440.5384521484375
 20
734.78460693359375
 42
0
  0
VERTEX
  8
0
 10
620.5384521484375
 20
734.78460693359375
 42
-0
  0
VERTEX
  8
0
 10
630.5384521484375
 20
744.78460693359375
 42
0
  0
VERTEX
  8
0
 10
630.5384521484375
 20
819.78460693359375
 42
0
  0
SEQEND
  0
POLYLINE
  8
0
 10
0
 20
0
 39
0
 70
1
 66
1
  0
VERTEX
  8
0
 10
460.5384521484375
 20
785.24761962890625
 42
-0
  0
VERTEX
  8
0
 10
630.5384521484375
 20
840.24761962890625
 42
0
  0
VERTEX
  8
0
 10
630.5384521484375
 20
860.24761962890625
 42
0
  0
VERTEX
  8
0
 10
620.5384521484375
 20
870.24761962890625
 42
0
  0
VERTEX
  8
0
 10
440.5384521484375
 20
870.24761962890625
 42
-0
  0
VERTEX
  8
0
 10
430.5384521484375
 20
860.24761962890625
 42
0
  0
VERTEX
  8
0
 10
430.5384521484375
 20
785.24761962890625
 42
0
  0
SEQEND
  0
POLYLINE
  8
0
 10
0
 20
0
 39
0
 70
1
 66
1
  0
VERTEX
  8
0
 10
640.72308349609375
 20
880.26153564453125
 42
0
  0
VERTEX
  8
0
 10
640.72308349609375
 20
790.26153564453125
 42
0
  0
VERTEX
  8
0
 10
840.72308349609375
 20
790.26153564453125
 42
0
  0
VERTEX
  8
0
 10
840.72308349609375
 20
880.26153564453125
 42
0
  0
SEQEND
  0
POLYLINE
  8
0
 10
0
 20
0
 39
0
 70
1
 66
1
  0
VERTEX
  8
0
 10
780.22308349609375
 20
824.76153564453125
 42
-0
  0
VERTEX
  8
0
 10
731.22308349609375
 20
824.76153564453125
 42
-1
  0
VERTEX
  8
0
 10
731.22308349609375
 20
845.76153564453125
 42
0
  0
VERTEX
  8
0
 10
780.22308349609375
 20
845.76153564453125
 42
-1
  0
SEQEND
  0
POLYLINE
  8
0
 10
0
 20
0
 39
0
 70
1
 66
1
  0
VERTEX
  8
0
 10
880.90771484375
 20
790.26153564453125
 42
-0
  0
VERTEX
  8
0
 10
1050.90771484375
 20
845.26153564453125
 42
0
  0
VERTEX
  8
0
 10
1050.90771484375
 20
865.26153564453125
 42
0
  0
VERTEX
  8
0
 10
1040.90771484375
 20
875.26153564453125
 42
0
  0
VERTEX
  8
0
 10
860.90771484375
 20
875.26153564453125
 42
-0
  0
VERTEX
  8
0
 10
850.90771484375
 20
865.26153564453125
 42
0
  0
VERTEX
  8
0
 10
850.90771484375
 20
790.26153564453125
 42
0
  0
SEQEND
  0
ENDSEC
  0
EOF
