  0
SECTION
  2
ENTITIES
  0
POLYLINE
  8
0
 10
0
 20
0
 39
0
 70
1
 66
1
  0
VERTEX
  8
0
 10
0
 20
0
 42
-0
  0
VERTEX
  8
0
 10
1000
 20
0
 42
-0
  0
VERTEX
  8
0
 10
1000
 20
500
 42
-0
  0
VERTEX
  8
0
 10
0
 20
500
 42
-0
  0
SEQEND
  0
POLYLINE
  8
0
 10
0
 20
0
 39
0
 70
1
 66
1
  0
VERTEX
  8
0
 10
116.43438720703125
 20
94.698616027832031
 42
-0
  0
VERTEX
  8
0
 10
318.90078735351562
 20
61.107536315917969
 42
-0
  0
VERTEX
  8
0
 10
328.40463256835937
 20
61.883125305175781
 42
-0.90064483880996704
  0
VERTEX
  8
0
 10
369.04608154296875
 20
65.198959350585938
 42
-0
  0
VERTEX
  8
0
 10
520.96673583984375
 20
77.594032287597656
 42
-0
  0
VERTEX
  8
0
 10
597.36187744140625
 20
83.274307250976563
 42
-0.96622377634048462
  0
VERTEX
  8
0
 10
592.52349853515625
 20
123.9635009765625
 42
-0
  0
VERTEX
  8
0
 10
323.810791015625
 20
90.702812194824219
 42
-0
  0
VERTEX
  8
0
 10
116.61173248291016
 20
125.07917785644531
 42
-0
  0
VERTEX
  8
0
 10
59.487525939941406
 20
116.28691864013672
 42
-0
  0
VERTEX
  8
0
 10
57.815052032470703
 20
114.00595092773437
 42
-0
  0
VERTEX
  8
0
 10
38.047821044921875
 20
110.96348571777344
 42
-0
  0
VERTEX
  8
0
 10
35.766849517822266
 20
112.63596343994141
 42
-0
  0
VERTEX
  8
0
 10
22.918149948120117
 20
110.65835571289062
 42
1
  0
VERTEX
  8
0
 10
27.481851577758789
 20
81.00750732421875
 42
-0
  0
SEQEND
  0
POLYLINE
  8
0
 10
0
 20
0
 39
0
 70
1
 66
1
  0
VERTEX
  8
0
 10
124.26980590820312
 20
43.79107666015625
 42
-0
  0
VERTEX
  8
0
 10
326.7362060546875
 20
10.199999809265137
 42
-0
  0
VERTEX
  8
0
 10
336.24005126953125
 20
10.9755859375
 42
-0.90064483880996704
  0
VERTEX
  8
0
 10
376.88150024414062
 20
14.291418075561523
 42
-0
  0
VERTEX
  8
0
 10
528.8021240234375
 20
26.686496734619141
 42
-0
  0
VERTEX
  8
0
 10
605.197265625
 20
32.366767883300781
 42
-0.96622377634048462
  0
VERTEX
  8
0
 10
600.35888671875
 20
73.055961608886719
 42
-0
  0
VERTEX
  8
0
 10
331.64620971679687
 20
39.795276641845703
 42
-0
  0
VERTEX
  8
0
 10
124.44715118408203
 20
74.171638488769531
 42
-0
  0
VERTEX
  8
0
 10
67.322944641113281
 20
65.379386901855469
 42
-0
  0
VERTEX
  8
0
 10
65.650466918945312
 20
63.098415374755859
 42
-0
  0
VERTEX
  8
0
 10
45.88323974609375
 20
60.055946350097656
 42
-0
  0
VERTEX
  8
0
 10
43.602268218994141
 20
61.728420257568359
 42
-0
  0
VERTEX
  8
0
 10
30.753568649291992
 20
59.750816345214844
 42
1
  0
VERTEX
  8
0
 10
35.317272186279297
 20
30.099971771240234
 42
-0
  0
SEQEND
  0
POLYLINE
  8
0
 10
0
 20
0
 39
0
 70
1
 66
1
  0
VERTEX
  8
0
 10
116.43438720703125
 20
197.59861755371094
 42
-0
  0
VERTEX
  8
0
 10
318.90078735351562
 20
164.00753784179687
 42
-0
  0
VERTEX
  8
0
 10
328.40463256835937
 20
164.78312683105469
 42
-0.90064483880996704
  0
VERTEX
  8
0
 10
369.04608154296875
 20
168.09895324707031
 42
-0
  0
VERTEX
  8
0
 10
520.96673583984375
 20
180.49403381347656
 42
-0
  0
VERTEX
  8
0
 10
597.36187744140625
 20
186.17430114746094
 42
-0.96622377634048462
  0
VERTEX
  8
0
 10
592.52349853515625
 20
226.86349487304688
 42
-0
  0
VERTEX
  8
0
 10
323.810791015625
 20
193.60281372070312
 42
-0
  0
VERTEX
  8
0
 10
116.61173248291016
 20
227.97917175292969
 42
-0
  0
VERTEX
  8
0
 10
59.487525939941406
 20
219.18692016601562
 42
-0
  0
VERTEX
  8
0
 10
57.815052032470703
 20
216.90594482421875
 42
-0
  0
VERTEX
  8
0
 10
38.047821044921875
 20
213.86347961425781
 42
-0
  0
VERTEX
  8
0
 10
35.766849517822266
 20
215.53596496582031
 42
-0
  0
VERTEX
  8
0
 10
22.918149948120117
 20
213.558349609375
 42
1
  0
VERTEX
  8
0
 10
27.481851577758789
 20
183.90751647949219
 42
-0
  0
SEQEND
  0
POLYLINE
  8
0
 10
0
 20
0
 39
0
 70
1
 66
1
  0
VERTEX
  8
0
 10
124.26980590820312
 20
146.69107055664062
 42
-0
  0
VERTEX
  8
0
 10
326.7362060546875
 20
113.09999847412109
 42
-0
  0
VERTEX
  8
0
 10
336.24005126953125
 20
113.87558746337891
 42
-0.90064483880996704
  0
VERTEX
  8
0
 10
376.88150024414062
 20
117.19142150878906
 42
-0
  0
VERTEX
  8
0
 10
528.8021240234375
 20
129.58650207519531
 42
-0
  0
VERTEX
  8
0
 10
605.197265625
 20
135.26676940917969
 42
-0.96622377634048462
  0
VERTEX
  8
0
 10
600.35888671875
 20
175.95596313476562
 42
-0
  0
VERTEX
  8
0
 10
331.64620971679687
 20
142.69528198242187
 42
-0
  0
VERTEX
  8
0
 10
124.44715118408203
 20
177.07164001464844
 42
-0
  0
VERTEX
  8
0
 10
67.322944641113281
 20
168.27938842773437
 42
-0
  0
VERTEX
  8
0
 10
65.650466918945312
 20
165.9984130859375
 42
-0
  0
VERTEX
  8
0
 10
45.88323974609375
 20
162.95594787597656
 42
-0
  0
VERTEX
  8
0
 10
43.602268218994141
 20
164.62841796875
 42
-0
  0
VERTEX
  8
0
 10
30.753568649291992
 20
162.65081787109375
 42
1
  0
VERTEX
  8
0
 10
35.317272186279297
 20
132.99996948242187
 42
-0
  0
SEQEND
  0
POLYLINE
  8
0
 10
0
 20
0
 39
0
 70
1
 66
1
  0
VERTEX
  8
0
 10
116.43438720703125
 20
300.49862670898437
 42
-0
  0
VERTEX
  8
0
 10
318.90078735351562
 20
266.90753173828125
 42
-0
  0
VERTEX
  8
0
 10
328.40463256835937
 20
267.68313598632812
 42
-0.90064483880996704
  0
VERTEX
  8
0
 10
369.04608154296875
 20
270.99896240234375
 42
-0
  0
VERTEX
  8
0
 10
520.96673583984375
 20
283.39404296875
 42
-0
  0
VERTEX
  8
0
 10
597.36187744140625
 20
289.07431030273437
 42
-0.96622377634048462
  0
VERTEX
  8
0
 10
592.52349853515625
 20
329.76348876953125
 42
-0
  0
VERTEX
  8
0
 10
323.810791015625
 20
296.5028076171875
 42
-0
  0
VERTEX
  8
0
 10
116.61173248291016
 20
330.87918090820312
 42
-0
  0
VERTEX
  8
0
 10
59.487525939941406
 20
322.0869140625
 42
-0
  0
VERTEX
  8
0
 10
57.815052032470703
 20
319.80593872070312
 42
-0
  0
VERTEX
  8
0
 10
38.047821044921875
 20
316.76348876953125
 42
-0
  0
VERTEX
  8
0
 10
35.766849517822266
 20
318.43597412109375
 42
-0
  0
VERTEX
  8
0
 10
22.918149948120117
 20
316.45834350585937
 42
1
  0
VERTEX
  8
0
 10
27.481851577758789
 20
286.8074951171875
 42
-0
  0
SEQEND
  0
POLYLINE
  8
0
 10
0
 20
0
 39
0
 70
1
 66
1
  0
VERTEX
  8
0
 10
124.26980590820312
 20
249.59107971191406
 42
-0
  0
VERTEX
  8
0
 10
326.7362060546875
 20
216
 42
-0
  0
VERTEX
  8
0
 10
336.24005126953125
 20
216.77558898925781
 42
-0.90064483880996704
  0
VERTEX
  8
0
 10
376.88150024414062
 20
220.09141540527344
 42
-0
  0
VERTEX
  8
0
 10
528.8021240234375
 20
232.48649597167969
 42
-0
  0
VERTEX
  8
0
 10
605.197265625
 20
238.16676330566406
 42
-0.96622377634048462
  0
VERTEX
  8
0
 10
600.35888671875
 20
278.85595703125
 42
-0
  0
VERTEX
  8
0
 10
331.64620971679687
 20
245.59527587890625
 42
-0
  0
VERTEX
  8
0
 10
124.44715118408203
 20
279.97164916992187
 42
-0
  0
VERTEX
  8
0
 10
67.322944641113281
 20
271.17938232421875
 42
-0
  0
VERTEX
  8
0
 10
65.650466918945312
 20
268.89840698242187
 42
-0
  0
VERTEX
  8
0
 10
45.88323974609375
 20
265.85595703125
 42
-0
  0
VERTEX
  8
0
 10
43.602268218994141
 20
267.52841186523437
 42
-0
  0
VERTEX
  8
0
 10
30.753568649291992
 20
265.55081176757812
 42
1
  0
VERTEX
  8
0
 10
35.317272186279297
 20
235.89997863769531
 42
-0
  0
SEQEND
  0
POLYLINE
  8
0
 10
0
 20
0
 39
0
 70
1
 66
1
  0
VERTEX
  8
0
 10
83.199996948242187
 20
336.10000610351562
 42
-0
  0
VERTEX
  8
0
 10
83.199996948242187
 20
379.91159057617187
 42
-0
  0
VERTEX
  8
0
 10
185.19999694824219
 20
379.91159057617187
 42
-0
  0
VERTEX
  8
0
 10
272.67132568359375
 20
336.10000610351562
 42
-0
  0
VERTEX
  8
0
 10
342.83694458007812
 20
336.10000610351562
 42
-0
  0
VERTEX
  8
0
 10
342.83694458007812
 20
474.68118286132812
 42
-0
  0
VERTEX
  8
0
 10
10.199999809265137
 20
474.68118286132812
 42
-0
  0
VERTEX
  8
0
 10
10.199999809265137
 20
336.10000610351562
 42
-0
  0
SEQEND
  0
POLYLINE
  8
0
 10
0
 20
0
 39
0
 70
1
 66
1
  0
VERTEX
  8
0
 10
426
 20
329.79998779296875
 42
-0
  0
VERTEX
  8
0
 10
426
 20
373.611572265625
 42
-0
  0
VERTEX
  8
0
 10
528
 20
373.611572265625
 42
-0
  0
VERTEX
  8
0
 10
615.4713134765625
 20
329.79998779296875
 42
-0
  0
VERTEX
  8
0
 10
685.636962890625
 20
329.79998779296875
 42
-0
  0
VERTEX
  8
0
 10
685.636962890625
 20
468.38119506835937
 42
-0
  0
VERTEX
  8
0
 10
353
 20
468.38119506835937
 42
-0
  0
VERTEX
  8
0
 10
353
 20
329.79998779296875
 42
-0
  0
SEQEND
  0
POLYLINE
  8
0
 10
0
 20
0
 39
0
 70
1
 66
1
  0
VERTEX
  8
0
 10
834.38116455078125
 20
83.199996948242187
 42
-0
  0
VERTEX
  8
0
 10
790.56964111328125
 20
83.199996948242187
 42
-0
  0
VERTEX
  8
0
 10
790.56964111328125
 20
185.19999694824219
 42
-0
  0
VERTEX
  8
0
 10
834.38116455078125
 20
272.67132568359375
 42
-0
  0
VERTEX
  8
0
 10
834.38116455078125
 20
342.83694458007812
 42
-0
  0
VERTEX
  8
0
 10
695.79998779296875
 20
342.83694458007812
 42
-0
  0
VERTEX
  8
0
 10
695.79998779296875
 20
10.199999809265137
 42
-0
  0
VERTEX
  8
0
 10
834.38116455078125
 20
10.199999809265137
 42
-0
  0
SEQEND
  0
POLYLINE
  8
0
 10
0
 20
0
 39
0
 70
1
 66
1
  0
VERTEX
  8
0
 10
800.79998779296875
 20
353.03692626953125
 42
-0
  0
VERTEX
  8
0
 10
844.611572265625
 20
353.03692626953125
 42
-0
  0
VERTEX
  8
0
 10
844.611572265625
 20
251.03692626953125
 42
-0
  0
VERTEX
  8
0
 10
800.79998779296875
 20
163.56561279296875
 42
-0
  0
VERTEX
  8
0
 10
800.79998779296875
 20
93.400001525878906
 42
-0
  0
VERTEX
  8
0
 10
939.38116455078125
 20
93.400001525878906
 42
-0
  0
VERTEX
  8
0
 10
939.38116455078125
 20
426.03692626953125
 42
-0
  0
VERTEX
  8
0
 10
800.79998779296875
 20
426.03692626953125
 42
-0
  0
SEQEND
  0
POLYLINE
  8
0
 10
0
 20
0
 39
0
 70
1
 66
1
  0
VERTEX
  8
0
 10
676.70001220703125
 20
72.699996948242188
 42
-0
  0
VERTEX
  8
0
 10
676.70001220703125
 20
197.69999694824219
 42
-0
  0
VERTEX
  8
0
 10
619.70001220703125
 20
197.69999694824219
 42
-0.41421356797218323
  0
VERTEX
  8
0
 10
611.70001220703125
 20
189.69999694824219
 42
-0
  0
VERTEX
  8
0
 10
611.70001220703125
 20
143.19999694824219
 42
-1
  0
VERTEX
  8
0
 10
611.70001220703125
 20
127.19999694824219
 42
-0
  0
VERTEX
  8
0
 10
611.70001220703125
 20
80.699996948242188
 42
-0.41421356797218323
  0
VERTEX
  8
0
 10
619.70001220703125
 20
72.699996948242188
 42
0
  0
SEQEND
  0
POLYLINE
  8
0
 10
0
 20
0
 39
0
 70
1
 66
1
  0
VERTEX
  8
0
 10
760.79998779296875
 20
352.89999389648437
 42
-0
  0
VERTEX
  8
0
 10
760.79998779296875
 20
477.89999389648437
 42
-0
  0
VERTEX
  8
0
 10
703.79998779296875
 20
477.89999389648437
 42
-0.41421356797218323
  0
VERTEX
  8
0
 10
695.79998779296875
 20
469.89999389648438
 42
-0
  0
VERTEX
  8
0
 10
695.79998779296875
 20
423.39999389648437
 42
-1
  0
VERTEX
  8
0
 10
695.79998779296875
 20
407.39999389648438
 42
-0
  0
VERTEX
  8
0
 10
695.79998779296875
 20
360.89999389648437
 42
-0.41421356797218323
  0
VERTEX
  8
0
 10
703.79998779296875
 20
352.89999389648437
 42
0
  0
SEQEND
  0
POLYLINE
  8
0
 10
0
 20
0
 39
0
 70
1
 66
1
  0
VERTEX
  8
0
 10
844.5
 20
10.199999809265137
 42
-0
  0
VERTEX
  8
0
 10
969.5
 20
10.199999809265137
 42
-0
  0
VERTEX
  8
0
 10
969.5
 20
67.199996948242187
 42
-0.41421356797218323
  0
VERTEX
  8
0
 10
961.5
 20
75.199996948242187
 42
-0
  0
VERTEX
  8
0
 10
915
 20
75.199996948242187
 42
-1
  0
VERTEX
  8
0
 10
899
 20
75.199996948242187
 42
-0
  0
VERTEX
  8
0
 10
852.5
 20
75.199996948242187
 42
-0.41421356797218323
  0
VERTEX
  8
0
 10
844.5
 20
67.199996948242187
 42
0
  0
SEQEND
  0
POLYLINE
  8
0
 10
0
 20
0
 39
0
 70
1
 66
1
  0
VERTEX
  8
0
 10
655.29998779296875
 20
207.80000305175781
 42
-0
  0
VERTEX
  8
0
 10
655.29998779296875
 20
316.79998779296875
 42
-0.15721188485622406
  0
VERTEX
  8
0
 10
651.7955322265625
 20
317.9298095703125
 42
-0
  0
VERTEX
  8
0
 10
640.5933837890625
 20
311.95169067382812
 42
-1.6671469211578369
  0
VERTEX
  8
0
 10
630.006591796875
 20
311.95169067382812
 42
-0
  0
VERTEX
  8
0
 10
618.804443359375
 20
317.9298095703125
 42
-0.15721188485622406
  0
VERTEX
  8
0
 10
615.29998779296875
 20
316.79998779296875
 42
-0
  0
VERTEX
  8
0
 10
615.29998779296875
 20
207.80000305175781
 42
0
  0
VERTEX
  8
0
 10
629.29998779296875
 20
207.80000305175781
 42
-1
  0
VERTEX
  8
0
 10
641.29998779296875
 20
207.80000305175781
 42
0
  0
SEQEND
  0
POLYLINE
  8
0
 10
0
 20
0
 39
0
 70
1
 66
1
  0
VERTEX
  8
0
 10
770.9000244140625
 20
436.10000610351562
 42
-0
  0
VERTEX
  8
0
 10
879.9000244140625
 20
436.10000610351562
 42
-0.15721188485622406
  0
VERTEX
  8
0
 10
881.02978515625
 20
439.60446166992187
 42
-0
  0
VERTEX
  8
0
 10
875.05169677734375
 20
450.80661010742187
 42
-1.6671469211578369
  0
VERTEX
  8
0
 10
875.05169677734375
 20
461.39340209960937
 42
-0
  0
VERTEX
  8
0
 10
881.02978515625
 20
472.59555053710937
 42
-0.15721188485622406
  0
VERTEX
  8
0
 10
879.9000244140625
 20
476.10000610351562
 42
-0
  0
VERTEX
  8
0
 10
770.9000244140625
 20
476.10000610351562
 42
0
  0
VERTEX
  8
0
 10
770.9000244140625
 20
462.10000610351562
 42
-1
  0
VERTEX
  8
0
 10
770.9000244140625
 20
450.10000610351562
 42
0
  0
SEQEND
  0
POLYLINE
  8
0
 10
0
 20
0
 39
0
 70
1
 66
1
  0
VERTEX
  8
0
 10
989.5
 20
85.300003051757813
 42
-0
  0
VERTEX
  8
0
 10
989.5
 20
194.30000305175781
 42
-0.15721188485622406
  0
VERTEX
  8
0
 10
985.99554443359375
 20
195.4298095703125
 42
-0
  0
VERTEX
  8
0
 10
974.79339599609375
 20
189.45167541503906
 42
-1.6671469211578369
  0
VERTEX
  8
0
 10
964.20660400390625
 20
189.45167541503906
 42
-0
  0
VERTEX
  8
0
 10
953.00445556640625
 20
195.4298095703125
 42
-0.15721188485622406
  0
VERTEX
  8
0
 10
949.5
 20
194.30000305175781
 42
-0
  0
VERTEX
  8
0
 10
949.5
 20
85.300003051757813
 42
0
  0
VERTEX
  8
0
 10
963.5
 20
85.300003051757813
 42
-1
  0
VERTEX
  8
0
 10
975.5
 20
85.300003051757813
 42
0
  0
SEQEND
  0
POLYLINE
  8
0
 10
0
 20
0
 39
0
 70
1
 66
1
  0
VERTEX
  8
0
 10
989.5
 20
205.5
 42
-0
  0
VERTEX
  8
0
 10
989.5
 20
314.5
 42
-0.15721188485622406
  0
VERTEX
  8
0
 10
985.99554443359375
 20
315.62982177734375
 42
-0
  0
VERTEX
  8
0
 10
974.79339599609375
 20
309.65167236328125
 42
-1.6671469211578369
  0
VERTEX
  8
0
 10
964.20660400390625
 20
309.65167236328125
 42
-0
  0
VERTEX
  8
0
 10
953.00445556640625
 20
315.62982177734375
 42
-0.15721188485622406
  0
VERTEX
  8
0
 10
949.5
 20
314.5
 42
-0
  0
VERTEX
  8
0
 10
949.5
 20
205.5
 42
0
  0
VERTEX
  8
0
 10
963.5
 20
205.5
 42
-1
  0
VERTEX
  8
0
 10
975.5
 20
205.5
 42
0
  0
SEQEND
  0
POLYLINE
  8
0
 10
0
 20
0
 39
0
 70
1
 66
1
  0
VERTEX
  8
0
 10
989.5
 20
325.70001220703125
 42
-0
  0
VERTEX
  8
0
 10
989.5
 20
434.70001220703125
 42
-0.15721188485622406
  0
VERTEX
  8
0
 10
985.99554443359375
 20
435.82980346679687
 42
-0
  0
VERTEX
  8
0
 10
974.79339599609375
 20
429.8516845703125
 42
-1.6671469211578369
  0
VERTEX
  8
0
 10
964.20660400390625
 20
429.8516845703125
 42
-0
  0
VERTEX
  8
0
 10
953.00445556640625
 20
435.82980346679687
 42
-0.15721188485622406
  0
VERTEX
  8
0
 10
949.5
 20
434.70001220703125
 42
-0
  0
VERTEX
  8
0
 10
949.5
 20
325.70001220703125
 42
0
  0
VERTEX
  8
0
 10
963.5
 20
325.70001220703125
 42
-1
  0
VERTEX
  8
0
 10
975.5
 20
325.70001220703125
 42
0
  0
SEQEND
  0
ENDSEC
  0
EOF
