  0
SECTION
  2
ENTITIES
  0
POLYLINE
  8
0
 10
0
 20
0
 39
0
 70
1
 66
1
  0
VERTEX
  8
0
 10
0
 20
0
 42
-0
  0
VERTEX
  8
0
 10
700
 20
0
 42
-0
  0
VERTEX
  8
0
 10
700
 20
400
 42
-0
  0
VERTEX
  8
0
 10
0
 20
400
 42
-0
  0
SEQEND
  0
POLYLINE
  8
0
 10
0
 20
0
 39
0
 70
1
 66
1
  0
VERTEX
  8
0
 10
77.5
 20
299.20001220703125
 42
0
  0
VERTEX
  8
0
 10
84.599998474121094
 20
270.60000610351562
 42
0.34649235010147095
  0
VERTEX
  8
0
 10
107.20220947265625
 20
252.80000305175781
 42
0
  0
VERTEX
  8
0
 10
117
 20
252.80000305175781
 42
0
  0
VERTEX
  8
0
 10
117
 20
364.20001220703125
 42
0
  0
VERTEX
  8
0
 10
68.5
 20
364.20001220703125
 42
0
  0
VERTEX
  8
0
 10
68.5
 20
299.20001220703125
 42
-0
  0
SEQEND
  0
POLYLINE
  8
0
 10
0
 20
0
 39
0
 70
1
 66
1
  0
VERTEX
  8
0
 10
136
 20
56.400001525878906
 42
0
  0
VERTEX
  8
0
 10
143.10000610351562
 20
27.800003051757813
 42
0.34649235010147095
  0
VERTEX
  8
0
 10
165.70220947265625
 20
10
 42
0
  0
VERTEX
  8
0
 10
175.5
 20
10
 42
0
  0
VERTEX
  8
0
 10
175.5
 20
121.40000152587891
 42
0
  0
VERTEX
  8
0
 10
127
 20
121.40000152587891
 42
0
  0
VERTEX
  8
0
 10
127
 20
56.400001525878906
 42
-0
  0
SEQEND
  0
POLYLINE
  8
0
 10
0
 20
0
 39
0
 70
1
 66
1
  0
VERTEX
  8
0
 10
19
 20
299.20001220703125
 42
0
  0
VERTEX
  8
0
 10
26.100000381469727
 20
270.60000610351562
 42
0.34649235010147095
  0
VERTEX
  8
0
 10
48.702213287353516
 20
252.80000305175781
 42
0
  0
VERTEX
  8
0
 10
58.5
 20
252.80000305175781
 42
0
  0
VERTEX
  8
0
 10
58.5
 20
364.20001220703125
 42
0
  0
VERTEX
  8
0
 10
10
 20
364.20001220703125
 42
0
  0
VERTEX
  8
0
 10
10
 20
299.20001220703125
 42
-0
  0
SEQEND
  0
POLYLINE
  8
0
 10
0
 20
0
 39
0
 70
1
 66
1
  0
VERTEX
  8
0
 10
77.5
 20
177.80000305175781
 42
0
  0
VERTEX
  8
0
 10
84.599998474121094
 20
149.20001220703125
 42
0.34649235010147095
  0
VERTEX
  8
0
 10
107.20220947265625
 20
131.39999389648437
 42
0
  0
VERTEX
  8
0
 10
117
 20
131.39999389648437
 42
0
  0
VERTEX
  8
0
 10
117
 20
242.80000305175781
 42
0
  0
VERTEX
  8
0
 10
68.5
 20
242.80000305175781
 42
0
  0
VERTEX
  8
0
 10
68.5
 20
177.80000305175781
 42
-0
  0
SEQEND
  0
POLYLINE
  8
0
 10
0
 20
0
 39
0
 70
1
 66
1
  0
VERTEX
  8
0
 10
19
 20
177.80000305175781
 42
0
  0
VERTEX
  8
0
 10
26.100000381469727
 20
149.20001220703125
 42
0.34649235010147095
  0
VERTEX
  8
0
 10
48.702213287353516
 20
131.39999389648437
 42
0
  0
VERTEX
  8
0
 10
58.5
 20
131.39999389648437
 42
0
  0
VERTEX
  8
0
 10
58.5
 20
242.80000305175781
 42
0
  0
VERTEX
  8
0
 10
10
 20
242.80000305175781
 42
0
  0
VERTEX
  8
0
 10
10
 20
177.80000305175781
 42
-0
  0
SEQEND
  0
POLYLINE
  8
0
 10
0
 20
0
 39
0
 70
1
 66
1
  0
VERTEX
  8
0
 10
136
 20
177.80000305175781
 42
0
  0
VERTEX
  8
0
 10
143.10000610351562
 20
149.20001220703125
 42
0.34649235010147095
  0
VERTEX
  8
0
 10
165.70220947265625
 20
131.39999389648437
 42
0
  0
VERTEX
  8
0
 10
175.5
 20
131.39999389648437
 42
0
  0
VERTEX
  8
0
 10
175.5
 20
242.80000305175781
 42
0
  0
VERTEX
  8
0
 10
127
 20
242.80000305175781
 42
0
  0
VERTEX
  8
0
 10
127
 20
177.80000305175781
 42
-0
  0
SEQEND
  0
POLYLINE
  8
0
 10
0
 20
0
 39
0
 70
1
 66
1
  0
VERTEX
  8
0
 10
77.5
 20
56.400001525878906
 42
0
  0
VERTEX
  8
0
 10
84.599998474121094
 20
27.800003051757813
 42
0.34649235010147095
  0
VERTEX
  8
0
 10
107.20220947265625
 20
10
 42
0
  0
VERTEX
  8
0
 10
117
 20
10
 42
0
  0
VERTEX
  8
0
 10
117
 20
121.40000152587891
 42
0
  0
VERTEX
  8
0
 10
68.5
 20
121.40000152587891
 42
0
  0
VERTEX
  8
0
 10
68.5
 20
56.400001525878906
 42
-0
  0
SEQEND
  0
POLYLINE
  8
0
 10
0
 20
0
 39
0
 70
1
 66
1
  0
VERTEX
  8
0
 10
19
 20
56.400001525878906
 42
0
  0
VERTEX
  8
0
 10
26.100000381469727
 20
27.800003051757813
 42
0.34649235010147095
  0
VERTEX
  8
0
 10
48.702213287353516
 20
10
 42
0
  0
VERTEX
  8
0
 10
58.5
 20
10
 42
0
  0
VERTEX
  8
0
 10
58.5
 20
121.40000152587891
 42
0
  0
VERTEX
  8
0
 10
10
 20
121.40000152587891
 42
0
  0
VERTEX
  8
0
 10
10
 20
56.400001525878906
 42
-0
  0
SEQEND
  0
POLYLINE
  8
0
 10
0
 20
0
 39
0
 70
1
 66
1
  0
VERTEX
  8
0
 10
283.01214599609375
 20
23.473386764526367
 42
0
  0
VERTEX
  8
0
 10
265.06069946289062
 20
251.56805419921875
 42
0.41421356797218323
  0
VERTEX
  8
0
 10
263.77023315429687
 20
252.67021179199219
 42
0
  0
VERTEX
  8
0
 10
244.14657592773437
 20
251.12579345703125
 42
0.3868708610534668
  0
VERTEX
  8
0
 10
243.04087829589844
 20
249.94834899902344
 42
0
  0
VERTEX
  8
0
 10
241.4703369140625
 20
149.97169494628906
 42
0
  0
VERTEX
  8
0
 10
240.77043151855469
 20
149.98269653320312
 42
0.41421356797218323
  0
VERTEX
  8
0
 10
240.26261901855469
 20
149.49061584472656
 42
0
  0
VERTEX
  8
0
 10
239.65003967285156
 20
110.49542236328125
 42
0.41421356797218323
  0
VERTEX
  8
0
 10
240.14212036132812
 20
109.98763275146484
 42
0
  0
VERTEX
  8
0
 10
240.84202575683594
 20
109.97664642333984
 42
0
  0
VERTEX
  8
0
 10
239.271484375
 20
10
 42
-0
  0
VERTEX
  8
0
 10
273.82754516601562
 20
12.719621658325195
 42
0.41421356797218323
  0
SEQEND
  0
POLYLINE
  8
0
 10
0
 20
0
 39
0
 70
1
 66
1
  0
VERTEX
  8
0
 10
390.55508422851563
 20
23.473386764526367
 42
0
  0
VERTEX
  8
0
 10
372.6036376953125
 20
251.56805419921875
 42
0.41421356797218323
  0
VERTEX
  8
0
 10
371.31320190429687
 20
252.67021179199219
 42
0
  0
VERTEX
  8
0
 10
351.68954467773437
 20
251.12579345703125
 42
0.3868708610534668
  0
VERTEX
  8
0
 10
350.58383178710937
 20
249.94834899902344
 42
0
  0
VERTEX
  8
0
 10
349.01327514648437
 20
149.97169494628906
 42
0
  0
VERTEX
  8
0
 10
348.31338500976562
 20
149.98269653320312
 42
0.41421356797218323
  0
VERTEX
  8
0
 10
347.80557250976562
 20
149.49061584472656
 42
0
  0
VERTEX
  8
0
 10
347.1929931640625
 20
110.49542236328125
 42
0.41421356797218323
  0
VERTEX
  8
0
 10
347.68508911132812
 20
109.98763275146484
 42
0
  0
VERTEX
  8
0
 10
348.38497924804687
 20
109.97664642333984
 42
0
  0
VERTEX
  8
0
 10
346.814453125
 20
10
 42
-0
  0
VERTEX
  8
0
 10
381.37051391601562
 20
12.719621658325195
 42
0.41421356797218323
  0
SEQEND
  0
POLYLINE
  8
0
 10
0
 20
0
 39
0
 70
1
 66
1
  0
VERTEX
  8
0
 10
140.473388671875
 20
316.47622680664062
 42
0
  0
VERTEX
  8
0
 10
368.56805419921875
 20
334.42764282226562
 42
0.41421356797218323
  0
VERTEX
  8
0
 10
369.67019653320312
 20
335.71810913085937
 42
0
  0
VERTEX
  8
0
 10
368.12579345703125
 20
355.34176635742187
 42
0.3868708610534668
  0
VERTEX
  8
0
 10
366.94833374023437
 20
356.44744873046875
 42
0
  0
VERTEX
  8
0
 10
266.9716796875
 20
358.01800537109375
 42
0
  0
VERTEX
  8
0
 10
266.98269653320312
 20
358.71792602539062
 42
0.41421356797218323
  0
VERTEX
  8
0
 10
266.4906005859375
 20
359.22573852539062
 42
0
  0
VERTEX
  8
0
 10
227.49542236328125
 20
359.83831787109375
 42
0.41421356797218323
  0
VERTEX
  8
0
 10
226.98764038085937
 20
359.34622192382812
 42
0
  0
VERTEX
  8
0
 10
226.97663879394531
 20
358.64630126953125
 42
0
  0
VERTEX
  8
0
 10
127
 20
360.21685791015625
 42
-0
  0
VERTEX
  8
0
 10
129.71961975097656
 20
325.66079711914062
 42
0.41421356797218323
  0
SEQEND
  0
POLYLINE
  8
0
 10
0
 20
0
 39
0
 70
1
 66
1
  0
VERTEX
  8
0
 10
495.58590698242187
 20
300
 42
0
  0
VERTEX
  8
0
 10
495.58590698242187
 20
250
 42
0
  0
VERTEX
  8
0
 10
545.5859375
 20
250
 42
-1
  0
VERTEX
  8
0
 10
545.5859375
 20
220
 42
-0
  0
VERTEX
  8
0
 10
495.58590698242187
 20
220
 42
0
  0
VERTEX
  8
0
 10
495.58590698242187
 20
190
 42
0
  0
VERTEX
  8
0
 10
580.5859375
 20
190
 42
0
  0
VERTEX
  8
0
 10
580.5859375
 20
360
 42
0
  0
VERTEX
  8
0
 10
495.58590698242187
 20
360
 42
0
  0
VERTEX
  8
0
 10
495.58590698242187
 20
330
 42
-0
  0
VERTEX
  8
0
 10
545.5859375
 20
330
 42
-1
  0
VERTEX
  8
0
 10
545.5859375
 20
300
 42
0
  0
SEQEND
  0
POLYLINE
  8
0
 10
0
 20
0
 39
0
 70
1
 66
1
  0
VERTEX
  8
0
 10
590.5859375
 20
300
 42
0
  0
VERTEX
  8
0
 10
590.5859375
 20
250
 42
0
  0
VERTEX
  8
0
 10
640.5859375
 20
250
 42
-1
  0
VERTEX
  8
0
 10
640.5859375
 20
220
 42
-0
  0
VERTEX
  8
0
 10
590.5859375
 20
220
 42
0
  0
VERTEX
  8
0
 10
590.5859375
 20
190
 42
0
  0
VERTEX
  8
0
 10
675.5859375
 20
190
 42
0
  0
VERTEX
  8
0
 10
675.5859375
 20
360
 42
0
  0
VERTEX
  8
0
 10
590.5859375
 20
360
 42
0
  0
VERTEX
  8
0
 10
590.5859375
 20
330
 42
-0
  0
VERTEX
  8
0
 10
640.5859375
 20
330
 42
-1
  0
VERTEX
  8
0
 10
640.5859375
 20
300
 42
0
  0
SEQEND
  0
POLYLINE
  8
0
 10
0
 20
0
 39
0
 70
1
 66
1
  0
VERTEX
  8
0
 10
140.473388671875
 20
262.70474243164062
 42
0
  0
VERTEX
  8
0
 10
368.56805419921875
 20
280.65618896484375
 42
0.41421356797218323
  0
VERTEX
  8
0
 10
369.67019653320312
 20
281.94662475585937
 42
0
  0
VERTEX
  8
0
 10
368.12579345703125
 20
301.57028198242187
 42
0.3868708610534668
  0
VERTEX
  8
0
 10
366.94833374023437
 20
302.67599487304687
 42
0
  0
VERTEX
  8
0
 10
266.9716796875
 20
304.24655151367187
 42
0
  0
VERTEX
  8
0
 10
266.98269653320312
 20
304.94644165039062
 42
0.41421356797218323
  0
VERTEX
  8
0
 10
266.4906005859375
 20
305.45425415039063
 42
0
  0
VERTEX
  8
0
 10
227.49542236328125
 20
306.06683349609375
 42
0.41421356797218323
  0
VERTEX
  8
0
 10
226.98764038085937
 20
305.57473754882812
 42
0
  0
VERTEX
  8
0
 10
226.97663879394531
 20
304.87484741210937
 42
0
  0
VERTEX
  8
0
 10
127
 20
306.44537353515625
 42
-0
  0
VERTEX
  8
0
 10
129.71961975097656
 20
271.88931274414062
 42
0.41421356797218323
  0
SEQEND
  0
POLYLINE
  8
0
 10
0
 20
0
 39
0
 70
1
 66
1
  0
VERTEX
  8
0
 10
229.24064636230469
 20
23.473386764526367
 42
0
  0
VERTEX
  8
0
 10
211.28921508789062
 20
251.56805419921875
 42
0.41421356797218323
  0
VERTEX
  8
0
 10
209.99876403808594
 20
252.67021179199219
 42
0
  0
VERTEX
  8
0
 10
190.37510681152344
 20
251.12579345703125
 42
0.3868708610534668
  0
VERTEX
  8
0
 10
189.2694091796875
 20
249.94834899902344
 42
0
  0
VERTEX
  8
0
 10
187.6988525390625
 20
149.97169494628906
 42
0
  0
VERTEX
  8
0
 10
186.99894714355469
 20
149.98269653320312
 42
0.41421356797218323
  0
VERTEX
  8
0
 10
186.49114990234375
 20
149.49061584472656
 42
0
  0
VERTEX
  8
0
 10
185.87855529785156
 20
110.49542236328125
 42
0.41421356797218323
  0
VERTEX
  8
0
 10
186.37063598632812
 20
109.98763275146484
 42
0
  0
VERTEX
  8
0
 10
187.070556640625
 20
109.97664642333984
 42
0
  0
VERTEX
  8
0
 10
185.5
 20
10
 42
-0
  0
VERTEX
  8
0
 10
220.05607604980469
 20
12.719621658325195
 42
0.41421356797218323
  0
SEQEND
  0
POLYLINE
  8
0
 10
0
 20
0
 39
0
 70
1
 66
1
  0
VERTEX
  8
0
 10
400.58590698242187
 20
120
 42
0
  0
VERTEX
  8
0
 10
400.58590698242187
 20
70
 42
0
  0
VERTEX
  8
0
 10
450.58590698242187
 20
70
 42
-1
  0
VERTEX
  8
0
 10
450.58590698242187
 20
40
 42
-0
  0
VERTEX
  8
0
 10
400.58590698242187
 20
40
 42
0
  0
VERTEX
  8
0
 10
400.58590698242187
 20
10
 42
0
  0
VERTEX
  8
0
 10
485.58590698242187
 20
10
 42
0
  0
VERTEX
  8
0
 10
485.58590698242187
 20
180
 42
0
  0
VERTEX
  8
0
 10
400.58590698242187
 20
180
 42
0
  0
VERTEX
  8
0
 10
400.58590698242187
 20
150
 42
-0
  0
VERTEX
  8
0
 10
450.58590698242187
 20
150
 42
-1
  0
VERTEX
  8
0
 10
450.58590698242187
 20
120
 42
0
  0
SEQEND
  0
POLYLINE
  8
0
 10
0
 20
0
 39
0
 70
1
 66
1
  0
VERTEX
  8
0
 10
590.5859375
 20
120
 42
0
  0
VERTEX
  8
0
 10
590.5859375
 20
70
 42
0
  0
VERTEX
  8
0
 10
640.5859375
 20
70
 42
-1
  0
VERTEX
  8
0
 10
640.5859375
 20
40
 42
-0
  0
VERTEX
  8
0
 10
590.5859375
 20
40
 42
0
  0
VERTEX
  8
0
 10
590.5859375
 20
10
 42
0
  0
VERTEX
  8
0
 10
675.5859375
 20
10
 42
0
  0
VERTEX
  8
0
 10
675.5859375
 20
180
 42
0
  0
VERTEX
  8
0
 10
590.5859375
 20
180
 42
0
  0
VERTEX
  8
0
 10
590.5859375
 20
150
 42
-0
  0
VERTEX
  8
0
 10
640.5859375
 20
150
 42
-1
  0
VERTEX
  8
0
 10
640.5859375
 20
120
 42
0
  0
SEQEND
  0
POLYLINE
  8
0
 10
0
 20
0
 39
0
 70
1
 66
1
  0
VERTEX
  8
0
 10
495.58590698242187
 20
120
 42
0
  0
VERTEX
  8
0
 10
495.58590698242187
 20
70
 42
0
  0
VERTEX
  8
0
 10
545.5859375
 20
70
 42
-1
  0
VERTEX
  8
0
 10
545.5859375
 20
40
 42
-0
  0
VERTEX
  8
0
 10
495.58590698242187
 20
40
 42
0
  0
VERTEX
  8
0
 10
495.58590698242187
 20
10
 42
0
  0
VERTEX
  8
0
 10
580.5859375
 20
10
 42
0
  0
VERTEX
  8
0
 10
580.5859375
 20
180
 42
0
  0
VERTEX
  8
0
 10
495.58590698242187
 20
180
 42
0
  0
VERTEX
  8
0
 10
495.58590698242187
 20
150
 42
-0
  0
VERTEX
  8
0
 10
545.5859375
 20
150
 42
-1
  0
VERTEX
  8
0
 10
545.5859375
 20
120
 42
0
  0
SEQEND
  0
POLYLINE
  8
0
 10
0
 20
0
 39
0
 70
1
 66
1
  0
VERTEX
  8
0
 10
400.58590698242187
 20
300
 42
0
  0
VERTEX
  8
0
 10
400.58590698242187
 20
250
 42
0
  0
VERTEX
  8
0
 10
450.58590698242187
 20
250
 42
-1
  0
VERTEX
  8
0
 10
450.58590698242187
 20
220
 42
-0
  0
VERTEX
  8
0
 10
400.58590698242187
 20
220
 42
0
  0
VERTEX
  8
0
 10
400.58590698242187
 20
190
 42
0
  0
VERTEX
  8
0
 10
485.58590698242187
 20
190
 42
0
  0
VERTEX
  8
0
 10
485.58590698242187
 20
360
 42
0
  0
VERTEX
  8
0
 10
400.58590698242187
 20
360
 42
0
  0
VERTEX
  8
0
 10
400.58590698242187
 20
330
 42
-0
  0
VERTEX
  8
0
 10
450.58590698242187
 20
330
 42
-1
  0
VERTEX
  8
0
 10
450.58590698242187
 20
300
 42
0
  0
SEQEND
  0
POLYLINE
  8
0
 10
0
 20
0
 39
0
 70
1
 66
1
  0
VERTEX
  8
0
 10
336.78359985351562
 20
23.473386764526367
 42
0
  0
VERTEX
  8
0
 10
318.83218383789062
 20
251.56805419921875
 42
0.41421356797218323
  0
VERTEX
  8
0
 10
317.54171752929687
 20
252.67021179199219
 42
0
  0
VERTEX
  8
0
 10
297.91806030273437
 20
251.12579345703125
 42
0.3868708610534668
  0
VERTEX
  8
0
 10
296.81234741210937
 20
249.94834899902344
 42
0
  0
VERTEX
  8
0
 10
295.2418212890625
 20
149.97169494628906
 42
0
  0
VERTEX
  8
0
 10
294.54190063476562
 20
149.98269653320312
 42
0.41421356797218323
  0
VERTEX
  8
0
 10
294.03408813476562
 20
149.49061584472656
 42
0
  0
VERTEX
  8
0
 10
293.4215087890625
 20
110.49542236328125
 42
0.41421356797218323
  0
VERTEX
  8
0
 10
293.91360473632812
 20
109.98763275146484
 42
0
  0
VERTEX
  8
0
 10
294.613525390625
 20
109.97664642333984
 42
0
  0
VERTEX
  8
0
 10
293.04296875
 20
10
 42
-0
  0
VERTEX
  8
0
 10
327.59902954101562
 20
12.719621658325195
 42
0.41421356797218323
  0
SEQEND
  0
ENDSEC
  0
EOF
