  0
SECTION
  2
ENTITIES
  0
POLYLINE
  8
0
 10
0
 20
0
 39
0
 70
1
 66
1
  0
VERTEX
  8
0
 10
0
 20
0
 42
-0
  0
VERTEX
  8
0
 10
500
 20
0
 42
-0
  0
VERTEX
  8
0
 10
500
 20
400
 42
-0
  0
VERTEX
  8
0
 10
0
 20
400
 42
-0
  0
SEQEND
  0
POLYLINE
  8
0
 10
0
 20
0
 39
0
 70
1
 66
1
  0
VERTEX
  8
0
 10
290
 20
295
 42
0
  0
VERTEX
  8
0
 10
440
 20
295
 42
0
  0
VERTEX
  8
0
 10
440
 20
315
 42
0
  0
VERTEX
  8
0
 10
300
 20
345
 42
0
  0
VERTEX
  8
0
 10
280
 20
345
 42
0
  0
VERTEX
  8
0
 10
280
 20
305
 42
0
  0
SEQEND
  0
POLYLINE
  8
0
 10
0
 20
0
 39
0
 70
1
 66
1
  0
VERTEX
  8
0
 10
230
 20
385
 42
0
  0
VERTEX
  8
0
 10
10
 20
385
 42
0
  0
VERTEX
  8
0
 10
10
 20
355
 42
0
  0
VERTEX
  8
0
 10
230
 20
355
 42
0
  0
SEQEND
  0
POLYLINE
  8
0
 10
0
 20
0
 39
0
 70
1
 66
1
  0
VERTEX
  8
0
 10
460
 20
235
 42
0
  0
VERTEX
  8
0
 10
240
 20
235
 42
0
  0
VERTEX
  8
0
 10
240
 20
205
 42
0
  0
VERTEX
  8
0
 10
460
 20
205
 42
0
  0
SEQEND
  0
POLYLINE
  8
0
 10
0
 20
0
 39
0
 70
1
 66
1
  0
VERTEX
  8
0
 10
230
 20
235
 42
0
  0
VERTEX
  8
0
 10
10
 20
235
 42
0
  0
VERTEX
  8
0
 10
10
 20
205
 42
0
  0
VERTEX
  8
0
 10
230
 20
205
 42
0
  0
SEQEND
  0
POLYLINE
  8
0
 10
0
 20
0
 39
0
 70
1
 66
1
  0
VERTEX
  8
0
 10
10
 20
10
 42
0
  0
VERTEX
  8
0
 10
455
 20
10
 42
-0
  0
VERTEX
  8
0
 10
455
 20
30
 42
0
  0
VERTEX
  8
0
 10
345
 20
65
 42
-0
  0
VERTEX
  8
0
 10
120
 20
65
 42
-0
  0
VERTEX
  8
0
 10
10
 20
30
 42
0
  0
SEQEND
  0
POLYLINE
  8
0
 10
0
 20
0
 39
0
 70
1
 66
1
  0
VERTEX
  8
0
 10
10
 20
305
 42
0
  0
VERTEX
  8
0
 10
270
 20
305
 42
0
  0
VERTEX
  8
0
 10
270
 20
345
 42
0
  0
VERTEX
  8
0
 10
10
 20
345
 42
0
  0
SEQEND
  0
POLYLINE
  8
0
 10
0
 20
0
 39
0
 70
1
 66
1
  0
VERTEX
  8
0
 10
460
 20
385
 42
0
  0
VERTEX
  8
0
 10
240
 20
385
 42
0
  0
VERTEX
  8
0
 10
240
 20
355
 42
0
  0
VERTEX
  8
0
 10
460
 20
355
 42
0
  0
SEQEND
  0
POLYLINE
  8
0
 10
0
 20
0
 39
0
 70
1
 66
1
  0
VERTEX
  8
0
 10
180
 20
245
 42
0
  0
VERTEX
  8
0
 10
440
 20
245
 42
0
  0
VERTEX
  8
0
 10
440
 20
285
 42
0
  0
VERTEX
  8
0
 10
180
 20
285
 42
0
  0
SEQEND
  0
POLYLINE
  8
0
 10
0
 20
0
 39
0
 70
1
 66
1
  0
VERTEX
  8
0
 10
10
 20
75
 42
0
  0
VERTEX
  8
0
 10
455
 20
75
 42
-0
  0
VERTEX
  8
0
 10
455
 20
95
 42
0
  0
VERTEX
  8
0
 10
345
 20
130
 42
-0
  0
VERTEX
  8
0
 10
120
 20
130
 42
-0
  0
VERTEX
  8
0
 10
10
 20
95
 42
0
  0
SEQEND
  0
POLYLINE
  8
0
 10
0
 20
0
 39
0
 70
1
 66
1
  0
VERTEX
  8
0
 10
20
 20
245
 42
0
  0
VERTEX
  8
0
 10
170
 20
245
 42
0
  0
VERTEX
  8
0
 10
170
 20
265
 42
0
  0
VERTEX
  8
0
 10
30
 20
295
 42
0
  0
VERTEX
  8
0
 10
10
 20
295
 42
0
  0
VERTEX
  8
0
 10
10
 20
255
 42
0
  0
SEQEND
  0
POLYLINE
  8
0
 10
0
 20
0
 39
0
 70
1
 66
1
  0
VERTEX
  8
0
 10
10
 20
140
 42
0
  0
VERTEX
  8
0
 10
455
 20
140
 42
-0
  0
VERTEX
  8
0
 10
455
 20
160
 42
0
  0
VERTEX
  8
0
 10
345
 20
195
 42
-0
  0
VERTEX
  8
0
 10
120
 20
195
 42
-0
  0
VERTEX
  8
0
 10
10
 20
160
 42
0
  0
SEQEND
  0
ENDSEC
  0
EOF
