  0
SECTION
  2
ENTITIES
  0
POLYLINE
  8
0
 10
0
 20
0
 39
0
 70
1
 66
1
  0
VERTEX
  8
0
 10
0
 20
0
 42
-0
  0
VERTEX
  8
0
 10
700
 20
0
 42
-0
  0
VERTEX
  8
0
 10
700
 20
500
 42
-0
  0
VERTEX
  8
0
 10
0
 20
500
 42
-0
  0
SEQEND
  0
POLYLINE
  8
0
 10
0
 20
0
 39
0
 70
1
 66
1
  0
VERTEX
  8
0
 10
689.9384765625
 20
261.2432861328125
 42
0
  0
VERTEX
  8
0
 10
364.79583740234375
 20
261.2432861328125
 42
0
  0
VERTEX
  8
0
 10
364.79583740234375
 20
10.061538696289062
 42
0
  0
VERTEX
  8
0
 10
689.9384765625
 20
10.061538696289062
 42
0
  0
SEQEND
  0
POLYLINE
  8
0
 10
0
 20
0
 39
0
 70
1
 66
1
  0
VERTEX
  8
0
 10
635.3671875
 20
135.65242004394531
 42
-0
  0
VERTEX
  8
0
 10
653.76983642578125
 20
33.592483520507812
 42
-0
  0
VERTEX
  8
0
 10
583.4150390625
 20
43.334297180175781
 42
-0.2797943651676178
  0
VERTEX
  8
0
 10
471.31927490234375
 20
43.334297180175781
 42
0
  0
VERTEX
  8
0
 10
400.96450805664062
 20
33.592483520507812
 42
0
  0
VERTEX
  8
0
 10
419.36715698242187
 20
135.65242004394531
 42
-0
  0
VERTEX
  8
0
 10
400.96450805664062
 20
237.71235656738281
 42
-0
  0
VERTEX
  8
0
 10
471.31927490234375
 20
227.97053527832031
 42
-0.2797943651676178
  0
VERTEX
  8
0
 10
583.4150390625
 20
227.97053527832031
 42
0
  0
VERTEX
  8
0
 10
653.76983642578125
 20
237.71235656738281
 42
0
  0
SEQEND
  0
POLYLINE
  8
0
 10
0
 20
0
 39
0
 70
1
 66
1
  0
VERTEX
  8
0
 10
354.74615478515625
 20
261.2432861328125
 42
0
  0
VERTEX
  8
0
 10
29.603530883789062
 20
261.2432861328125
 42
0
  0
VERTEX
  8
0
 10
29.603530883789062
 20
10.061538696289062
 42
0
  0
VERTEX
  8
0
 10
354.74615478515625
 20
10.061538696289062
 42
0
  0
SEQEND
  0
POLYLINE
  8
0
 10
0
 20
0
 39
0
 70
1
 66
1
  0
VERTEX
  8
0
 10
300.17483520507812
 20
135.65242004394531
 42
-0
  0
VERTEX
  8
0
 10
318.57748413085937
 20
33.592483520507812
 42
-0
  0
VERTEX
  8
0
 10
248.22273254394531
 20
43.334297180175781
 42
-0.2797943651676178
  0
VERTEX
  8
0
 10
136.12696838378906
 20
43.334297180175781
 42
0
  0
VERTEX
  8
0
 10
65.772201538085938
 20
33.592483520507812
 42
0
  0
VERTEX
  8
0
 10
84.174850463867188
 20
135.65242004394531
 42
-0
  0
VERTEX
  8
0
 10
65.772201538085938
 20
237.71235656738281
 42
-0
  0
VERTEX
  8
0
 10
136.12696838378906
 20
227.97053527832031
 42
-0.2797943651676178
  0
VERTEX
  8
0
 10
248.22273254394531
 20
227.97053527832031
 42
0
  0
VERTEX
  8
0
 10
318.57748413085937
 20
237.71235656738281
 42
0
  0
SEQEND
  0
POLYLINE
  8
0
 10
0
 20
0
 39
0
 70
1
 66
1
  0
VERTEX
  8
0
 10
689.9384765625
 20
271.32308959960937
 42
-0
  0
VERTEX
  8
0
 10
689.9384765625
 20
471.32308959960937
 42
-0
  0
VERTEX
  8
0
 10
474.9384765625
 20
471.32308959960937
 42
-0
  0
VERTEX
  8
0
 10
474.9384765625
 20
271.32308959960937
 42
-0
  0
SEQEND
  0
POLYLINE
  8
0
 10
0
 20
0
 39
0
 70
1
 66
1
  0
VERTEX
  8
0
 10
639.9384765625
 20
321.32308959960937
 42
-0
  0
VERTEX
  8
0
 10
509.9384765625
 20
321.32308959960937
 42
-0
  0
VERTEX
  8
0
 10
509.9384765625
 20
351.32308959960937
 42
-0
  0
VERTEX
  8
0
 10
639.9384765625
 20
351.32308959960937
 42
-0
  0
SEQEND
  0
POLYLINE
  8
0
 10
0
 20
0
 39
0
 70
1
 66
1
  0
VERTEX
  8
0
 10
639.9384765625
 20
391.32308959960938
 42
-0
  0
VERTEX
  8
0
 10
509.9384765625
 20
391.32308959960938
 42
-0
  0
VERTEX
  8
0
 10
509.9384765625
 20
421.32308959960937
 42
-0
  0
VERTEX
  8
0
 10
639.9384765625
 20
421.32308959960937
 42
-0
  0
SEQEND
  0
POLYLINE
  8
0
 10
0
 20
0
 39
0
 70
1
 66
1
  0
VERTEX
  8
0
 10
464.91537475585937
 20
271.32308959960937
 42
-0
  0
VERTEX
  8
0
 10
464.91537475585937
 20
471.32308959960937
 42
-0
  0
VERTEX
  8
0
 10
249.91539001464844
 20
471.32308959960937
 42
-0
  0
VERTEX
  8
0
 10
249.91539001464844
 20
271.32308959960937
 42
-0
  0
SEQEND
  0
POLYLINE
  8
0
 10
0
 20
0
 39
0
 70
1
 66
1
  0
VERTEX
  8
0
 10
414.91537475585937
 20
321.32308959960937
 42
-0
  0
VERTEX
  8
0
 10
284.91537475585937
 20
321.32308959960937
 42
-0
  0
VERTEX
  8
0
 10
284.91537475585937
 20
351.32308959960937
 42
-0
  0
VERTEX
  8
0
 10
414.91537475585937
 20
351.32308959960937
 42
-0
  0
SEQEND
  0
POLYLINE
  8
0
 10
0
 20
0
 39
0
 70
1
 66
1
  0
VERTEX
  8
0
 10
414.91537475585937
 20
391.32308959960938
 42
-0
  0
VERTEX
  8
0
 10
284.91537475585937
 20
391.32308959960938
 42
-0
  0
VERTEX
  8
0
 10
284.91537475585937
 20
421.32308959960937
 42
-0
  0
VERTEX
  8
0
 10
414.91537475585937
 20
421.32308959960937
 42
-0
  0
SEQEND
  0
POLYLINE
  8
0
 10
0
 20
0
 39
0
 70
1
 66
1
  0
VERTEX
  8
0
 10
239.89230346679687
 20
271.32308959960937
 42
-0
  0
VERTEX
  8
0
 10
239.89230346679687
 20
471.32308959960937
 42
-0
  0
VERTEX
  8
0
 10
24.892307281494141
 20
471.32308959960937
 42
-0
  0
VERTEX
  8
0
 10
24.892307281494141
 20
271.32308959960937
 42
-0
  0
SEQEND
  0
POLYLINE
  8
0
 10
0
 20
0
 39
0
 70
1
 66
1
  0
VERTEX
  8
0
 10
189.89230346679687
 20
321.32308959960937
 42
-0
  0
VERTEX
  8
0
 10
59.892307281494141
 20
321.32308959960937
 42
-0
  0
VERTEX
  8
0
 10
59.892307281494141
 20
351.32308959960937
 42
-0
  0
VERTEX
  8
0
 10
189.89230346679687
 20
351.32308959960937
 42
-0
  0
SEQEND
  0
POLYLINE
  8
0
 10
0
 20
0
 39
0
 70
1
 66
1
  0
VERTEX
  8
0
 10
189.89230346679687
 20
391.32308959960938
 42
-0
  0
VERTEX
  8
0
 10
59.892307281494141
 20
391.32308959960938
 42
-0
  0
VERTEX
  8
0
 10
59.892307281494141
 20
421.32308959960937
 42
-0
  0
VERTEX
  8
0
 10
189.89230346679687
 20
421.32308959960937
 42
-0
  0
SEQEND
  0
POLYLINE
  8
0
 10
0
 20
0
 39
0
 70
1
 66
1
  0
VERTEX
  8
0
 10
448.47000122070312
 20
118.19521331787109
 42
1
  0
VERTEX
  8
0
 10
608.46844482421875
 20
117.49708557128906
 42
1
  0
SEQEND
  0
POLYLINE
  8
0
 10
0
 20
0
 39
0
 70
1
 66
1
  0
VERTEX
  8
0
 10
550.968994140625
 20
117.74797821044922
 42
-1
  0
VERTEX
  8
0
 10
505.96945190429688
 20
117.94432830810547
 42
-1
  0
SEQEND
  0
POLYLINE
  8
0
 10
0
 20
0
 39
0
 70
1
 66
1
  0
VERTEX
  8
0
 10
113.27768707275391
 20
118.19521331787109
 42
1
  0
VERTEX
  8
0
 10
273.27615356445312
 20
117.49708557128906
 42
1
  0
SEQEND
  0
POLYLINE
  8
0
 10
0
 20
0
 39
0
 70
1
 66
1
  0
VERTEX
  8
0
 10
215.77670288085937
 20
117.74797821044922
 42
-1
  0
VERTEX
  8
0
 10
170.77714538574219
 20
117.94432830810547
 42
-1
  0
SEQEND
  0
ENDSEC
  0
EOF
