  0
SECTION
  2
ENTITIES
  0
POLYLINE
  8
0
 10
0
 20
0
 39
0
 70
1
 66
1
  0
VERTEX
  8
0
 10
0
 20
0
 42
-0
  0
VERTEX
  8
0
 10
1200
 20
0
 42
-0
  0
VERTEX
  8
0
 10
1200
 20
700
 42
-0
  0
VERTEX
  8
0
 10
0
 20
700
 42
-0
  0
SEQEND
  0
POLYLINE
  8
0
 10
0
 20
0
 39
0
 70
1
 66
1
  0
VERTEX
  8
0
 10
630.9229736328125
 20
570
 42
0
  0
VERTEX
  8
0
 10
590.9229736328125
 20
350
 42
0
  0
VERTEX
  8
0
 10
590.9229736328125
 20
230
 42
0
  0
VERTEX
  8
0
 10
630.9229736328125
 20
10
 42
-0
  0
VERTEX
  8
0
 10
670.885986328125
 20
10
 42
-0.48969811201095581
  0
VERTEX
  8
0
 10
790.9599609375
 20
10
 42
-0
  0
VERTEX
  8
0
 10
830.9229736328125
 20
10
 42
-0
  0
VERTEX
  8
0
 10
870.9229736328125
 20
230
 42
0
  0
VERTEX
  8
0
 10
870.9229736328125
 20
350
 42
-0
  0
VERTEX
  8
0
 10
830.9229736328125
 20
570
 42
-0
  0
VERTEX
  8
0
 10
790.9599609375
 20
570
 42
-0.48969820141792297
  0
VERTEX
  8
0
 10
670.885986328125
 20
570
 42
-0
  0
SEQEND
  0
POLYLINE
  8
0
 10
0
 20
0
 39
0
 70
1
 66
1
  0
VERTEX
  8
0
 10
756.9229736328125
 20
462
 42
0
  0
VERTEX
  8
0
 10
756.9229736328125
 20
393.21044921875
 42
-0.33088359236717224
  0
VERTEX
  8
0
 10
749.0960693359375
 20
382.67803955078125
 42
-0.1473628431558609
  0
VERTEX
  8
0
 10
712.74993896484375
 20
382.67803955078125
 42
-0.33088359236717224
  0
VERTEX
  8
0
 10
704.9229736328125
 20
393.21044921875
 42
-0
  0
VERTEX
  8
0
 10
704.9229736328125
 20
462
 42
-0
  0
SEQEND
  0
POLYLINE
  8
0
 10
0
 20
0
 39
0
 70
1
 66
1
  0
VERTEX
  8
0
 10
756.9229736328125
 20
118
 42
0
  0
VERTEX
  8
0
 10
704.9229736328125
 20
118
 42
-0
  0
VERTEX
  8
0
 10
704.9229736328125
 20
186.78955078125
 42
-0.33088359236717224
  0
VERTEX
  8
0
 10
712.74993896484375
 20
197.32196044921875
 42
-0.14736282825469971
  0
VERTEX
  8
0
 10
749.0960693359375
 20
197.32196044921875
 42
-0.33088359236717224
  0
VERTEX
  8
0
 10
756.9229736328125
 20
186.78955078125
 42
0
  0
SEQEND
  0
POLYLINE
  8
0
 10
0
 20
0
 39
0
 70
1
 66
1
  0
VERTEX
  8
0
 10
290.92300415039063
 20
10
 42
0
  0
VERTEX
  8
0
 10
290.92300415039063
 20
385
 42
-0
  0
VERTEX
  8
0
 10
283.92300415039062
 20
450
 42
-0
  0
VERTEX
  8
0
 10
263.92300415039062
 20
470
 42
0
  0
VERTEX
  8
0
 10
80.922996520996094
 20
470
 42
0
  0
VERTEX
  8
0
 10
230.92300415039062
 20
10
 42
0
  0
SEQEND
  0
POLYLINE
  8
0
 10
0
 20
0
 39
0
 70
1
 66
1
  0
VERTEX
  8
0
 10
10
 20
470
 42
0
  0
VERTEX
  8
0
 10
10
 20
95
 42
-0
  0
VERTEX
  8
0
 10
17
 20
30
 42
-0
  0
VERTEX
  8
0
 10
37
 20
10
 42
0
  0
VERTEX
  8
0
 10
220
 20
10
 42
0
  0
VERTEX
  8
0
 10
70
 20
470
 42
0
  0
SEQEND
  0
POLYLINE
  8
0
 10
0
 20
0
 39
0
 70
1
 66
1
  0
VERTEX
  8
0
 10
10
 20
480
 42
0
  0
VERTEX
  8
0
 10
280
 20
480
 42
-0
  0
VERTEX
  8
0
 10
280
 20
491.07278442382812
 42
-1
  0
VERTEX
  8
0
 10
280
 20
523.07281494140625
 42
-0
  0
VERTEX
  8
0
 10
280
 20
534.14556884765625
 42
0.21420902013778687
  0
VERTEX
  8
0
 10
247.5843505859375
 20
570
 42
-0
  0
VERTEX
  8
0
 10
10
 20
570
 42
-0
  0
SEQEND
  0
POLYLINE
  8
0
 10
0
 20
0
 39
0
 70
1
 66
1
  0
VERTEX
  8
0
 10
80.423110961914063
 20
525
 42
-1
  0
VERTEX
  8
0
 10
120.42311096191406
 20
525
 42
-1
  0
SEQEND
  0
POLYLINE
  8
0
 10
0
 20
0
 39
0
 70
1
 66
1
  0
VERTEX
  8
0
 10
340.92300415039062
 20
570
 42
0
  0
VERTEX
  8
0
 10
300.92300415039062
 20
350
 42
0
  0
VERTEX
  8
0
 10
300.92300415039062
 20
230
 42
0
  0
VERTEX
  8
0
 10
340.92300415039062
 20
10
 42
-0
  0
VERTEX
  8
0
 10
380.88601684570312
 20
10
 42
-0.48969811201095581
  0
VERTEX
  8
0
 10
500.95999145507812
 20
10
 42
-0
  0
VERTEX
  8
0
 10
540.9229736328125
 20
10
 42
-0
  0
VERTEX
  8
0
 10
580.9229736328125
 20
230
 42
0
  0
VERTEX
  8
0
 10
580.9229736328125
 20
350
 42
-0
  0
VERTEX
  8
0
 10
540.9229736328125
 20
570
 42
-0
  0
VERTEX
  8
0
 10
500.95999145507812
 20
570
 42
-0.48969820141792297
  0
VERTEX
  8
0
 10
380.88601684570312
 20
570
 42
-0
  0
SEQEND
  0
POLYLINE
  8
0
 10
0
 20
0
 39
0
 70
1
 66
1
  0
VERTEX
  8
0
 10
466.92300415039062
 20
462
 42
0
  0
VERTEX
  8
0
 10
466.92300415039062
 20
393.21044921875
 42
-0.33088359236717224
  0
VERTEX
  8
0
 10
459.0960693359375
 20
382.67803955078125
 42
-0.1473628431558609
  0
VERTEX
  8
0
 10
422.74993896484375
 20
382.67803955078125
 42
-0.33088359236717224
  0
VERTEX
  8
0
 10
414.92300415039062
 20
393.21044921875
 42
-0
  0
VERTEX
  8
0
 10
414.92300415039062
 20
462
 42
-0
  0
SEQEND
  0
POLYLINE
  8
0
 10
0
 20
0
 39
0
 70
1
 66
1
  0
VERTEX
  8
0
 10
466.92300415039062
 20
118
 42
0
  0
VERTEX
  8
0
 10
414.92300415039062
 20
118
 42
-0
  0
VERTEX
  8
0
 10
414.92300415039062
 20
186.78955078125
 42
-0.33088359236717224
  0
VERTEX
  8
0
 10
422.74993896484375
 20
197.32196044921875
 42
-0.14736282825469971
  0
VERTEX
  8
0
 10
459.0960693359375
 20
197.32196044921875
 42
-0.33088359236717224
  0
VERTEX
  8
0
 10
466.92300415039062
 20
186.78955078125
 42
0
  0
SEQEND
  0
POLYLINE
  8
0
 10
0
 20
0
 39
0
 70
1
 66
1
  0
VERTEX
  8
0
 10
290
 20
580
 42
0
  0
VERTEX
  8
0
 10
560
 20
580
 42
-0
  0
VERTEX
  8
0
 10
560
 20
591.07281494140625
 42
-1
  0
VERTEX
  8
0
 10
560
 20
623.07281494140625
 42
-0
  0
VERTEX
  8
0
 10
560
 20
634.14556884765625
 42
0.21420902013778687
  0
VERTEX
  8
0
 10
527.5843505859375
 20
670
 42
-0
  0
VERTEX
  8
0
 10
290
 20
670
 42
-0
  0
SEQEND
  0
POLYLINE
  8
0
 10
0
 20
0
 39
0
 70
1
 66
1
  0
VERTEX
  8
0
 10
360.423095703125
 20
625
 42
-1
  0
VERTEX
  8
0
 10
400.423095703125
 20
625
 42
-1
  0
SEQEND
  0
POLYLINE
  8
0
 10
0
 20
0
 39
0
 70
1
 66
1
  0
VERTEX
  8
0
 10
850
 20
580
 42
0
  0
VERTEX
  8
0
 10
1120
 20
580
 42
-0
  0
VERTEX
  8
0
 10
1120
 20
591.07281494140625
 42
-1
  0
VERTEX
  8
0
 10
1120
 20
623.07281494140625
 42
-0
  0
VERTEX
  8
0
 10
1120
 20
634.14556884765625
 42
0.21420902013778687
  0
VERTEX
  8
0
 10
1087.5843505859375
 20
670
 42
-0
  0
VERTEX
  8
0
 10
850
 20
670
 42
-0
  0
SEQEND
  0
POLYLINE
  8
0
 10
0
 20
0
 39
0
 70
1
 66
1
  0
VERTEX
  8
0
 10
920.423095703125
 20
625
 42
-1
  0
VERTEX
  8
0
 10
960.423095703125
 20
625
 42
-1
  0
SEQEND
  0
POLYLINE
  8
0
 10
0
 20
0
 39
0
 70
1
 66
1
  0
VERTEX
  8
0
 10
880.9229736328125
 20
440
 42
0
  0
VERTEX
  8
0
 10
1150.9229736328125
 20
440
 42
-0
  0
VERTEX
  8
0
 10
1150.9229736328125
 20
451.07278442382812
 42
-1
  0
VERTEX
  8
0
 10
1150.9229736328125
 20
483.07278442382812
 42
-0
  0
VERTEX
  8
0
 10
1150.9229736328125
 20
494.14556884765625
 42
0.21420902013778687
  0
VERTEX
  8
0
 10
1118.50732421875
 20
530
 42
-0
  0
VERTEX
  8
0
 10
880.9229736328125
 20
530
 42
-0
  0
SEQEND
  0
POLYLINE
  8
0
 10
0
 20
0
 39
0
 70
1
 66
1
  0
VERTEX
  8
0
 10
951.34613037109375
 20
485
 42
-1
  0
VERTEX
  8
0
 10
991.34613037109375
 20
485
 42
-1
  0
SEQEND
  0
POLYLINE
  8
0
 10
0
 20
0
 39
0
 70
1
 66
1
  0
VERTEX
  8
0
 10
570
 20
580
 42
0
  0
VERTEX
  8
0
 10
840
 20
580
 42
-0
  0
VERTEX
  8
0
 10
840
 20
591.07281494140625
 42
-1
  0
VERTEX
  8
0
 10
840
 20
623.07281494140625
 42
-0
  0
VERTEX
  8
0
 10
840
 20
634.14556884765625
 42
0.21420902013778687
  0
VERTEX
  8
0
 10
807.5843505859375
 20
670
 42
-0
  0
VERTEX
  8
0
 10
570
 20
670
 42
-0
  0
SEQEND
  0
POLYLINE
  8
0
 10
0
 20
0
 39
0
 70
1
 66
1
  0
VERTEX
  8
0
 10
640.423095703125
 20
625
 42
-1
  0
VERTEX
  8
0
 10
680.423095703125
 20
625
 42
-1
  0
SEQEND
  0
POLYLINE
  8
0
 10
0
 20
0
 39
0
 70
1
 66
1
  0
VERTEX
  8
0
 10
880.9229736328125
 20
430
 42
0
  0
VERTEX
  8
0
 10
880.9229736328125
 20
10
 42
0
  0
VERTEX
  8
0
 10
1055.9229736328125
 20
10
 42
0
  0
VERTEX
  8
0
 10
1135.9229736328125
 20
90
 42
0
  0
VERTEX
  8
0
 10
1135.9229736328125
 20
350
 42
0
  0
VERTEX
  8
0
 10
1055.9229736328125
 20
430
 42
0
  0
SEQEND
  0
POLYLINE
  8
0
 10
0
 20
0
 39
0
 70
1
 66
1
  0
VERTEX
  8
0
 10
10
 20
580
 42
0
  0
VERTEX
  8
0
 10
280
 20
580
 42
-0
  0
VERTEX
  8
0
 10
280
 20
591.07281494140625
 42
-1
  0
VERTEX
  8
0
 10
280
 20
623.07281494140625
 42
-0
  0
VERTEX
  8
0
 10
280
 20
634.14556884765625
 42
0.21420902013778687
  0
VERTEX
  8
0
 10
247.5843505859375
 20
670
 42
-0
  0
VERTEX
  8
0
 10
10
 20
670
 42
-0
  0
SEQEND
  0
POLYLINE
  8
0
 10
0
 20
0
 39
0
 70
1
 66
1
  0
VERTEX
  8
0
 10
80.423110961914063
 20
625
 42
-1
  0
VERTEX
  8
0
 10
120.42311096191406
 20
625
 42
-1
  0
SEQEND
  0
ENDSEC
  0
EOF
