  0
SECTION
  2
ENTITIES
  0
POLYLINE
  8
0
 10
0
 20
0
 39
0
 70
1
 66
1
  0
VERTEX
  8
0
 10
0
 20
0
 42
-0
  0
VERTEX
  8
0
 10
700
 20
0
 42
-0
  0
VERTEX
  8
0
 10
700
 20
600
 42
-0
  0
VERTEX
  8
0
 10
0
 20
600
 42
-0
  0
SEQEND
  0
POLYLINE
  8
0
 10
0
 20
0
 39
0
 70
1
 66
1
  0
VERTEX
  8
0
 10
411.68798828125
 20
162.90998840332031
 42
0
  0
VERTEX
  8
0
 10
411.68798828125
 20
10
 42
0
  0
VERTEX
  8
0
 10
496.18798828125
 20
10
 42
0
  0
VERTEX
  8
0
 10
496.18798828125
 20
315.82998657226562
 42
0
  0
SEQEND
  0
POLYLINE
  8
0
 10
0
 20
0
 39
0
 70
1
 66
1
  0
VERTEX
  8
0
 10
496.18798828125
 20
336.879150390625
 42
0
  0
VERTEX
  8
0
 10
496.18798828125
 20
489.78915405273437
 42
0
  0
VERTEX
  8
0
 10
411.68798828125
 20
489.78915405273437
 42
0
  0
VERTEX
  8
0
 10
411.68798828125
 20
183.95915222167969
 42
0
  0
SEQEND
  0
POLYLINE
  8
0
 10
0
 20
0
 39
0
 70
1
 66
1
  0
VERTEX
  8
0
 10
470
 20
499.78915405273437
 42
0
  0
VERTEX
  8
0
 10
690
 20
499.78915405273437
 42
0
  0
VERTEX
  8
0
 10
690
 20
579.78912353515625
 42
0
  0
VERTEX
  8
0
 10
470
 20
579.78912353515625
 42
0
  0
SEQEND
  0
POLYLINE
  8
0
 10
0
 20
0
 39
0
 70
1
 66
1
  0
VERTEX
  8
0
 10
10
 20
499.78915405273437
 42
0
  0
VERTEX
  8
0
 10
230
 20
499.78915405273437
 42
0
  0
VERTEX
  8
0
 10
230
 20
579.78912353515625
 42
0
  0
VERTEX
  8
0
 10
10
 20
579.78912353515625
 42
0
  0
SEQEND
  0
POLYLINE
  8
0
 10
0
 20
0
 39
0
 70
1
 66
1
  0
VERTEX
  8
0
 10
600.68798828125
 20
230
 42
0
  0
VERTEX
  8
0
 10
600.68798828125
 20
10
 42
0
  0
VERTEX
  8
0
 10
680.68798828125
 20
10
 42
0
  0
VERTEX
  8
0
 10
680.68798828125
 20
230
 42
0
  0
SEQEND
  0
POLYLINE
  8
0
 10
0
 20
0
 39
0
 70
1
 66
1
  0
VERTEX
  8
0
 10
600.68798828125
 20
460
 42
0
  0
VERTEX
  8
0
 10
600.68798828125
 20
240
 42
0
  0
VERTEX
  8
0
 10
680.68798828125
 20
240
 42
0
  0
VERTEX
  8
0
 10
680.68798828125
 20
460
 42
0
  0
SEQEND
  0
POLYLINE
  8
0
 10
0
 20
0
 39
0
 70
1
 66
1
  0
VERTEX
  8
0
 10
125
 20
194.26499938964844
 42
0
  0
VERTEX
  8
0
 10
80
 20
324.2650146484375
 42
0
  0
VERTEX
  8
0
 10
65
 20
324.2650146484375
 42
0
  0
VERTEX
  8
0
 10
65
 20
184.26499938964844
 42
0
  0
VERTEX
  8
0
 10
75
 20
174.26499938964844
 42
0
  0
VERTEX
  8
0
 10
125
 20
174.26499938964844
 42
0
  0
SEQEND
  0
POLYLINE
  8
0
 10
0
 20
0
 39
0
 70
1
 66
1
  0
VERTEX
  8
0
 10
97.688003540039063
 20
304.2650146484375
 42
0
  0
VERTEX
  8
0
 10
142.68800354003906
 20
174.26499938964844
 42
0
  0
VERTEX
  8
0
 10
157.68800354003906
 20
174.26499938964844
 42
0
  0
VERTEX
  8
0
 10
157.68800354003906
 20
314.2650146484375
 42
0
  0
VERTEX
  8
0
 10
147.68800354003906
 20
324.2650146484375
 42
0
  0
VERTEX
  8
0
 10
97.688003540039063
 20
324.2650146484375
 42
0
  0
SEQEND
  0
POLYLINE
  8
0
 10
0
 20
0
 39
0
 70
1
 66
1
  0
VERTEX
  8
0
 10
506.18798828125
 20
162.90998840332031
 42
0
  0
VERTEX
  8
0
 10
506.18798828125
 20
10
 42
0
  0
VERTEX
  8
0
 10
590.68798828125
 20
10
 42
0
  0
VERTEX
  8
0
 10
590.68798828125
 20
315.82998657226562
 42
0
  0
SEQEND
  0
POLYLINE
  8
0
 10
0
 20
0
 39
0
 70
1
 66
1
  0
VERTEX
  8
0
 10
590.68798828125
 20
336.879150390625
 42
0
  0
VERTEX
  8
0
 10
590.68798828125
 20
489.78915405273437
 42
0
  0
VERTEX
  8
0
 10
506.18798828125
 20
489.78915405273437
 42
0
  0
VERTEX
  8
0
 10
506.18798828125
 20
183.95915222167969
 42
0
  0
SEQEND
  0
POLYLINE
  8
0
 10
0
 20
0
 39
0
 70
1
 66
1
  0
VERTEX
  8
0
 10
240
 20
499.78915405273437
 42
0
  0
VERTEX
  8
0
 10
460
 20
499.78915405273437
 42
0
  0
VERTEX
  8
0
 10
460
 20
579.78912353515625
 42
0
  0
VERTEX
  8
0
 10
240
 20
579.78912353515625
 42
0
  0
SEQEND
  0
POLYLINE
  8
0
 10
0
 20
0
 39
0
 70
1
 66
1
  0
VERTEX
  8
0
 10
167.68800354003906
 20
310
 42
0
  0
VERTEX
  8
0
 10
167.68800354003906
 20
10
 42
-0
  0
VERTEX
  8
0
 10
190.99331665039062
 20
10
 42
-0
  0
VERTEX
  8
0
 10
212.68800354003906
 20
37.564361572265625
 42
-0
  0
VERTEX
  8
0
 10
212.68800354003906
 20
310
 42
-0
  0
SEQEND
  0
POLYLINE
  8
0
 10
0
 20
0
 39
0
 70
1
 66
1
  0
VERTEX
  8
0
 10
10
 20
474.2650146484375
 42
0
  0
VERTEX
  8
0
 10
10
 20
174.26499938964844
 42
-0
  0
VERTEX
  8
0
 10
33.305316925048828
 20
174.26499938964844
 42
-0
  0
VERTEX
  8
0
 10
55
 20
201.82936096191406
 42
-0
  0
VERTEX
  8
0
 10
55
 20
474.2650146484375
 42
-0
  0
SEQEND
  0
POLYLINE
  8
0
 10
0
 20
0
 39
0
 70
1
 66
1
  0
VERTEX
  8
0
 10
222.68800354003906
 20
162.90998840332031
 42
0
  0
VERTEX
  8
0
 10
222.68800354003906
 20
10
 42
0
  0
VERTEX
  8
0
 10
307.18798828125
 20
10
 42
0
  0
VERTEX
  8
0
 10
307.18798828125
 20
315.82998657226562
 42
0
  0
SEQEND
  0
POLYLINE
  8
0
 10
0
 20
0
 39
0
 70
1
 66
1
  0
VERTEX
  8
0
 10
307.18798828125
 20
336.879150390625
 42
0
  0
VERTEX
  8
0
 10
307.18798828125
 20
489.78915405273437
 42
0
  0
VERTEX
  8
0
 10
222.68800354003906
 20
489.78915405273437
 42
0
  0
VERTEX
  8
0
 10
222.68800354003906
 20
183.95915222167969
 42
0
  0
SEQEND
  0
POLYLINE
  8
0
 10
0
 20
0
 39
0
 70
1
 66
1
  0
VERTEX
  8
0
 10
205
 20
488.52999877929687
 42
0
  0
VERTEX
  8
0
 10
65
 20
488.52999877929687
 42
0
  0
VERTEX
  8
0
 10
65
 20
348.52999877929687
 42
0
  0
SEQEND
  0
POLYLINE
  8
0
 10
0
 20
0
 39
0
 70
1
 66
1
  0
VERTEX
  8
0
 10
65
 20
334.2650146484375
 42
0
  0
VERTEX
  8
0
 10
205
 20
334.2650146484375
 42
0
  0
VERTEX
  8
0
 10
205
 20
474.2650146484375
 42
0
  0
SEQEND
  0
POLYLINE
  8
0
 10
0
 20
0
 39
0
 70
1
 66
1
  0
VERTEX
  8
0
 10
150
 20
164.26499938964844
 42
0
  0
VERTEX
  8
0
 10
10
 20
164.26499938964844
 42
0
  0
VERTEX
  8
0
 10
10
 20
24.264999389648438
 42
0
  0
SEQEND
  0
POLYLINE
  8
0
 10
0
 20
0
 39
0
 70
1
 66
1
  0
VERTEX
  8
0
 10
10
 20
10
 42
0
  0
VERTEX
  8
0
 10
150
 20
10
 42
0
  0
VERTEX
  8
0
 10
150
 20
150
 42
0
  0
SEQEND
  0
POLYLINE
  8
0
 10
0
 20
0
 39
0
 70
1
 66
1
  0
VERTEX
  8
0
 10
317.18798828125
 20
162.90998840332031
 42
0
  0
VERTEX
  8
0
 10
317.18798828125
 20
10
 42
0
  0
VERTEX
  8
0
 10
401.68798828125
 20
10
 42
0
  0
VERTEX
  8
0
 10
401.68798828125
 20
315.82998657226562
 42
0
  0
SEQEND
  0
POLYLINE
  8
0
 10
0
 20
0
 39
0
 70
1
 66
1
  0
VERTEX
  8
0
 10
401.68798828125
 20
336.879150390625
 42
0
  0
VERTEX
  8
0
 10
401.68798828125
 20
489.78915405273437
 42
0
  0
VERTEX
  8
0
 10
317.18798828125
 20
489.78915405273437
 42
0
  0
VERTEX
  8
0
 10
317.18798828125
 20
183.95915222167969
 42
0
  0
SEQEND
  0
ENDSEC
  0
EOF
