  0
SECTION
  2
ENTITIES
  0
POLYLINE
  8
0
 10
0
 20
0
 39
0
 70
1
 66
1
  0
VERTEX
  8
0
 10
0
 20
0
 42
-0
  0
VERTEX
  8
0
 10
800
 20
0
 42
-0
  0
VERTEX
  8
0
 10
800
 20
600
 42
-0
  0
VERTEX
  8
0
 10
0
 20
600
 42
-0
  0
SEQEND
  0
POLYLINE
  8
0
 10
0
 20
0
 39
0
 70
1
 66
1
  0
VERTEX
  8
0
 10
104.58548397387678
 20
399.99908903203874
 42
1
  0
VERTEX
  8
0
 10
105.41451270788276
 20
210.00090101323991
 42
1
  0
SEQEND
  0
POLYLINE
  8
0
 10
0
 20
0
 39
0
 70
1
 66
1
  0
VERTEX
  8
0
 10
104.73819979329893
 20
364.99942281804948
 42
-1
  0
VERTEX
  8
0
 10
105.26179688846061
 20
245.00056722722917
 42
-1
  0
SEQEND
  0
POLYLINE
  8
0
 10
0
 20
0
 39
0
 70
1
 66
1
  0
VERTEX
  8
0
 10
340
 20
538.21955970873387
 42
0
  0
VERTEX
  8
0
 10
226.08305358886719
 20
589.99999336351902
 42
0
  0
VERTEX
  8
0
 10
123.91695404052734
 20
589.99999336351902
 42
0
  0
VERTEX
  8
0
 10
10
 20
538.21955970873387
 42
0
  0
VERTEX
  8
0
 10
10
 20
507.99999336351902
 42
0
  0
VERTEX
  8
0
 10
55
 20
507.99999336351902
 42
-1
  0
VERTEX
  8
0
 10
55
 20
491.99999336351902
 42
0
  0
VERTEX
  8
0
 10
10
 20
491.99999336351902
 42
0
  0
VERTEX
  8
0
 10
10
 20
461.78042701830418
 42
0
  0
VERTEX
  8
0
 10
123.91695404052734
 20
409.99999336351902
 42
0
  0
VERTEX
  8
0
 10
226.08305358886719
 20
409.99999336351902
 42
0
  0
VERTEX
  8
0
 10
340
 20
461.78042701830418
 42
0
  0
VERTEX
  8
0
 10
340
 20
491.99999336351902
 42
0
  0
VERTEX
  8
0
 10
295
 20
491.99999336351902
 42
-1
  0
VERTEX
  8
0
 10
295
 20
507.99999336351902
 42
0
  0
VERTEX
  8
0
 10
340
 20
507.99999336351902
 42
0
  0
SEQEND
  0
POLYLINE
  8
0
 10
0
 20
0
 39
0
 70
1
 66
1
  0
VERTEX
  8
0
 10
130
 20
499.99999336351902
 42
-1
  0
VERTEX
  8
0
 10
220
 20
499.99999336351902
 42
-1
  0
SEQEND
  0
POLYLINE
  8
0
 10
0
 20
0
 39
0
 70
1
 66
1
  0
VERTEX
  8
0
 10
209.99999668175951
 20
305
 42
0
  0
VERTEX
  8
0
 10
209.99999668175954
 20
75
 42
1
  0
VERTEX
  8
0
 10
339.99999668175951
 20
75
 42
0
  0
VERTEX
  8
0
 10
339.99999668175951
 20
305
 42
1
  0
SEQEND
  0
POLYLINE
  8
0
 10
0
 20
0
 39
0
 70
1
 66
1
  0
VERTEX
  8
0
 10
274.99999668175951
 20
332.5
 42
-1
  0
VERTEX
  8
0
 10
274.99999668175951
 20
277.5
 42
-1
  0
SEQEND
  0
POLYLINE
  8
0
 10
0
 20
0
 39
0
 70
1
 66
1
  0
VERTEX
  8
0
 10
274.99999668175951
 20
102.5
 42
-1
  0
VERTEX
  8
0
 10
274.99999668175951
 20
47.5
 42
-1
  0
SEQEND
  0
POLYLINE
  8
0
 10
0
 20
0
 39
0
 70
1
 66
1
  0
VERTEX
  8
0
 10
350
 20
540
 42
-0
  0
VERTEX
  8
0
 10
550
 20
540
 42
-0
  0
VERTEX
  8
0
 10
550
 20
590
 42
-0
  0
VERTEX
  8
0
 10
350
 20
590
 42
-0
  0
SEQEND
  0
POLYLINE
  8
0
 10
0
 20
0
 39
0
 70
1
 66
1
  0
VERTEX
  8
0
 10
353.88201594352722
 20
550.30927848815918
 42
-1
  0
VERTEX
  8
0
 10
367.88201522827148
 20
550.30927848815918
 42
-1
  0
SEQEND
  0
POLYLINE
  8
0
 10
0
 20
0
 39
0
 70
1
 66
1
  0
VERTEX
  8
0
 10
350
 20
430
 42
-0
  0
VERTEX
  8
0
 10
350
 20
230
 42
-0
  0
VERTEX
  8
0
 10
400
 20
230
 42
-0
  0
VERTEX
  8
0
 10
400
 20
430
 42
-0
  0
SEQEND
  0
POLYLINE
  8
0
 10
0
 20
0
 39
0
 70
1
 66
1
  0
VERTEX
  8
0
 10
360.30927848815918
 20
426.11798405647278
 42
-1
  0
VERTEX
  8
0
 10
360.30927848815918
 20
412.11798477172852
 42
-1
  0
SEQEND
  0
POLYLINE
  8
0
 10
0
 20
0
 39
0
 70
1
 66
1
  0
VERTEX
  8
0
 10
560
 20
540
 42
-0
  0
VERTEX
  8
0
 10
760
 20
540
 42
-0
  0
VERTEX
  8
0
 10
760
 20
590
 42
-0
  0
VERTEX
  8
0
 10
560
 20
590
 42
-0
  0
SEQEND
  0
POLYLINE
  8
0
 10
0
 20
0
 39
0
 70
1
 66
1
  0
VERTEX
  8
0
 10
563.88201594352722
 20
550.30927848815918
 42
-1
  0
VERTEX
  8
0
 10
577.88201522827148
 20
550.30927848815918
 42
-1
  0
SEQEND
  0
POLYLINE
  8
0
 10
0
 20
0
 39
0
 70
1
 66
1
  0
VERTEX
  8
0
 10
349.99999668175951
 20
220
 42
-0
  0
VERTEX
  8
0
 10
349.99999668175951
 20
10
 42
-0
  0
VERTEX
  8
0
 10
399.99999668175951
 20
10
 42
-0
  0
VERTEX
  8
0
 10
399.99999668175951
 20
220
 42
-0
  0
SEQEND
  0
POLYLINE
  8
0
 10
0
 20
0
 39
0
 70
1
 66
1
  0
VERTEX
  8
0
 10
375.20045520837084
 20
213.10881996154785
 42
-1
  0
VERTEX
  8
0
 10
375.20045520837084
 20
197.10881996154785
 42
-1
  0
SEQEND
  0
POLYLINE
  8
0
 10
0
 20
0
 39
0
 70
1
 66
1
  0
VERTEX
  8
0
 10
538.21956634521484
 20
10
 42
0
  0
VERTEX
  8
0
 10
590
 20
123.91694641113281
 42
0
  0
VERTEX
  8
0
 10
590
 20
226.08304595947266
 42
0
  0
VERTEX
  8
0
 10
538.21956634521484
 20
340
 42
0
  0
VERTEX
  8
0
 10
508
 20
340
 42
0
  0
VERTEX
  8
0
 10
508
 20
295
 42
-1
  0
VERTEX
  8
0
 10
492
 20
295
 42
0
  0
VERTEX
  8
0
 10
492
 20
340
 42
0
  0
VERTEX
  8
0
 10
461.78043365478516
 20
340
 42
0
  0
VERTEX
  8
0
 10
410
 20
226.08304595947266
 42
0
  0
VERTEX
  8
0
 10
410
 20
123.91694641113281
 42
0
  0
VERTEX
  8
0
 10
461.78043365478516
 20
10
 42
0
  0
VERTEX
  8
0
 10
492
 20
10
 42
0
  0
VERTEX
  8
0
 10
492
 20
55
 42
-1
  0
VERTEX
  8
0
 10
508
 20
55
 42
0
  0
VERTEX
  8
0
 10
508
 20
10
 42
0
  0
SEQEND
  0
POLYLINE
  8
0
 10
0
 20
0
 39
0
 70
1
 66
1
  0
VERTEX
  8
0
 10
500
 20
220
 42
-1
  0
VERTEX
  8
0
 10
500
 20
130
 42
-1
  0
SEQEND
  0
POLYLINE
  8
0
 10
0
 20
0
 39
0
 70
1
 66
1
  0
VERTEX
  8
0
 10
728.21956634521484
 20
10
 42
0
  0
VERTEX
  8
0
 10
780
 20
123.91694641113281
 42
0
  0
VERTEX
  8
0
 10
780
 20
226.08304595947266
 42
0
  0
VERTEX
  8
0
 10
728.21956634521484
 20
340
 42
0
  0
VERTEX
  8
0
 10
698
 20
340
 42
0
  0
VERTEX
  8
0
 10
698
 20
295
 42
-1
  0
VERTEX
  8
0
 10
682
 20
295
 42
0
  0
VERTEX
  8
0
 10
682
 20
340
 42
0
  0
VERTEX
  8
0
 10
651.78043365478516
 20
340
 42
0
  0
VERTEX
  8
0
 10
600
 20
226.08304595947266
 42
0
  0
VERTEX
  8
0
 10
600
 20
123.91694641113281
 42
0
  0
VERTEX
  8
0
 10
651.78043365478516
 20
10
 42
0
  0
VERTEX
  8
0
 10
682
 20
10
 42
0
  0
VERTEX
  8
0
 10
682
 20
55
 42
-1
  0
VERTEX
  8
0
 10
698
 20
55
 42
0
  0
VERTEX
  8
0
 10
698
 20
10
 42
0
  0
SEQEND
  0
POLYLINE
  8
0
 10
0
 20
0
 39
0
 70
1
 66
1
  0
VERTEX
  8
0
 10
690
 20
220
 42
-1
  0
VERTEX
  8
0
 10
690
 20
130
 42
-1
  0
SEQEND
  0
POLYLINE
  8
0
 10
0
 20
0
 39
0
 70
1
 66
1
  0
VERTEX
  8
0
 10
740
 20
478.21956634521484
 42
0
  0
VERTEX
  8
0
 10
626.08305358886719
 20
530
 42
0
  0
VERTEX
  8
0
 10
523.91695404052734
 20
530
 42
0
  0
VERTEX
  8
0
 10
410
 20
478.21956634521484
 42
0
  0
VERTEX
  8
0
 10
410
 20
448
 42
0
  0
VERTEX
  8
0
 10
455
 20
448
 42
-1
  0
VERTEX
  8
0
 10
455
 20
432
 42
0
  0
VERTEX
  8
0
 10
410
 20
432
 42
0
  0
VERTEX
  8
0
 10
410
 20
401.78043365478516
 42
0
  0
VERTEX
  8
0
 10
523.91695404052734
 20
350
 42
0
  0
VERTEX
  8
0
 10
626.08305358886719
 20
350
 42
0
  0
VERTEX
  8
0
 10
740
 20
401.78043365478516
 42
0
  0
VERTEX
  8
0
 10
740
 20
432
 42
0
  0
VERTEX
  8
0
 10
695
 20
432
 42
-1
  0
VERTEX
  8
0
 10
695
 20
448
 42
0
  0
VERTEX
  8
0
 10
740
 20
448
 42
0
  0
SEQEND
  0
POLYLINE
  8
0
 10
0
 20
0
 39
0
 70
1
 66
1
  0
VERTEX
  8
0
 10
530
 20
440
 42
-1
  0
VERTEX
  8
0
 10
620
 20
440
 42
-1
  0
SEQEND
  0
POLYLINE
  8
0
 10
0
 20
0
 39
0
 70
1
 66
1
  0
VERTEX
  8
0
 10
104.58548397387678
 20
199.99909235027917
 42
1
  0
VERTEX
  8
0
 10
105.41451270788276
 20
10.000904331480356
 42
1
  0
SEQEND
  0
POLYLINE
  8
0
 10
0
 20
0
 39
0
 70
1
 66
1
  0
VERTEX
  8
0
 10
104.73819979329893
 20
164.99942613628991
 42
-1
  0
VERTEX
  8
0
 10
105.26179688846061
 20
45.000570545469614
 42
-1
  0
SEQEND
  0
ENDSEC
  0
EOF
