  0
SECTION
  2
ENTITIES
  0
POLYLINE
  8
0
 10
0
 20
0
 39
0
 70
1
 66
1
  0
VERTEX
  8
0
 10
0
 20
0
 42
-0
  0
VERTEX
  8
0
 10
700
 20
0
 42
-0
  0
VERTEX
  8
0
 10
700
 20
500
 42
-0
  0
VERTEX
  8
0
 10
0
 20
500
 42
-0
  0
SEQEND
  0
POLYLINE
  8
0
 10
0
 20
0
 39
0
 70
1
 66
1
  0
VERTEX
  8
0
 10
10
 20
279
 42
0
  0
VERTEX
  8
0
 10
269
 20
279
 42
0
  0
VERTEX
  8
0
 10
269
 20
481
 42
0
  0
VERTEX
  8
0
 10
10
 20
481
 42
0
  0
SEQEND
  0
POLYLINE
  8
0
 10
0
 20
0
 39
0
 70
1
 66
1
  0
VERTEX
  8
0
 10
60.575778961181641
 20
300.90691184997559
 42
-0.11044000089168549
  0
VERTEX
  8
0
 10
34.405183792114258
 20
342.05491638183594
 42
-0
  0
VERTEX
  8
0
 10
244.59481811523437
 20
342.05491638183594
 42
-0.11044000089168549
  0
VERTEX
  8
0
 10
218.42422485351562
 20
300.90691184997559
 42
-0
  0
SEQEND
  0
POLYLINE
  8
0
 10
0
 20
0
 39
0
 70
1
 66
1
  0
VERTEX
  8
0
 10
60.575778961181641
 20
459.09309387207031
 42
0
  0
VERTEX
  8
0
 10
218.42422485351562
 20
459.09309387207031
 42
-0.11044000089168549
  0
VERTEX
  8
0
 10
244.59481811523437
 20
417.94508361816406
 42
0
  0
VERTEX
  8
0
 10
34.405183792114258
 20
417.94508361816406
 42
-0.11044000089168549
  0
SEQEND
  0
POLYLINE
  8
0
 10
0
 20
0
 39
0
 70
1
 66
1
  0
VERTEX
  8
0
 10
279
 20
279
 42
0
  0
VERTEX
  8
0
 10
538
 20
279
 42
0
  0
VERTEX
  8
0
 10
538
 20
481
 42
0
  0
VERTEX
  8
0
 10
279
 20
481
 42
0
  0
SEQEND
  0
POLYLINE
  8
0
 10
0
 20
0
 39
0
 70
1
 66
1
  0
VERTEX
  8
0
 10
329.57577896118164
 20
300.90691184997559
 42
-0.11044000089168549
  0
VERTEX
  8
0
 10
303.40518379211426
 20
342.05491638183594
 42
-0
  0
VERTEX
  8
0
 10
513.59481811523437
 20
342.05491638183594
 42
-0.11044000089168549
  0
VERTEX
  8
0
 10
487.42422485351562
 20
300.90691184997559
 42
-0
  0
SEQEND
  0
POLYLINE
  8
0
 10
0
 20
0
 39
0
 70
1
 66
1
  0
VERTEX
  8
0
 10
329.57577896118164
 20
459.09309387207031
 42
0
  0
VERTEX
  8
0
 10
487.42422485351562
 20
459.09309387207031
 42
-0.11044000089168549
  0
VERTEX
  8
0
 10
513.59481811523437
 20
417.94508361816406
 42
0
  0
VERTEX
  8
0
 10
303.40518379211426
 20
417.94508361816406
 42
-0.11044000089168549
  0
SEQEND
  0
POLYLINE
  8
0
 10
0
 20
0
 39
0
 70
1
 66
1
  0
VERTEX
  8
0
 10
222
 20
269
 42
0
  0
VERTEX
  8
0
 10
222.00000000000003
 20
10
 42
0
  0
VERTEX
  8
0
 10
424
 20
10
 42
0
  0
VERTEX
  8
0
 10
424
 20
269
 42
0
  0
SEQEND
  0
POLYLINE
  8
0
 10
0
 20
0
 39
0
 70
1
 66
1
  0
VERTEX
  8
0
 10
243.90691184997559
 20
218.42422103881836
 42
-0.11044000089168549
  0
VERTEX
  8
0
 10
285.05491638183594
 20
244.59481620788574
 42
-0
  0
VERTEX
  8
0
 10
285.05491638183594
 20
34.405181884765625
 42
-0.11044000089168549
  0
VERTEX
  8
0
 10
243.90691184997559
 20
60.575775146484375
 42
-0
  0
SEQEND
  0
POLYLINE
  8
0
 10
0
 20
0
 39
0
 70
1
 66
1
  0
VERTEX
  8
0
 10
402.09309387207031
 20
218.42422103881836
 42
0
  0
VERTEX
  8
0
 10
402.09309387207031
 20
60.575775146484375
 42
-0.11044000089168549
  0
VERTEX
  8
0
 10
360.94508361816406
 20
34.405181884765625
 42
0
  0
VERTEX
  8
0
 10
360.94508361816406
 20
244.59481620788574
 42
-0.11044000089168549
  0
SEQEND
  0
POLYLINE
  8
0
 10
0
 20
0
 39
0
 70
1
 66
1
  0
VERTEX
  8
0
 10
566
 20
235
 42
-0
  0
VERTEX
  8
0
 10
566
 20
10
 42
-0
  0
VERTEX
  8
0
 10
688
 20
10
 42
-0
  0
VERTEX
  8
0
 10
688
 20
235
 42
-0
  0
SEQEND
  0
POLYLINE
  8
0
 10
0
 20
0
 39
0
 70
1
 66
1
  0
VERTEX
  8
0
 10
627
 20
177
 42
-1
  0
VERTEX
  8
0
 10
627
 20
133
 42
-1
  0
SEQEND
  0
POLYLINE
  8
0
 10
0
 20
0
 39
0
 70
1
 66
1
  0
VERTEX
  8
0
 10
434
 20
235
 42
-0
  0
VERTEX
  8
0
 10
434
 20
10
 42
-0
  0
VERTEX
  8
0
 10
556
 20
10
 42
-0
  0
VERTEX
  8
0
 10
556
 20
235
 42
-0
  0
SEQEND
  0
POLYLINE
  8
0
 10
0
 20
0
 39
0
 70
1
 66
1
  0
VERTEX
  8
0
 10
495
 20
177
 42
-1
  0
VERTEX
  8
0
 10
495
 20
133
 42
-1
  0
SEQEND
  0
POLYLINE
  8
0
 10
0
 20
0
 39
0
 70
1
 66
1
  0
VERTEX
  8
0
 10
10
 20
269
 42
0
  0
VERTEX
  8
0
 10
10.000000000000016
 20
10
 42
0
  0
VERTEX
  8
0
 10
212.00000000000003
 20
10
 42
0
  0
VERTEX
  8
0
 10
212
 20
269
 42
0
  0
SEQEND
  0
POLYLINE
  8
0
 10
0
 20
0
 39
0
 70
1
 66
1
  0
VERTEX
  8
0
 10
31.906911849975589
 20
218.42422103881836
 42
-0.11044000089168549
  0
VERTEX
  8
0
 10
73.054916381835938
 20
244.59481620788574
 42
-0
  0
VERTEX
  8
0
 10
73.054916381835952
 20
34.405181884765625
 42
-0.11044000089168549
  0
VERTEX
  8
0
 10
31.9069118499756
 20
60.575775146484375
 42
-0
  0
SEQEND
  0
POLYLINE
  8
0
 10
0
 20
0
 39
0
 70
1
 66
1
  0
VERTEX
  8
0
 10
190.09309387207031
 20
218.42422103881836
 42
0
  0
VERTEX
  8
0
 10
190.09309387207031
 20
60.575775146484375
 42
-0.11044000089168549
  0
VERTEX
  8
0
 10
148.94508361816409
 20
34.405181884765625
 42
0
  0
VERTEX
  8
0
 10
148.94508361816406
 20
244.59481620788574
 42
-0.11044000089168549
  0
SEQEND
  0
POLYLINE
  8
0
 10
0
 20
0
 39
0
 70
1
 66
1
  0
VERTEX
  8
0
 10
548
 20
470
 42
-0
  0
VERTEX
  8
0
 10
548
 20
245
 42
-0
  0
VERTEX
  8
0
 10
670
 20
245
 42
-0
  0
VERTEX
  8
0
 10
670
 20
470
 42
-0
  0
SEQEND
  0
POLYLINE
  8
0
 10
0
 20
0
 39
0
 70
1
 66
1
  0
VERTEX
  8
0
 10
609
 20
412
 42
-1
  0
VERTEX
  8
0
 10
609
 20
368
 42
-1
  0
SEQEND
  0
ENDSEC
  0
EOF
