  0
SECTION
  2
ENTITIES
  0
POLYLINE
  8
0
 10
0
 20
0
 39
0
 70
1
 66
1
  0
VERTEX
  8
0
 10
0
 20
0
 42
-0
  0
VERTEX
  8
0
 10
1200
 20
0
 42
-0
  0
VERTEX
  8
0
 10
1200
 20
700
 42
-0
  0
VERTEX
  8
0
 10
0
 20
700
 42
-0
  0
SEQEND
  0
POLYLINE
  8
0
 10
0
 20
0
 39
0
 70
1
 66
1
  0
VERTEX
  8
0
 10
56.531440734863281
 20
338.90481567382812
 42
-0
  0
VERTEX
  8
0
 10
10.159999847412109
 20
396.786865234375
 42
-0
  0
VERTEX
  8
0
 10
10.159999847412109
 20
10.159999847412109
 42
-0
  0
VERTEX
  8
0
 10
151.03144836425781
 20
10.159999847412109
 42
-0
  0
VERTEX
  8
0
 10
151.03144836425781
 20
117.27685546875
 42
-0
  0
VERTEX
  8
0
 10
225.16836547851562
 20
117.27685546875
 42
-0
  0
VERTEX
  8
0
 10
225.16836547851562
 20
286.94522094726562
 42
-0
  0
VERTEX
  8
0
 10
260.11978149414062
 20
338.90481567382812
 42
-0
  0
VERTEX
  8
0
 10
245.53144836425781
 20
338.90481567382812
 42
-0
  0
SEQEND
  0
POLYLINE
  8
0
 10
0
 20
0
 39
0
 70
1
 66
1
  0
VERTEX
  8
0
 10
255.74833679199219
 20
360.9620361328125
 42
-0
  0
VERTEX
  8
0
 10
302.11978149414062
 20
303.07998657226562
 42
-0
  0
VERTEX
  8
0
 10
302.11978149414062
 20
689.70684814453125
 42
-0
  0
VERTEX
  8
0
 10
161.24833679199219
 20
689.70684814453125
 42
-0
  0
VERTEX
  8
0
 10
161.24833679199219
 20
582.59002685546875
 42
-0
  0
VERTEX
  8
0
 10
87.111419677734375
 20
582.59002685546875
 42
-0
  0
VERTEX
  8
0
 10
87.111419677734375
 20
412.921630859375
 42
-0
  0
VERTEX
  8
0
 10
52.159999847412109
 20
360.9620361328125
 42
-0
  0
VERTEX
  8
0
 10
66.748336791992187
 20
360.9620361328125
 42
-0
  0
SEQEND
  0
POLYLINE
  8
0
 10
0
 20
0
 39
0
 70
1
 66
1
  0
VERTEX
  8
0
 10
288.94961547851562
 20
236.91468811035156
 42
-0
  0
VERTEX
  8
0
 10
322.5191650390625
 20
203.34516906738281
 42
-0
  0
VERTEX
  8
0
 10
287.163818359375
 20
167.98982238769531
 42
0
  0
VERTEX
  8
0
 10
253.59428405761719
 20
201.55935668945312
 42
0.095963545143604279
  0
VERTEX
  8
0
 10
235.40000915527344
 20
157.63449096679687
 42
-0
  0
VERTEX
  8
0
 10
282.87448120117187
 20
157.63449096679687
 42
-0
  0
VERTEX
  8
0
 10
282.87448120117187
 20
107.63449096679687
 42
0
  0
VERTEX
  8
0
 10
235.39999389648437
 20
107.63449096679687
 42
0.095963537693023682
  0
VERTEX
  8
0
 10
253.59428405761719
 20
63.709617614746094
 42
-0
  0
VERTEX
  8
0
 10
287.163818359375
 20
97.279151916503906
 42
-0
  0
VERTEX
  8
0
 10
322.5191650390625
 20
61.923812866210937
 42
0
  0
VERTEX
  8
0
 10
288.94961547851562
 20
28.354280471801758
 42
0.095963560044765472
  0
VERTEX
  8
0
 10
332.87448120117187
 20
10.160005569458008
 42
-0
  0
VERTEX
  8
0
 10
332.87448120117187
 20
57.634490966796875
 42
-0
  0
VERTEX
  8
0
 10
382.87448120117187
 20
57.634490966796875
 42
0
  0
VERTEX
  8
0
 10
382.87448120117187
 20
10.159999847412109
 42
0.095963560044765472
  0
VERTEX
  8
0
 10
426.79937744140625
 20
28.354284286499023
 42
-0
  0
VERTEX
  8
0
 10
393.22982788085937
 20
61.923812866210937
 42
-0
  0
VERTEX
  8
0
 10
428.58517456054687
 20
97.279151916503906
 42
0
  0
VERTEX
  8
0
 10
462.15469360351562
 20
63.709617614746094
 42
0.095963560044765472
  0
VERTEX
  8
0
 10
480.34896850585937
 20
107.63449096679687
 42
-0
  0
VERTEX
  8
0
 10
432.87448120117187
 20
107.63449096679687
 42
-0
  0
VERTEX
  8
0
 10
432.87448120117187
 20
157.63449096679687
 42
0
  0
VERTEX
  8
0
 10
480.34896850585937
 20
157.63449096679687
 42
0.095963560044765472
  0
VERTEX
  8
0
 10
462.15469360351562
 20
201.55935668945312
 42
-0
  0
VERTEX
  8
0
 10
428.58517456054687
 20
167.98982238769531
 42
-0
  0
VERTEX
  8
0
 10
393.22982788085937
 20
203.34516906738281
 42
0
  0
VERTEX
  8
0
 10
426.79934692382812
 20
236.91470336914062
 42
0.095963560044765472
  0
VERTEX
  8
0
 10
382.87448120117187
 20
255.10897827148437
 42
-0
  0
VERTEX
  8
0
 10
382.87448120117187
 20
207.63449096679687
 42
-0
  0
VERTEX
  8
0
 10
332.87448120117187
 20
207.63449096679687
 42
0
  0
VERTEX
  8
0
 10
332.87448120117187
 20
255.10897827148437
 42
0.095963560044765472
  0
SEQEND
  0
POLYLINE
  8
0
 10
0
 20
0
 39
0
 70
1
 66
1
  0
VERTEX
  8
0
 10
365.86962890625
 20
485.6746826171875
 42
-0
  0
VERTEX
  8
0
 10
399.43914794921875
 20
452.10516357421875
 42
-0
  0
VERTEX
  8
0
 10
364.08380126953125
 20
416.74981689453125
 42
0
  0
VERTEX
  8
0
 10
330.5142822265625
 20
450.31936645507812
 42
0.095963545143604279
  0
VERTEX
  8
0
 10
312.32000732421875
 20
406.39450073242187
 42
-0
  0
VERTEX
  8
0
 10
359.79449462890625
 20
406.39450073242187
 42
-0
  0
VERTEX
  8
0
 10
359.79449462890625
 20
356.39450073242187
 42
0
  0
VERTEX
  8
0
 10
312.32000732421875
 20
356.39450073242187
 42
0.095963537693023682
  0
VERTEX
  8
0
 10
330.5142822265625
 20
312.4696044921875
 42
-0
  0
VERTEX
  8
0
 10
364.08380126953125
 20
346.03915405273437
 42
-0
  0
VERTEX
  8
0
 10
399.43914794921875
 20
310.68380737304687
 42
0
  0
VERTEX
  8
0
 10
365.86962890625
 20
277.11428833007812
 42
0.095963560044765472
  0
VERTEX
  8
0
 10
409.79449462890625
 20
258.92001342773437
 42
-0
  0
VERTEX
  8
0
 10
409.79449462890625
 20
306.39450073242187
 42
-0
  0
VERTEX
  8
0
 10
459.79449462890625
 20
306.39450073242187
 42
0
  0
VERTEX
  8
0
 10
459.79449462890625
 20
258.92001342773437
 42
0.095963560044765472
  0
VERTEX
  8
0
 10
503.7193603515625
 20
277.11428833007812
 42
-0
  0
VERTEX
  8
0
 10
470.14984130859375
 20
310.68380737304687
 42
-0
  0
VERTEX
  8
0
 10
505.50515747070312
 20
346.03915405273437
 42
0
  0
VERTEX
  8
0
 10
539.07470703125
 20
312.4696044921875
 42
0.095963560044765472
  0
VERTEX
  8
0
 10
557.26898193359375
 20
356.39450073242187
 42
-0
  0
VERTEX
  8
0
 10
509.79449462890625
 20
356.39450073242187
 42
-0
  0
VERTEX
  8
0
 10
509.79449462890625
 20
406.39450073242187
 42
0
  0
VERTEX
  8
0
 10
557.26898193359375
 20
406.39450073242187
 42
0.095963560044765472
  0
VERTEX
  8
0
 10
539.07470703125
 20
450.31936645507812
 42
-0
  0
VERTEX
  8
0
 10
505.50515747070312
 20
416.74981689453125
 42
-0
  0
VERTEX
  8
0
 10
470.14984130859375
 20
452.10516357421875
 42
0
  0
VERTEX
  8
0
 10
503.7193603515625
 20
485.6746826171875
 42
0.095963560044765472
  0
VERTEX
  8
0
 10
459.79449462890625
 20
503.86895751953125
 42
-0
  0
VERTEX
  8
0
 10
459.79449462890625
 20
456.39450073242187
 42
-0
  0
VERTEX
  8
0
 10
409.79449462890625
 20
456.39450073242187
 42
0
  0
VERTEX
  8
0
 10
409.79449462890625
 20
503.86898803710938
 42
0.095963560044765472
  0
SEQEND
  0
POLYLINE
  8
0
 10
0
 20
0
 39
0
 70
1
 66
1
  0
VERTEX
  8
0
 10
530.38958740234375
 20
276.51467895507812
 42
-0
  0
VERTEX
  8
0
 10
563.95916748046875
 20
242.94515991210937
 42
-0
  0
VERTEX
  8
0
 10
528.60382080078125
 20
207.58982849121094
 42
0
  0
VERTEX
  8
0
 10
495.03427124023437
 20
241.15936279296875
 42
0.095963545143604279
  0
VERTEX
  8
0
 10
476.83999633789062
 20
197.2344970703125
 42
-0
  0
VERTEX
  8
0
 10
524.31451416015625
 20
197.23448181152344
 42
-0
  0
VERTEX
  8
0
 10
524.31451416015625
 20
147.23448181152344
 42
0
  0
VERTEX
  8
0
 10
476.83999633789062
 20
147.23448181152344
 42
0.095963537693023682
  0
VERTEX
  8
0
 10
495.03427124023437
 20
103.30961608886719
 42
-0
  0
VERTEX
  8
0
 10
528.60382080078125
 20
136.879150390625
 42
-0
  0
VERTEX
  8
0
 10
563.95916748046875
 20
101.52381134033203
 42
0
  0
VERTEX
  8
0
 10
530.3896484375
 20
67.954277038574219
 42
0.095963560044765472
  0
VERTEX
  8
0
 10
574.31451416015625
 20
49.760005950927734
 42
-0
  0
VERTEX
  8
0
 10
574.31451416015625
 20
97.234489440917969
 42
-0
  0
VERTEX
  8
0
 10
624.31451416015625
 20
97.234489440917969
 42
0
  0
VERTEX
  8
0
 10
624.31451416015625
 20
49.759998321533203
 42
0.095963560044765472
  0
VERTEX
  8
0
 10
668.2393798828125
 20
67.95428466796875
 42
-0
  0
VERTEX
  8
0
 10
634.6697998046875
 20
101.52381134033203
 42
-0
  0
VERTEX
  8
0
 10
670.025146484375
 20
136.879150390625
 42
0
  0
VERTEX
  8
0
 10
703.5947265625
 20
103.30961608886719
 42
0.095963560044765472
  0
VERTEX
  8
0
 10
721.78900146484375
 20
147.2344970703125
 42
-0
  0
VERTEX
  8
0
 10
674.31451416015625
 20
147.23448181152344
 42
-0
  0
VERTEX
  8
0
 10
674.31451416015625
 20
197.23448181152344
 42
0
  0
VERTEX
  8
0
 10
721.78900146484375
 20
197.23448181152344
 42
0.095963560044765472
  0
VERTEX
  8
0
 10
703.59466552734375
 20
241.15936279296875
 42
-0
  0
VERTEX
  8
0
 10
670.025146484375
 20
207.58982849121094
 42
-0
  0
VERTEX
  8
0
 10
634.6697998046875
 20
242.94515991210937
 42
0
  0
VERTEX
  8
0
 10
668.2393798828125
 20
276.51470947265625
 42
0.095963560044765472
  0
VERTEX
  8
0
 10
624.314453125
 20
294.708984375
 42
-0
  0
VERTEX
  8
0
 10
624.31451416015625
 20
247.23448181152344
 42
-0
  0
VERTEX
  8
0
 10
574.31451416015625
 20
247.23448181152344
 42
0
  0
VERTEX
  8
0
 10
574.31451416015625
 20
294.708984375
 42
0.095963560044765472
  0
SEQEND
  0
POLYLINE
  8
0
 10
0
 20
0
 39
0
 70
1
 66
1
  0
VERTEX
  8
0
 10
727.72003173828125
 20
248.72000122070312
 42
-0
  0
VERTEX
  8
0
 10
727.72003173828125
 20
689.719970703125
 42
-0
  0
VERTEX
  8
0
 10
687.02447509765625
 20
666.224365234375
 42
-0
  0
VERTEX
  8
0
 10
662.52008056640625
 20
641.719970703125
 42
0
  0
VERTEX
  8
0
 10
662.52008056640625
 20
614.219970703125
 42
-0
  0
VERTEX
  8
0
 10
627.91998291015625
 20
614.219970703125
 42
0
  0
VERTEX
  8
0
 10
627.91998291015625
 20
324.22000122070312
 42
0
  0
VERTEX
  8
0
 10
662.52008056640625
 20
324.22000122070312
 42
0
  0
VERTEX
  8
0
 10
662.52008056640625
 20
296.72000122070312
 42
0
  0
VERTEX
  8
0
 10
687.02447509765625
 20
272.21560668945312
 42
0
  0
SEQEND
  0
POLYLINE
  8
0
 10
0
 20
0
 39
0
 70
1
 66
1
  0
VERTEX
  8
0
 10
837.76007080078125
 20
10.159999847412109
 42
-0
  0
VERTEX
  8
0
 10
837.76007080078125
 20
451.16000366210937
 42
-0
  0
VERTEX
  8
0
 10
797.06451416015625
 20
427.66439819335937
 42
-0
  0
VERTEX
  8
0
 10
772.56011962890625
 20
403.16000366210937
 42
0
  0
VERTEX
  8
0
 10
772.56011962890625
 20
375.66000366210937
 42
-0
  0
VERTEX
  8
0
 10
737.96002197265625
 20
375.66000366210937
 42
0
  0
VERTEX
  8
0
 10
737.96002197265625
 20
85.660003662109375
 42
0
  0
VERTEX
  8
0
 10
772.56011962890625
 20
85.660003662109375
 42
0
  0
VERTEX
  8
0
 10
772.56011962890625
 20
58.159999847412109
 42
0
  0
VERTEX
  8
0
 10
797.06451416015625
 20
33.655605316162109
 42
0
  0
SEQEND
  0
POLYLINE
  8
0
 10
0
 20
0
 39
0
 70
1
 66
1
  0
VERTEX
  8
0
 10
947.800048828125
 20
10.159999847412109
 42
-0
  0
VERTEX
  8
0
 10
947.800048828125
 20
451.16000366210937
 42
-0
  0
VERTEX
  8
0
 10
907.1044921875
 20
427.66439819335937
 42
-0
  0
VERTEX
  8
0
 10
882.60009765625
 20
403.16000366210937
 42
0
  0
VERTEX
  8
0
 10
882.60009765625
 20
375.66000366210937
 42
-0
  0
VERTEX
  8
0
 10
848
 20
375.66000366210937
 42
0
  0
VERTEX
  8
0
 10
848
 20
85.660003662109375
 42
0
  0
VERTEX
  8
0
 10
882.60009765625
 20
85.660003662109375
 42
0
  0
VERTEX
  8
0
 10
882.60009765625
 20
58.159999847412109
 42
0
  0
VERTEX
  8
0
 10
907.1044921875
 20
33.655605316162109
 42
0
  0
SEQEND
  0
POLYLINE
  8
0
 10
0
 20
0
 39
0
 70
1
 66
1
  0
VERTEX
  8
0
 10
1057.840087890625
 20
10.159999847412109
 42
-0
  0
VERTEX
  8
0
 10
1057.840087890625
 20
451.16000366210937
 42
-0
  0
VERTEX
  8
0
 10
1017.1444702148437
 20
427.66439819335937
 42
-0
  0
VERTEX
  8
0
 10
992.64007568359375
 20
403.16000366210937
 42
0
  0
VERTEX
  8
0
 10
992.64007568359375
 20
375.66000366210937
 42
-0
  0
VERTEX
  8
0
 10
958.03997802734375
 20
375.66000366210937
 42
0
  0
VERTEX
  8
0
 10
958.03997802734375
 20
85.660003662109375
 42
0
  0
VERTEX
  8
0
 10
992.64007568359375
 20
85.660003662109375
 42
0
  0
VERTEX
  8
0
 10
992.64007568359375
 20
58.159999847412109
 42
0
  0
VERTEX
  8
0
 10
1017.1444702148437
 20
33.655605316162109
 42
0
  0
SEQEND
  0
POLYLINE
  8
0
 10
0
 20
0
 39
0
 70
1
 66
1
  0
VERTEX
  8
0
 10
1167.8800048828125
 20
10.159999847412109
 42
-0
  0
VERTEX
  8
0
 10
1167.8800048828125
 20
451.16000366210937
 42
-0
  0
VERTEX
  8
0
 10
1127.1844482421875
 20
427.66439819335937
 42
-0
  0
VERTEX
  8
0
 10
1102.6800537109375
 20
403.16000366210937
 42
0
  0
VERTEX
  8
0
 10
1102.6800537109375
 20
375.66000366210937
 42
-0
  0
VERTEX
  8
0
 10
1068.0799560546875
 20
375.66000366210937
 42
0
  0
VERTEX
  8
0
 10
1068.0799560546875
 20
85.660003662109375
 42
0
  0
VERTEX
  8
0
 10
1102.6800537109375
 20
85.660003662109375
 42
0
  0
VERTEX
  8
0
 10
1102.6800537109375
 20
58.159999847412109
 42
0
  0
VERTEX
  8
0
 10
1127.1844482421875
 20
33.655605316162109
 42
0
  0
SEQEND
  0
POLYLINE
  8
0
 10
0
 20
0
 39
0
 70
1
 66
1
  0
VERTEX
  8
0
 10
1178.9599609375
 20
561.0400390625
 42
-0
  0
VERTEX
  8
0
 10
737.96002197265625
 20
561.0400390625
 42
-0
  0
VERTEX
  8
0
 10
761.45562744140625
 20
520.344482421875
 42
-0
  0
VERTEX
  8
0
 10
785.96002197265625
 20
495.840087890625
 42
0
  0
VERTEX
  8
0
 10
813.46002197265625
 20
495.840087890625
 42
-0
  0
VERTEX
  8
0
 10
813.46002197265625
 20
461.239990234375
 42
0
  0
VERTEX
  8
0
 10
1103.4599609375
 20
461.239990234375
 42
0
  0
VERTEX
  8
0
 10
1103.4599609375
 20
495.840087890625
 42
0
  0
VERTEX
  8
0
 10
1130.9599609375
 20
495.840087890625
 42
0
  0
VERTEX
  8
0
 10
1155.46435546875
 20
520.344482421875
 42
0
  0
SEQEND
  0
POLYLINE
  8
0
 10
0
 20
0
 39
0
 70
1
 66
1
  0
VERTEX
  8
0
 10
1178.9599609375
 20
670.96002197265625
 42
-0
  0
VERTEX
  8
0
 10
737.96002197265625
 20
670.96002197265625
 42
-0
  0
VERTEX
  8
0
 10
761.45562744140625
 20
630.26446533203125
 42
-0
  0
VERTEX
  8
0
 10
785.96002197265625
 20
605.76007080078125
 42
0
  0
VERTEX
  8
0
 10
813.46002197265625
 20
605.76007080078125
 42
-0
  0
VERTEX
  8
0
 10
813.46002197265625
 20
571.15997314453125
 42
0
  0
VERTEX
  8
0
 10
1103.4599609375
 20
571.15997314453125
 42
0
  0
VERTEX
  8
0
 10
1103.4599609375
 20
605.76007080078125
 42
0
  0
VERTEX
  8
0
 10
1130.9599609375
 20
605.76007080078125
 42
0
  0
VERTEX
  8
0
 10
1155.46435546875
 20
630.26446533203125
 42
0
  0
SEQEND
  0
POLYLINE
  8
0
 10
0
 20
0
 39
0
 70
1
 66
1
  0
VERTEX
  8
0
 10
75.160003662109375
 20
581.8800048828125
 42
0
  0
VERTEX
  8
0
 10
53.159999847412109
 20
581.8800048828125
 42
-0.41421356797218323
  0
VERTEX
  8
0
 10
45.159999847412109
 20
589.8800048828125
 42
0
  0
VERTEX
  8
0
 10
45.159999847412109
 20
646.8800048828125
 42
0
  0
VERTEX
  8
0
 10
10.159999847412109
 20
646.8800048828125
 42
0
  0
VERTEX
  8
0
 10
10.159999847412109
 20
406.8800048828125
 42
0
  0
VERTEX
  8
0
 10
45.159999847412109
 20
406.8800048828125
 42
0
  0
VERTEX
  8
0
 10
45.159999847412109
 20
505.8800048828125
 42
-0.41421356797218323
  0
VERTEX
  8
0
 10
53.159999847412109
 20
513.8800048828125
 42
-0
  0
VERTEX
  8
0
 10
75.160003662109375
 20
513.8800048828125
 42
0
  0
SEQEND
  0
POLYLINE
  8
0
 10
0
 20
0
 39
0
 70
1
 66
1
  0
VERTEX
  8
0
 10
487.32000732421875
 20
513.91998291015625
 42
0
  0
VERTEX
  8
0
 10
487.32000732421875
 20
535.91998291015625
 42
-0.41421356797218323
  0
VERTEX
  8
0
 10
495.32000732421875
 20
543.91998291015625
 42
0
  0
VERTEX
  8
0
 10
552.32000732421875
 20
543.91998291015625
 42
0
  0
VERTEX
  8
0
 10
552.32000732421875
 20
578.91998291015625
 42
0
  0
VERTEX
  8
0
 10
312.32000732421875
 20
578.91998291015625
 42
0
  0
VERTEX
  8
0
 10
312.32000732421875
 20
543.91998291015625
 42
0
  0
VERTEX
  8
0
 10
411.32000732421875
 20
543.91998291015625
 42
-0.41421356797218323
  0
VERTEX
  8
0
 10
419.32000732421875
 20
535.91998291015625
 42
-0
  0
VERTEX
  8
0
 10
419.32000732421875
 20
513.91998291015625
 42
0
  0
SEQEND
  0
POLYLINE
  8
0
 10
0
 20
0
 39
0
 70
1
 66
1
  0
VERTEX
  8
0
 10
487.32000732421875
 20
589.03997802734375
 42
0
  0
VERTEX
  8
0
 10
487.32000732421875
 20
611.03997802734375
 42
-0.41421356797218323
  0
VERTEX
  8
0
 10
495.32000732421875
 20
619.03997802734375
 42
0
  0
VERTEX
  8
0
 10
552.32000732421875
 20
619.03997802734375
 42
0
  0
VERTEX
  8
0
 10
552.32000732421875
 20
654.03997802734375
 42
0
  0
VERTEX
  8
0
 10
312.32000732421875
 20
654.03997802734375
 42
0
  0
VERTEX
  8
0
 10
312.32000732421875
 20
619.03997802734375
 42
0
  0
VERTEX
  8
0
 10
411.32000732421875
 20
619.03997802734375
 42
-0.41421356797218323
  0
VERTEX
  8
0
 10
419.32000732421875
 20
611.03997802734375
 42
-0
  0
VERTEX
  8
0
 10
419.32000732421875
 20
589.03997802734375
 42
0
  0
SEQEND
  0
POLYLINE
  8
0
 10
0
 20
0
 39
0
 70
1
 66
1
  0
VERTEX
  8
0
 10
537.55999755859375
 20
460.72000122070312
 42
0
  0
VERTEX
  8
0
 10
559.55999755859375
 20
460.72000122070312
 42
-0.41421356797218323
  0
VERTEX
  8
0
 10
567.55999755859375
 20
452.72000122070312
 42
0
  0
VERTEX
  8
0
 10
567.55999755859375
 20
395.72000122070312
 42
0
  0
VERTEX
  8
0
 10
602.55999755859375
 20
395.72000122070312
 42
0
  0
VERTEX
  8
0
 10
602.55999755859375
 20
635.719970703125
 42
0
  0
VERTEX
  8
0
 10
567.55999755859375
 20
635.719970703125
 42
0
  0
VERTEX
  8
0
 10
567.55999755859375
 20
536.719970703125
 42
-0.41421356797218323
  0
VERTEX
  8
0
 10
559.55999755859375
 20
528.719970703125
 42
-0
  0
VERTEX
  8
0
 10
537.55999755859375
 20
528.719970703125
 42
0
  0
SEQEND
  0
ENDSEC
  0
EOF
