  0
SECTION
  2
ENTITIES
  0
POLYLINE
  8
0
 10
0
 20
0
 39
0
 70
1
 66
1
  0
VERTEX
  8
0
 10
0
 20
0
 42
-0
  0
VERTEX
  8
0
 10
1500
 20
0
 42
-0
  0
VERTEX
  8
0
 10
1500
 20
740
 42
-0
  0
VERTEX
  8
0
 10
0
 20
740
 42
-0
  0
SEQEND
  0
POLYLINE
  8
0
 10
0
 20
0
 39
0
 70
1
 66
1
  0
VERTEX
  8
0
 10
850
 20
410
 42
0
  0
VERTEX
  8
0
 10
990
 20
410
 42
-0
  0
VERTEX
  8
0
 10
1070
 20
500
 42
0
  0
VERTEX
  8
0
 10
1070
 20
640
 42
-0
  0
VERTEX
  8
0
 10
990
 20
730
 42
0
  0
VERTEX
  8
0
 10
850
 20
730
 42
-0
  0
VERTEX
  8
0
 10
770
 20
640
 42
0
  0
VERTEX
  8
0
 10
770
 20
500
 42
0
  0
SEQEND
  0
POLYLINE
  8
0
 10
0
 20
0
 39
0
 70
1
 66
1
  0
VERTEX
  8
0
 10
882
 20
470
 42
-1
  0
VERTEX
  8
0
 10
958
 20
470
 42
-1
  0
SEQEND
  0
POLYLINE
  8
0
 10
0
 20
0
 39
0
 70
1
 66
1
  0
VERTEX
  8
0
 10
94.629119873046875
 20
699.99920654296875
 42
1
  0
VERTEX
  8
0
 10
95.370880126953125
 20
530.00079345703125
 42
1
  0
SEQEND
  0
POLYLINE
  8
0
 10
0
 20
0
 39
0
 70
1
 66
1
  0
VERTEX
  8
0
 10
94.82110595703125
 20
655.9996337890625
 42
-1
  0
VERTEX
  8
0
 10
95.17889404296875
 20
574.0003662109375
 42
-1
  0
SEQEND
  0
POLYLINE
  8
0
 10
0
 20
0
 39
0
 70
1
 66
1
  0
VERTEX
  8
0
 10
10
 20
270
 42
-0
  0
VERTEX
  8
0
 10
260
 20
270
 42
-0
  0
VERTEX
  8
0
 10
260
 20
520
 42
-0
  0
VERTEX
  8
0
 10
10
 20
520
 42
-0
  0
SEQEND
  0
POLYLINE
  8
0
 10
0
 20
0
 39
0
 70
1
 66
1
  0
VERTEX
  8
0
 10
106.5
 20
400
 42
-1
  0
VERTEX
  8
0
 10
163.5
 20
400
 42
-1
  0
SEQEND
  0
POLYLINE
  8
0
 10
0
 20
0
 39
0
 70
1
 66
1
  0
VERTEX
  8
0
 10
1160
 20
410
 42
0
  0
VERTEX
  8
0
 10
1300
 20
410
 42
-0
  0
VERTEX
  8
0
 10
1380
 20
500
 42
0
  0
VERTEX
  8
0
 10
1380
 20
640
 42
-0
  0
VERTEX
  8
0
 10
1300
 20
730
 42
0
  0
VERTEX
  8
0
 10
1160
 20
730
 42
-0
  0
VERTEX
  8
0
 10
1080
 20
640
 42
0
  0
VERTEX
  8
0
 10
1080
 20
500
 42
0
  0
SEQEND
  0
POLYLINE
  8
0
 10
0
 20
0
 39
0
 70
1
 66
1
  0
VERTEX
  8
0
 10
1192
 20
470
 42
-1
  0
VERTEX
  8
0
 10
1268
 20
470
 42
-1
  0
SEQEND
  0
POLYLINE
  8
0
 10
0
 20
0
 39
0
 70
1
 66
1
  0
VERTEX
  8
0
 10
10
 20
10
 42
-0
  0
VERTEX
  8
0
 10
260
 20
10
 42
-0
  0
VERTEX
  8
0
 10
260
 20
260
 42
-0
  0
VERTEX
  8
0
 10
10
 20
260
 42
-0
  0
SEQEND
  0
POLYLINE
  8
0
 10
0
 20
0
 39
0
 70
1
 66
1
  0
VERTEX
  8
0
 10
106.5
 20
140
 42
-1
  0
VERTEX
  8
0
 10
163.5
 20
140
 42
-1
  0
SEQEND
  0
POLYLINE
  8
0
 10
0
 20
0
 39
0
 70
1
 66
1
  0
VERTEX
  8
0
 10
854.52105712890625
 20
399.99813842773437
 42
1
  0
VERTEX
  8
0
 10
856.2227783203125
 20
10.001855850219727
 42
1
  0
SEQEND
  0
POLYLINE
  8
0
 10
0
 20
0
 39
0
 70
1
 66
1
  0
VERTEX
  8
0
 10
919.90716552734375
 20
232.11457824707031
 42
0.19855155050754547
  0
VERTEX
  8
0
 10
881.92230224609375
 20
269.7694091796875
 42
0
  0
VERTEX
  8
0
 10
881.64935302734375
 20
332.31649780273437
 42
-0.29705095291137695
  0
VERTEX
  8
0
 10
982.45428466796875
 20
232.38748168945312
 42
-0
  0
SEQEND
  0
POLYLINE
  8
0
 10
0
 20
0
 39
0
 70
1
 66
1
  0
VERTEX
  8
0
 10
920.141357421875
 20
178.44961547851562
 42
0
  0
VERTEX
  8
0
 10
982.68841552734375
 20
178.7225341796875
 42
-0.29705095291137695
  0
VERTEX
  8
0
 10
882.7593994140625
 20
77.917640686035156
 42
-0
  0
VERTEX
  8
0
 10
882.48651123046875
 20
140.46473693847656
 42
0.19855155050754547
  0
SEQEND
  0
POLYLINE
  8
0
 10
0
 20
0
 39
0
 70
1
 66
1
  0
VERTEX
  8
0
 10
828.25732421875
 20
269.53524780273437
 42
0.19855155050754547
  0
VERTEX
  8
0
 10
790.60247802734375
 20
231.55036926269531
 42
0
  0
VERTEX
  8
0
 10
728.055419921875
 20
231.27745056152344
 42
-0.29705095291137695
  0
VERTEX
  8
0
 10
827.98443603515625
 20
332.08233642578125
 42
-0
  0
SEQEND
  0
POLYLINE
  8
0
 10
0
 20
0
 39
0
 70
1
 66
1
  0
VERTEX
  8
0
 10
790.836669921875
 20
177.88542175292969
 42
0.19855155050754547
  0
VERTEX
  8
0
 10
828.821533203125
 20
140.23057556152344
 42
0
  0
VERTEX
  8
0
 10
829.094482421875
 20
77.683486938476562
 42
-0.29705095291137695
  0
VERTEX
  8
0
 10
728.28955078125
 20
177.61250305175781
 42
-0
  0
SEQEND
  0
POLYLINE
  8
0
 10
0
 20
0
 39
0
 70
1
 66
1
  0
VERTEX
  8
0
 10
582.8779296875
 20
490.9407958984375
 42
0
  0
VERTEX
  8
0
 10
697.1220703125
 20
490.9407958984375
 42
0.29410767555236816
  0
VERTEX
  8
0
 10
715.3291015625
 20
502.6634521484375
 42
0
  0
VERTEX
  8
0
 10
758.20703125
 20
596.9954833984375
 42
0.10706308484077454
  0
VERTEX
  8
0
 10
760
 20
605.2728271484375
 42
-0
  0
VERTEX
  8
0
 10
760
 20
690.9407958984375
 42
0.41421356797218323
  0
VERTEX
  8
0
 10
740
 20
710.9407958984375
 42
-0
  0
VERTEX
  8
0
 10
540
 20
710.9407958984375
 42
0.41421356797218323
  0
VERTEX
  8
0
 10
520
 20
690.9407958984375
 42
0
  0
VERTEX
  8
0
 10
520
 20
605.2728271484375
 42
0.10706308484077454
  0
VERTEX
  8
0
 10
521.79296875
 20
596.9954833984375
 42
-0
  0
VERTEX
  8
0
 10
564.6708984375
 20
502.6634521484375
 42
0.29410767555236816
  0
SEQEND
  0
POLYLINE
  8
0
 10
0
 20
0
 39
0
 70
1
 66
1
  0
VERTEX
  8
0
 10
590
 20
615.9407958984375
 42
-1
  0
VERTEX
  8
0
 10
690
 20
615.9407958984375
 42
-1
  0
SEQEND
  0
POLYLINE
  8
0
 10
0
 20
0
 39
0
 70
1
 66
1
  0
VERTEX
  8
0
 10
1254.5211181640625
 20
399.99813842773437
 42
1
  0
VERTEX
  8
0
 10
1256.2227783203125
 20
10.001855850219727
 42
1
  0
SEQEND
  0
POLYLINE
  8
0
 10
0
 20
0
 39
0
 70
1
 66
1
  0
VERTEX
  8
0
 10
1319.9072265625
 20
232.11457824707031
 42
0.19855155050754547
  0
VERTEX
  8
0
 10
1281.9222412109375
 20
269.7694091796875
 42
0
  0
VERTEX
  8
0
 10
1281.6494140625
 20
332.31649780273437
 42
-0.29705095291137695
  0
VERTEX
  8
0
 10
1382.4542236328125
 20
232.38748168945312
 42
-0
  0
SEQEND
  0
POLYLINE
  8
0
 10
0
 20
0
 39
0
 70
1
 66
1
  0
VERTEX
  8
0
 10
1320.141357421875
 20
178.44961547851562
 42
0
  0
VERTEX
  8
0
 10
1382.6884765625
 20
178.7225341796875
 42
-0.29705095291137695
  0
VERTEX
  8
0
 10
1282.7593994140625
 20
77.917640686035156
 42
-0
  0
VERTEX
  8
0
 10
1282.4864501953125
 20
140.46473693847656
 42
0.19855155050754547
  0
SEQEND
  0
POLYLINE
  8
0
 10
0
 20
0
 39
0
 70
1
 66
1
  0
VERTEX
  8
0
 10
1228.25732421875
 20
269.53524780273437
 42
0.19855155050754547
  0
VERTEX
  8
0
 10
1190.6025390625
 20
231.55036926269531
 42
0
  0
VERTEX
  8
0
 10
1128.055419921875
 20
231.27745056152344
 42
-0.29705095291137695
  0
VERTEX
  8
0
 10
1227.984375
 20
332.08233642578125
 42
-0
  0
SEQEND
  0
POLYLINE
  8
0
 10
0
 20
0
 39
0
 70
1
 66
1
  0
VERTEX
  8
0
 10
1190.836669921875
 20
177.88542175292969
 42
0.19855155050754547
  0
VERTEX
  8
0
 10
1228.821533203125
 20
140.23057556152344
 42
0
  0
VERTEX
  8
0
 10
1229.094482421875
 20
77.683486938476562
 42
-0.29705095291137695
  0
VERTEX
  8
0
 10
1128.28955078125
 20
177.61250305175781
 42
-0
  0
SEQEND
  0
POLYLINE
  8
0
 10
0
 20
0
 39
0
 70
1
 66
1
  0
VERTEX
  8
0
 10
298.16519165039062
 20
98.794364929199219
 42
-0
  0
VERTEX
  8
0
 10
334.19488525390625
 20
81.41571044921875
 42
0
  0
VERTEX
  8
0
 10
531.65478515625
 20
14.70490550994873
 42
0.51879560947418213
  0
VERTEX
  8
0
 10
650.356201171875
 20
101.68287658691406
 42
-0
  0
VERTEX
  8
0
 10
649.6285400390625
 20
378.91973876953125
 42
0
  0
VERTEX
  8
0
 10
631.61456298828125
 20
387.608642578125
 42
-0.22677740454673767
  0
VERTEX
  8
0
 10
411.99395751953125
 20
145.364990234375
 42
-0
  0
SEQEND
  0
POLYLINE
  8
0
 10
0
 20
0
 39
0
 70
1
 66
1
  0
VERTEX
  8
0
 10
528.84832763671875
 20
115.20475006103516
 42
-1
  0
VERTEX
  8
0
 10
591.897216796875
 20
84.7935791015625
 42
-1
  0
SEQEND
  0
POLYLINE
  8
0
 10
0
 20
0
 39
0
 70
1
 66
1
  0
VERTEX
  8
0
 10
622.20672607421875
 20
392.14642333984375
 42
-0
  0
VERTEX
  8
0
 10
586.17706298828125
 20
409.52508544921875
 42
0
  0
VERTEX
  8
0
 10
388.71713256835937
 20
476.23590087890625
 42
0.51879560947418213
  0
VERTEX
  8
0
 10
270.0157470703125
 20
389.2579345703125
 42
-0
  0
VERTEX
  8
0
 10
270.74337768554687
 20
112.02108001708984
 42
0
  0
VERTEX
  8
0
 10
288.75735473632812
 20
103.33217620849609
 42
-0.22677740454673767
  0
VERTEX
  8
0
 10
508.37799072265625
 20
345.5758056640625
 42
-0
  0
SEQEND
  0
POLYLINE
  8
0
 10
0
 20
0
 39
0
 70
1
 66
1
  0
VERTEX
  8
0
 10
391.52359008789062
 20
375.73605346679687
 42
-1
  0
VERTEX
  8
0
 10
328.47470092773437
 20
406.147216796875
 42
-1
  0
SEQEND
  0
POLYLINE
  8
0
 10
0
 20
0
 39
0
 70
1
 66
1
  0
VERTEX
  8
0
 10
332.8779296875
 20
490.9407958984375
 42
0
  0
VERTEX
  8
0
 10
447.1220703125
 20
490.9407958984375
 42
0.29410767555236816
  0
VERTEX
  8
0
 10
465.3291015625
 20
502.6634521484375
 42
0
  0
VERTEX
  8
0
 10
508.20703125
 20
596.9954833984375
 42
0.10706308484077454
  0
VERTEX
  8
0
 10
510
 20
605.2728271484375
 42
-0
  0
VERTEX
  8
0
 10
510
 20
690.9407958984375
 42
0.41421356797218323
  0
VERTEX
  8
0
 10
490
 20
710.9407958984375
 42
-0
  0
VERTEX
  8
0
 10
290
 20
710.9407958984375
 42
0.41421356797218323
  0
VERTEX
  8
0
 10
270
 20
690.9407958984375
 42
0
  0
VERTEX
  8
0
 10
270
 20
605.2728271484375
 42
0.10706308484077454
  0
VERTEX
  8
0
 10
271.79296875
 20
596.9954833984375
 42
-0
  0
VERTEX
  8
0
 10
314.6708984375
 20
502.6634521484375
 42
0.29410767555236816
  0
SEQEND
  0
POLYLINE
  8
0
 10
0
 20
0
 39
0
 70
1
 66
1
  0
VERTEX
  8
0
 10
340
 20
615.9407958984375
 42
-1
  0
VERTEX
  8
0
 10
440
 20
615.9407958984375
 42
-1
  0
SEQEND
  0
ENDSEC
  0
EOF
