  0
SECTION
  2
ENTITIES
  0
POLYLINE
  8
0
 10
0
 20
0
 39
0
 70
1
 66
1
  0
VERTEX
  8
0
 10
0
 20
0
 42
-0
  0
VERTEX
  8
0
 10
1000
 20
0
 42
-0
  0
VERTEX
  8
0
 10
1000
 20
800
 42
-0
  0
VERTEX
  8
0
 10
0
 20
800
 42
-0
  0
SEQEND
  0
POLYLINE
  8
0
 10
0
 20
0
 39
0
 70
1
 66
1
  0
VERTEX
  8
0
 10
290.2928000000004
 20
59.989990234375398
 42
0
  0
VERTEX
  8
0
 10
290.29280000000028
 20
424.0000000000004
 42
0
  0
VERTEX
  8
0
 10
240.29280000000028
 20
424.0000000000004
 42
0
  0
VERTEX
  8
0
 10
240.29280000000031
 20
82.000000000000398
 42
-0.41421356797218323
  0
VERTEX
  8
0
 10
218.29280000000031
 20
60.000000000000398
 42
0
  0
VERTEX
  8
0
 10
180.29280000000031
 20
60.000000000000398
 42
0
  0
VERTEX
  8
0
 10
180.29280000000031
 20
10.000000000000398
 42
0
  0
VERTEX
  8
0
 10
240.30279832153352
 20
10.000000000000398
 42
0.41421356797218323
  0
SEQEND
  0
POLYLINE
  8
0
 10
0
 20
0
 39
0
 70
1
 66
1
  0
VERTEX
  8
0
 10
120.0000000000002
 20
374.010009765625
 42
0
  0
VERTEX
  8
0
 10
120.00000000000034
 20
10
 42
0
  0
VERTEX
  8
0
 10
170.00000000000034
 20
10.000000000000009
 42
0
  0
VERTEX
  8
0
 10
170.00000000000028
 20
352
 42
-0.41421356797218323
  0
VERTEX
  8
0
 10
192.00000000000028
 20
374
 42
0
  0
VERTEX
  8
0
 10
230.00000000000028
 20
374
 42
0
  0
VERTEX
  8
0
 10
230.00000000000028
 20
424
 42
0
  0
VERTEX
  8
0
 10
169.99000167846705
 20
424
 42
0.41421356797218323
  0
SEQEND
  0
POLYLINE
  8
0
 10
0
 20
0
 39
0
 70
1
 66
1
  0
VERTEX
  8
0
 10
595.29279676908232
 20
59.989990234375398
 42
0
  0
VERTEX
  8
0
 10
595.2927967690822
 20
424.0000000000004
 42
0
  0
VERTEX
  8
0
 10
545.2927967690822
 20
424.0000000000004
 42
0
  0
VERTEX
  8
0
 10
545.2927967690822
 20
82.000000000000398
 42
-0.41421356797218323
  0
VERTEX
  8
0
 10
523.2927967690822
 20
60.000000000000398
 42
0
  0
VERTEX
  8
0
 10
485.2927967690822
 20
60.000000000000398
 42
0
  0
VERTEX
  8
0
 10
485.2927967690822
 20
10.000000000000398
 42
0
  0
VERTEX
  8
0
 10
545.3027950906154
 20
10.000000000000398
 42
0.41421356797218323
  0
SEQEND
  0
POLYLINE
  8
0
 10
0
 20
0
 39
0
 70
1
 66
1
  0
VERTEX
  8
0
 10
424.99999676908214
 20
374.010009765625
 42
0
  0
VERTEX
  8
0
 10
424.99999676908226
 20
10
 42
0
  0
VERTEX
  8
0
 10
474.99999676908226
 20
10.000000000000009
 42
0
  0
VERTEX
  8
0
 10
474.9999967690822
 20
352
 42
-0.41421356797218323
  0
VERTEX
  8
0
 10
496.9999967690822
 20
374
 42
0
  0
VERTEX
  8
0
 10
534.99999676908214
 20
374
 42
0
  0
VERTEX
  8
0
 10
534.99999676908214
 20
424
 42
0
  0
VERTEX
  8
0
 10
474.989998447549
 20
424
 42
0.41421356797218323
  0
SEQEND
  0
POLYLINE
  8
0
 10
0
 20
0
 39
0
 70
1
 66
1
  0
VERTEX
  8
0
 10
982.99999353816384
 20
204.99999676908169
 42
0
  0
VERTEX
  8
0
 10
982.99999353816384
 20
749.99999676908169
 42
0
  0
VERTEX
  8
0
 10
942.99999353816384
 20
749.99999676908169
 42
0
  0
VERTEX
  8
0
 10
942.99999353816384
 20
234.99999676908169
 42
0
  0
SEQEND
  0
POLYLINE
  8
0
 10
0
 20
0
 39
0
 70
1
 66
1
  0
VERTEX
  8
0
 10
962.99999353816384
 20
714.99999676908169
 42
-1
  0
VERTEX
  8
0
 10
962.99999353816384
 20
694.99999676908169
 42
-1
  0
SEQEND
  0
POLYLINE
  8
0
 10
0
 20
0
 39
0
 70
1
 66
1
  0
VERTEX
  8
0
 10
517.09638905943586
 20
618.99911623579851
 42
1
  0
VERTEX
  8
0
 10
517.90360124781012
 20
434.00088053328386
 42
1
  0
SEQEND
  0
POLYLINE
  8
0
 10
0
 20
0
 39
0
 70
1
 66
1
  0
VERTEX
  8
0
 10
517.37345918895892
 20
555.49972181898943
 42
-1
  0
VERTEX
  8
0
 10
517.62653111828706
 20
497.50027495009294
 42
-1
  0
SEQEND
  0
POLYLINE
  8
0
 10
0
 20
0
 39
0
 70
1
 66
1
  0
VERTEX
  8
0
 10
697.38918905943603
 20
194.99911623579817
 42
1
  0
VERTEX
  8
0
 10
698.19640124781029
 20
10.000880533283507
 42
1
  0
SEQEND
  0
POLYLINE
  8
0
 10
0
 20
0
 39
0
 70
1
 66
1
  0
VERTEX
  8
0
 10
697.66625918895909
 20
131.49972181898909
 42
-1
  0
VERTEX
  8
0
 10
697.91933111828723
 20
73.500274950092589
 42
-1
  0
SEQEND
  0
POLYLINE
  8
0
 10
0
 20
0
 39
0
 70
1
 66
1
  0
VERTEX
  8
0
 10
555
 20
710
 42
0
  0
VERTEX
  8
0
 10
10
 20
710
 42
0
  0
VERTEX
  8
0
 10
10
 20
670
 42
0
  0
VERTEX
  8
0
 10
525
 20
670
 42
0
  0
SEQEND
  0
POLYLINE
  8
0
 10
0
 20
0
 39
0
 70
1
 66
1
  0
VERTEX
  8
0
 10
45
 20
690
 42
-1
  0
VERTEX
  8
0
 10
65
 20
690
 42
-1
  0
SEQEND
  0
POLYLINE
  8
0
 10
0
 20
0
 39
0
 70
1
 66
1
  0
VERTEX
  8
0
 10
892.38918582851772
 20
194.99911623579817
 42
1
  0
VERTEX
  8
0
 10
893.19639801689198
 20
10.000880533283507
 42
1
  0
SEQEND
  0
POLYLINE
  8
0
 10
0
 20
0
 39
0
 70
1
 66
1
  0
VERTEX
  8
0
 10
892.66625595804078
 20
131.49972181898909
 42
-1
  0
VERTEX
  8
0
 10
892.91932788736892
 20
73.500274950092589
 42
-1
  0
SEQEND
  0
POLYLINE
  8
0
 10
0
 20
0
 39
0
 70
1
 66
1
  0
VERTEX
  8
0
 10
212.09639229035395
 20
618.99911623579851
 42
1
  0
VERTEX
  8
0
 10
212.9036044787282
 20
434.00088053328386
 42
1
  0
SEQEND
  0
POLYLINE
  8
0
 10
0
 20
0
 39
0
 70
1
 66
1
  0
VERTEX
  8
0
 10
212.373462419877
 20
555.49972181898943
 42
-1
  0
VERTEX
  8
0
 10
212.62653434920514
 20
497.50027495009294
 42
-1
  0
SEQEND
  0
POLYLINE
  8
0
 10
0
 20
0
 39
0
 70
1
 66
1
  0
VERTEX
  8
0
 10
619.99999353816384
 20
774.99999676908169
 42
0
  0
VERTEX
  8
0
 10
619.99999353816384
 20
527.99999676908169
 42
0
  0
VERTEX
  8
0
 10
911.99999353816384
 20
527.99999676908169
 42
0.41421356797218323
  0
VERTEX
  8
0
 10
932.99999353816384
 20
548.99999676908169
 42
0
  0
VERTEX
  8
0
 10
932.99999353816384
 20
753.99999676908169
 42
0.41421356797218323
  0
VERTEX
  8
0
 10
911.99999353816384
 20
774.99999676908169
 42
0
  0
SEQEND
  0
POLYLINE
  8
0
 10
0
 20
0
 39
0
 70
1
 66
1
  0
VERTEX
  8
0
 10
819.99999353816384
 20
740.99999676908169
 42
-1
  0
VERTEX
  8
0
 10
819.99999353816384
 20
560.99999676908169
 42
-1
  0
SEQEND
  0
POLYLINE
  8
0
 10
0
 20
0
 39
0
 70
1
 66
1
  0
VERTEX
  8
0
 10
619.99999353816384
 20
204.99999676908169
 42
0
  0
VERTEX
  8
0
 10
866.99999353816384
 20
204.99999676908169
 42
0
  0
VERTEX
  8
0
 10
866.99999353816384
 20
496.99999676908169
 42
0.41421356797218323
  0
VERTEX
  8
0
 10
845.99999353816384
 20
517.99999676908169
 42
0
  0
VERTEX
  8
0
 10
640.99999353816384
 20
517.99999676908169
 42
0.41421356797218323
  0
VERTEX
  8
0
 10
619.99999353816384
 20
496.99999676908169
 42
0
  0
SEQEND
  0
POLYLINE
  8
0
 10
0
 20
0
 39
0
 70
1
 66
1
  0
VERTEX
  8
0
 10
653.99999353816384
 20
404.99999676908169
 42
-1
  0
VERTEX
  8
0
 10
833.99999353816384
 20
404.99999676908169
 42
-1
  0
SEQEND
  0
POLYLINE
  8
0
 10
0
 20
0
 39
0
 70
1
 66
1
  0
VERTEX
  8
0
 10
10.000000000000155
 20
660
 42
0
  0
VERTEX
  8
0
 10
10
 20
388.6756591796875
 42
-0.41036856174468994
  0
VERTEX
  8
0
 10
10.000000000000179
 20
259.42596435546875
 42
0
  0
VERTEX
  8
0
 10
10.000000000000155
 20
198.46939086914063
 42
-0.41036856174468994
  0
VERTEX
  8
0
 10
10.00000000000019
 20
69.2197265625
 42
0
  0
VERTEX
  8
0
 10
10.000000000000194
 20
10
 42
-0
  0
VERTEX
  8
0
 10
110.0000000000002
 20
10
 42
-0
  0
VERTEX
  8
0
 10
110.0000000000002
 20
69.2197265625
 42
-0.41036856174468994
  0
VERTEX
  8
0
 10
110.00000000000018
 20
198.46939086914063
 42
-0
  0
VERTEX
  8
0
 10
110.00000000000018
 20
259.42596435546875
 42
-0.41036856174468994
  0
VERTEX
  8
0
 10
110.00000000000017
 20
388.6756591796875
 42
-0
  0
VERTEX
  8
0
 10
110.00000000000016
 20
660
 42
-0
  0
SEQEND
  0
POLYLINE
  8
0
 10
0
 20
0
 39
0
 70
1
 66
1
  0
VERTEX
  8
0
 10
60.000000000000156
 20
626.57123184204102
 42
-1
  0
VERTEX
  8
0
 10
60.000000000000163
 20
576.57123565673828
 42
-1
  0
SEQEND
  0
POLYLINE
  8
0
 10
0
 20
0
 39
0
 70
1
 66
1
  0
VERTEX
  8
0
 10
555
 20
760
 42
0
  0
VERTEX
  8
0
 10
10
 20
760
 42
0
  0
VERTEX
  8
0
 10
10
 20
720
 42
0
  0
VERTEX
  8
0
 10
525
 20
720
 42
0
  0
SEQEND
  0
POLYLINE
  8
0
 10
0
 20
0
 39
0
 70
1
 66
1
  0
VERTEX
  8
0
 10
45
 20
740
 42
-1
  0
VERTEX
  8
0
 10
65
 20
740
 42
-1
  0
SEQEND
  0
POLYLINE
  8
0
 10
0
 20
0
 39
0
 70
1
 66
1
  0
VERTEX
  8
0
 10
314.99999676908209
 20
660
 42
0
  0
VERTEX
  8
0
 10
314.99999676908192
 20
388.6756591796875
 42
-0.41036856174468994
  0
VERTEX
  8
0
 10
314.99999676908209
 20
259.42596435546875
 42
0
  0
VERTEX
  8
0
 10
314.99999676908209
 20
198.46939086914063
 42
-0.41036856174468994
  0
VERTEX
  8
0
 10
314.99999676908214
 20
69.2197265625
 42
0
  0
VERTEX
  8
0
 10
314.99999676908214
 20
10
 42
-0
  0
VERTEX
  8
0
 10
414.99999676908214
 20
10
 42
-0
  0
VERTEX
  8
0
 10
414.99999676908214
 20
69.2197265625
 42
-0.41036856174468994
  0
VERTEX
  8
0
 10
414.99999676908214
 20
198.46939086914063
 42
-0
  0
VERTEX
  8
0
 10
414.99999676908214
 20
259.42596435546875
 42
-0.41036856174468994
  0
VERTEX
  8
0
 10
414.99999676908209
 20
388.6756591796875
 42
-0
  0
VERTEX
  8
0
 10
414.99999676908209
 20
660
 42
-0
  0
SEQEND
  0
POLYLINE
  8
0
 10
0
 20
0
 39
0
 70
1
 66
1
  0
VERTEX
  8
0
 10
364.99999676908209
 20
626.57123184204102
 42
-1
  0
VERTEX
  8
0
 10
364.99999676908209
 20
576.57123565673828
 42
-1
  0
SEQEND
  0
ENDSEC
  0
EOF
