  0
SECTION
  2
ENTITIES
  0
POLYLINE
  8
0
 10
0
 20
0
 39
0
 70
1
 66
1
  0
VERTEX
  8
0
 10
0
 20
0
 42
-0
  0
VERTEX
  8
0
 10
500
 20
0
 42
-0
  0
VERTEX
  8
0
 10
500
 20
400
 42
-0
  0
VERTEX
  8
0
 10
0
 20
400
 42
-0
  0
SEQEND
  0
POLYLINE
  8
0
 10
0
 20
0
 39
0
 70
1
 66
1
  0
VERTEX
  8
0
 10
168.07691955566406
 20
17.420068740844727
 42
-0
  0
VERTEX
  8
0
 10
168.07691955566406
 20
175.73377990722656
 42
-0
  0
VERTEX
  8
0
 10
160.73377990722656
 20
183.07691955566406
 42
-0
  0
VERTEX
  8
0
 10
17.420063018798828
 20
183.07691955566406
 42
-0
  0
VERTEX
  8
0
 10
10.076923370361328
 20
175.73377990722656
 42
-0
  0
VERTEX
  8
0
 10
10.076923370361328
 20
17.420068740844727
 42
-0
  0
VERTEX
  8
0
 10
17.420063018798828
 20
10.076923370361328
 42
-0
  0
VERTEX
  8
0
 10
160.73377990722656
 20
10.076923370361328
 42
-0
  0
SEQEND
  0
POLYLINE
  8
0
 10
0
 20
0
 39
0
 70
1
 66
1
  0
VERTEX
  8
0
 10
31.576923370361328
 20
154.07691955566406
 42
-0
  0
VERTEX
  8
0
 10
145.92007446289062
 20
154.07691955566406
 42
-0
  0
VERTEX
  8
0
 10
146.57691955566406
 20
153.42005920410156
 42
-0
  0
VERTEX
  8
0
 10
146.57691955566406
 20
39.733776092529297
 42
-0
  0
VERTEX
  8
0
 10
145.92007446289062
 20
39.076923370361328
 42
-0
  0
VERTEX
  8
0
 10
32.233783721923828
 20
39.076923370361328
 42
-0
  0
VERTEX
  8
0
 10
31.576923370361328
 20
39.733776092529297
 42
-0
  0
SEQEND
  0
POLYLINE
  8
0
 10
0
 20
0
 39
0
 70
1
 66
1
  0
VERTEX
  8
0
 10
168.07691955566406
 20
200.45852661132813
 42
-0
  0
VERTEX
  8
0
 10
168.07691955566406
 20
358.77224731445312
 42
-0
  0
VERTEX
  8
0
 10
160.73377990722656
 20
366.11538696289062
 42
-0
  0
VERTEX
  8
0
 10
17.420063018798828
 20
366.11538696289062
 42
-0
  0
VERTEX
  8
0
 10
10.076923370361328
 20
358.77224731445312
 42
-0
  0
VERTEX
  8
0
 10
10.076923370361328
 20
200.45852661132813
 42
-0
  0
VERTEX
  8
0
 10
17.420063018798828
 20
193.11538696289062
 42
-0
  0
VERTEX
  8
0
 10
160.73377990722656
 20
193.11538696289062
 42
-0
  0
SEQEND
  0
POLYLINE
  8
0
 10
0
 20
0
 39
0
 70
1
 66
1
  0
VERTEX
  8
0
 10
31.576923370361328
 20
337.11538696289062
 42
-0
  0
VERTEX
  8
0
 10
145.92007446289062
 20
337.11538696289062
 42
-0
  0
VERTEX
  8
0
 10
146.57691955566406
 20
336.45852661132812
 42
-0
  0
VERTEX
  8
0
 10
146.57691955566406
 20
222.77223205566406
 42
-0
  0
VERTEX
  8
0
 10
145.92007446289062
 20
222.11538696289062
 42
-0
  0
VERTEX
  8
0
 10
32.233783721923828
 20
222.11538696289062
 42
-0
  0
VERTEX
  8
0
 10
31.576923370361328
 20
222.77223205566406
 42
-0
  0
SEQEND
  0
POLYLINE
  8
0
 10
0
 20
0
 39
0
 70
1
 66
1
  0
VERTEX
  8
0
 10
268.15383911132812
 20
190.07691955566406
 42
0
  0
VERTEX
  8
0
 10
178.15383911132812
 20
190.07691955566406
 42
0
  0
VERTEX
  8
0
 10
178.15383911132812
 20
10.076923370361328
 42
0
  0
VERTEX
  8
0
 10
268.15383911132812
 20
10.076923370361328
 42
0
  0
SEQEND
  0
POLYLINE
  8
0
 10
0
 20
0
 39
0
 70
1
 66
1
  0
VERTEX
  8
0
 10
212.65383911132812
 20
49.576923370361328
 42
-0
  0
VERTEX
  8
0
 10
212.65383911132812
 20
98.576919555664063
 42
-1
  0
VERTEX
  8
0
 10
233.65383911132812
 20
98.576919555664063
 42
0
  0
VERTEX
  8
0
 10
233.65383911132812
 20
49.576923370361328
 42
-1
  0
SEQEND
  0
POLYLINE
  8
0
 10
0
 20
0
 39
0
 70
1
 66
1
  0
VERTEX
  8
0
 10
268.15383911132812
 20
380.11538696289062
 42
0
  0
VERTEX
  8
0
 10
178.15383911132812
 20
380.11538696289062
 42
0
  0
VERTEX
  8
0
 10
178.15383911132812
 20
200.11538696289062
 42
0
  0
VERTEX
  8
0
 10
268.15383911132812
 20
200.11538696289062
 42
0
  0
SEQEND
  0
POLYLINE
  8
0
 10
0
 20
0
 39
0
 70
1
 66
1
  0
VERTEX
  8
0
 10
212.65383911132812
 20
239.61538696289062
 42
-0
  0
VERTEX
  8
0
 10
212.65383911132812
 20
288.61538696289062
 42
-1
  0
VERTEX
  8
0
 10
233.65383911132812
 20
288.61538696289062
 42
0
  0
VERTEX
  8
0
 10
233.65383911132812
 20
239.61538696289062
 42
-1
  0
SEQEND
  0
POLYLINE
  8
0
 10
0
 20
0
 39
0
 70
1
 66
1
  0
VERTEX
  8
0
 10
368.23077392578125
 20
190.07691955566406
 42
0
  0
VERTEX
  8
0
 10
278.23077392578125
 20
190.07691955566406
 42
0
  0
VERTEX
  8
0
 10
278.23077392578125
 20
10.076923370361328
 42
0
  0
VERTEX
  8
0
 10
368.23077392578125
 20
10.076923370361328
 42
0
  0
SEQEND
  0
POLYLINE
  8
0
 10
0
 20
0
 39
0
 70
1
 66
1
  0
VERTEX
  8
0
 10
312.73077392578125
 20
49.576923370361328
 42
-0
  0
VERTEX
  8
0
 10
312.73077392578125
 20
98.576919555664063
 42
-1
  0
VERTEX
  8
0
 10
333.73077392578125
 20
98.576919555664063
 42
0
  0
VERTEX
  8
0
 10
333.73077392578125
 20
49.576923370361328
 42
-1
  0
SEQEND
  0
POLYLINE
  8
0
 10
0
 20
0
 39
0
 70
1
 66
1
  0
VERTEX
  8
0
 10
368.23077392578125
 20
380.11538696289062
 42
0
  0
VERTEX
  8
0
 10
278.23077392578125
 20
380.11538696289062
 42
0
  0
VERTEX
  8
0
 10
278.23077392578125
 20
200.11538696289062
 42
0
  0
VERTEX
  8
0
 10
368.23077392578125
 20
200.11538696289062
 42
0
  0
SEQEND
  0
POLYLINE
  8
0
 10
0
 20
0
 39
0
 70
1
 66
1
  0
VERTEX
  8
0
 10
312.73077392578125
 20
239.61538696289062
 42
-0
  0
VERTEX
  8
0
 10
312.73077392578125
 20
288.61538696289062
 42
-1
  0
VERTEX
  8
0
 10
333.73077392578125
 20
288.61538696289062
 42
0
  0
VERTEX
  8
0
 10
333.73077392578125
 20
239.61538696289062
 42
-1
  0
SEQEND
  0
POLYLINE
  8
0
 10
0
 20
0
 39
0
 70
1
 66
1
  0
VERTEX
  8
0
 10
468.30767822265625
 20
190.07691955566406
 42
0
  0
VERTEX
  8
0
 10
378.30767822265625
 20
190.07691955566406
 42
0
  0
VERTEX
  8
0
 10
378.30767822265625
 20
10.076923370361328
 42
0
  0
VERTEX
  8
0
 10
468.30767822265625
 20
10.076923370361328
 42
0
  0
SEQEND
  0
POLYLINE
  8
0
 10
0
 20
0
 39
0
 70
1
 66
1
  0
VERTEX
  8
0
 10
412.80767822265625
 20
49.576923370361328
 42
-0
  0
VERTEX
  8
0
 10
412.80767822265625
 20
98.576919555664063
 42
-1
  0
VERTEX
  8
0
 10
433.80767822265625
 20
98.576919555664063
 42
0
  0
VERTEX
  8
0
 10
433.80767822265625
 20
49.576923370361328
 42
-1
  0
SEQEND
  0
POLYLINE
  8
0
 10
0
 20
0
 39
0
 70
1
 66
1
  0
VERTEX
  8
0
 10
468.30767822265625
 20
380.11538696289062
 42
0
  0
VERTEX
  8
0
 10
378.30767822265625
 20
380.11538696289062
 42
0
  0
VERTEX
  8
0
 10
378.30767822265625
 20
200.11538696289062
 42
0
  0
VERTEX
  8
0
 10
468.30767822265625
 20
200.11538696289062
 42
0
  0
SEQEND
  0
POLYLINE
  8
0
 10
0
 20
0
 39
0
 70
1
 66
1
  0
VERTEX
  8
0
 10
412.80767822265625
 20
239.61538696289062
 42
-0
  0
VERTEX
  8
0
 10
412.80767822265625
 20
288.61538696289062
 42
-1
  0
VERTEX
  8
0
 10
433.80767822265625
 20
288.61538696289062
 42
0
  0
VERTEX
  8
0
 10
433.80767822265625
 20
239.61538696289062
 42
-1
  0
SEQEND
  0
POLYLINE
  8
0
 10
0
 20
0
 39
0
 70
1
 66
1
  0
VERTEX
  8
0
 10
41.653846740722656
 20
49.153846740722656
 42
0
  0
VERTEX
  8
0
 10
111.65384674072266
 20
49.153846740722656
 42
0
  0
VERTEX
  8
0
 10
111.65384674072266
 20
129.15383911132812
 42
0
  0
VERTEX
  8
0
 10
41.653846740722656
 20
129.15383911132812
 42
0
  0
SEQEND
  0
POLYLINE
  8
0
 10
0
 20
0
 39
0
 70
1
 66
1
  0
VERTEX
  8
0
 10
94.153846740722656
 20
69.153846740722656
 42
0
  0
VERTEX
  8
0
 10
59.153846740722656
 20
69.153846740722656
 42
0
  0
VERTEX
  8
0
 10
59.153846740722656
 20
109.15384674072266
 42
0
  0
VERTEX
  8
0
 10
94.153846740722656
 20
109.15384674072266
 42
0
  0
SEQEND
  0
POLYLINE
  8
0
 10
0
 20
0
 39
0
 70
1
 66
1
  0
VERTEX
  8
0
 10
41.653846740722656
 20
232.19230651855469
 42
0
  0
VERTEX
  8
0
 10
111.65384674072266
 20
232.19230651855469
 42
0
  0
VERTEX
  8
0
 10
111.65384674072266
 20
312.19232177734375
 42
0
  0
VERTEX
  8
0
 10
41.653846740722656
 20
312.19232177734375
 42
0
  0
SEQEND
  0
POLYLINE
  8
0
 10
0
 20
0
 39
0
 70
1
 66
1
  0
VERTEX
  8
0
 10
94.153846740722656
 20
252.19230651855469
 42
0
  0
VERTEX
  8
0
 10
59.153846740722656
 20
252.19230651855469
 42
0
  0
VERTEX
  8
0
 10
59.153846740722656
 20
292.19232177734375
 42
0
  0
VERTEX
  8
0
 10
94.153846740722656
 20
292.19232177734375
 42
0
  0
SEQEND
  0
ENDSEC
  0
EOF
