  0
SECTION
  2
ENTITIES
  0
POLYLINE
  8
0
 10
0
 20
0
 39
0
 70
1
 66
1
  0
VERTEX
  8
0
 10
0
 20
0
 42
-0
  0
VERTEX
  8
0
 10
1800
 20
0
 42
-0
  0
VERTEX
  8
0
 10
1800
 20
800
 42
-0
  0
VERTEX
  8
0
 10
0
 20
800
 42
-0
  0
SEQEND
  0
POLYLINE
  8
0
 10
0
 20
0
 39
0
 70
1
 66
1
  0
VERTEX
  8
0
 10
100.22000000000003
 20
350.22000000000003
 42
-0
  0
VERTEX
  8
0
 10
1430.22
 20
350.22000000000003
 42
-0
  0
VERTEX
  8
0
 10
1430.22
 20
10.220000000000027
 42
-0
  0
VERTEX
  8
0
 10
100.22000000000003
 20
10.220000000000027
 42
-0
  0
VERTEX
  8
0
 10
100.22000000000003
 20
40.220000000000027
 42
0.41421356797218323
  0
VERTEX
  8
0
 10
80.220000000000027
 20
60.220000000000027
 42
-0
  0
VERTEX
  8
0
 10
10.220000000000027
 20
60.220000000000027
 42
-0
  0
VERTEX
  8
0
 10
10.220000000000027
 20
300.22000000000003
 42
-0
  0
VERTEX
  8
0
 10
80.220000000000027
 20
300.22000000000003
 42
0.41421356797218323
  0
VERTEX
  8
0
 10
100.22000000000003
 20
320.22000000000003
 42
-0
  0
SEQEND
  0
POLYLINE
  8
0
 10
0
 20
0
 39
0
 70
1
 66
1
  0
VERTEX
  8
0
 10
345.22000000000003
 20
265.22000000000003
 42
1
  0
VERTEX
  8
0
 10
345.22000000000003
 20
315.22000000000003
 42
0
  0
VERTEX
  8
0
 10
275.22000000000003
 20
315.22000000000003
 42
1
  0
VERTEX
  8
0
 10
275.22000000000003
 20
265.22000000000003
 42
0
  0
SEQEND
  0
POLYLINE
  8
0
 10
0
 20
0
 39
0
 70
1
 66
1
  0
VERTEX
  8
0
 10
1165.22
 20
265.22000000000003
 42
1
  0
VERTEX
  8
0
 10
1165.22
 20
315.22000000000003
 42
0
  0
VERTEX
  8
0
 10
1095.22
 20
315.22000000000003
 42
1
  0
VERTEX
  8
0
 10
1095.22
 20
265.22000000000003
 42
0
  0
SEQEND
  0
POLYLINE
  8
0
 10
0
 20
0
 39
0
 70
1
 66
1
  0
VERTEX
  8
0
 10
10.220000000000027
 20
360.31999999999994
 42
-0
  0
VERTEX
  8
0
 10
10.220000000000027
 20
700.31999999999994
 42
-0
  0
VERTEX
  8
0
 10
1340.22
 20
700.31999999999994
 42
-0
  0
VERTEX
  8
0
 10
1340.22
 20
670.31999999999994
 42
0.41421356797218323
  0
VERTEX
  8
0
 10
1360.22
 20
650.31999999999994
 42
-0
  0
VERTEX
  8
0
 10
1430.22
 20
650.31999999999994
 42
-0
  0
VERTEX
  8
0
 10
1430.22
 20
410.31999999999994
 42
-0
  0
VERTEX
  8
0
 10
1360.22
 20
410.31999999999994
 42
0.41421356797218323
  0
VERTEX
  8
0
 10
1340.22
 20
390.31999999999994
 42
-0
  0
VERTEX
  8
0
 10
1340.22
 20
360.31999999999994
 42
-0
  0
SEQEND
  0
POLYLINE
  8
0
 10
0
 20
0
 39
0
 70
1
 66
1
  0
VERTEX
  8
0
 10
275.22000000000003
 20
665.31999999999994
 42
1
  0
VERTEX
  8
0
 10
275.22000000000003
 20
615.31999999999994
 42
0
  0
VERTEX
  8
0
 10
345.22000000000003
 20
615.31999999999994
 42
1
  0
VERTEX
  8
0
 10
345.22000000000003
 20
665.31999999999994
 42
0
  0
SEQEND
  0
POLYLINE
  8
0
 10
0
 20
0
 39
0
 70
1
 66
1
  0
VERTEX
  8
0
 10
1095.22
 20
665.31999999999994
 42
1
  0
VERTEX
  8
0
 10
1095.22
 20
615.31999999999994
 42
0
  0
VERTEX
  8
0
 10
1165.22
 20
615.31999999999994
 42
1
  0
VERTEX
  8
0
 10
1165.22
 20
665.31999999999994
 42
0
  0
SEQEND
  0
POLYLINE
  8
0
 10
0
 20
0
 39
0
 70
1
 66
1
  0
VERTEX
  8
0
 10
1595.5
 20
488.04750000000058
 42
-0
  0
VERTEX
  8
0
 10
1595.5
 20
208.04750000000058
 42
-0
  0
VERTEX
  8
0
 10
1555.5
 20
208.04750000000058
 42
-0
  0
VERTEX
  8
0
 10
1440.5
 20
421.04750000000058
 42
0
  0
VERTEX
  8
0
 10
1440.5
 20
488.04750000000058
 42
-0.41421356797218323
  0
VERTEX
  8
0
 10
1475.5
 20
523.04750000000058
 42
0
  0
VERTEX
  8
0
 10
1560.5
 20
523.04750000000058
 42
-0.41421356797218323
  0
SEQEND
  0
POLYLINE
  8
0
 10
0
 20
0
 39
0
 70
1
 66
1
  0
VERTEX
  8
0
 10
1515.5
 20
504.04750000000058
 42
-0
  0
VERTEX
  8
0
 10
1475.5
 20
504.04750000000058
 42
0.41421356797218323
  0
VERTEX
  8
0
 10
1459.5
 20
488.04750000000058
 42
0.41421356797218323
  0
VERTEX
  8
0
 10
1475.5
 20
472.04750000000058
 42
0
  0
VERTEX
  8
0
 10
1515.5
 20
472.04750000000058
 42
0.41421356797218323
  0
VERTEX
  8
0
 10
1531.5
 20
488.04750000000058
 42
0.41421356797218323
  0
SEQEND
  0
POLYLINE
  8
0
 10
0
 20
0
 39
0
 70
1
 66
1
  0
VERTEX
  8
0
 10
1440.4999999999982
 20
45.219999999999345
 42
-0
  0
VERTEX
  8
0
 10
1440.4999999999982
 20
325.21999999999935
 42
-0
  0
VERTEX
  8
0
 10
1480.4999999999982
 20
325.21999999999935
 42
-0
  0
VERTEX
  8
0
 10
1595.4999999999982
 20
112.21999999999935
 42
0
  0
VERTEX
  8
0
 10
1595.4999999999982
 20
45.219999999999345
 42
-0.41421356797218323
  0
VERTEX
  8
0
 10
1560.4999999999982
 20
10.219999999999345
 42
0
  0
VERTEX
  8
0
 10
1475.4999999999982
 20
10.219999999999345
 42
-0.41421356797218323
  0
SEQEND
  0
POLYLINE
  8
0
 10
0
 20
0
 39
0
 70
1
 66
1
  0
VERTEX
  8
0
 10
1520.4999999999982
 20
29.219999999999345
 42
-0
  0
VERTEX
  8
0
 10
1560.4999999999982
 20
29.219999999999345
 42
0.41421356797218323
  0
VERTEX
  8
0
 10
1576.4999999999982
 20
45.219999999999345
 42
0.41421356797218323
  0
VERTEX
  8
0
 10
1560.4999999999982
 20
61.219999999999345
 42
0
  0
VERTEX
  8
0
 10
1520.4999999999982
 20
61.219999999999345
 42
0.41421356797218323
  0
VERTEX
  8
0
 10
1504.4999999999982
 20
45.219999999999345
 42
0.41421356797218323
  0
SEQEND
  0
POLYLINE
  8
0
 10
0
 20
0
 39
0
 70
1
 66
1
  0
VERTEX
  8
0
 10
1760.7400000000016
 20
488.04750000000058
 42
-0
  0
VERTEX
  8
0
 10
1760.7400000000016
 20
208.04750000000058
 42
-0
  0
VERTEX
  8
0
 10
1720.7400000000016
 20
208.04750000000058
 42
-0
  0
VERTEX
  8
0
 10
1605.7400000000016
 20
421.04750000000058
 42
0
  0
VERTEX
  8
0
 10
1605.7400000000016
 20
488.04750000000058
 42
-0.41421356797218323
  0
VERTEX
  8
0
 10
1640.7400000000016
 20
523.04750000000058
 42
0
  0
VERTEX
  8
0
 10
1725.7400000000016
 20
523.04750000000058
 42
-0.41421356797218323
  0
SEQEND
  0
POLYLINE
  8
0
 10
0
 20
0
 39
0
 70
1
 66
1
  0
VERTEX
  8
0
 10
1680.7400000000016
 20
504.04750000000058
 42
-0
  0
VERTEX
  8
0
 10
1640.7400000000016
 20
504.04750000000058
 42
0.41421356797218323
  0
VERTEX
  8
0
 10
1624.7400000000016
 20
488.04750000000058
 42
0.41421356797218323
  0
VERTEX
  8
0
 10
1640.7400000000016
 20
472.04750000000058
 42
0
  0
VERTEX
  8
0
 10
1680.7400000000016
 20
472.04750000000058
 42
0.41421356797218323
  0
VERTEX
  8
0
 10
1696.7400000000016
 20
488.04750000000058
 42
0.41421356797218323
  0
SEQEND
  0
POLYLINE
  8
0
 10
0
 20
0
 39
0
 70
1
 66
1
  0
VERTEX
  8
0
 10
1605.7399999999998
 20
45.219999999999345
 42
-0
  0
VERTEX
  8
0
 10
1605.7399999999998
 20
325.21999999999935
 42
-0
  0
VERTEX
  8
0
 10
1645.7399999999998
 20
325.21999999999935
 42
-0
  0
VERTEX
  8
0
 10
1760.7399999999998
 20
112.21999999999935
 42
0
  0
VERTEX
  8
0
 10
1760.7399999999998
 20
45.219999999999345
 42
-0.41421356797218323
  0
VERTEX
  8
0
 10
1725.7399999999998
 20
10.219999999999345
 42
0
  0
VERTEX
  8
0
 10
1640.7399999999998
 20
10.219999999999345
 42
-0.41421356797218323
  0
SEQEND
  0
POLYLINE
  8
0
 10
0
 20
0
 39
0
 70
1
 66
1
  0
VERTEX
  8
0
 10
1685.7399999999998
 20
29.219999999999345
 42
-0
  0
VERTEX
  8
0
 10
1725.7399999999998
 20
29.219999999999345
 42
0.41421356797218323
  0
VERTEX
  8
0
 10
1741.7399999999998
 20
45.219999999999345
 42
0.41421356797218323
  0
VERTEX
  8
0
 10
1725.7399999999998
 20
61.219999999999345
 42
0
  0
VERTEX
  8
0
 10
1685.7399999999998
 20
61.219999999999345
 42
0.41421356797218323
  0
VERTEX
  8
0
 10
1669.7399999999998
 20
45.219999999999345
 42
0.41421356797218323
  0
SEQEND
  0
POLYLINE
  8
0
 10
0
 20
0
 39
0
 70
1
 66
1
  0
VERTEX
  8
0
 10
1471.5400000000009
 20
789.45999999999913
 42
-0
  0
VERTEX
  8
0
 10
1751.5400000000009
 20
789.45999999999913
 42
-0
  0
VERTEX
  8
0
 10
1751.5400000000009
 20
749.45999999999913
 42
-0
  0
VERTEX
  8
0
 10
1538.5400000000009
 20
634.45999999999913
 42
0
  0
VERTEX
  8
0
 10
1471.5400000000009
 20
634.45999999999913
 42
-0.41421356797218323
  0
VERTEX
  8
0
 10
1436.5400000000009
 20
669.45999999999913
 42
0
  0
VERTEX
  8
0
 10
1436.5400000000009
 20
754.45999999999913
 42
-0.41421356797218323
  0
SEQEND
  0
POLYLINE
  8
0
 10
0
 20
0
 39
0
 70
1
 66
1
  0
VERTEX
  8
0
 10
1455.5400000000009
 20
709.45999999999913
 42
-0
  0
VERTEX
  8
0
 10
1455.5400000000009
 20
669.45999999999913
 42
0.41421356797218323
  0
VERTEX
  8
0
 10
1471.5400000000009
 20
653.45999999999913
 42
0.41421356797218323
  0
VERTEX
  8
0
 10
1487.5400000000009
 20
669.45999999999913
 42
0
  0
VERTEX
  8
0
 10
1487.5400000000009
 20
709.45999999999913
 42
0.41421356797218323
  0
VERTEX
  8
0
 10
1471.5400000000009
 20
725.45999999999913
 42
0.41421356797218323
  0
SEQEND
  0
POLYLINE
  8
0
 10
0
 20
0
 39
0
 70
1
 66
1
  0
VERTEX
  8
0
 10
1726.9799999999996
 20
533.1200000000008
 42
-0
  0
VERTEX
  8
0
 10
1446.9799999999996
 20
533.1200000000008
 42
-0
  0
VERTEX
  8
0
 10
1446.9799999999996
 20
573.1200000000008
 42
-0
  0
VERTEX
  8
0
 10
1659.9799999999996
 20
688.1200000000008
 42
0
  0
VERTEX
  8
0
 10
1726.9799999999996
 20
688.1200000000008
 42
-0.41421356797218323
  0
VERTEX
  8
0
 10
1761.9799999999996
 20
653.1200000000008
 42
0
  0
VERTEX
  8
0
 10
1761.9799999999996
 20
568.1200000000008
 42
-0.41421356797218323
  0
SEQEND
  0
POLYLINE
  8
0
 10
0
 20
0
 39
0
 70
1
 66
1
  0
VERTEX
  8
0
 10
1742.9799999999996
 20
613.1200000000008
 42
-0
  0
VERTEX
  8
0
 10
1742.9799999999996
 20
653.1200000000008
 42
0.41421356797218323
  0
VERTEX
  8
0
 10
1726.9799999999996
 20
669.1200000000008
 42
0.41421356797218323
  0
VERTEX
  8
0
 10
1710.9799999999996
 20
653.1200000000008
 42
0
  0
VERTEX
  8
0
 10
1710.9799999999996
 20
613.1200000000008
 42
0.41421356797218323
  0
VERTEX
  8
0
 10
1726.9799999999996
 20
597.1200000000008
 42
0.41421356797218323
  0
SEQEND
  0
ENDSEC
  0
EOF
