  0
SECTION
  2
ENTITIES
  0
POLYLINE
  8
0
 10
0
 20
0
 39
0
 70
1
 66
1
  0
VERTEX
  8
0
 10
0
 20
0
 42
-0
  0
VERTEX
  8
0
 10
1200
 20
0
 42
-0
  0
VERTEX
  8
0
 10
1200
 20
900
 42
-0
  0
VERTEX
  8
0
 10
0
 20
900
 42
-0
  0
SEQEND
  0
POLYLINE
  8
0
 10
0
 20
0
 39
0
 70
1
 66
1
  0
VERTEX
  8
0
 10
10.169230769231035
 20
88.178996394231945
 42
-0
  0
VERTEX
  8
0
 10
10.169230769231035
 20
724.70829326923194
 42
0
  0
VERTEX
  8
0
 10
135.16923076923104
 20
646.69852764423194
 42
0
  0
VERTEX
  8
0
 10
135.16923076923104
 20
10.169230769231945
 42
-0
  0
SEQEND
  0
POLYLINE
  8
0
 10
0
 20
0
 39
0
 70
1
 66
1
  0
VERTEX
  8
0
 10
145.30769230769238
 20
88.178996394231945
 42
-0
  0
VERTEX
  8
0
 10
145.30769230769238
 20
724.70829326923194
 42
0
  0
VERTEX
  8
0
 10
270.30769230769238
 20
646.69852764423194
 42
0
  0
VERTEX
  8
0
 10
270.30769230769238
 20
10.169230769231945
 42
-0
  0
SEQEND
  0
POLYLINE
  8
0
 10
0
 20
0
 39
0
 70
1
 66
1
  0
VERTEX
  8
0
 10
280.44615384615372
 20
88.178996394231945
 42
-0
  0
VERTEX
  8
0
 10
280.44615384615372
 20
724.70829326923194
 42
0
  0
VERTEX
  8
0
 10
405.44615384615372
 20
646.69852764423194
 42
0
  0
VERTEX
  8
0
 10
405.44615384615372
 20
10.169230769231945
 42
-0
  0
SEQEND
  0
POLYLINE
  8
0
 10
0
 20
0
 39
0
 70
1
 66
1
  0
VERTEX
  8
0
 10
415.58461538461506
 20
88.178996394231945
 42
-0
  0
VERTEX
  8
0
 10
415.58461538461506
 20
724.70829326923194
 42
0
  0
VERTEX
  8
0
 10
540.58461538461506
 20
646.69852764423194
 42
0
  0
VERTEX
  8
0
 10
540.58461538461506
 20
10.169230769231945
 42
-0
  0
SEQEND
  0
POLYLINE
  8
0
 10
0
 20
0
 39
0
 70
1
 66
1
  0
VERTEX
  8
0
 10
550.72307692307641
 20
88.178996394231945
 42
-0
  0
VERTEX
  8
0
 10
550.72307692307641
 20
724.70829326923194
 42
0
  0
VERTEX
  8
0
 10
675.72307692307641
 20
646.69852764423194
 42
0
  0
VERTEX
  8
0
 10
675.72307692307641
 20
10.169230769231945
 42
-0
  0
SEQEND
  0
POLYLINE
  8
0
 10
0
 20
0
 39
0
 70
1
 66
1
  0
VERTEX
  8
0
 10
935.86153846153843
 20
10.169230769230769
 42
0
  0
VERTEX
  8
0
 10
685.86153846153843
 20
10.169230769230769
 42
0
  0
VERTEX
  8
0
 10
685.86153846153843
 20
260.16923076923075
 42
0
  0
VERTEX
  8
0
 10
935.86153846153843
 20
260.16923076923075
 42
0
  0
SEQEND
  0
POLYLINE
  8
0
 10
0
 20
0
 39
0
 70
1
 66
1
  0
VERTEX
  8
0
 10
839.36153846153843
 20
140.16923076923078
 42
1
  0
VERTEX
  8
0
 10
782.36153846153843
 20
140.16923076923078
 42
1
  0
SEQEND
  0
POLYLINE
  8
0
 10
0
 20
0
 39
0
 70
1
 66
1
  0
VERTEX
  8
0
 10
935.86153846153843
 20
270.19999999999999
 42
0
  0
VERTEX
  8
0
 10
685.86153846153843
 20
270.19999999999999
 42
0
  0
VERTEX
  8
0
 10
685.86153846153843
 20
520.20000000000005
 42
0
  0
VERTEX
  8
0
 10
935.86153846153843
 20
520.20000000000005
 42
0
  0
SEQEND
  0
POLYLINE
  8
0
 10
0
 20
0
 39
0
 70
1
 66
1
  0
VERTEX
  8
0
 10
839.36153846153843
 20
400.19999999999999
 42
1
  0
VERTEX
  8
0
 10
782.36153846153843
 20
400.19999999999999
 42
1
  0
SEQEND
  0
POLYLINE
  8
0
 10
0
 20
0
 39
0
 70
1
 66
1
  0
VERTEX
  8
0
 10
935.86153846153843
 20
530.23076923076917
 42
0
  0
VERTEX
  8
0
 10
685.86153846153843
 20
530.23076923076917
 42
0
  0
VERTEX
  8
0
 10
685.86153846153843
 20
780.23076923076917
 42
0
  0
VERTEX
  8
0
 10
935.86153846153843
 20
780.23076923076917
 42
0
  0
SEQEND
  0
POLYLINE
  8
0
 10
0
 20
0
 39
0
 70
1
 66
1
  0
VERTEX
  8
0
 10
839.36153846153843
 20
660.23076923076917
 42
1
  0
VERTEX
  8
0
 10
782.36153846153843
 20
660.23076923076917
 42
1
  0
SEQEND
  0
POLYLINE
  8
0
 10
0
 20
0
 39
0
 70
1
 66
1
  0
VERTEX
  8
0
 10
945.98461538461538
 20
90.169230769230765
 42
-0
  0
VERTEX
  8
0
 10
945.98461538461538
 20
186.16923076923075
 42
-0
  0
VERTEX
  8
0
 10
1025.9846153846154
 20
266.16923076923075
 42
-0
  0
VERTEX
  8
0
 10
1160.9846153846154
 20
266.16923076923075
 42
-0
  0
VERTEX
  8
0
 10
1160.9846153846154
 20
10.169230769230776
 42
-0
  0
VERTEX
  8
0
 10
1025.9846153846154
 20
10.169230769230769
 42
-0
  0
SEQEND
  0
POLYLINE
  8
0
 10
0
 20
0
 39
0
 70
1
 66
1
  0
VERTEX
  8
0
 10
945.98461538461538
 20
356.19999999999999
 42
-0
  0
VERTEX
  8
0
 10
945.98461538461538
 20
452.19999999999999
 42
-0
  0
VERTEX
  8
0
 10
1025.9846153846154
 20
532.20000000000005
 42
-0
  0
VERTEX
  8
0
 10
1160.9846153846154
 20
532.20000000000005
 42
-0
  0
VERTEX
  8
0
 10
1160.9846153846154
 20
276.19999999999999
 42
-0
  0
VERTEX
  8
0
 10
1025.9846153846154
 20
276.19999999999999
 42
-0
  0
SEQEND
  0
POLYLINE
  8
0
 10
0
 20
0
 39
0
 70
1
 66
1
  0
VERTEX
  8
0
 10
945.98461538461538
 20
622.23076923076917
 42
-0
  0
VERTEX
  8
0
 10
945.98461538461538
 20
718.23076923076917
 42
-0
  0
VERTEX
  8
0
 10
1025.9846153846154
 20
798.23076923076917
 42
-0
  0
VERTEX
  8
0
 10
1160.9846153846154
 20
798.23076923076917
 42
-0
  0
VERTEX
  8
0
 10
1160.9846153846154
 20
542.23076923076917
 42
-0
  0
VERTEX
  8
0
 10
1025.9846153846154
 20
542.23076923076917
 42
-0
  0
SEQEND
  0
POLYLINE
  8
0
 10
0
 20
0
 39
0
 70
1
 66
1
  0
VERTEX
  8
0
 10
180.16923076923078
 20
819.78461538461534
 42
-0
  0
VERTEX
  8
0
 10
210.16923076923078
 20
819.78461538461534
 42
-0
  0
VERTEX
  8
0
 10
210.16923076923078
 20
744.78461538461534
 42
0
  0
VERTEX
  8
0
 10
200.16923076923078
 20
734.78461538461534
 42
-0
  0
VERTEX
  8
0
 10
20.169230769230779
 20
734.78461538461534
 42
-0
  0
VERTEX
  8
0
 10
10.169230769230779
 20
744.78461538461534
 42
-0
  0
VERTEX
  8
0
 10
10.169230769230779
 20
764.78461538461534
 42
0
  0
SEQEND
  0
POLYLINE
  8
0
 10
0
 20
0
 39
0
 70
1
 66
1
  0
VERTEX
  8
0
 10
40.169230769230765
 20
785.2476153846153
 42
-0
  0
VERTEX
  8
0
 10
10.169230769230769
 20
785.2476153846153
 42
-0
  0
VERTEX
  8
0
 10
10.169230769230778
 20
860.2476153846153
 42
0
  0
VERTEX
  8
0
 10
20.169230769230779
 20
870.2476153846153
 42
-0
  0
VERTEX
  8
0
 10
200.16923076923078
 20
870.2476153846153
 42
-0
  0
VERTEX
  8
0
 10
210.16923076923078
 20
860.2476153846153
 42
-0
  0
VERTEX
  8
0
 10
210.16923076923078
 20
840.2476153846153
 42
0
  0
SEQEND
  0
POLYLINE
  8
0
 10
0
 20
0
 39
0
 70
1
 66
1
  0
VERTEX
  8
0
 10
390.35384615384612
 20
819.78461538461534
 42
-0
  0
VERTEX
  8
0
 10
420.35384615384612
 20
819.78461538461534
 42
-0
  0
VERTEX
  8
0
 10
420.35384615384612
 20
744.78461538461534
 42
0
  0
VERTEX
  8
0
 10
410.35384615384612
 20
734.78461538461534
 42
-0
  0
VERTEX
  8
0
 10
230.35384615384612
 20
734.78461538461534
 42
-0
  0
VERTEX
  8
0
 10
220.35384615384612
 20
744.78461538461534
 42
-0
  0
VERTEX
  8
0
 10
220.35384615384612
 20
764.78461538461534
 42
0
  0
SEQEND
  0
POLYLINE
  8
0
 10
0
 20
0
 39
0
 70
1
 66
1
  0
VERTEX
  8
0
 10
250.35384615384612
 20
785.2476153846153
 42
-0
  0
VERTEX
  8
0
 10
220.35384615384612
 20
785.2476153846153
 42
-0
  0
VERTEX
  8
0
 10
220.35384615384612
 20
860.2476153846153
 42
0
  0
VERTEX
  8
0
 10
230.35384615384612
 20
870.2476153846153
 42
-0
  0
VERTEX
  8
0
 10
410.35384615384612
 20
870.2476153846153
 42
-0
  0
VERTEX
  8
0
 10
420.35384615384612
 20
860.2476153846153
 42
-0
  0
VERTEX
  8
0
 10
420.35384615384612
 20
840.2476153846153
 42
0
  0
SEQEND
  0
POLYLINE
  8
0
 10
0
 20
0
 39
0
 70
1
 66
1
  0
VERTEX
  8
0
 10
600.53846153846143
 20
819.78461538461534
 42
-0
  0
VERTEX
  8
0
 10
630.53846153846143
 20
819.78461538461534
 42
-0
  0
VERTEX
  8
0
 10
630.53846153846143
 20
744.78461538461534
 42
0
  0
VERTEX
  8
0
 10
620.53846153846143
 20
734.78461538461534
 42
-0
  0
VERTEX
  8
0
 10
440.53846153846143
 20
734.78461538461534
 42
-0
  0
VERTEX
  8
0
 10
430.53846153846143
 20
744.78461538461534
 42
-0
  0
VERTEX
  8
0
 10
430.53846153846143
 20
764.78461538461534
 42
0
  0
SEQEND
  0
POLYLINE
  8
0
 10
0
 20
0
 39
0
 70
1
 66
1
  0
VERTEX
  8
0
 10
460.53846153846143
 20
785.2476153846153
 42
-0
  0
VERTEX
  8
0
 10
430.53846153846143
 20
785.2476153846153
 42
-0
  0
VERTEX
  8
0
 10
430.53846153846143
 20
860.2476153846153
 42
0
  0
VERTEX
  8
0
 10
440.53846153846143
 20
870.2476153846153
 42
-0
  0
VERTEX
  8
0
 10
620.53846153846143
 20
870.2476153846153
 42
-0
  0
VERTEX
  8
0
 10
630.53846153846143
 20
860.2476153846153
 42
-0
  0
VERTEX
  8
0
 10
630.53846153846143
 20
840.2476153846153
 42
0
  0
SEQEND
  0
POLYLINE
  8
0
 10
0
 20
0
 39
0
 70
1
 66
1
  0
VERTEX
  8
0
 10
640.72307692307686
 20
880.26153846153841
 42
-0
  0
VERTEX
  8
0
 10
840.72307692307686
 20
880.26153846153841
 42
-0
  0
VERTEX
  8
0
 10
840.72307692307686
 20
790.26153846153841
 42
-0
  0
VERTEX
  8
0
 10
640.72307692307686
 20
790.26153846153841
 42
-0
  0
SEQEND
  0
POLYLINE
  8
0
 10
0
 20
0
 39
0
 70
1
 66
1
  0
VERTEX
  8
0
 10
780.22307692307686
 20
824.76153846153841
 42
1
  0
VERTEX
  8
0
 10
780.22307692307686
 20
845.76153846153841
 42
-0
  0
VERTEX
  8
0
 10
731.22307692307686
 20
845.76153846153841
 42
1
  0
VERTEX
  8
0
 10
731.22307692307686
 20
824.76153846153841
 42
0
  0
SEQEND
  0
POLYLINE
  8
0
 10
0
 20
0
 39
0
 70
1
 66
1
  0
VERTEX
  8
0
 10
880.90769230769229
 20
790.26153846153841
 42
-0
  0
VERTEX
  8
0
 10
850.90769230769229
 20
790.26153846153841
 42
-0
  0
VERTEX
  8
0
 10
850.90769230769229
 20
865.26153846153841
 42
0
  0
VERTEX
  8
0
 10
860.90769230769229
 20
875.26153846153841
 42
-0
  0
VERTEX
  8
0
 10
1040.9076923076923
 20
875.26153846153841
 42
-0
  0
VERTEX
  8
0
 10
1050.9076923076923
 20
865.26153846153841
 42
-0
  0
VERTEX
  8
0
 10
1050.9076923076923
 20
845.26153846153841
 42
0
  0
SEQEND
  0
ENDSEC
  0
EOF
