  0
SECTION
  2
ENTITIES
  0
POLYLINE
  8
0
 10
0
 20
0
 39
0
 70
1
 66
1
  0
VERTEX
  8
0
 10
0
 20
0
 42
-0
  0
VERTEX
  8
0
 10
800
 20
0
 42
-0
  0
VERTEX
  8
0
 10
800
 20
500
 42
-0
  0
VERTEX
  8
0
 10
0
 20
500
 42
-0
  0
SEQEND
  0
POLYLINE
  8
0
 10
0
 20
0
 39
0
 70
1
 66
1
  0
VERTEX
  8
0
 10
10.107692718505859
 20
337.25619506835937
 42
0
  0
VERTEX
  8
0
 10
10.107692718505859
 20
31.426216125488281
 42
-0
  0
VERTEX
  8
0
 10
179.10769653320312
 20
337.25619506835937
 42
0
  0
SEQEND
  0
POLYLINE
  8
0
 10
0
 20
0
 39
0
 70
1
 66
1
  0
VERTEX
  8
0
 10
179.10769653320312
 20
10.107692718505859
 42
0
  0
VERTEX
  8
0
 10
179.10769653320312
 20
315.93768310546875
 42
-0
  0
VERTEX
  8
0
 10
10.107692718505859
 20
10.107692718505859
 42
0
  0
SEQEND
  0
POLYLINE
  8
0
 10
0
 20
0
 39
0
 70
1
 66
1
  0
VERTEX
  8
0
 10
189.18461608886719
 20
337.25619506835937
 42
0
  0
VERTEX
  8
0
 10
189.18461608886719
 20
31.426216125488281
 42
-0
  0
VERTEX
  8
0
 10
358.18460083007812
 20
337.25619506835937
 42
0
  0
SEQEND
  0
POLYLINE
  8
0
 10
0
 20
0
 39
0
 70
1
 66
1
  0
VERTEX
  8
0
 10
358.18460083007812
 20
10.107692718505859
 42
0
  0
VERTEX
  8
0
 10
358.18460083007812
 20
315.93768310546875
 42
-0
  0
VERTEX
  8
0
 10
189.18461608886719
 20
10.107692718505859
 42
0
  0
SEQEND
  0
POLYLINE
  8
0
 10
0
 20
0
 39
0
 70
1
 66
1
  0
VERTEX
  8
0
 10
320.10769653320312
 20
347.27691650390625
 42
0
  0
VERTEX
  8
0
 10
340.10769653320312
 20
487.27691650390625
 42
0
  0
VERTEX
  8
0
 10
10.107692718505859
 20
487.27691650390625
 42
-0
  0
VERTEX
  8
0
 10
30.107692718505859
 20
347.27691650390625
 42
0
  0
SEQEND
  0
POLYLINE
  8
0
 10
0
 20
0
 39
0
 70
1
 66
1
  0
VERTEX
  8
0
 10
393.26153564453125
 20
10.107692718505859
 42
-0
  0
VERTEX
  8
0
 10
498.26153564453125
 20
175.10769653320312
 42
0
  0
VERTEX
  8
0
 10
498.26153564453125
 20
195.10769653320312
 42
0
  0
VERTEX
  8
0
 10
378.26153564453125
 20
195.10769653320312
 42
0
  0
VERTEX
  8
0
 10
368.26153564453125
 20
185.10769653320312
 42
0
  0
VERTEX
  8
0
 10
368.26153564453125
 20
10.107692718505859
 42
0
  0
SEQEND
  0
POLYLINE
  8
0
 10
0
 20
0
 39
0
 70
1
 66
1
  0
VERTEX
  8
0
 10
523.0450439453125
 20
195.10769653320312
 42
-0
  0
VERTEX
  8
0
 10
418.0450439453125
 20
30.107692718505859
 42
0
  0
VERTEX
  8
0
 10
418.0450439453125
 20
10.107692718505859
 42
0
  0
VERTEX
  8
0
 10
538.0450439453125
 20
10.107692718505859
 42
0
  0
VERTEX
  8
0
 10
548.0450439453125
 20
20.107692718505859
 42
0
  0
VERTEX
  8
0
 10
548.0450439453125
 20
195.10769653320312
 42
0
  0
SEQEND
  0
POLYLINE
  8
0
 10
0
 20
0
 39
0
 70
1
 66
1
  0
VERTEX
  8
0
 10
393.26153564453125
 20
205.12307739257812
 42
-0
  0
VERTEX
  8
0
 10
498.26153564453125
 20
370.12307739257812
 42
0
  0
VERTEX
  8
0
 10
498.26153564453125
 20
390.12307739257812
 42
0
  0
VERTEX
  8
0
 10
378.26153564453125
 20
390.12307739257812
 42
0
  0
VERTEX
  8
0
 10
368.26153564453125
 20
380.12307739257812
 42
0
  0
VERTEX
  8
0
 10
368.26153564453125
 20
205.12307739257812
 42
0
  0
SEQEND
  0
POLYLINE
  8
0
 10
0
 20
0
 39
0
 70
1
 66
1
  0
VERTEX
  8
0
 10
523.0450439453125
 20
390.12307739257812
 42
-0
  0
VERTEX
  8
0
 10
418.0450439453125
 20
225.12307739257812
 42
0
  0
VERTEX
  8
0
 10
418.0450439453125
 20
205.12307739257812
 42
0
  0
VERTEX
  8
0
 10
538.0450439453125
 20
205.12307739257812
 42
0
  0
VERTEX
  8
0
 10
548.0450439453125
 20
215.12307739257812
 42
0
  0
VERTEX
  8
0
 10
548.0450439453125
 20
390.12307739257812
 42
0
  0
SEQEND
  0
POLYLINE
  8
0
 10
0
 20
0
 39
0
 70
1
 66
1
  0
VERTEX
  8
0
 10
583.107666015625
 20
10.107692718505859
 42
-0
  0
VERTEX
  8
0
 10
688.107666015625
 20
175.10769653320312
 42
0
  0
VERTEX
  8
0
 10
688.107666015625
 20
195.10769653320312
 42
0
  0
VERTEX
  8
0
 10
568.107666015625
 20
195.10769653320312
 42
0
  0
VERTEX
  8
0
 10
558.107666015625
 20
185.10769653320312
 42
0
  0
VERTEX
  8
0
 10
558.107666015625
 20
10.107692718505859
 42
0
  0
SEQEND
  0
POLYLINE
  8
0
 10
0
 20
0
 39
0
 70
1
 66
1
  0
VERTEX
  8
0
 10
712.89117431640625
 20
195.10769653320312
 42
-0
  0
VERTEX
  8
0
 10
607.89117431640625
 20
30.107692718505859
 42
0
  0
VERTEX
  8
0
 10
607.89117431640625
 20
10.107692718505859
 42
0
  0
VERTEX
  8
0
 10
727.89117431640625
 20
10.107692718505859
 42
0
  0
VERTEX
  8
0
 10
737.89117431640625
 20
20.107692718505859
 42
0
  0
VERTEX
  8
0
 10
737.89117431640625
 20
195.10769653320312
 42
0
  0
SEQEND
  0
POLYLINE
  8
0
 10
0
 20
0
 39
0
 70
1
 66
1
  0
VERTEX
  8
0
 10
583.107666015625
 20
205.12307739257812
 42
-0
  0
VERTEX
  8
0
 10
688.107666015625
 20
370.12307739257812
 42
0
  0
VERTEX
  8
0
 10
688.107666015625
 20
390.12307739257812
 42
0
  0
VERTEX
  8
0
 10
568.107666015625
 20
390.12307739257812
 42
0
  0
VERTEX
  8
0
 10
558.107666015625
 20
380.12307739257812
 42
0
  0
VERTEX
  8
0
 10
558.107666015625
 20
205.12307739257812
 42
0
  0
SEQEND
  0
POLYLINE
  8
0
 10
0
 20
0
 39
0
 70
1
 66
1
  0
VERTEX
  8
0
 10
712.89117431640625
 20
390.12307739257812
 42
-0
  0
VERTEX
  8
0
 10
607.89117431640625
 20
225.12307739257812
 42
0
  0
VERTEX
  8
0
 10
607.89117431640625
 20
205.12307739257812
 42
0
  0
VERTEX
  8
0
 10
727.89117431640625
 20
205.12307739257812
 42
0
  0
VERTEX
  8
0
 10
737.89117431640625
 20
215.12307739257812
 42
0
  0
VERTEX
  8
0
 10
737.89117431640625
 20
390.12307739257812
 42
0
  0
SEQEND
  0
POLYLINE
  8
0
 10
0
 20
0
 39
0
 70
1
 66
1
  0
VERTEX
  8
0
 10
531.96923828125
 20
400.13845825195312
 42
0
  0
VERTEX
  8
0
 10
531.96923828125
 20
463.13845825195312
 42
0
  0
VERTEX
  8
0
 10
521.96923828125
 20
473.13845825195312
 42
0
  0
VERTEX
  8
0
 10
356.96923828125
 20
473.13845825195312
 42
0
  0
VERTEX
  8
0
 10
346.96923828125
 20
463.13845825195312
 42
0
  0
VERTEX
  8
0
 10
346.96923828125
 20
400.13845825195312
 42
0
  0
SEQEND
  0
POLYLINE
  8
0
 10
0
 20
0
 39
0
 70
1
 66
1
  0
VERTEX
  8
0
 10
727.046142578125
 20
400.13845825195312
 42
0
  0
VERTEX
  8
0
 10
727.046142578125
 20
463.13845825195312
 42
0
  0
VERTEX
  8
0
 10
717.046142578125
 20
473.13845825195312
 42
0
  0
VERTEX
  8
0
 10
552.046142578125
 20
473.13845825195312
 42
0
  0
VERTEX
  8
0
 10
542.046142578125
 20
463.13845825195312
 42
0
  0
VERTEX
  8
0
 10
542.046142578125
 20
400.13845825195312
 42
0
  0
SEQEND
  0
POLYLINE
  8
0
 10
0
 20
0
 39
0
 70
1
 66
1
  0
VERTEX
  8
0
 10
728.13848876953125
 20
479.87692260742187
 42
0
  0
VERTEX
  8
0
 10
778.13848876953125
 20
404.87692260742187
 42
0
  0
VERTEX
  8
0
 10
788.13848876953125
 20
404.87692260742187
 42
0
  0
VERTEX
  8
0
 10
788.13848876953125
 20
489.87692260742187
 42
0
  0
VERTEX
  8
0
 10
728.13848876953125
 20
489.87692260742187
 42
0
  0
SEQEND
  0
POLYLINE
  8
0
 10
0
 20
0
 39
0
 70
1
 66
1
  0
VERTEX
  8
0
 10
747.953857421875
 20
10.107692718505859
 42
0
  0
VERTEX
  8
0
 10
779.953857421875
 20
10.107692718505859
 42
0
  0
VERTEX
  8
0
 10
779.953857421875
 20
102.10768890380859
 42
0
  0
VERTEX
  8
0
 10
771.953857421875
 20
110.10768890380859
 42
0
  0
VERTEX
  8
0
 10
747.953857421875
 20
110.10768890380859
 42
0
  0
SEQEND
  0
POLYLINE
  8
0
 10
0
 20
0
 39
0
 70
1
 66
1
  0
VERTEX
  8
0
 10
747.953857421875
 20
120.13845825195312
 42
0
  0
VERTEX
  8
0
 10
779.953857421875
 20
120.13845825195312
 42
0
  0
VERTEX
  8
0
 10
779.953857421875
 20
212.13845825195312
 42
0
  0
VERTEX
  8
0
 10
771.953857421875
 20
220.13845825195312
 42
0
  0
VERTEX
  8
0
 10
747.953857421875
 20
220.13845825195312
 42
0
  0
SEQEND
  0
POLYLINE
  8
0
 10
0
 20
0
 39
0
 70
1
 66
1
  0
VERTEX
  8
0
 10
747.953857421875
 20
230.16923522949219
 42
0
  0
VERTEX
  8
0
 10
779.953857421875
 20
230.16923522949219
 42
0
  0
VERTEX
  8
0
 10
779.953857421875
 20
322.16921997070312
 42
0
  0
VERTEX
  8
0
 10
771.953857421875
 20
330.16921997070312
 42
0
  0
VERTEX
  8
0
 10
747.953857421875
 20
330.16921997070312
 42
0
  0
SEQEND
  0
POLYLINE
  8
0
 10
0
 20
0
 39
0
 70
1
 66
1
  0
VERTEX
  8
0
 10
336.13845825195312
 20
347.27691650390625
 42
-0
  0
VERTEX
  8
0
 10
356.13845825195312
 20
347.27691650390625
 42
-0
  0
VERTEX
  8
0
 10
356.13845825195312
 20
387.27691650390625
 42
-0
  0
VERTEX
  8
0
 10
336.13845825195312
 20
387.27691650390625
 42
-0
  0
SEQEND
  0
POLYLINE
  8
0
 10
0
 20
0
 39
0
 70
1
 66
1
  0
VERTEX
  8
0
 10
747.953857421875
 20
340.20001220703125
 42
-0
  0
VERTEX
  8
0
 10
767.953857421875
 20
340.20001220703125
 42
-0
  0
VERTEX
  8
0
 10
767.953857421875
 20
380.20001220703125
 42
-0
  0
VERTEX
  8
0
 10
747.953857421875
 20
380.20001220703125
 42
-0
  0
SEQEND
  0
ENDSEC
  0
EOF
