  0
SECTION
  2
ENTITIES
  0
POLYLINE
  8
0
 10
0
 20
0
 39
0
 70
1
 66
1
  0
VERTEX
  8
0
 10
0
 20
0
 42
-0
  0
VERTEX
  8
0
 10
1000
 20
0
 42
-0
  0
VERTEX
  8
0
 10
1000
 20
600
 42
-0
  0
VERTEX
  8
0
 10
0
 20
600
 42
-0
  0
SEQEND
  0
POLYLINE
  8
0
 10
0
 20
0
 39
0
 70
1
 66
1
  0
VERTEX
  8
0
 10
10.199999999999989
 20
10.199999999999999
 42
-1
  0
VERTEX
  8
0
 10
650.20000000000005
 20
10.199999999999999
 42
-0
  0
SEQEND
  0
POLYLINE
  8
0
 10
0
 20
0
 39
0
 70
1
 66
1
  0
VERTEX
  8
0
 10
260.39998168945311
 20
355.4999967683853
 42
0.058534786105155945
  0
VERTEX
  8
0
 10
176.99998779296874
 20
342.49999962940825
 42
-0.11990410089492798
  0
VERTEX
  8
0
 10
93.599993896484364
 20
342.50000439777983
 42
0.058534786105155945
  0
VERTEX
  8
0
 10
10.199999999999989
 20
355.4999967683853
 42
-0
  0
VERTEX
  8
0
 10
10.199999999999989
 20
452.5000024904312
 42
-0
  0
VERTEX
  8
0
 10
510.59999389648436
 20
452.5000024904312
 42
-0
  0
VERTEX
  8
0
 10
510.59999389648436
 20
355.5000024904312
 42
0.058534786105155945
  0
VERTEX
  8
0
 10
427.20000762939452
 20
342.49999962940825
 42
-0.11990410089492798
  0
VERTEX
  8
0
 10
343.79999084472655
 20
342.50000439777983
 42
0.058534786105155945
  0
SEQEND
  0
POLYLINE
  8
0
 10
0
 20
0
 39
0
 70
1
 66
1
  0
VERTEX
  8
0
 10
260.39998168945311
 20
480.59999676838532
 42
0.058534786105155945
  0
VERTEX
  8
0
 10
176.99998779296874
 20
467.59999962940827
 42
-0.11990410089492798
  0
VERTEX
  8
0
 10
93.599993896484364
 20
467.60000439777986
 42
0.058534786105155945
  0
VERTEX
  8
0
 10
10.199999999999989
 20
480.59999676838532
 42
-0
  0
VERTEX
  8
0
 10
10.199999999999989
 20
577.60000249043128
 42
-0
  0
VERTEX
  8
0
 10
510.59999389648436
 20
577.60000249043128
 42
-0
  0
VERTEX
  8
0
 10
510.59999389648436
 20
480.60000249043122
 42
0.058534786105155945
  0
VERTEX
  8
0
 10
427.20000762939452
 20
467.59999962940827
 42
-0.11990410089492798
  0
VERTEX
  8
0
 10
343.79999084472655
 20
467.60000439777986
 42
0.058534786105155945
  0
SEQEND
  0
POLYLINE
  8
0
 10
0
 20
0
 39
0
 70
1
 66
1
  0
VERTEX
  8
0
 10
528.70000000000005
 20
304.80000000000001
 42
-0
  0
VERTEX
  8
0
 10
528.70000000000005
 20
524.79999999999995
 42
-1
  0
VERTEX
  8
0
 10
658.70000000000005
 20
524.79999999999995
 42
-0
  0
VERTEX
  8
0
 10
658.70000000000005
 20
304.80000000000001
 42
-1
  0
SEQEND
  0
POLYLINE
  8
0
 10
0
 20
0
 39
0
 70
1
 66
1
  0
VERTEX
  8
0
 10
668.70000000000005
 20
75.200000000000003
 42
-0
  0
VERTEX
  8
0
 10
668.70000000000005
 20
295.19999999999999
 42
-1
  0
VERTEX
  8
0
 10
798.70000000000005
 20
295.19999999999999
 42
-0
  0
VERTEX
  8
0
 10
798.70000000000005
 20
75.200000000000017
 42
-1
  0
SEQEND
  0
POLYLINE
  8
0
 10
0
 20
0
 39
0
 70
1
 66
1
  0
VERTEX
  8
0
 10
711.90759835607207
 20
369.9259119183771
 42
-0.67419987916946411
  0
VERTEX
  8
0
 10
668.9314762891928
 20
387.28939145153299
 42
0
  0
VERTEX
  8
0
 10
668.9000049789538
 20
461.45137838904679
 42
-1.4832396507263184
  0
VERTEX
  8
0
 10
763.44747500080086
 20
423.25171459171406
 42
0
  0
SEQEND
  0
POLYLINE
  8
0
 10
0
 20
0
 39
0
 70
1
 66
1
  0
VERTEX
  8
0
 10
729.52591191837712
 20
546.79240495801469
 42
-0.67419987916946411
  0
VERTEX
  8
0
 10
746.88939145153313
 20
589.76852702489396
 42
0
  0
VERTEX
  8
0
 10
821.05137838904682
 20
589.79999833513295
 42
-1.4832396507263184
  0
VERTEX
  8
0
 10
782.85171459171409
 20
495.25252831328589
 42
0
  0
SEQEND
  0
POLYLINE
  8
0
 10
0
 20
0
 39
0
 70
1
 66
1
  0
VERTEX
  8
0
 10
844.29240495801457
 20
471.84880174256955
 42
-0.67419987916946411
  0
VERTEX
  8
0
 10
887.26852702489384
 20
454.4853222094136
 42
0
  0
VERTEX
  8
0
 10
887.29999833513284
 20
380.32333527189985
 42
-1.4832396507263184
  0
VERTEX
  8
0
 10
792.75252831328578
 20
418.52299906923258
 42
0
  0
SEQEND
  0
POLYLINE
  8
0
 10
0
 20
0
 39
0
 70
1
 66
1
  0
VERTEX
  8
0
 10
875.69240495801466
 20
156.74880174256955
 42
-0.67419987916946411
  0
VERTEX
  8
0
 10
918.66852702489393
 20
139.3853222094136
 42
0
  0
VERTEX
  8
0
 10
918.69999833513293
 20
65.22333527189987
 42
-1.4832396507263184
  0
VERTEX
  8
0
 10
824.15252831328587
 20
103.42299906923259
 42
0
  0
SEQEND
  0
POLYLINE
  8
0
 10
0
 20
0
 39
0
 70
1
 66
1
  0
VERTEX
  8
0
 10
851.90759835607207
 20
146.9259119183771
 42
-0.67419987916946411
  0
VERTEX
  8
0
 10
808.9314762891928
 20
164.28939145153302
 42
0
  0
VERTEX
  8
0
 10
808.9000049789538
 20
238.45137838904677
 42
-1.4832396507263184
  0
VERTEX
  8
0
 10
903.44747500080086
 20
200.25171459171406
 42
0
  0
SEQEND
  0
POLYLINE
  8
0
 10
0
 20
0
 39
0
 70
1
 66
1
  0
VERTEX
  8
0
 10
897.39999999999998
 20
396.5
 42
-0
  0
VERTEX
  8
0
 10
951.95319976806638
 20
341.33707427978516
 42
-0.66617089509963989
  0
VERTEX
  8
0
 10
932.39999999999998
 20
294.5
 42
-0
  0
VERTEX
  8
0
 10
897.39999999999998
 20
294.5
 42
-0
  0
SEQEND
  0
POLYLINE
  8
0
 10
0
 20
0
 39
0
 70
1
 66
1
  0
VERTEX
  8
0
 10
959.90000044564113
 20
347.75599999999997
 42
-0
  0
VERTEX
  8
0
 10
905.34680067757472
 20
402.91892572021482
 42
-0.66617089509963989
  0
VERTEX
  8
0
 10
924.90000044564113
 20
449.75599999999997
 42
-0
  0
VERTEX
  8
0
 10
959.90000044564113
 20
449.75599999999997
 42
-0
  0
SEQEND
  0
POLYLINE
  8
0
 10
0
 20
0
 39
0
 70
1
 66
1
  0
VERTEX
  8
0
 10
10.199999999999999
 20
301
 42
-0
  0
VERTEX
  8
0
 10
64.753199768066409
 20
245.83707427978516
 42
-0.66617089509963989
  0
VERTEX
  8
0
 10
45.200000000000003
 20
199
 42
-0
  0
VERTEX
  8
0
 10
10.200000000000006
 20
199
 42
-0
  0
SEQEND
  0
POLYLINE
  8
0
 10
0
 20
0
 39
0
 70
1
 66
1
  0
VERTEX
  8
0
 10
146.30000000000001
 20
327.40000044564113
 42
-0
  0
VERTEX
  8
0
 10
91.137074279785168
 20
272.84680067757472
 42
-0.66617089509963989
  0
VERTEX
  8
0
 10
44.300000000000004
 20
292.40000044564113
 42
-0
  0
VERTEX
  8
0
 10
44.299999999999997
 20
327.40000044564113
 42
-0
  0
SEQEND
  0
POLYLINE
  8
0
 10
0
 20
0
 39
0
 70
1
 66
1
  0
VERTEX
  8
0
 10
944.70000044564119
 20
487.79999999999995
 42
-0
  0
VERTEX
  8
0
 10
890.14680067757479
 20
542.9629257202148
 42
-0.66617089509963989
  0
VERTEX
  8
0
 10
909.70000044564119
 20
589.79999999999995
 42
-0
  0
VERTEX
  8
0
 10
944.70000044564119
 20
589.79999999999995
 42
-0
  0
SEQEND
  0
POLYLINE
  8
0
 10
0
 20
0
 39
0
 70
1
 66
1
  0
VERTEX
  8
0
 10
973.50000044564115
 20
108.80000000000001
 42
-0
  0
VERTEX
  8
0
 10
918.94680067757474
 20
163.96292572021486
 42
-0.66617089509963989
  0
VERTEX
  8
0
 10
938.50000044564115
 20
210.80000000000001
 42
-0
  0
VERTEX
  8
0
 10
973.50000044564115
 20
210.80000000000001
 42
-0
  0
SEQEND
  0
POLYLINE
  8
0
 10
0
 20
0
 39
0
 70
1
 66
1
  0
VERTEX
  8
0
 10
655.00001252267157
 20
162.5
 42
-0
  0
VERTEX
  8
0
 10
636.00001252267157
 20
162.5
 42
-0
  0
VERTEX
  8
0
 10
609.20692170235907
 20
188.01723861694336
 42
-0.42857092618942261
  0
VERTEX
  8
0
 10
609.20686066720282
 20
216.98275756835937
 42
0
  0
VERTEX
  8
0
 10
636.00001252267157
 20
242.5
 42
0
  0
VERTEX
  8
0
 10
655.00001252267157
 20
242.5
 42
0
  0
SEQEND
  0
POLYLINE
  8
0
 10
0
 20
0
 39
0
 70
1
 66
1
  0
VERTEX
  8
0
 10
979.70001252267139
 20
10.199999999999999
 42
-0
  0
VERTEX
  8
0
 10
960.70001252267139
 20
10.199999999999999
 42
-0
  0
VERTEX
  8
0
 10
933.90692170235889
 20
35.717238616943362
 42
-0.42857092618942261
  0
VERTEX
  8
0
 10
933.90686066720264
 20
64.682757568359378
 42
0
  0
VERTEX
  8
0
 10
960.70001252267139
 20
90.200000000000003
 42
0
  0
VERTEX
  8
0
 10
979.70001252267139
 20
90.200000000000003
 42
0
  0
SEQEND
  0
POLYLINE
  8
0
 10
0
 20
0
 39
0
 70
1
 66
1
  0
VERTEX
  8
0
 10
984.00001252267157
 20
220.90000000000001
 42
-0
  0
VERTEX
  8
0
 10
965.00001252267157
 20
220.90000000000001
 42
-0
  0
VERTEX
  8
0
 10
938.20692170235907
 20
246.41723861694337
 42
-0.42857092618942261
  0
VERTEX
  8
0
 10
938.20686066720282
 20
275.38275756835935
 42
0
  0
VERTEX
  8
0
 10
965.00001252267157
 20
300.89999999999998
 42
0
  0
VERTEX
  8
0
 10
984.00001252267157
 20
300.89999999999998
 42
0
  0
SEQEND
  0
POLYLINE
  8
0
 10
0
 20
0
 39
0
 70
1
 66
1
  0
VERTEX
  8
0
 10
707.5
 20
589.70000000000005
 42
-0
  0
VERTEX
  8
0
 10
707.5
 20
541.70000000000005
 42
-1
  0
VERTEX
  8
0
 10
667.5
 20
541.70000000000005
 42
-0
  0
VERTEX
  8
0
 10
667.5
 20
589.70000000000005
 42
-0
  0
SEQEND
  0
ENDSEC
  0
EOF
