  0
SECTION
  2
ENTITIES
  0
POLYLINE
  8
0
 10
0
 20
0
 39
0
 70
1
 66
1
  0
VERTEX
  8
0
 10
0
 20
0
 42
-0
  0
VERTEX
  8
0
 10
600
 20
0
 42
-0
  0
VERTEX
  8
0
 10
600
 20
400
 42
-0
  0
VERTEX
  8
0
 10
0
 20
400
 42
-0
  0
SEQEND
  0
POLYLINE
  8
0
 10
0
 20
0
 39
0
 70
1
 66
1
  0
VERTEX
  8
0
 10
298
 20
350
 42
0
  0
VERTEX
  8
0
 10
432
 20
350
 42
0
  0
VERTEX
  8
0
 10
432
 20
370
 42
0
  0
VERTEX
  8
0
 10
298
 20
370
 42
0
  0
SEQEND
  0
POLYLINE
  8
0
 10
0
 20
0
 39
0
 70
1
 66
1
  0
VERTEX
  8
0
 10
10
 20
320
 42
0
  0
VERTEX
  8
0
 10
144
 20
320
 42
0
  0
VERTEX
  8
0
 10
144
 20
340
 42
0
  0
VERTEX
  8
0
 10
10
 20
340
 42
0
  0
SEQEND
  0
POLYLINE
  8
0
 10
0
 20
0
 39
0
 70
1
 66
1
  0
VERTEX
  8
0
 10
154
 20
350
 42
0
  0
VERTEX
  8
0
 10
288
 20
350
 42
0
  0
VERTEX
  8
0
 10
288
 20
370
 42
0
  0
VERTEX
  8
0
 10
154
 20
370
 42
0
  0
SEQEND
  0
POLYLINE
  8
0
 10
0
 20
0
 39
0
 70
1
 66
1
  0
VERTEX
  8
0
 10
442
 20
320
 42
0
  0
VERTEX
  8
0
 10
507
 20
320
 42
0
  0
VERTEX
  8
0
 10
522
 20
335
 42
0
  0
VERTEX
  8
0
 10
522
 20
355
 42
-0
  0
VERTEX
  8
0
 10
507
 20
370
 42
0
  0
VERTEX
  8
0
 10
442
 20
370
 42
0
  0
SEQEND
  0
POLYLINE
  8
0
 10
0
 20
0
 39
0
 70
1
 66
1
  0
VERTEX
  8
0
 10
503
 20
340
 42
0
  0
VERTEX
  8
0
 10
461
 20
340
 42
-1
  0
VERTEX
  8
0
 10
461
 20
350
 42
-0
  0
VERTEX
  8
0
 10
503
 20
350
 42
-1
  0
SEQEND
  0
POLYLINE
  8
0
 10
0
 20
0
 39
0
 70
1
 66
1
  0
VERTEX
  8
0
 10
10
 20
350
 42
0
  0
VERTEX
  8
0
 10
144
 20
350
 42
0
  0
VERTEX
  8
0
 10
144
 20
370
 42
0
  0
VERTEX
  8
0
 10
10
 20
370
 42
0
  0
SEQEND
  0
POLYLINE
  8
0
 10
0
 20
0
 39
0
 70
1
 66
1
  0
VERTEX
  8
0
 10
549.053466796875
 20
83.317970275878906
 42
-0
  0
VERTEX
  8
0
 10
570.41607666015625
 20
91.840789794921875
 42
1
  0
VERTEX
  8
0
 10
551.88824462890625
 20
138.28126525878906
 42
0
  0
VERTEX
  8
0
 10
510.091796875
 20
121.60618591308594
 42
0
  0
VERTEX
  8
0
 10
510
 20
19.288095474243164
 42
0
  0
VERTEX
  8
0
 10
513.70556640625
 20
10
 42
0
  0
VERTEX
  8
0
 10
569.43414306640625
 20
32.233444213867188
 42
-0
  0
SEQEND
  0
POLYLINE
  8
0
 10
0
 20
0
 39
0
 70
1
 66
1
  0
VERTEX
  8
0
 10
557.0760498046875
 20
125.27793121337891
 42
-1
  0
VERTEX
  8
0
 10
565.22833251953125
 20
104.84412384033203
 42
-1
  0
SEQEND
  0
POLYLINE
  8
0
 10
0
 20
0
 39
0
 70
1
 66
1
  0
VERTEX
  8
0
 10
566.15216064453125
 20
284.06103515625
 42
0
  0
VERTEX
  8
0
 10
566.15216064453125
 20
150.06103515625
 42
0
  0
VERTEX
  8
0
 10
586.15216064453125
 20
150.06103515625
 42
0
  0
VERTEX
  8
0
 10
586.15216064453125
 20
284.06103515625
 42
0
  0
SEQEND
  0
POLYLINE
  8
0
 10
0
 20
0
 39
0
 70
1
 66
1
  0
VERTEX
  8
0
 10
480
 20
144
 42
0
  0
VERTEX
  8
0
 10
480
 20
10
 42
0
  0
VERTEX
  8
0
 10
500
 20
10
 42
0
  0
VERTEX
  8
0
 10
500
 20
144
 42
0
  0
SEQEND
  0
POLYLINE
  8
0
 10
0
 20
0
 39
0
 70
1
 66
1
  0
VERTEX
  8
0
 10
519.053466796875
 20
227.31796264648437
 42
-0
  0
VERTEX
  8
0
 10
540.41607666015625
 20
235.84078979492187
 42
1
  0
VERTEX
  8
0
 10
521.88824462890625
 20
282.28128051757813
 42
0
  0
VERTEX
  8
0
 10
480.091796875
 20
265.60617065429687
 42
0
  0
VERTEX
  8
0
 10
480
 20
163.28810119628906
 42
0
  0
VERTEX
  8
0
 10
483.70556640625
 20
154
 42
0
  0
VERTEX
  8
0
 10
539.43414306640625
 20
176.23344421386719
 42
-0
  0
SEQEND
  0
POLYLINE
  8
0
 10
0
 20
0
 39
0
 70
1
 66
1
  0
VERTEX
  8
0
 10
527.0760498046875
 20
269.27792358398437
 42
-1
  0
VERTEX
  8
0
 10
535.22833251953125
 20
248.8441162109375
 42
-1
  0
SEQEND
  0
POLYLINE
  8
0
 10
0
 20
0
 39
0
 70
1
 66
1
  0
VERTEX
  8
0
 10
582
 20
294.06103515625
 42
0
  0
VERTEX
  8
0
 10
582
 20
359.06103515625
 42
0
  0
VERTEX
  8
0
 10
567
 20
374.06103515625
 42
0
  0
VERTEX
  8
0
 10
547
 20
374.06103515625
 42
-0
  0
VERTEX
  8
0
 10
532
 20
359.06103515625
 42
0
  0
VERTEX
  8
0
 10
532
 20
294.06103515625
 42
0
  0
SEQEND
  0
POLYLINE
  8
0
 10
0
 20
0
 39
0
 70
1
 66
1
  0
VERTEX
  8
0
 10
562
 20
355.06103515625
 42
0
  0
VERTEX
  8
0
 10
562
 20
313.06103515625
 42
-1
  0
VERTEX
  8
0
 10
552
 20
313.06103515625
 42
-0
  0
VERTEX
  8
0
 10
552
 20
355.06103515625
 42
-1
  0
SEQEND
  0
POLYLINE
  8
0
 10
0
 20
0
 39
0
 70
1
 66
1
  0
VERTEX
  8
0
 10
318.76388549804687
 20
217.5
 42
0
  0
VERTEX
  8
0
 10
300
 20
185
 42
0
  0
VERTEX
  8
0
 10
300
 20
180
 42
0
  0
VERTEX
  8
0
 10
400
 20
180
 42
0.41421356797218323
  0
VERTEX
  8
0
 10
415
 20
195
 42
0
  0
VERTEX
  8
0
 10
415
 20
325
 42
0.41421356797218323
  0
VERTEX
  8
0
 10
400
 20
340
 42
0
  0
VERTEX
  8
0
 10
300
 20
340
 42
0
  0
VERTEX
  8
0
 10
300
 20
335
 42
0
  0
VERTEX
  8
0
 10
318.76388549804687
 20
302.5
 42
-0.26794919371604919
  0
SEQEND
  0
POLYLINE
  8
0
 10
0
 20
0
 39
0
 70
1
 66
1
  0
VERTEX
  8
0
 10
318.76388549804687
 20
47.5
 42
0
  0
VERTEX
  8
0
 10
300
 20
15
 42
0
  0
VERTEX
  8
0
 10
300
 20
10
 42
0
  0
VERTEX
  8
0
 10
400
 20
10
 42
0.41421356797218323
  0
VERTEX
  8
0
 10
415
 20
25
 42
0
  0
VERTEX
  8
0
 10
415
 20
155
 42
0.41421356797218323
  0
VERTEX
  8
0
 10
400
 20
170
 42
0
  0
VERTEX
  8
0
 10
300
 20
170
 42
0
  0
VERTEX
  8
0
 10
300
 20
165
 42
0
  0
VERTEX
  8
0
 10
318.76388549804687
 20
132.5
 42
-0.26794919371604919
  0
SEQEND
  0
POLYLINE
  8
0
 10
0
 20
0
 39
0
 70
1
 66
1
  0
VERTEX
  8
0
 10
193.76388549804687
 20
217.5
 42
0
  0
VERTEX
  8
0
 10
175
 20
185
 42
0
  0
VERTEX
  8
0
 10
175
 20
180
 42
0
  0
VERTEX
  8
0
 10
275
 20
180
 42
0.41421356797218323
  0
VERTEX
  8
0
 10
290
 20
195
 42
0
  0
VERTEX
  8
0
 10
290
 20
325
 42
0.41421356797218323
  0
VERTEX
  8
0
 10
275
 20
340
 42
0
  0
VERTEX
  8
0
 10
175
 20
340
 42
0
  0
VERTEX
  8
0
 10
175
 20
335
 42
0
  0
VERTEX
  8
0
 10
193.76388549804687
 20
302.5
 42
-0.26794919371604919
  0
SEQEND
  0
POLYLINE
  8
0
 10
0
 20
0
 39
0
 70
1
 66
1
  0
VERTEX
  8
0
 10
10
 20
310
 42
0
  0
VERTEX
  8
0
 10
10
 20
10
 42
-0
  0
VERTEX
  8
0
 10
33.305316925048828
 20
10
 42
-0
  0
VERTEX
  8
0
 10
55
 20
37.564361572265625
 42
-0
  0
VERTEX
  8
0
 10
55
 20
310
 42
-0
  0
SEQEND
  0
POLYLINE
  8
0
 10
0
 20
0
 39
0
 70
1
 66
1
  0
VERTEX
  8
0
 10
65
 20
310
 42
0
  0
VERTEX
  8
0
 10
65
 20
10
 42
-0
  0
VERTEX
  8
0
 10
88.305313110351563
 20
10
 42
-0
  0
VERTEX
  8
0
 10
110
 20
37.564361572265625
 42
-0
  0
VERTEX
  8
0
 10
110
 20
310
 42
-0
  0
SEQEND
  0
POLYLINE
  8
0
 10
0
 20
0
 39
0
 70
1
 66
1
  0
VERTEX
  8
0
 10
193.76388549804687
 20
47.5
 42
0
  0
VERTEX
  8
0
 10
175
 20
15
 42
0
  0
VERTEX
  8
0
 10
175
 20
10
 42
0
  0
VERTEX
  8
0
 10
275
 20
10
 42
0.41421356797218323
  0
VERTEX
  8
0
 10
290
 20
25
 42
0
  0
VERTEX
  8
0
 10
290
 20
155
 42
0.41421356797218323
  0
VERTEX
  8
0
 10
275
 20
170
 42
0
  0
VERTEX
  8
0
 10
175
 20
170
 42
0
  0
VERTEX
  8
0
 10
175
 20
165
 42
0
  0
VERTEX
  8
0
 10
193.76388549804687
 20
132.5
 42
-0.26794919371604919
  0
SEQEND
  0
POLYLINE
  8
0
 10
0
 20
0
 39
0
 70
1
 66
1
  0
VERTEX
  8
0
 10
425
 20
310
 42
0
  0
VERTEX
  8
0
 10
425
 20
10
 42
-0
  0
VERTEX
  8
0
 10
448.30532836914062
 20
10
 42
-0
  0
VERTEX
  8
0
 10
470
 20
37.564361572265625
 42
-0
  0
VERTEX
  8
0
 10
470
 20
310
 42
-0
  0
SEQEND
  0
POLYLINE
  8
0
 10
0
 20
0
 39
0
 70
1
 66
1
  0
VERTEX
  8
0
 10
120
 20
310
 42
0
  0
VERTEX
  8
0
 10
120
 20
10
 42
-0
  0
VERTEX
  8
0
 10
143.30531311035156
 20
10
 42
-0
  0
VERTEX
  8
0
 10
165
 20
37.564361572265625
 42
-0
  0
VERTEX
  8
0
 10
165
 20
310
 42
-0
  0
SEQEND
  0
ENDSEC
  0
EOF
