  0
SECTION
  2
ENTITIES
  0
POLYLINE
  8
0
 10
0
 20
0
 39
0
 70
1
 66
1
  0
VERTEX
  8
0
 10
0
 20
0
 42
-0
  0
VERTEX
  8
0
 10
1200
 20
0
 42
-0
  0
VERTEX
  8
0
 10
1200
 20
700
 42
-0
  0
VERTEX
  8
0
 10
0
 20
700
 42
-0
  0
SEQEND
  0
POLYLINE
  8
0
 10
0
 20
0
 39
0
 70
1
 66
1
  0
VERTEX
  8
0
 10
56.531440887451168
 20
338.90481964111331
 42
0
  0
VERTEX
  8
0
 10
245.53144470214843
 20
338.90481964111331
 42
0
  0
VERTEX
  8
0
 10
260.11977783203128
 20
338.90481964111331
 42
0
  0
VERTEX
  8
0
 10
225.16836181640625
 20
286.94522491455081
 42
0
  0
VERTEX
  8
0
 10
225.16836181640625
 20
117.27685180664065
 42
0
  0
VERTEX
  8
0
 10
151.03144470214843
 20
117.27685180664065
 42
0
  0
VERTEX
  8
0
 10
151.03144470214843
 20
10.160000000000025
 42
0
  0
VERTEX
  8
0
 10
10.16
 20
10.160000000000025
 42
0
  0
VERTEX
  8
0
 10
10.16
 20
396.78686157226565
 42
0
  0
SEQEND
  0
POLYLINE
  8
0
 10
0
 20
0
 39
0
 70
1
 66
1
  0
VERTEX
  8
0
 10
255.74833694458005
 20
360.96204193115233
 42
0
  0
VERTEX
  8
0
 10
66.748333129882781
 20
360.96204193115227
 42
0
  0
VERTEX
  8
0
 10
52.159999999999968
 20
360.96204193115227
 42
0
  0
VERTEX
  8
0
 10
87.111416015624968
 20
412.92163665771477
 42
0
  0
VERTEX
  8
0
 10
87.11141601562494
 20
582.59000976562493
 42
0
  0
VERTEX
  8
0
 10
161.24833312988275
 20
582.59000976562493
 42
0
  0
VERTEX
  8
0
 10
161.24833312988272
 20
689.70686157226555
 42
0
  0
VERTEX
  8
0
 10
302.11977783203116
 20
689.70686157226555
 42
0
  0
VERTEX
  8
0
 10
302.11977783203122
 20
303.07999999999998
 42
0
  0
SEQEND
  0
POLYLINE
  8
0
 10
0
 20
0
 39
0
 70
1
 66
1
  0
VERTEX
  8
0
 10
288.94961465897183
 20
236.91469268567366
 42
-0.095963560044765472
  0
VERTEX
  8
0
 10
332.87448892554193
 20
255.1089770681651
 42
-0
  0
VERTEX
  8
0
 10
332.87448892554193
 20
207.63448718856168
 42
0
  0
VERTEX
  8
0
 10
382.87448805705179
 20
207.63448718856168
 42
0
  0
VERTEX
  8
0
 10
382.87448266225528
 20
255.10897167336859
 42
-0.095963560044765472
  0
VERTEX
  8
0
 10
426.7993582775245
 20
236.91469673177104
 42
-0
  0
VERTEX
  8
0
 10
393.22982694554338
 20
203.34516539978992
 42
0
  0
VERTEX
  8
0
 10
428.5851653997899
 20
167.9898269455434
 42
0
  0
VERTEX
  8
0
 10
462.15469268567364
 20
201.55936232362191
 42
-0.095963560044765472
  0
VERTEX
  8
0
 10
480.34897706816508
 20
157.63448805705181
 42
-0
  0
VERTEX
  8
0
 10
432.87448718856166
 20
157.63448805705181
 42
0
  0
VERTEX
  8
0
 10
432.87448718856166
 20
107.63448892554194
 42
0
  0
VERTEX
  8
0
 10
480.34897167336857
 20
107.63449432033846
 42
-0.095963560044765472
  0
VERTEX
  8
0
 10
462.15469673177103
 20
63.709618705069232
 42
-0
  0
VERTEX
  8
0
 10
428.5851653997899
 20
97.279150037050357
 42
0
  0
VERTEX
  8
0
 10
393.22982694554338
 20
61.923811582803836
 42
0
  0
VERTEX
  8
0
 10
426.79936232362189
 20
28.354284296920099
 42
-0.095963560044765472
  0
VERTEX
  8
0
 10
382.87448805705179
 20
10.159999914428653
 42
-0
  0
VERTEX
  8
0
 10
382.87448805705179
 20
57.634489794032078
 42
0
  0
VERTEX
  8
0
 10
332.87448892554193
 20
57.634489794032078
 42
0
  0
VERTEX
  8
0
 10
332.87449432033844
 20
10.16000530922517
 42
-0.095963560044765472
  0
VERTEX
  8
0
 10
288.94961870506921
 20
28.354280250822711
 42
-0
  0
VERTEX
  8
0
 10
322.51915003705034
 20
61.923811582803836
 42
0
  0
VERTEX
  8
0
 10
287.16381158280382
 20
97.279150037050357
 42
0
  0
VERTEX
  8
0
 10
253.59428025082269
 20
63.709618705069232
 42
-0.095963537693023682
  0
VERTEX
  8
0
 10
235.39999991442863
 20
107.63448892554194
 42
-0
  0
VERTEX
  8
0
 10
282.87448979403206
 20
107.63448892554194
 42
0
  0
VERTEX
  8
0
 10
282.87448979403206
 20
157.63448805705181
 42
0
  0
VERTEX
  8
0
 10
235.40000530922515
 20
157.63449345184833
 42
-0.095963545143604279
  0
VERTEX
  8
0
 10
253.59428025082269
 20
201.55935827752452
 42
-0
  0
VERTEX
  8
0
 10
287.16381158280382
 20
167.9898269455434
 42
0
  0
VERTEX
  8
0
 10
322.51915003705034
 20
203.34516539978992
 42
0
  0
SEQEND
  0
POLYLINE
  8
0
 10
0
 20
0
 39
0
 70
1
 66
1
  0
VERTEX
  8
0
 10
365.86961465897184
 20
485.67469268567362
 42
-0.095963560044765472
  0
VERTEX
  8
0
 10
409.79448892554194
 20
503.86897706816507
 42
-0
  0
VERTEX
  8
0
 10
409.79448892554194
 20
456.39448718856164
 42
0
  0
VERTEX
  8
0
 10
459.79448805705181
 20
456.39448718856164
 42
0
  0
VERTEX
  8
0
 10
459.79448266225529
 20
503.86897167336855
 42
-0.095963560044765472
  0
VERTEX
  8
0
 10
503.71935827752452
 20
485.67469673177101
 42
-0
  0
VERTEX
  8
0
 10
470.1498269455434
 20
452.10516539978988
 42
0
  0
VERTEX
  8
0
 10
505.50516539978992
 20
416.74982694554336
 42
0
  0
VERTEX
  8
0
 10
539.07469268567365
 20
450.31936232362187
 42
-0.095963560044765472
  0
VERTEX
  8
0
 10
557.2689770681651
 20
406.39448805705177
 42
-0
  0
VERTEX
  8
0
 10
509.79448718856167
 20
406.39448805705177
 42
0
  0
VERTEX
  8
0
 10
509.79448718856167
 20
356.39448892554191
 42
0
  0
VERTEX
  8
0
 10
557.26897167336858
 20
356.39449432033842
 42
-0.095963560044765472
  0
VERTEX
  8
0
 10
539.07469673177104
 20
312.46961870506919
 42
-0
  0
VERTEX
  8
0
 10
505.50516539978992
 20
346.03915003705032
 42
0
  0
VERTEX
  8
0
 10
470.1498269455434
 20
310.6838115828038
 42
0
  0
VERTEX
  8
0
 10
503.71936232362191
 20
277.11428429692006
 42
-0.095963560044765472
  0
VERTEX
  8
0
 10
459.79448805705181
 20
258.91999991442862
 42
-0
  0
VERTEX
  8
0
 10
459.79448805705181
 20
306.39448979403204
 42
0
  0
VERTEX
  8
0
 10
409.79448892554194
 20
306.39448979403204
 42
0
  0
VERTEX
  8
0
 10
409.79449432033846
 20
258.92000530922513
 42
-0.095963560044765472
  0
VERTEX
  8
0
 10
365.86961870506923
 20
277.11428025082267
 42
-0
  0
VERTEX
  8
0
 10
399.43915003705035
 20
310.6838115828038
 42
0
  0
VERTEX
  8
0
 10
364.08381158280383
 20
346.03915003705032
 42
0
  0
VERTEX
  8
0
 10
330.51428025082271
 20
312.46961870506919
 42
-0.095963537693023682
  0
VERTEX
  8
0
 10
312.31999991442865
 20
356.39448892554191
 42
-0
  0
VERTEX
  8
0
 10
359.79448979403207
 20
356.39448892554191
 42
0
  0
VERTEX
  8
0
 10
359.79448979403207
 20
406.39448805705177
 42
0
  0
VERTEX
  8
0
 10
312.32000530922517
 20
406.39449345184829
 42
-0.095963545143604279
  0
VERTEX
  8
0
 10
330.51428025082271
 20
450.31935827752449
 42
-0
  0
VERTEX
  8
0
 10
364.08381158280383
 20
416.74982694554336
 42
0
  0
VERTEX
  8
0
 10
399.43915003705035
 20
452.10516539978988
 42
0
  0
SEQEND
  0
POLYLINE
  8
0
 10
0
 20
0
 39
0
 70
1
 66
1
  0
VERTEX
  8
0
 10
530.38961465897182
 20
276.51469268567365
 42
-0.095963560044765472
  0
VERTEX
  8
0
 10
574.31448892554192
 20
294.7089770681651
 42
-0
  0
VERTEX
  8
0
 10
574.31448892554192
 20
247.23448718856167
 42
0
  0
VERTEX
  8
0
 10
624.31448805705179
 20
247.23448718856167
 42
0
  0
VERTEX
  8
0
 10
624.31448266225527
 20
294.70897167336858
 42
-0.095963560044765472
  0
VERTEX
  8
0
 10
668.2393582775245
 20
276.51469673177104
 42
-0
  0
VERTEX
  8
0
 10
634.66982694554338
 20
242.94516539978991
 42
0
  0
VERTEX
  8
0
 10
670.0251653997899
 20
207.58982694554339
 42
0
  0
VERTEX
  8
0
 10
703.59469268567364
 20
241.15936232362191
 42
-0.095963560044765472
  0
VERTEX
  8
0
 10
721.78897706816508
 20
197.23448805705181
 42
-0
  0
VERTEX
  8
0
 10
674.31448718856166
 20
197.23448805705181
 42
0
  0
VERTEX
  8
0
 10
674.31448718856166
 20
147.23448892554194
 42
0
  0
VERTEX
  8
0
 10
721.78897167336856
 20
147.23449432033846
 42
-0.095963560044765472
  0
VERTEX
  8
0
 10
703.59469673177102
 20
103.30961870506923
 42
-0
  0
VERTEX
  8
0
 10
670.0251653997899
 20
136.87915003705035
 42
0
  0
VERTEX
  8
0
 10
634.66982694554338
 20
101.52381158280383
 42
0
  0
VERTEX
  8
0
 10
668.23936232362189
 20
67.954284296920093
 42
-0.095963560044765472
  0
VERTEX
  8
0
 10
624.31448805705179
 20
49.759999914428647
 42
-0
  0
VERTEX
  8
0
 10
624.31448805705179
 20
97.234489794032072
 42
0
  0
VERTEX
  8
0
 10
574.31448892554192
 20
97.234489794032072
 42
0
  0
VERTEX
  8
0
 10
574.31449432033844
 20
49.760005309225164
 42
-0.095963560044765472
  0
VERTEX
  8
0
 10
530.38961870506921
 20
67.954280250822706
 42
-0
  0
VERTEX
  8
0
 10
563.95915003705034
 20
101.52381158280383
 42
0
  0
VERTEX
  8
0
 10
528.60381158280381
 20
136.87915003705035
 42
0
  0
VERTEX
  8
0
 10
495.03428025082269
 20
103.30961870506923
 42
-0.095963537693023682
  0
VERTEX
  8
0
 10
476.83999991442863
 20
147.23448892554194
 42
-0
  0
VERTEX
  8
0
 10
524.31448979403206
 20
147.23448892554194
 42
0
  0
VERTEX
  8
0
 10
524.31448979403206
 20
197.23448805705181
 42
0
  0
VERTEX
  8
0
 10
476.84000530922515
 20
197.23449345184832
 42
-0.095963545143604279
  0
VERTEX
  8
0
 10
495.03428025082269
 20
241.15935827752452
 42
-0
  0
VERTEX
  8
0
 10
528.60381158280381
 20
207.58982694554339
 42
0
  0
VERTEX
  8
0
 10
563.95915003705034
 20
242.94516539978991
 42
0
  0
SEQEND
  0
POLYLINE
  8
0
 10
0
 20
0
 39
0
 70
1
 66
1
  0
VERTEX
  8
0
 10
727.72004882812507
 20
248.7199999999998
 42
-0
  0
VERTEX
  8
0
 10
687.02449218750007
 20
272.2156054687498
 42
-0
  0
VERTEX
  8
0
 10
662.52009765625007
 20
296.7199999999998
 42
-0
  0
VERTEX
  8
0
 10
662.52009765625007
 20
324.2199999999998
 42
-0
  0
VERTEX
  8
0
 10
627.92000000000007
 20
324.2199999999998
 42
-0
  0
VERTEX
  8
0
 10
627.92000000000007
 20
614.2199999999998
 42
0
  0
VERTEX
  8
0
 10
662.52009765625007
 20
614.2199999999998
 42
-0
  0
VERTEX
  8
0
 10
662.52009765625007
 20
641.7199999999998
 42
0
  0
VERTEX
  8
0
 10
687.02449218750007
 20
666.2243945312498
 42
0
  0
VERTEX
  8
0
 10
727.72004882812507
 20
689.7199999999998
 42
0
  0
SEQEND
  0
POLYLINE
  8
0
 10
0
 20
0
 39
0
 70
1
 66
1
  0
VERTEX
  8
0
 10
837.76004882812504
 20
10.159999999999854
 42
-0
  0
VERTEX
  8
0
 10
797.06449218750004
 20
33.655605468749854
 42
-0
  0
VERTEX
  8
0
 10
772.56009765625004
 20
58.159999999999854
 42
-0
  0
VERTEX
  8
0
 10
772.56009765625004
 20
85.659999999999854
 42
-0
  0
VERTEX
  8
0
 10
737.96000000000004
 20
85.659999999999854
 42
-0
  0
VERTEX
  8
0
 10
737.96000000000004
 20
375.65999999999985
 42
0
  0
VERTEX
  8
0
 10
772.56009765625004
 20
375.65999999999985
 42
-0
  0
VERTEX
  8
0
 10
772.56009765625004
 20
403.15999999999985
 42
0
  0
VERTEX
  8
0
 10
797.06449218750004
 20
427.66439453124985
 42
0
  0
VERTEX
  8
0
 10
837.76004882812504
 20
451.15999999999985
 42
0
  0
SEQEND
  0
POLYLINE
  8
0
 10
0
 20
0
 39
0
 70
1
 66
1
  0
VERTEX
  8
0
 10
947.800048828125
 20
10.159999999999854
 42
-0
  0
VERTEX
  8
0
 10
907.1044921875
 20
33.655605468749854
 42
-0
  0
VERTEX
  8
0
 10
882.60009765625
 20
58.159999999999854
 42
-0
  0
VERTEX
  8
0
 10
882.60009765625
 20
85.659999999999854
 42
-0
  0
VERTEX
  8
0
 10
848
 20
85.659999999999854
 42
-0
  0
VERTEX
  8
0
 10
848
 20
375.65999999999985
 42
0
  0
VERTEX
  8
0
 10
882.60009765625
 20
375.65999999999985
 42
-0
  0
VERTEX
  8
0
 10
882.60009765625
 20
403.15999999999985
 42
0
  0
VERTEX
  8
0
 10
907.1044921875
 20
427.66439453124985
 42
0
  0
VERTEX
  8
0
 10
947.800048828125
 20
451.15999999999985
 42
0
  0
SEQEND
  0
POLYLINE
  8
0
 10
0
 20
0
 39
0
 70
1
 66
1
  0
VERTEX
  8
0
 10
1057.840048828125
 20
10.159999999999854
 42
-0
  0
VERTEX
  8
0
 10
1017.1444921875
 20
33.655605468749854
 42
-0
  0
VERTEX
  8
0
 10
992.64009765624996
 20
58.159999999999854
 42
-0
  0
VERTEX
  8
0
 10
992.64009765624996
 20
85.659999999999854
 42
-0
  0
VERTEX
  8
0
 10
958.03999999999996
 20
85.659999999999854
 42
-0
  0
VERTEX
  8
0
 10
958.03999999999996
 20
375.65999999999985
 42
0
  0
VERTEX
  8
0
 10
992.64009765624996
 20
375.65999999999985
 42
-0
  0
VERTEX
  8
0
 10
992.64009765624996
 20
403.15999999999985
 42
0
  0
VERTEX
  8
0
 10
1017.1444921875
 20
427.66439453124985
 42
0
  0
VERTEX
  8
0
 10
1057.840048828125
 20
451.15999999999985
 42
0
  0
SEQEND
  0
POLYLINE
  8
0
 10
0
 20
0
 39
0
 70
1
 66
1
  0
VERTEX
  8
0
 10
1167.8800488281249
 20
10.159999999999854
 42
-0
  0
VERTEX
  8
0
 10
1127.1844921874999
 20
33.655605468749854
 42
-0
  0
VERTEX
  8
0
 10
1102.6800976562499
 20
58.159999999999854
 42
-0
  0
VERTEX
  8
0
 10
1102.6800976562499
 20
85.659999999999854
 42
-0
  0
VERTEX
  8
0
 10
1068.0799999999999
 20
85.659999999999854
 42
-0
  0
VERTEX
  8
0
 10
1068.0799999999999
 20
375.65999999999985
 42
0
  0
VERTEX
  8
0
 10
1102.6800976562499
 20
375.65999999999985
 42
-0
  0
VERTEX
  8
0
 10
1102.6800976562499
 20
403.15999999999985
 42
0
  0
VERTEX
  8
0
 10
1127.1844921874999
 20
427.66439453124985
 42
0
  0
VERTEX
  8
0
 10
1167.8800488281249
 20
451.15999999999985
 42
0
  0
SEQEND
  0
POLYLINE
  8
0
 10
0
 20
0
 39
0
 70
1
 66
1
  0
VERTEX
  8
0
 10
1178.96
 20
561.04004882812478
 42
-0
  0
VERTEX
  8
0
 10
1155.46439453125
 20
520.34449218749978
 42
-0
  0
VERTEX
  8
0
 10
1130.96
 20
495.84009765624978
 42
-0
  0
VERTEX
  8
0
 10
1103.46
 20
495.84009765624978
 42
-0
  0
VERTEX
  8
0
 10
1103.46
 20
461.23999999999978
 42
-0
  0
VERTEX
  8
0
 10
813.46000000000004
 20
461.23999999999978
 42
0
  0
VERTEX
  8
0
 10
813.46000000000004
 20
495.84009765624978
 42
-0
  0
VERTEX
  8
0
 10
785.96000000000004
 20
495.84009765624978
 42
0
  0
VERTEX
  8
0
 10
761.45560546875004
 20
520.34449218749978
 42
0
  0
VERTEX
  8
0
 10
737.96000000000004
 20
561.04004882812478
 42
0
  0
SEQEND
  0
POLYLINE
  8
0
 10
0
 20
0
 39
0
 70
1
 66
1
  0
VERTEX
  8
0
 10
1178.96
 20
670.96004882812485
 42
-0
  0
VERTEX
  8
0
 10
1155.46439453125
 20
630.26449218749985
 42
-0
  0
VERTEX
  8
0
 10
1130.96
 20
605.76009765624985
 42
-0
  0
VERTEX
  8
0
 10
1103.46
 20
605.76009765624985
 42
-0
  0
VERTEX
  8
0
 10
1103.46
 20
571.15999999999985
 42
-0
  0
VERTEX
  8
0
 10
813.46000000000004
 20
571.15999999999985
 42
0
  0
VERTEX
  8
0
 10
813.46000000000004
 20
605.76009765624985
 42
-0
  0
VERTEX
  8
0
 10
785.96000000000004
 20
605.76009765624985
 42
0
  0
VERTEX
  8
0
 10
761.45560546875004
 20
630.26449218749985
 42
0
  0
VERTEX
  8
0
 10
737.96000000000004
 20
670.96004882812485
 42
0
  0
SEQEND
  0
POLYLINE
  8
0
 10
0
 20
0
 39
0
 70
1
 66
1
  0
VERTEX
  8
0
 10
75.159999999999997
 20
581.88
 42
-0
  0
VERTEX
  8
0
 10
75.159999999999997
 20
513.88
 42
0
  0
VERTEX
  8
0
 10
53.159999999999997
 20
513.88
 42
0.41421356797218323
  0
VERTEX
  8
0
 10
45.159999999999997
 20
505.88
 42
-0
  0
VERTEX
  8
0
 10
45.159999999999997
 20
406.88
 42
-0
  0
VERTEX
  8
0
 10
10.159999999999997
 20
406.88
 42
-0
  0
VERTEX
  8
0
 10
10.159999999999997
 20
646.88
 42
-0
  0
VERTEX
  8
0
 10
45.159999999999997
 20
646.88
 42
-0
  0
VERTEX
  8
0
 10
45.159999999999997
 20
589.88
 42
0.41421356797218323
  0
VERTEX
  8
0
 10
53.159999999999997
 20
581.88
 42
-0
  0
SEQEND
  0
POLYLINE
  8
0
 10
0
 20
0
 39
0
 70
1
 66
1
  0
VERTEX
  8
0
 10
487.31999999999999
 20
513.91999999999996
 42
-0
  0
VERTEX
  8
0
 10
419.31999999999999
 20
513.91999999999996
 42
0
  0
VERTEX
  8
0
 10
419.31999999999999
 20
535.91999999999996
 42
0.41421356797218323
  0
VERTEX
  8
0
 10
411.31999999999999
 20
543.91999999999996
 42
-0
  0
VERTEX
  8
0
 10
312.31999999999999
 20
543.91999999999996
 42
-0
  0
VERTEX
  8
0
 10
312.31999999999999
 20
578.91999999999996
 42
-0
  0
VERTEX
  8
0
 10
552.31999999999994
 20
578.91999999999996
 42
-0
  0
VERTEX
  8
0
 10
552.31999999999994
 20
543.91999999999996
 42
-0
  0
VERTEX
  8
0
 10
495.31999999999999
 20
543.91999999999996
 42
0.41421356797218323
  0
VERTEX
  8
0
 10
487.31999999999999
 20
535.91999999999996
 42
-0
  0
SEQEND
  0
POLYLINE
  8
0
 10
0
 20
0
 39
0
 70
1
 66
1
  0
VERTEX
  8
0
 10
487.31999999999999
 20
589.03999999999996
 42
-0
  0
VERTEX
  8
0
 10
419.31999999999999
 20
589.03999999999996
 42
0
  0
VERTEX
  8
0
 10
419.31999999999999
 20
611.03999999999996
 42
0.41421356797218323
  0
VERTEX
  8
0
 10
411.31999999999999
 20
619.03999999999996
 42
-0
  0
VERTEX
  8
0
 10
312.31999999999999
 20
619.03999999999996
 42
-0
  0
VERTEX
  8
0
 10
312.31999999999999
 20
654.03999999999996
 42
-0
  0
VERTEX
  8
0
 10
552.31999999999994
 20
654.03999999999996
 42
-0
  0
VERTEX
  8
0
 10
552.31999999999994
 20
619.03999999999996
 42
-0
  0
VERTEX
  8
0
 10
495.31999999999999
 20
619.03999999999996
 42
0.41421356797218323
  0
VERTEX
  8
0
 10
487.31999999999999
 20
611.03999999999996
 42
-0
  0
SEQEND
  0
POLYLINE
  8
0
 10
0
 20
0
 39
0
 70
1
 66
1
  0
VERTEX
  8
0
 10
537.55999999999995
 20
460.72000000000003
 42
-0
  0
VERTEX
  8
0
 10
537.55999999999995
 20
528.72000000000003
 42
0
  0
VERTEX
  8
0
 10
559.55999999999995
 20
528.72000000000003
 42
0.41421356797218323
  0
VERTEX
  8
0
 10
567.55999999999995
 20
536.72000000000003
 42
-0
  0
VERTEX
  8
0
 10
567.55999999999995
 20
635.72000000000003
 42
-0
  0
VERTEX
  8
0
 10
602.55999999999995
 20
635.72000000000003
 42
-0
  0
VERTEX
  8
0
 10
602.55999999999995
 20
395.72000000000003
 42
-0
  0
VERTEX
  8
0
 10
567.55999999999995
 20
395.72000000000003
 42
-0
  0
VERTEX
  8
0
 10
567.55999999999995
 20
452.72000000000003
 42
0.41421356797218323
  0
VERTEX
  8
0
 10
559.55999999999995
 20
460.72000000000003
 42
-0
  0
SEQEND
  0
ENDSEC
  0
EOF
