  0
SECTION
  2
ENTITIES
  0
POLYLINE
  8
0
 10
0
 20
0
 39
0
 70
1
 66
1
  0
VERTEX
  8
0
 10
0
 20
0
 42
-0
  0
VERTEX
  8
0
 10
500
 20
0
 42
-0
  0
VERTEX
  8
0
 10
500
 20
400
 42
-0
  0
VERTEX
  8
0
 10
0
 20
400
 42
-0
  0
SEQEND
  0
POLYLINE
  8
0
 10
0
 20
0
 39
0
 70
1
 66
1
  0
VERTEX
  8
0
 10
168.07692307692307
 20
17.420068924243633
 42
0
  0
VERTEX
  8
0
 10
160.73377722960251
 20
10.076923076923077
 42
0
  0
VERTEX
  8
0
 10
17.420062725360566
 20
10.076923076923077
 42
0
  0
VERTEX
  8
0
 10
10.076923076923066
 20
17.420068924243633
 42
0
  0
VERTEX
  8
0
 10
10.076923076923066
 20
175.73378342848557
 42
0
  0
VERTEX
  8
0
 10
17.420062725360566
 20
183.07692307692307
 42
0
  0
VERTEX
  8
0
 10
160.73377722960251
 20
183.07692307692307
 42
0
  0
VERTEX
  8
0
 10
168.07692307692307
 20
175.73378342848557
 42
0
  0
SEQEND
  0
POLYLINE
  8
0
 10
0
 20
0
 39
0
 70
1
 66
1
  0
VERTEX
  8
0
 10
31.576923076923066
 20
154.07692307692307
 42
0
  0
VERTEX
  8
0
 10
31.576923076923066
 20
39.733777706439682
 42
0
  0
VERTEX
  8
0
 10
32.233783428485566
 20
39.07692307692308
 42
0
  0
VERTEX
  8
0
 10
145.92006844740646
 20
39.07692307692308
 42
0
  0
VERTEX
  8
0
 10
146.57692307692307
 20
39.733777706439682
 42
0
  0
VERTEX
  8
0
 10
146.57692307692307
 20
153.42006272536057
 42
0
  0
VERTEX
  8
0
 10
145.92006844740646
 20
154.07692307692307
 42
0
  0
SEQEND
  0
POLYLINE
  8
0
 10
0
 20
0
 39
0
 70
1
 66
1
  0
VERTEX
  8
0
 10
168.07692307692307
 20
200.45853046270517
 42
0
  0
VERTEX
  8
0
 10
160.73377722960251
 20
193.11538461538461
 42
0
  0
VERTEX
  8
0
 10
17.420062725360566
 20
193.11538461538461
 42
0
  0
VERTEX
  8
0
 10
10.076923076923066
 20
200.45853046270517
 42
0
  0
VERTEX
  8
0
 10
10.076923076923066
 20
358.77224496694714
 42
0
  0
VERTEX
  8
0
 10
17.420062725360566
 20
366.11538461538464
 42
0
  0
VERTEX
  8
0
 10
160.73377722960251
 20
366.11538461538464
 42
0
  0
VERTEX
  8
0
 10
168.07692307692307
 20
358.77224496694714
 42
0
  0
SEQEND
  0
POLYLINE
  8
0
 10
0
 20
0
 39
0
 70
1
 66
1
  0
VERTEX
  8
0
 10
31.576923076923066
 20
337.11538461538464
 42
0
  0
VERTEX
  8
0
 10
31.576923076923066
 20
222.77223924490121
 42
0
  0
VERTEX
  8
0
 10
32.233783428485566
 20
222.11538461538461
 42
0
  0
VERTEX
  8
0
 10
145.92006844740646
 20
222.11538461538461
 42
0
  0
VERTEX
  8
0
 10
146.57692307692307
 20
222.77223924490121
 42
0
  0
VERTEX
  8
0
 10
146.57692307692307
 20
336.45852426382214
 42
0
  0
VERTEX
  8
0
 10
145.92006844740646
 20
337.11538461538464
 42
0
  0
SEQEND
  0
POLYLINE
  8
0
 10
0
 20
0
 39
0
 70
1
 66
1
  0
VERTEX
  8
0
 10
268.15384615384613
 20
190.07692307692307
 42
-0
  0
VERTEX
  8
0
 10
268.15384615384619
 20
10.076923076923082
 42
-0
  0
VERTEX
  8
0
 10
178.15384615384616
 20
10.076923076923077
 42
-0
  0
VERTEX
  8
0
 10
178.15384615384616
 20
190.07692307692307
 42
-0
  0
SEQEND
  0
POLYLINE
  8
0
 10
0
 20
0
 39
0
 70
1
 66
1
  0
VERTEX
  8
0
 10
212.65384615384616
 20
49.57692307692308
 42
1
  0
VERTEX
  8
0
 10
233.65384615384616
 20
49.57692307692308
 42
-0
  0
VERTEX
  8
0
 10
233.65384615384616
 20
98.57692307692308
 42
1
  0
VERTEX
  8
0
 10
212.65384615384616
 20
98.57692307692308
 42
0
  0
SEQEND
  0
POLYLINE
  8
0
 10
0
 20
0
 39
0
 70
1
 66
1
  0
VERTEX
  8
0
 10
268.15384615384613
 20
380.11538461538464
 42
-0
  0
VERTEX
  8
0
 10
268.15384615384619
 20
200.11538461538461
 42
-0
  0
VERTEX
  8
0
 10
178.15384615384616
 20
200.11538461538461
 42
-0
  0
VERTEX
  8
0
 10
178.15384615384616
 20
380.11538461538464
 42
-0
  0
SEQEND
  0
POLYLINE
  8
0
 10
0
 20
0
 39
0
 70
1
 66
1
  0
VERTEX
  8
0
 10
212.65384615384616
 20
239.61538461538461
 42
1
  0
VERTEX
  8
0
 10
233.65384615384616
 20
239.61538461538461
 42
-0
  0
VERTEX
  8
0
 10
233.65384615384616
 20
288.61538461538464
 42
1
  0
VERTEX
  8
0
 10
212.65384615384616
 20
288.61538461538464
 42
0
  0
SEQEND
  0
POLYLINE
  8
0
 10
0
 20
0
 39
0
 70
1
 66
1
  0
VERTEX
  8
0
 10
368.23076923076923
 20
190.07692307692307
 42
-0
  0
VERTEX
  8
0
 10
368.23076923076923
 20
10.076923076923082
 42
-0
  0
VERTEX
  8
0
 10
278.23076923076923
 20
10.076923076923077
 42
-0
  0
VERTEX
  8
0
 10
278.23076923076923
 20
190.07692307692307
 42
-0
  0
SEQEND
  0
POLYLINE
  8
0
 10
0
 20
0
 39
0
 70
1
 66
1
  0
VERTEX
  8
0
 10
312.73076923076923
 20
49.57692307692308
 42
1
  0
VERTEX
  8
0
 10
333.73076923076923
 20
49.57692307692308
 42
-0
  0
VERTEX
  8
0
 10
333.73076923076923
 20
98.57692307692308
 42
1
  0
VERTEX
  8
0
 10
312.73076923076923
 20
98.57692307692308
 42
0
  0
SEQEND
  0
POLYLINE
  8
0
 10
0
 20
0
 39
0
 70
1
 66
1
  0
VERTEX
  8
0
 10
368.23076923076923
 20
380.11538461538464
 42
-0
  0
VERTEX
  8
0
 10
368.23076923076923
 20
200.11538461538461
 42
-0
  0
VERTEX
  8
0
 10
278.23076923076923
 20
200.11538461538461
 42
-0
  0
VERTEX
  8
0
 10
278.23076923076923
 20
380.11538461538464
 42
-0
  0
SEQEND
  0
POLYLINE
  8
0
 10
0
 20
0
 39
0
 70
1
 66
1
  0
VERTEX
  8
0
 10
312.73076923076923
 20
239.61538461538461
 42
1
  0
VERTEX
  8
0
 10
333.73076923076923
 20
239.61538461538461
 42
-0
  0
VERTEX
  8
0
 10
333.73076923076923
 20
288.61538461538464
 42
1
  0
VERTEX
  8
0
 10
312.73076923076923
 20
288.61538461538464
 42
0
  0
SEQEND
  0
POLYLINE
  8
0
 10
0
 20
0
 39
0
 70
1
 66
1
  0
VERTEX
  8
0
 10
468.30769230769232
 20
190.07692307692307
 42
-0
  0
VERTEX
  8
0
 10
468.30769230769232
 20
10.076923076923082
 42
-0
  0
VERTEX
  8
0
 10
378.30769230769232
 20
10.076923076923077
 42
-0
  0
VERTEX
  8
0
 10
378.30769230769232
 20
190.07692307692307
 42
-0
  0
SEQEND
  0
POLYLINE
  8
0
 10
0
 20
0
 39
0
 70
1
 66
1
  0
VERTEX
  8
0
 10
412.80769230769232
 20
49.57692307692308
 42
1
  0
VERTEX
  8
0
 10
433.80769230769232
 20
49.57692307692308
 42
-0
  0
VERTEX
  8
0
 10
433.80769230769232
 20
98.57692307692308
 42
1
  0
VERTEX
  8
0
 10
412.80769230769232
 20
98.57692307692308
 42
0
  0
SEQEND
  0
POLYLINE
  8
0
 10
0
 20
0
 39
0
 70
1
 66
1
  0
VERTEX
  8
0
 10
468.30769230769232
 20
380.11538461538464
 42
-0
  0
VERTEX
  8
0
 10
468.30769230769232
 20
200.11538461538461
 42
-0
  0
VERTEX
  8
0
 10
378.30769230769232
 20
200.11538461538461
 42
-0
  0
VERTEX
  8
0
 10
378.30769230769232
 20
380.11538461538464
 42
-0
  0
SEQEND
  0
POLYLINE
  8
0
 10
0
 20
0
 39
0
 70
1
 66
1
  0
VERTEX
  8
0
 10
412.80769230769232
 20
239.61538461538461
 42
1
  0
VERTEX
  8
0
 10
433.80769230769232
 20
239.61538461538461
 42
-0
  0
VERTEX
  8
0
 10
433.80769230769232
 20
288.61538461538464
 42
1
  0
VERTEX
  8
0
 10
412.80769230769232
 20
288.61538461538464
 42
0
  0
SEQEND
  0
POLYLINE
  8
0
 10
0
 20
0
 39
0
 70
1
 66
1
  0
VERTEX
  8
0
 10
41.65384615384616
 20
49.153846153846153
 42
-0
  0
VERTEX
  8
0
 10
41.653846153846153
 20
129.15384615384616
 42
-0
  0
VERTEX
  8
0
 10
111.65384615384616
 20
129.15384615384616
 42
-0
  0
VERTEX
  8
0
 10
111.65384615384616
 20
49.15384615384616
 42
-0
  0
SEQEND
  0
POLYLINE
  8
0
 10
0
 20
0
 39
0
 70
1
 66
1
  0
VERTEX
  8
0
 10
94.15384615384616
 20
69.15384615384616
 42
-0
  0
VERTEX
  8
0
 10
94.15384615384616
 20
109.15384615384616
 42
-0
  0
VERTEX
  8
0
 10
59.15384615384616
 20
109.15384615384616
 42
-0
  0
VERTEX
  8
0
 10
59.15384615384616
 20
69.15384615384616
 42
-0
  0
SEQEND
  0
POLYLINE
  8
0
 10
0
 20
0
 39
0
 70
1
 66
1
  0
VERTEX
  8
0
 10
41.65384615384616
 20
232.19230769230768
 42
-0
  0
VERTEX
  8
0
 10
41.653846153846153
 20
312.19230769230768
 42
-0
  0
VERTEX
  8
0
 10
111.65384615384616
 20
312.19230769230768
 42
-0
  0
VERTEX
  8
0
 10
111.65384615384616
 20
232.19230769230768
 42
-0
  0
SEQEND
  0
POLYLINE
  8
0
 10
0
 20
0
 39
0
 70
1
 66
1
  0
VERTEX
  8
0
 10
94.15384615384616
 20
252.19230769230768
 42
-0
  0
VERTEX
  8
0
 10
94.15384615384616
 20
292.19230769230768
 42
-0
  0
VERTEX
  8
0
 10
59.15384615384616
 20
292.19230769230768
 42
-0
  0
VERTEX
  8
0
 10
59.15384615384616
 20
252.19230769230768
 42
-0
  0
SEQEND
  0
ENDSEC
  0
EOF
