  0
SECTION
  2
ENTITIES
  0
POLYLINE
  8
0
 10
0
 20
0
 39
0
 70
1
 66
1
  0
VERTEX
  8
0
 10
0
 20
0
 42
-0
  0
VERTEX
  8
0
 10
1200
 20
0
 42
-0
  0
VERTEX
  8
0
 10
1200
 20
700
 42
-0
  0
VERTEX
  8
0
 10
0
 20
700
 42
-0
  0
SEQEND
  0
POLYLINE
  8
0
 10
0
 20
0
 39
0
 70
1
 66
1
  0
VERTEX
  8
0
 10
630.923
 20
570
 42
0
  0
VERTEX
  8
0
 10
590.923
 20
350
 42
0
  0
VERTEX
  8
0
 10
590.923
 20
230
 42
0
  0
VERTEX
  8
0
 10
630.923
 20
10
 42
-0
  0
VERTEX
  8
0
 10
670.8860126953125
 20
10
 42
-0.48969811201095581
  0
VERTEX
  8
0
 10
790.9599873046875
 20
10
 42
-0
  0
VERTEX
  8
0
 10
830.923
 20
10
 42
-0
  0
VERTEX
  8
0
 10
870.923
 20
230
 42
0
  0
VERTEX
  8
0
 10
870.923
 20
350
 42
-0
  0
VERTEX
  8
0
 10
830.923
 20
570
 42
-0
  0
VERTEX
  8
0
 10
790.9599873046875
 20
569.99999818020535
 42
-0.48969820141792297
  0
VERTEX
  8
0
 10
670.8860126953125
 20
570
 42
-0
  0
SEQEND
  0
POLYLINE
  8
0
 10
0
 20
0
 39
0
 70
1
 66
1
  0
VERTEX
  8
0
 10
756.923
 20
462
 42
0
  0
VERTEX
  8
0
 10
756.923
 20
393.21044921875
 42
-0.33088359236717224
  0
VERTEX
  8
0
 10
749.09608044433594
 20
382.67803955078125
 42
-0.1473628431558609
  0
VERTEX
  8
0
 10
712.7499271850586
 20
382.67803955078125
 42
-0.33088359236717224
  0
VERTEX
  8
0
 10
704.923
 20
393.21044921875
 42
-0
  0
VERTEX
  8
0
 10
704.923
 20
462
 42
-0
  0
SEQEND
  0
POLYLINE
  8
0
 10
0
 20
0
 39
0
 70
1
 66
1
  0
VERTEX
  8
0
 10
756.923
 20
118
 42
0
  0
VERTEX
  8
0
 10
704.923
 20
118
 42
-0
  0
VERTEX
  8
0
 10
704.923
 20
186.78955078125
 42
-0.33088359236717224
  0
VERTEX
  8
0
 10
712.7499271850586
 20
197.32196044921875
 42
-0.14736282825469971
  0
VERTEX
  8
0
 10
749.09608044433594
 20
197.32196044921875
 42
-0.33088359236717224
  0
VERTEX
  8
0
 10
756.923
 20
186.78955078125
 42
0
  0
SEQEND
  0
POLYLINE
  8
0
 10
0
 20
0
 39
0
 70
1
 66
1
  0
VERTEX
  8
0
 10
290.923
 20
10.000000000000114
 42
0
  0
VERTEX
  8
0
 10
290.923
 20
385.00000000000011
 42
-0
  0
VERTEX
  8
0
 10
283.923
 20
450.00000000000011
 42
-0
  0
VERTEX
  8
0
 10
263.923
 20
470.00000000000011
 42
0
  0
VERTEX
  8
0
 10
80.923000000000002
 20
470.00000000000011
 42
0
  0
VERTEX
  8
0
 10
230.92300000000003
 20
10.000000000000114
 42
0
  0
SEQEND
  0
POLYLINE
  8
0
 10
0
 20
0
 39
0
 70
1
 66
1
  0
VERTEX
  8
0
 10
10
 20
470
 42
0
  0
VERTEX
  8
0
 10
10.000000000000057
 20
95.000000000000014
 42
-0
  0
VERTEX
  8
0
 10
17.000000000000085
 20
30.000000000000021
 42
-0
  0
VERTEX
  8
0
 10
37.000000000000085
 20
10.000000000000023
 42
0
  0
VERTEX
  8
0
 10
220.00000000000009
 20
10.000000000000057
 42
0
  0
VERTEX
  8
0
 10
70
 20
470.00000000000006
 42
0
  0
SEQEND
  0
POLYLINE
  8
0
 10
0
 20
0
 39
0
 70
1
 66
1
  0
VERTEX
  8
0
 10
10
 20
480
 42
0
  0
VERTEX
  8
0
 10
280
 20
480
 42
-0
  0
VERTEX
  8
0
 10
280
 20
491.07278728485107
 42
-1
  0
VERTEX
  8
0
 10
280
 20
523.07278823852539
 42
-0
  0
VERTEX
  8
0
 10
280
 20
534.14557266235352
 42
0.21420902013778687
  0
VERTEX
  8
0
 10
247.5843505859375
 20
570
 42
-0
  0
VERTEX
  8
0
 10
10.000000000000005
 20
570
 42
-0
  0
SEQEND
  0
POLYLINE
  8
0
 10
0
 20
0
 39
0
 70
1
 66
1
  0
VERTEX
  8
0
 10
80.423110961914063
 20
525
 42
-1
  0
VERTEX
  8
0
 10
120.42311096191406
 20
525
 42
-1
  0
SEQEND
  0
POLYLINE
  8
0
 10
0
 20
0
 39
0
 70
1
 66
1
  0
VERTEX
  8
0
 10
340.923
 20
570
 42
0
  0
VERTEX
  8
0
 10
300.923
 20
350
 42
0
  0
VERTEX
  8
0
 10
300.923
 20
230
 42
0
  0
VERTEX
  8
0
 10
340.92300000000006
 20
10
 42
-0
  0
VERTEX
  8
0
 10
380.8860126953125
 20
10
 42
-0.48969811201095581
  0
VERTEX
  8
0
 10
500.9599873046875
 20
10
 42
-0
  0
VERTEX
  8
0
 10
540.923
 20
10
 42
-0
  0
VERTEX
  8
0
 10
580.923
 20
230
 42
0
  0
VERTEX
  8
0
 10
580.923
 20
350
 42
-0
  0
VERTEX
  8
0
 10
540.923
 20
570
 42
-0
  0
VERTEX
  8
0
 10
500.9599873046875
 20
569.99999818020535
 42
-0.48969820141792297
  0
VERTEX
  8
0
 10
380.8860126953125
 20
570
 42
-0
  0
SEQEND
  0
POLYLINE
  8
0
 10
0
 20
0
 39
0
 70
1
 66
1
  0
VERTEX
  8
0
 10
466.923
 20
462
 42
0
  0
VERTEX
  8
0
 10
466.923
 20
393.21044921875
 42
-0.33088359236717224
  0
VERTEX
  8
0
 10
459.09608044433594
 20
382.67803955078125
 42
-0.1473628431558609
  0
VERTEX
  8
0
 10
422.7499271850586
 20
382.67803955078125
 42
-0.33088359236717224
  0
VERTEX
  8
0
 10
414.923
 20
393.21044921875
 42
-0
  0
VERTEX
  8
0
 10
414.923
 20
462
 42
-0
  0
SEQEND
  0
POLYLINE
  8
0
 10
0
 20
0
 39
0
 70
1
 66
1
  0
VERTEX
  8
0
 10
466.923
 20
118
 42
0
  0
VERTEX
  8
0
 10
414.923
 20
118
 42
-0
  0
VERTEX
  8
0
 10
414.923
 20
186.78955078125
 42
-0.33088359236717224
  0
VERTEX
  8
0
 10
422.7499271850586
 20
197.32196044921875
 42
-0.14736282825469971
  0
VERTEX
  8
0
 10
459.09608044433594
 20
197.32196044921875
 42
-0.33088359236717224
  0
VERTEX
  8
0
 10
466.923
 20
186.78955078125
 42
0
  0
SEQEND
  0
POLYLINE
  8
0
 10
0
 20
0
 39
0
 70
1
 66
1
  0
VERTEX
  8
0
 10
290
 20
580
 42
0
  0
VERTEX
  8
0
 10
560
 20
580
 42
-0
  0
VERTEX
  8
0
 10
560
 20
591.07278728485107
 42
-1
  0
VERTEX
  8
0
 10
560
 20
623.07278823852539
 42
-0
  0
VERTEX
  8
0
 10
560
 20
634.14557266235352
 42
0.21420902013778687
  0
VERTEX
  8
0
 10
527.5843505859375
 20
670
 42
-0
  0
VERTEX
  8
0
 10
290
 20
670
 42
-0
  0
SEQEND
  0
POLYLINE
  8
0
 10
0
 20
0
 39
0
 70
1
 66
1
  0
VERTEX
  8
0
 10
360.42311096191406
 20
625
 42
-1
  0
VERTEX
  8
0
 10
400.42311096191406
 20
625
 42
-1
  0
SEQEND
  0
POLYLINE
  8
0
 10
0
 20
0
 39
0
 70
1
 66
1
  0
VERTEX
  8
0
 10
850
 20
580
 42
0
  0
VERTEX
  8
0
 10
1120
 20
580
 42
-0
  0
VERTEX
  8
0
 10
1120
 20
591.07278728485107
 42
-1
  0
VERTEX
  8
0
 10
1120
 20
623.07278823852539
 42
-0
  0
VERTEX
  8
0
 10
1120
 20
634.14557266235352
 42
0.21420902013778687
  0
VERTEX
  8
0
 10
1087.5843505859375
 20
670
 42
-0
  0
VERTEX
  8
0
 10
850
 20
670
 42
-0
  0
SEQEND
  0
POLYLINE
  8
0
 10
0
 20
0
 39
0
 70
1
 66
1
  0
VERTEX
  8
0
 10
920.42311096191406
 20
625
 42
-1
  0
VERTEX
  8
0
 10
960.42311096191406
 20
625
 42
-1
  0
SEQEND
  0
POLYLINE
  8
0
 10
0
 20
0
 39
0
 70
1
 66
1
  0
VERTEX
  8
0
 10
880.923
 20
440
 42
0
  0
VERTEX
  8
0
 10
1150.923
 20
440
 42
-0
  0
VERTEX
  8
0
 10
1150.923
 20
451.07278728485107
 42
-1
  0
VERTEX
  8
0
 10
1150.923
 20
483.07278823852539
 42
-0
  0
VERTEX
  8
0
 10
1150.923
 20
494.14557266235352
 42
0.21420902013778687
  0
VERTEX
  8
0
 10
1118.5073505859375
 20
530
 42
-0
  0
VERTEX
  8
0
 10
880.923
 20
530
 42
-0
  0
SEQEND
  0
POLYLINE
  8
0
 10
0
 20
0
 39
0
 70
1
 66
1
  0
VERTEX
  8
0
 10
951.34611096191406
 20
485
 42
-1
  0
VERTEX
  8
0
 10
991.34611096191406
 20
485
 42
-1
  0
SEQEND
  0
POLYLINE
  8
0
 10
0
 20
0
 39
0
 70
1
 66
1
  0
VERTEX
  8
0
 10
570
 20
580
 42
0
  0
VERTEX
  8
0
 10
840
 20
580
 42
-0
  0
VERTEX
  8
0
 10
840
 20
591.07278728485107
 42
-1
  0
VERTEX
  8
0
 10
840
 20
623.07278823852539
 42
-0
  0
VERTEX
  8
0
 10
840
 20
634.14557266235352
 42
0.21420902013778687
  0
VERTEX
  8
0
 10
807.5843505859375
 20
670
 42
-0
  0
VERTEX
  8
0
 10
570
 20
670
 42
-0
  0
SEQEND
  0
POLYLINE
  8
0
 10
0
 20
0
 39
0
 70
1
 66
1
  0
VERTEX
  8
0
 10
640.42311096191406
 20
625
 42
-1
  0
VERTEX
  8
0
 10
680.42311096191406
 20
625
 42
-1
  0
SEQEND
  0
POLYLINE
  8
0
 10
0
 20
0
 39
0
 70
1
 66
1
  0
VERTEX
  8
0
 10
880.923
 20
430
 42
0
  0
VERTEX
  8
0
 10
880.923
 20
10
 42
0
  0
VERTEX
  8
0
 10
1055.923
 20
10
 42
0
  0
VERTEX
  8
0
 10
1135.923
 20
90
 42
0
  0
VERTEX
  8
0
 10
1135.923
 20
350
 42
0
  0
VERTEX
  8
0
 10
1055.923
 20
430
 42
0
  0
SEQEND
  0
POLYLINE
  8
0
 10
0
 20
0
 39
0
 70
1
 66
1
  0
VERTEX
  8
0
 10
10
 20
580
 42
0
  0
VERTEX
  8
0
 10
280
 20
580
 42
-0
  0
VERTEX
  8
0
 10
280
 20
591.07278728485107
 42
-1
  0
VERTEX
  8
0
 10
280
 20
623.07278823852539
 42
-0
  0
VERTEX
  8
0
 10
280
 20
634.14557266235352
 42
0.21420902013778687
  0
VERTEX
  8
0
 10
247.5843505859375
 20
670
 42
-0
  0
VERTEX
  8
0
 10
10.000000000000005
 20
670
 42
-0
  0
SEQEND
  0
POLYLINE
  8
0
 10
0
 20
0
 39
0
 70
1
 66
1
  0
VERTEX
  8
0
 10
80.423110961914063
 20
625
 42
-1
  0
VERTEX
  8
0
 10
120.42311096191406
 20
625
 42
-1
  0
SEQEND
  0
ENDSEC
  0
EOF
