  0
SECTION
  2
ENTITIES
  0
POLYLINE
  8
0
 10
0
 20
0
 39
0
 70
1
 66
1
  0
VERTEX
  8
0
 10
0
 20
0
 42
-0
  0
VERTEX
  8
0
 10
700
 20
0
 42
-0
  0
VERTEX
  8
0
 10
700
 20
500
 42
-0
  0
VERTEX
  8
0
 10
0
 20
500
 42
-0
  0
SEQEND
  0
POLYLINE
  8
0
 10
0
 20
0
 39
0
 70
1
 66
1
  0
VERTEX
  8
0
 10
188.33602264420784
 20
365.05984250236958
 42
-1
  0
VERTEX
  8
0
 10
186.78704790435455
 20
10.063228046192819
 42
-1
  0
SEQEND
  0
POLYLINE
  8
0
 10
0
 20
0
 39
0
 70
1
 66
1
  0
VERTEX
  8
0
 10
188.21603164323329
 20
337.56010476280659
 42
1
  0
VERTEX
  8
0
 10
186.9070389053291
 20
37.562965785755807
 42
1
  0
SEQEND
  0
POLYLINE
  8
0
 10
0
 20
0
 39
0
 70
1
 66
1
  0
VERTEX
  8
0
 10
178.32107398257415
 20
316.79875786569153
 42
-1
  0
VERTEX
  8
0
 10
177.18661360972385
 20
56.801237418914184
 42
-1
  0
SEQEND
  0
POLYLINE
  8
0
 10
0
 20
0
 39
0
 70
1
 66
1
  0
VERTEX
  8
0
 10
178.13781499926756
 20
274.79915840890442
 42
1
  0
VERTEX
  8
0
 10
177.36987259303044
 20
98.800836875701293
 42
1
  0
SEQEND
  0
POLYLINE
  8
0
 10
0
 20
0
 39
0
 70
1
 66
1
  0
VERTEX
  8
0
 10
454.98261244411259
 20
489.86029632722995
 42
-1
  0
VERTEX
  8
0
 10
453.84815207126229
 20
229.8627758804526
 42
-1
  0
SEQEND
  0
POLYLINE
  8
0
 10
0
 20
0
 39
0
 70
1
 66
1
  0
VERTEX
  8
0
 10
454.799353460806
 20
447.86069687044284
 42
1
  0
VERTEX
  8
0
 10
454.03141105456888
 20
271.86237533723971
 42
1
  0
SEQEND
  0
POLYLINE
  8
0
 10
0
 20
0
 39
0
 70
1
 66
1
  0
VERTEX
  8
0
 10
675.13846153846157
 20
10.061538461538461
 42
0
  0
VERTEX
  8
0
 10
375.13846153846157
 20
10.061538461538461
 42
0
  0
VERTEX
  8
0
 10
375.13846153846157
 20
190.06153846153848
 42
0
  0
VERTEX
  8
0
 10
675.13846153846157
 20
190.06153846153848
 42
0
  0
SEQEND
  0
POLYLINE
  8
0
 10
0
 20
0
 39
0
 70
1
 66
1
  0
VERTEX
  8
0
 10
645.13846153846157
 20
100.06153846153846
 42
1
  0
VERTEX
  8
0
 10
525.13846153846157
 20
100.06153846153846
 42
1
  0
SEQEND
  0
POLYLINE
  8
0
 10
0
 20
0
 39
0
 70
1
 66
1
  0
VERTEX
  8
0
 10
10.061538461538468
 20
353.5461538461538
 42
-0
  0
VERTEX
  8
0
 10
10.061538461538461
 20
463.5461538461538
 42
-0
  0
VERTEX
  8
0
 10
32.061538461538461
 20
463.5461538461538
 42
1
  0
VERTEX
  8
0
 10
78.061538461538476
 20
463.5461538461538
 42
-0
  0
VERTEX
  8
0
 10
100.06153846153848
 20
463.5461538461538
 42
-0
  0
VERTEX
  8
0
 10
100.06153846153848
 20
426.5461538461538
 42
1
  0
VERTEX
  8
0
 10
100.06153846153848
 20
390.5461538461538
 42
-0
  0
VERTEX
  8
0
 10
100.06153846153848
 20
353.5461538461538
 42
0
  0
SEQEND
  0
POLYLINE
  8
0
 10
0
 20
0
 39
0
 70
1
 66
1
  0
VERTEX
  8
0
 10
32.061538461538468
 20
364.86429196871239
 42
1
  0
VERTEX
  8
0
 10
32.061538461538461
 20
390.86429196871239
 42
1
  0
SEQEND
  0
POLYLINE
  8
0
 10
0
 20
0
 39
0
 70
1
 66
1
  0
VERTEX
  8
0
 10
110.16153846153847
 20
375.08461538461535
 42
-0
  0
VERTEX
  8
0
 10
110.16153846153847
 20
485.08461538461535
 42
-0
  0
VERTEX
  8
0
 10
132.16153846153847
 20
485.08461538461535
 42
1
  0
VERTEX
  8
0
 10
178.16153846153847
 20
485.08461538461535
 42
-0
  0
VERTEX
  8
0
 10
200.16153846153847
 20
485.08461538461535
 42
-0
  0
VERTEX
  8
0
 10
200.16153846153847
 20
448.08461538461535
 42
1
  0
VERTEX
  8
0
 10
200.16153846153847
 20
412.08461538461535
 42
-0
  0
VERTEX
  8
0
 10
200.16153846153847
 20
375.08461538461535
 42
0
  0
SEQEND
  0
POLYLINE
  8
0
 10
0
 20
0
 39
0
 70
1
 66
1
  0
VERTEX
  8
0
 10
132.16153846153847
 20
386.40275350717394
 42
1
  0
VERTEX
  8
0
 10
132.16153846153847
 20
412.40275350717394
 42
1
  0
SEQEND
  0
POLYLINE
  8
0
 10
0
 20
0
 39
0
 70
1
 66
1
  0
VERTEX
  8
0
 10
122.65384615384616
 20
131.75384615384615
 42
-0
  0
VERTEX
  8
0
 10
122.65384615384616
 20
241.75384615384615
 42
-0
  0
VERTEX
  8
0
 10
144.65384615384616
 20
241.75384615384615
 42
1
  0
VERTEX
  8
0
 10
190.65384615384616
 20
241.75384615384615
 42
-0
  0
VERTEX
  8
0
 10
212.65384615384616
 20
241.75384615384615
 42
-0
  0
VERTEX
  8
0
 10
212.65384615384616
 20
204.75384615384615
 42
1
  0
VERTEX
  8
0
 10
212.65384615384616
 20
168.75384615384615
 42
-0
  0
VERTEX
  8
0
 10
212.65384615384616
 20
131.75384615384615
 42
0
  0
SEQEND
  0
POLYLINE
  8
0
 10
0
 20
0
 39
0
 70
1
 66
1
  0
VERTEX
  8
0
 10
144.65384615384616
 20
143.07198427640475
 42
1
  0
VERTEX
  8
0
 10
144.65384615384616
 20
169.07198427640475
 42
1
  0
SEQEND
  0
POLYLINE
  8
0
 10
0
 20
0
 39
0
 70
1
 66
1
  0
VERTEX
  8
0
 10
210.26153846153844
 20
373.84615384615381
 42
-0
  0
VERTEX
  8
0
 10
210.26153846153844
 20
483.84615384615381
 42
-0
  0
VERTEX
  8
0
 10
232.26153846153844
 20
483.84615384615381
 42
1
  0
VERTEX
  8
0
 10
278.26153846153841
 20
483.84615384615381
 42
-0
  0
VERTEX
  8
0
 10
300.26153846153841
 20
483.84615384615381
 42
-0
  0
VERTEX
  8
0
 10
300.26153846153841
 20
446.84615384615381
 42
1
  0
VERTEX
  8
0
 10
300.26153846153841
 20
410.84615384615381
 42
-0
  0
VERTEX
  8
0
 10
300.26153846153841
 20
373.84615384615381
 42
0
  0
SEQEND
  0
POLYLINE
  8
0
 10
0
 20
0
 39
0
 70
1
 66
1
  0
VERTEX
  8
0
 10
232.26153846153844
 20
385.1642919687124
 42
1
  0
VERTEX
  8
0
 10
232.26153846153844
 20
411.1642919687124
 42
1
  0
SEQEND
  0
POLYLINE
  8
0
 10
0
 20
0
 39
0
 70
1
 66
1
  0
VERTEX
  8
0
 10
399.31538461538457
 20
304.81538461538457
 42
-0
  0
VERTEX
  8
0
 10
399.31538461538457
 20
414.81538461538457
 42
-0
  0
VERTEX
  8
0
 10
421.31538461538457
 20
414.81538461538457
 42
1
  0
VERTEX
  8
0
 10
467.31538461538457
 20
414.81538461538457
 42
-0
  0
VERTEX
  8
0
 10
489.31538461538457
 20
414.81538461538457
 42
-0
  0
VERTEX
  8
0
 10
489.31538461538457
 20
377.81538461538457
 42
1
  0
VERTEX
  8
0
 10
489.31538461538457
 20
341.81538461538457
 42
-0
  0
VERTEX
  8
0
 10
489.31538461538457
 20
304.81538461538457
 42
0
  0
SEQEND
  0
POLYLINE
  8
0
 10
0
 20
0
 39
0
 70
1
 66
1
  0
VERTEX
  8
0
 10
421.31538461538457
 20
316.13352273794317
 42
1
  0
VERTEX
  8
0
 10
421.31538461538457
 20
342.13352273794317
 42
1
  0
SEQEND
  0
POLYLINE
  8
0
 10
0
 20
0
 39
0
 70
1
 66
1
  0
VERTEX
  8
0
 10
585.46153846153845
 20
200.08461538461538
 42
-0
  0
VERTEX
  8
0
 10
585.46153846153845
 20
310.0846153846154
 42
-0
  0
VERTEX
  8
0
 10
607.46153846153845
 20
310.0846153846154
 42
1
  0
VERTEX
  8
0
 10
653.46153846153845
 20
310.0846153846154
 42
-0
  0
VERTEX
  8
0
 10
675.46153846153845
 20
310.0846153846154
 42
-0
  0
VERTEX
  8
0
 10
675.46153846153845
 20
273.0846153846154
 42
1
  0
VERTEX
  8
0
 10
675.46153846153845
 20
237.08461538461538
 42
-0
  0
VERTEX
  8
0
 10
675.46153846153845
 20
200.08461538461538
 42
0
  0
SEQEND
  0
POLYLINE
  8
0
 10
0
 20
0
 39
0
 70
1
 66
1
  0
VERTEX
  8
0
 10
607.46153846153845
 20
211.40275350717397
 42
1
  0
VERTEX
  8
0
 10
607.46153846153845
 20
237.40275350717397
 42
1
  0
SEQEND
  0
POLYLINE
  8
0
 10
0
 20
0
 39
0
 70
1
 66
1
  0
VERTEX
  8
0
 10
593.16153846153838
 20
379.60769230769228
 42
-0
  0
VERTEX
  8
0
 10
593.16153846153838
 20
489.60769230769228
 42
-0
  0
VERTEX
  8
0
 10
615.16153846153838
 20
489.60769230769228
 42
1
  0
VERTEX
  8
0
 10
661.16153846153838
 20
489.60769230769228
 42
-0
  0
VERTEX
  8
0
 10
683.16153846153838
 20
489.60769230769228
 42
-0
  0
VERTEX
  8
0
 10
683.16153846153838
 20
452.60769230769228
 42
1
  0
VERTEX
  8
0
 10
683.16153846153838
 20
416.60769230769228
 42
-0
  0
VERTEX
  8
0
 10
683.16153846153838
 20
379.60769230769228
 42
0
  0
SEQEND
  0
POLYLINE
  8
0
 10
0
 20
0
 39
0
 70
1
 66
1
  0
VERTEX
  8
0
 10
615.16153846153838
 20
390.92583043025087
 42
1
  0
VERTEX
  8
0
 10
615.16153846153838
 20
416.92583043025087
 42
1
  0
SEQEND
  0
ENDSEC
  0
EOF
