  0
SECTION
  2
ENTITIES
  0
POLYLINE
  8
0
 10
0
 20
0
 39
0
 70
1
 66
1
  0
VERTEX
  8
0
 10
0
 20
0
 42
-0
  0
VERTEX
  8
0
 10
700
 20
0
 42
-0
  0
VERTEX
  8
0
 10
700
 20
300
 42
-0
  0
VERTEX
  8
0
 10
0
 20
300
 42
-0
  0
SEQEND
  0
POLYLINE
  8
0
 10
0
 20
0
 39
0
 70
1
 66
1
  0
VERTEX
  8
0
 10
290
 20
189.999997031048
 42
0
  0
VERTEX
  8
0
 10
560
 20
189.999997031048
 42
-0
  0
VERTEX
  8
0
 10
560
 20
201.07278431589907
 42
-1
  0
VERTEX
  8
0
 10
560
 20
233.07278526957339
 42
-0
  0
VERTEX
  8
0
 10
560
 20
244.14556969340151
 42
0.21420902013778687
  0
VERTEX
  8
0
 10
527.5843505859375
 20
279.999997031048
 42
-0
  0
VERTEX
  8
0
 10
290
 20
279.999997031048
 42
-0
  0
SEQEND
  0
POLYLINE
  8
0
 10
0
 20
0
 39
0
 70
1
 66
1
  0
VERTEX
  8
0
 10
360.42311096191406
 20
234.999997031048
 42
-1
  0
VERTEX
  8
0
 10
400.42311096191406
 20
234.999997031048
 42
-1
  0
SEQEND
  0
POLYLINE
  8
0
 10
0
 20
0
 39
0
 70
1
 66
1
  0
VERTEX
  8
0
 10
454.62911130188058
 20
179.99918789235505
 42
1
  0
VERTEX
  8
0
 10
455.37087385335963
 20
10.000809138692958
 42
1
  0
SEQEND
  0
POLYLINE
  8
0
 10
0
 20
0
 39
0
 70
1
 66
1
  0
VERTEX
  8
0
 10
454.82109690343987
 20
135.99960750905427
 42
-1
  0
VERTEX
  8
0
 10
455.17888825180034
 20
54.000389521993739
 42
-1
  0
SEQEND
  0
POLYLINE
  8
0
 10
0
 20
0
 39
0
 70
1
 66
1
  0
VERTEX
  8
0
 10
10
 20
189.999997031048
 42
0
  0
VERTEX
  8
0
 10
280
 20
189.999997031048
 42
-0
  0
VERTEX
  8
0
 10
280
 20
201.07278431589907
 42
-1
  0
VERTEX
  8
0
 10
280
 20
233.07278526957339
 42
-0
  0
VERTEX
  8
0
 10
280
 20
244.14556969340151
 42
0.21420902013778687
  0
VERTEX
  8
0
 10
247.5843505859375
 20
279.999997031048
 42
-0
  0
VERTEX
  8
0
 10
10.000000000000005
 20
279.999997031048
 42
-0
  0
SEQEND
  0
POLYLINE
  8
0
 10
0
 20
0
 39
0
 70
1
 66
1
  0
VERTEX
  8
0
 10
80.423110961914063
 20
234.999997031048
 42
-1
  0
VERTEX
  8
0
 10
120.42311096191406
 20
234.999997031048
 42
-1
  0
SEQEND
  0
POLYLINE
  8
0
 10
0
 20
0
 39
0
 70
1
 66
1
  0
VERTEX
  8
0
 10
570
 20
220
 42
0
  0
VERTEX
  8
0
 10
680
 20
220
 42
-0
  0
VERTEX
  8
0
 10
680
 20
232
 42
-1
  0
VERTEX
  8
0
 10
680
 20
258
 42
-0
  0
VERTEX
  8
0
 10
680
 20
270
 42
-0
  0
VERTEX
  8
0
 10
570
 20
270
 42
-0
  0
SEQEND
  0
POLYLINE
  8
0
 10
0
 20
0
 39
0
 70
1
 66
1
  0
VERTEX
  8
0
 10
612
 20
245
 42
-1
  0
VERTEX
  8
0
 10
638
 20
245
 42
-1
  0
SEQEND
  0
POLYLINE
  8
0
 10
0
 20
0
 39
0
 70
1
 66
1
  0
VERTEX
  8
0
 10
570
 20
210
 42
0
  0
VERTEX
  8
0
 10
570
 20
10
 42
-0
  0
VERTEX
  8
0
 10
620
 20
10
 42
-0
  0
VERTEX
  8
0
 10
620
 20
210
 42
-0
  0
SEQEND
  0
POLYLINE
  8
0
 10
0
 20
0
 39
0
 70
1
 66
1
  0
VERTEX
  8
0
 10
595
 20
173.32667541503906
 42
-1
  0
VERTEX
  8
0
 10
595
 20
143.32667541503906
 42
-1
  0
SEQEND
  0
POLYLINE
  8
0
 10
0
 20
0
 39
0
 70
1
 66
1
  0
VERTEX
  8
0
 10
274.62911427083253
 20
179.99918789235505
 42
1
  0
VERTEX
  8
0
 10
275.37087682231157
 20
10.000809138692958
 42
1
  0
SEQEND
  0
POLYLINE
  8
0
 10
0
 20
0
 39
0
 70
1
 66
1
  0
VERTEX
  8
0
 10
274.82109987239181
 20
135.99960750905427
 42
-1
  0
VERTEX
  8
0
 10
275.17889122075229
 20
54.000389521993739
 42
-1
  0
SEQEND
  0
POLYLINE
  8
0
 10
0
 20
0
 39
0
 70
1
 66
1
  0
VERTEX
  8
0
 10
94.629117239784492
 20
179.99918789235505
 42
1
  0
VERTEX
  8
0
 10
95.370879791263533
 20
10.000809138692958
 42
1
  0
SEQEND
  0
POLYLINE
  8
0
 10
0
 20
0
 39
0
 70
1
 66
1
  0
VERTEX
  8
0
 10
94.821102841343773
 20
135.99960750905427
 42
-1
  0
VERTEX
  8
0
 10
95.178894189704252
 20
54.000389521993739
 42
-1
  0
SEQEND
  0
POLYLINE
  8
0
 10
0
 20
0
 39
0
 70
1
 66
1
  0
VERTEX
  8
0
 10
630
 20
210
 42
0
  0
VERTEX
  8
0
 10
630
 20
10
 42
-0
  0
VERTEX
  8
0
 10
680
 20
10
 42
-0
  0
VERTEX
  8
0
 10
680
 20
210
 42
-0
  0
SEQEND
  0
POLYLINE
  8
0
 10
0
 20
0
 39
0
 70
1
 66
1
  0
VERTEX
  8
0
 10
655
 20
173.32667541503906
 42
-1
  0
VERTEX
  8
0
 10
655
 20
143.32667541503906
 42
-1
  0
SEQEND
  0
ENDSEC
  0
EOF
