  0
SECTION
  2
ENTITIES
  0
POLYLINE
  8
0
 10
0
 20
0
 39
0
 70
1
 66
1
  0
VERTEX
  8
0
 10
0
 20
0
 42
-0
  0
VERTEX
  8
0
 10
1000
 20
0
 42
-0
  0
VERTEX
  8
0
 10
1000
 20
600
 42
-0
  0
VERTEX
  8
0
 10
0
 20
600
 42
-0
  0
SEQEND
  0
POLYLINE
  8
0
 10
0
 20
0
 39
0
 70
1
 66
1
  0
VERTEX
  8
0
 10
10.199999809265137
 20
10.199999809265137
 42
0
  0
VERTEX
  8
0
 10
650.20001220703125
 20
10.199999809265137
 42
1
  0
SEQEND
  0
POLYLINE
  8
0
 10
0
 20
0
 39
0
 70
1
 66
1
  0
VERTEX
  8
0
 10
260.39999389648437
 20
355.5
 42
-0.058534786105155945
  0
VERTEX
  8
0
 10
343.79998779296875
 20
342.5
 42
0.11990410089492798
  0
VERTEX
  8
0
 10
427.20001220703125
 20
342.5
 42
-0.058534786105155945
  0
VERTEX
  8
0
 10
510.60000610351562
 20
355.5
 42
0
  0
VERTEX
  8
0
 10
510.60000610351562
 20
452.5
 42
0
  0
VERTEX
  8
0
 10
10.199999809265137
 20
452.5
 42
0
  0
VERTEX
  8
0
 10
10.199999809265137
 20
355.5
 42
-0.058534786105155945
  0
VERTEX
  8
0
 10
93.599990844726562
 20
342.5
 42
0.11990410089492798
  0
VERTEX
  8
0
 10
176.99998474121094
 20
342.5
 42
-0.058534786105155945
  0
SEQEND
  0
POLYLINE
  8
0
 10
0
 20
0
 39
0
 70
1
 66
1
  0
VERTEX
  8
0
 10
260.39999389648437
 20
480.60000610351562
 42
-0.058534786105155945
  0
VERTEX
  8
0
 10
343.79998779296875
 20
467.60000610351562
 42
0.11990410089492798
  0
VERTEX
  8
0
 10
427.20001220703125
 20
467.60000610351562
 42
-0.058534786105155945
  0
VERTEX
  8
0
 10
510.60000610351562
 20
480.60000610351562
 42
0
  0
VERTEX
  8
0
 10
510.60000610351562
 20
577.5999755859375
 42
0
  0
VERTEX
  8
0
 10
10.199999809265137
 20
577.5999755859375
 42
0
  0
VERTEX
  8
0
 10
10.199999809265137
 20
480.60000610351562
 42
-0.058534786105155945
  0
VERTEX
  8
0
 10
93.599990844726562
 20
467.60000610351562
 42
0.11990410089492798
  0
VERTEX
  8
0
 10
176.99998474121094
 20
467.60000610351562
 42
-0.058534786105155945
  0
SEQEND
  0
POLYLINE
  8
0
 10
0
 20
0
 39
0
 70
1
 66
1
  0
VERTEX
  8
0
 10
528.70001220703125
 20
304.79998779296875
 42
1
  0
VERTEX
  8
0
 10
658.70001220703125
 20
304.79998779296875
 42
0
  0
VERTEX
  8
0
 10
658.70001220703125
 20
524.79998779296875
 42
1
  0
VERTEX
  8
0
 10
528.70001220703125
 20
524.79998779296875
 42
0
  0
SEQEND
  0
POLYLINE
  8
0
 10
0
 20
0
 39
0
 70
1
 66
1
  0
VERTEX
  8
0
 10
668.70001220703125
 20
75.199996948242187
 42
1
  0
VERTEX
  8
0
 10
798.70001220703125
 20
75.199996948242187
 42
0
  0
VERTEX
  8
0
 10
798.70001220703125
 20
295.20001220703125
 42
1
  0
VERTEX
  8
0
 10
668.70001220703125
 20
295.20001220703125
 42
0
  0
SEQEND
  0
POLYLINE
  8
0
 10
0
 20
0
 39
0
 70
1
 66
1
  0
VERTEX
  8
0
 10
711.9075927734375
 20
369.9259033203125
 42
-0
  0
VERTEX
  8
0
 10
763.44744873046875
 20
423.251708984375
 42
1.4832396507263184
  0
VERTEX
  8
0
 10
668.9000244140625
 20
461.45138549804687
 42
-0
  0
VERTEX
  8
0
 10
668.93145751953125
 20
387.28939819335937
 42
0.67419987916946411
  0
SEQEND
  0
POLYLINE
  8
0
 10
0
 20
0
 39
0
 70
1
 66
1
  0
VERTEX
  8
0
 10
729.52593994140625
 20
546.79241943359375
 42
-0
  0
VERTEX
  8
0
 10
782.8516845703125
 20
495.25253295898437
 42
1.4832396507263184
  0
VERTEX
  8
0
 10
821.0513916015625
 20
589.79998779296875
 42
-0
  0
VERTEX
  8
0
 10
746.889404296875
 20
589.7685546875
 42
0.67419987916946411
  0
SEQEND
  0
POLYLINE
  8
0
 10
0
 20
0
 39
0
 70
1
 66
1
  0
VERTEX
  8
0
 10
844.29241943359375
 20
471.84881591796875
 42
-0
  0
VERTEX
  8
0
 10
792.75250244140625
 20
418.52301025390625
 42
1.4832396507263184
  0
VERTEX
  8
0
 10
887.29998779296875
 20
380.32333374023437
 42
-0
  0
VERTEX
  8
0
 10
887.2685546875
 20
454.48532104492188
 42
0.67419987916946411
  0
SEQEND
  0
POLYLINE
  8
0
 10
0
 20
0
 39
0
 70
1
 66
1
  0
VERTEX
  8
0
 10
875.6923828125
 20
156.74879455566406
 42
-0
  0
VERTEX
  8
0
 10
824.15252685546875
 20
103.42299652099609
 42
1.4832396507263184
  0
VERTEX
  8
0
 10
918.70001220703125
 20
65.223335266113281
 42
-0
  0
VERTEX
  8
0
 10
918.66851806640625
 20
139.38531494140625
 42
0.67419987916946411
  0
SEQEND
  0
POLYLINE
  8
0
 10
0
 20
0
 39
0
 70
1
 66
1
  0
VERTEX
  8
0
 10
851.9075927734375
 20
146.92591857910156
 42
-0
  0
VERTEX
  8
0
 10
903.44744873046875
 20
200.251708984375
 42
1.4832396507263184
  0
VERTEX
  8
0
 10
808.9000244140625
 20
238.45138549804687
 42
-0
  0
VERTEX
  8
0
 10
808.93145751953125
 20
164.28939819335937
 42
0.67419987916946411
  0
SEQEND
  0
POLYLINE
  8
0
 10
0
 20
0
 39
0
 70
1
 66
1
  0
VERTEX
  8
0
 10
897.4000244140625
 20
396.5
 42
0
  0
VERTEX
  8
0
 10
897.4000244140625
 20
294.5
 42
0
  0
VERTEX
  8
0
 10
932.4000244140625
 20
294.5
 42
0.66617089509963989
  0
VERTEX
  8
0
 10
951.95318603515625
 20
341.33706665039063
 42
0
  0
SEQEND
  0
POLYLINE
  8
0
 10
0
 20
0
 39
0
 70
1
 66
1
  0
VERTEX
  8
0
 10
959.9000244140625
 20
347.75601196289062
 42
0
  0
VERTEX
  8
0
 10
959.9000244140625
 20
449.75601196289062
 42
0
  0
VERTEX
  8
0
 10
924.9000244140625
 20
449.75601196289062
 42
0.66617089509963989
  0
VERTEX
  8
0
 10
905.3468017578125
 20
402.91891479492187
 42
0
  0
SEQEND
  0
POLYLINE
  8
0
 10
0
 20
0
 39
0
 70
1
 66
1
  0
VERTEX
  8
0
 10
10.199999809265137
 20
301
 42
0
  0
VERTEX
  8
0
 10
10.199999809265137
 20
199
 42
0
  0
VERTEX
  8
0
 10
45.200000762939453
 20
199
 42
0.66617089509963989
  0
VERTEX
  8
0
 10
64.753196716308594
 20
245.83706665039062
 42
0
  0
SEQEND
  0
POLYLINE
  8
0
 10
0
 20
0
 39
0
 70
1
 66
1
  0
VERTEX
  8
0
 10
146.30000305175781
 20
327.39999389648437
 42
0
  0
VERTEX
  8
0
 10
44.299999237060547
 20
327.39999389648437
 42
0
  0
VERTEX
  8
0
 10
44.299999237060547
 20
292.39999389648437
 42
0.66617089509963989
  0
VERTEX
  8
0
 10
91.137077331542969
 20
272.8468017578125
 42
0
  0
SEQEND
  0
POLYLINE
  8
0
 10
0
 20
0
 39
0
 70
1
 66
1
  0
VERTEX
  8
0
 10
944.70001220703125
 20
487.79998779296875
 42
0
  0
VERTEX
  8
0
 10
944.70001220703125
 20
589.79998779296875
 42
0
  0
VERTEX
  8
0
 10
909.70001220703125
 20
589.79998779296875
 42
0.66617089509963989
  0
VERTEX
  8
0
 10
890.14678955078125
 20
542.96295166015625
 42
0
  0
SEQEND
  0
POLYLINE
  8
0
 10
0
 20
0
 39
0
 70
1
 66
1
  0
VERTEX
  8
0
 10
973.5
 20
108.80000305175781
 42
0
  0
VERTEX
  8
0
 10
973.5
 20
210.80000305175781
 42
0
  0
VERTEX
  8
0
 10
938.5
 20
210.80000305175781
 42
0.66617089509963989
  0
VERTEX
  8
0
 10
918.94677734375
 20
163.96292114257812
 42
0
  0
SEQEND
  0
POLYLINE
  8
0
 10
0
 20
0
 39
0
 70
1
 66
1
  0
VERTEX
  8
0
 10
655
 20
162.5
 42
-0
  0
VERTEX
  8
0
 10
655
 20
242.5
 42
-0
  0
VERTEX
  8
0
 10
636
 20
242.5
 42
-0
  0
VERTEX
  8
0
 10
609.20684814453125
 20
216.98275756835937
 42
0.42857092618942261
  0
VERTEX
  8
0
 10
609.2069091796875
 20
188.01724243164062
 42
0
  0
VERTEX
  8
0
 10
636
 20
162.5
 42
0
  0
SEQEND
  0
POLYLINE
  8
0
 10
0
 20
0
 39
0
 70
1
 66
1
  0
VERTEX
  8
0
 10
979.70001220703125
 20
10.199999809265137
 42
-0
  0
VERTEX
  8
0
 10
979.70001220703125
 20
90.199996948242188
 42
-0
  0
VERTEX
  8
0
 10
960.70001220703125
 20
90.199996948242188
 42
-0
  0
VERTEX
  8
0
 10
933.9068603515625
 20
64.682754516601563
 42
0.42857092618942261
  0
VERTEX
  8
0
 10
933.90692138671875
 20
35.717239379882813
 42
0
  0
VERTEX
  8
0
 10
960.70001220703125
 20
10.199999809265137
 42
0
  0
SEQEND
  0
POLYLINE
  8
0
 10
0
 20
0
 39
0
 70
1
 66
1
  0
VERTEX
  8
0
 10
984
 20
220.89999389648437
 42
-0
  0
VERTEX
  8
0
 10
984
 20
300.89999389648437
 42
-0
  0
VERTEX
  8
0
 10
965
 20
300.89999389648437
 42
-0
  0
VERTEX
  8
0
 10
938.20684814453125
 20
275.38275146484375
 42
0.42857092618942261
  0
VERTEX
  8
0
 10
938.2069091796875
 20
246.417236328125
 42
0
  0
VERTEX
  8
0
 10
965
 20
220.89999389648437
 42
0
  0
SEQEND
  0
POLYLINE
  8
0
 10
0
 20
0
 39
0
 70
1
 66
1
  0
VERTEX
  8
0
 10
707.5
 20
589.70001220703125
 42
0
  0
VERTEX
  8
0
 10
667.5
 20
589.70001220703125
 42
0
  0
VERTEX
  8
0
 10
667.5
 20
541.70001220703125
 42
1
  0
VERTEX
  8
0
 10
707.5
 20
541.70001220703125
 42
0
  0
SEQEND
  0
ENDSEC
  0
EOF
