  0
SECTION
  2
ENTITIES
  0
POLYLINE
  8
0
 10
0
 20
0
 39
0
 70
1
 66
1
  0
VERTEX
  8
0
 10
0
 20
0
 42
-0
  0
VERTEX
  8
0
 10
600
 20
0
 42
-0
  0
VERTEX
  8
0
 10
600
 20
400
 42
-0
  0
VERTEX
  8
0
 10
0
 20
400
 42
-0
  0
SEQEND
  0
POLYLINE
  8
0
 10
0
 20
0
 39
0
 70
1
 66
1
  0
VERTEX
  8
0
 10
298
 20
350
 42
0
  0
VERTEX
  8
0
 10
432
 20
350
 42
0
  0
VERTEX
  8
0
 10
432
 20
370
 42
0
  0
VERTEX
  8
0
 10
298
 20
370
 42
0
  0
SEQEND
  0
POLYLINE
  8
0
 10
0
 20
0
 39
0
 70
1
 66
1
  0
VERTEX
  8
0
 10
10
 20
320
 42
0
  0
VERTEX
  8
0
 10
144
 20
320
 42
0
  0
VERTEX
  8
0
 10
144
 20
340
 42
0
  0
VERTEX
  8
0
 10
10
 20
340
 42
0
  0
SEQEND
  0
POLYLINE
  8
0
 10
0
 20
0
 39
0
 70
1
 66
1
  0
VERTEX
  8
0
 10
154
 20
350
 42
0
  0
VERTEX
  8
0
 10
288
 20
350
 42
0
  0
VERTEX
  8
0
 10
288
 20
370
 42
0
  0
VERTEX
  8
0
 10
154
 20
370
 42
0
  0
SEQEND
  0
POLYLINE
  8
0
 10
0
 20
0
 39
0
 70
1
 66
1
  0
VERTEX
  8
0
 10
442
 20
320
 42
0
  0
VERTEX
  8
0
 10
507
 20
320
 42
0
  0
VERTEX
  8
0
 10
522
 20
335
 42
0
  0
VERTEX
  8
0
 10
522
 20
355
 42
-0
  0
VERTEX
  8
0
 10
507
 20
370
 42
0
  0
VERTEX
  8
0
 10
442
 20
370
 42
0
  0
SEQEND
  0
POLYLINE
  8
0
 10
0
 20
0
 39
0
 70
1
 66
1
  0
VERTEX
  8
0
 10
503
 20
340
 42
0
  0
VERTEX
  8
0
 10
461
 20
340
 42
-1
  0
VERTEX
  8
0
 10
461
 20
350
 42
-0
  0
VERTEX
  8
0
 10
503
 20
350
 42
-1
  0
SEQEND
  0
POLYLINE
  8
0
 10
0
 20
0
 39
0
 70
1
 66
1
  0
VERTEX
  8
0
 10
10
 20
350
 42
0
  0
VERTEX
  8
0
 10
144
 20
350
 42
0
  0
VERTEX
  8
0
 10
144
 20
370
 42
0
  0
VERTEX
  8
0
 10
10
 20
370
 42
0
  0
SEQEND
  0
POLYLINE
  8
0
 10
0
 20
0
 39
0
 70
1
 66
1
  0
VERTEX
  8
0
 10
549.05348718166351
 20
83.317969441413879
 42
-0
  0
VERTEX
  8
0
 10
570.41610622406006
 20
91.840790271759033
 42
1
  0
VERTEX
  8
0
 10
551.88823485374451
 20
138.28126645088196
 42
0
  0
VERTEX
  8
0
 10
510.09180629253387
 20
121.60618221759796
 42
0
  0
VERTEX
  8
0
 10
510
 20
19.288095235824585
 42
0
  0
VERTEX
  8
0
 10
513.70557427406311
 20
10
 42
0
  0
VERTEX
  8
0
 10
569.43414568901062
 20
32.233445644378662
 42
-0
  0
SEQEND
  0
POLYLINE
  8
0
 10
0
 20
0
 39
0
 70
1
 66
1
  0
VERTEX
  8
0
 10
557.07603883743286
 20
125.27793312072754
 42
-1
  0
VERTEX
  8
0
 10
565.2283022403717
 20
104.84412360191345
 42
-1
  0
SEQEND
  0
POLYLINE
  8
0
 10
0
 20
0
 39
0
 70
1
 66
1
  0
VERTEX
  8
0
 10
566.15216976519548
 20
284.06102758761369
 42
0
  0
VERTEX
  8
0
 10
566.15216976519548
 20
150.06102758761369
 42
0
  0
VERTEX
  8
0
 10
586.15216976519548
 20
150.06102758761369
 42
0
  0
VERTEX
  8
0
 10
586.15216976519548
 20
284.06102758761369
 42
0
  0
SEQEND
  0
POLYLINE
  8
0
 10
0
 20
0
 39
0
 70
1
 66
1
  0
VERTEX
  8
0
 10
480
 20
144
 42
0
  0
VERTEX
  8
0
 10
480
 20
10
 42
0
  0
VERTEX
  8
0
 10
500
 20
10
 42
0
  0
VERTEX
  8
0
 10
500
 20
144
 42
0
  0
SEQEND
  0
POLYLINE
  8
0
 10
0
 20
0
 39
0
 70
1
 66
1
  0
VERTEX
  8
0
 10
519.05348718166351
 20
227.31796944141388
 42
-0
  0
VERTEX
  8
0
 10
540.41610622406006
 20
235.84079027175903
 42
1
  0
VERTEX
  8
0
 10
521.88823485374451
 20
282.28126645088196
 42
0
  0
VERTEX
  8
0
 10
480.09180629253387
 20
265.60618221759796
 42
0
  0
VERTEX
  8
0
 10
480
 20
163.28809523582458
 42
0
  0
VERTEX
  8
0
 10
483.70557427406311
 20
154
 42
0
  0
VERTEX
  8
0
 10
539.43414568901062
 20
176.23344564437866
 42
-0
  0
SEQEND
  0
POLYLINE
  8
0
 10
0
 20
0
 39
0
 70
1
 66
1
  0
VERTEX
  8
0
 10
527.07603883743286
 20
269.27793312072754
 42
-1
  0
VERTEX
  8
0
 10
535.2283022403717
 20
248.84412360191345
 42
-1
  0
SEQEND
  0
POLYLINE
  8
0
 10
0
 20
0
 39
0
 70
1
 66
1
  0
VERTEX
  8
0
 10
582
 20
294.06102758761369
 42
0
  0
VERTEX
  8
0
 10
582
 20
359.06102758761369
 42
0
  0
VERTEX
  8
0
 10
567
 20
374.06102758761369
 42
0
  0
VERTEX
  8
0
 10
547
 20
374.06102758761369
 42
-0
  0
VERTEX
  8
0
 10
532
 20
359.06102758761369
 42
0
  0
VERTEX
  8
0
 10
532
 20
294.06102758761369
 42
0
  0
SEQEND
  0
POLYLINE
  8
0
 10
0
 20
0
 39
0
 70
1
 66
1
  0
VERTEX
  8
0
 10
562
 20
355.06102758761369
 42
0
  0
VERTEX
  8
0
 10
562
 20
313.06102758761369
 42
-1
  0
VERTEX
  8
0
 10
552
 20
313.06102758761369
 42
-0
  0
VERTEX
  8
0
 10
552
 20
355.06102758761369
 42
-1
  0
SEQEND
  0
POLYLINE
  8
0
 10
0
 20
0
 39
0
 70
1
 66
1
  0
VERTEX
  8
0
 10
318.76388549804687
 20
217.5
 42
0
  0
VERTEX
  8
0
 10
300
 20
185
 42
0
  0
VERTEX
  8
0
 10
300
 20
180
 42
0
  0
VERTEX
  8
0
 10
400
 20
180
 42
0.41421356797218323
  0
VERTEX
  8
0
 10
415
 20
195
 42
0
  0
VERTEX
  8
0
 10
415
 20
325
 42
0.41421356797218323
  0
VERTEX
  8
0
 10
400
 20
340
 42
0
  0
VERTEX
  8
0
 10
300
 20
340
 42
0
  0
VERTEX
  8
0
 10
300
 20
335
 42
0
  0
VERTEX
  8
0
 10
318.76388359069824
 20
302.5
 42
-0.26794919371604919
  0
SEQEND
  0
POLYLINE
  8
0
 10
0
 20
0
 39
0
 70
1
 66
1
  0
VERTEX
  8
0
 10
318.76388549804687
 20
47.5
 42
0
  0
VERTEX
  8
0
 10
300
 20
15
 42
0
  0
VERTEX
  8
0
 10
300
 20
10
 42
0
  0
VERTEX
  8
0
 10
400
 20
10
 42
0.41421356797218323
  0
VERTEX
  8
0
 10
415
 20
25
 42
0
  0
VERTEX
  8
0
 10
415
 20
155
 42
0.41421356797218323
  0
VERTEX
  8
0
 10
400
 20
170
 42
0
  0
VERTEX
  8
0
 10
300
 20
170
 42
0
  0
VERTEX
  8
0
 10
300
 20
165
 42
0
  0
VERTEX
  8
0
 10
318.76388359069824
 20
132.5
 42
-0.26794919371604919
  0
SEQEND
  0
POLYLINE
  8
0
 10
0
 20
0
 39
0
 70
1
 66
1
  0
VERTEX
  8
0
 10
193.76388549804687
 20
217.5
 42
0
  0
VERTEX
  8
0
 10
175
 20
185
 42
0
  0
VERTEX
  8
0
 10
175
 20
180
 42
0
  0
VERTEX
  8
0
 10
275
 20
180
 42
0.41421356797218323
  0
VERTEX
  8
0
 10
290
 20
195
 42
0
  0
VERTEX
  8
0
 10
290
 20
325
 42
0.41421356797218323
  0
VERTEX
  8
0
 10
275
 20
340
 42
0
  0
VERTEX
  8
0
 10
175
 20
340
 42
0
  0
VERTEX
  8
0
 10
175
 20
335
 42
0
  0
VERTEX
  8
0
 10
193.76388359069824
 20
302.5
 42
-0.26794919371604919
  0
SEQEND
  0
POLYLINE
  8
0
 10
0
 20
0
 39
0
 70
1
 66
1
  0
VERTEX
  8
0
 10
10
 20
310
 42
0
  0
VERTEX
  8
0
 10
10.000000000000018
 20
10
 42
-0
  0
VERTEX
  8
0
 10
33.30531501770021
 20
10
 42
-0
  0
VERTEX
  8
0
 10
55.000000000000014
 20
37.564361572265625
 42
-0
  0
VERTEX
  8
0
 10
55
 20
310
 42
-0
  0
SEQEND
  0
POLYLINE
  8
0
 10
0
 20
0
 39
0
 70
1
 66
1
  0
VERTEX
  8
0
 10
65
 20
310
 42
0
  0
VERTEX
  8
0
 10
65.000000000000014
 20
10
 42
-0
  0
VERTEX
  8
0
 10
88.30531501770021
 20
10
 42
-0
  0
VERTEX
  8
0
 10
110.00000000000001
 20
37.564361572265625
 42
-0
  0
VERTEX
  8
0
 10
110
 20
310
 42
-0
  0
SEQEND
  0
POLYLINE
  8
0
 10
0
 20
0
 39
0
 70
1
 66
1
  0
VERTEX
  8
0
 10
193.76388549804687
 20
47.5
 42
0
  0
VERTEX
  8
0
 10
175
 20
15
 42
0
  0
VERTEX
  8
0
 10
175
 20
10
 42
0
  0
VERTEX
  8
0
 10
275
 20
10
 42
0.41421356797218323
  0
VERTEX
  8
0
 10
290
 20
25
 42
0
  0
VERTEX
  8
0
 10
290
 20
155
 42
0.41421356797218323
  0
VERTEX
  8
0
 10
275
 20
170
 42
0
  0
VERTEX
  8
0
 10
175
 20
170
 42
0
  0
VERTEX
  8
0
 10
175
 20
165
 42
0
  0
VERTEX
  8
0
 10
193.76388359069824
 20
132.5
 42
-0.26794919371604919
  0
SEQEND
  0
POLYLINE
  8
0
 10
0
 20
0
 39
0
 70
1
 66
1
  0
VERTEX
  8
0
 10
425
 20
310
 42
0
  0
VERTEX
  8
0
 10
425
 20
10
 42
-0
  0
VERTEX
  8
0
 10
448.3053150177002
 20
10
 42
-0
  0
VERTEX
  8
0
 10
470
 20
37.564361572265625
 42
-0
  0
VERTEX
  8
0
 10
470
 20
310
 42
-0
  0
SEQEND
  0
POLYLINE
  8
0
 10
0
 20
0
 39
0
 70
1
 66
1
  0
VERTEX
  8
0
 10
120
 20
310
 42
0
  0
VERTEX
  8
0
 10
120.00000000000001
 20
10
 42
-0
  0
VERTEX
  8
0
 10
143.30531501770022
 20
10
 42
-0
  0
VERTEX
  8
0
 10
165
 20
37.564361572265625
 42
-0
  0
VERTEX
  8
0
 10
165
 20
310
 42
-0
  0
SEQEND
  0
ENDSEC
  0
EOF
