  0
SECTION
  2
ENTITIES
  0
POLYLINE
  8
0
 10
0
 20
0
 39
0
 70
1
 66
1
  0
VERTEX
  8
0
 10
0
 20
0
 42
-0
  0
VERTEX
  8
0
 10
1100
 20
0
 42
-0
  0
VERTEX
  8
0
 10
1100
 20
800
 42
-0
  0
VERTEX
  8
0
 10
0
 20
800
 42
-0
  0
SEQEND
  0
POLYLINE
  8
0
 10
0
 20
0
 39
0
 70
1
 66
1
  0
VERTEX
  8
0
 10
222
 20
768.99999144243247
 42
0
  0
VERTEX
  8
0
 10
222.00000000000003
 20
509.99999144243247
 42
0
  0
VERTEX
  8
0
 10
424
 20
509.99999144243247
 42
0
  0
VERTEX
  8
0
 10
424
 20
768.99999144243247
 42
0
  0
SEQEND
  0
POLYLINE
  8
0
 10
0
 20
0
 39
0
 70
1
 66
1
  0
VERTEX
  8
0
 10
243.90691184997559
 20
718.42421248125083
 42
-0.11044000089168549
  0
VERTEX
  8
0
 10
285.05491638183594
 20
744.59480765031822
 42
-0
  0
VERTEX
  8
0
 10
285.05491638183594
 20
534.4051733271981
 42
-0.11044000089168549
  0
VERTEX
  8
0
 10
243.90691184997559
 20
560.57576658891685
 42
-0
  0
SEQEND
  0
POLYLINE
  8
0
 10
0
 20
0
 39
0
 70
1
 66
1
  0
VERTEX
  8
0
 10
402.09309387207031
 20
718.42421248125083
 42
0
  0
VERTEX
  8
0
 10
402.09309387207031
 20
560.57576658891685
 42
-0.11044000089168549
  0
VERTEX
  8
0
 10
360.94508361816406
 20
534.4051733271981
 42
0
  0
VERTEX
  8
0
 10
360.94508361816406
 20
744.59480765031822
 42
-0.11044000089168549
  0
SEQEND
  0
POLYLINE
  8
0
 10
0
 20
0
 39
0
 70
1
 66
1
  0
VERTEX
  8
0
 10
753.93097642769374
 20
499.99765921914104
 42
1
  0
VERTEX
  8
0
 10
756.06899789960391
 20
10.002332223291461
 42
1
  0
SEQEND
  0
POLYLINE
  8
0
 10
0
 20
0
 39
0
 70
1
 66
1
  0
VERTEX
  8
0
 10
755.49740440405242
 20
141.00108290993697
 42
-1
  0
VERTEX
  8
0
 10
754.50256992324523
 20
368.99890853249553
 42
-1
  0
SEQEND
  0
POLYLINE
  8
0
 10
0
 20
0
 39
0
 70
1
 66
1
  0
VERTEX
  8
0
 10
874
 20
509.99999144243247
 42
0
  0
VERTEX
  8
0
 10
1084
 20
509.99999144243247
 42
0
  0
VERTEX
  8
0
 10
1084
 20
719.99999144243247
 42
0
  0
VERTEX
  8
0
 10
874
 20
719.99999144243247
 42
0
  0
SEQEND
  0
POLYLINE
  8
0
 10
0
 20
0
 39
0
 70
1
 66
1
  0
VERTEX
  8
0
 10
924
 20
614.99999144243247
 42
-1
  0
VERTEX
  8
0
 10
1034
 20
614.99999144243247
 42
-1
  0
SEQEND
  0
POLYLINE
  8
0
 10
0
 20
0
 39
0
 70
1
 66
1
  0
VERTEX
  8
0
 10
654
 20
509.99999144243247
 42
0
  0
VERTEX
  8
0
 10
864
 20
509.99999144243247
 42
0
  0
VERTEX
  8
0
 10
864
 20
719.99999144243247
 42
0
  0
VERTEX
  8
0
 10
654
 20
719.99999144243247
 42
0
  0
SEQEND
  0
POLYLINE
  8
0
 10
0
 20
0
 39
0
 70
1
 66
1
  0
VERTEX
  8
0
 10
704
 20
614.99999144243247
 42
-1
  0
VERTEX
  8
0
 10
814
 20
614.99999144243247
 42
-1
  0
SEQEND
  0
POLYLINE
  8
0
 10
0
 20
0
 39
0
 70
1
 66
1
  0
VERTEX
  8
0
 10
253.93098498526118
 20
499.99765921914104
 42
1
  0
VERTEX
  8
0
 10
256.06900645717133
 20
10.002332223291461
 42
1
  0
SEQEND
  0
POLYLINE
  8
0
 10
0
 20
0
 39
0
 70
1
 66
1
  0
VERTEX
  8
0
 10
255.49741296161986
 20
141.00108290993697
 42
-1
  0
VERTEX
  8
0
 10
254.50257848081267
 20
368.99890853249553
 42
-1
  0
SEQEND
  0
POLYLINE
  8
0
 10
0
 20
0
 39
0
 70
1
 66
1
  0
VERTEX
  8
0
 10
434
 20
509.99999144243247
 42
0
  0
VERTEX
  8
0
 10
644
 20
509.99999144243247
 42
0
  0
VERTEX
  8
0
 10
644
 20
719.99999144243247
 42
0
  0
VERTEX
  8
0
 10
434
 20
719.99999144243247
 42
0
  0
SEQEND
  0
POLYLINE
  8
0
 10
0
 20
0
 39
0
 70
1
 66
1
  0
VERTEX
  8
0
 10
484
 20
614.99999144243247
 42
-1
  0
VERTEX
  8
0
 10
594
 20
614.99999144243247
 42
-1
  0
SEQEND
  0
POLYLINE
  8
0
 10
0
 20
0
 39
0
 70
1
 66
1
  0
VERTEX
  8
0
 10
10
 20
768.99999144243247
 42
0
  0
VERTEX
  8
0
 10
10.000000000000016
 20
509.99999144243247
 42
0
  0
VERTEX
  8
0
 10
212.00000000000003
 20
509.99999144243247
 42
0
  0
VERTEX
  8
0
 10
212
 20
768.99999144243247
 42
0
  0
SEQEND
  0
POLYLINE
  8
0
 10
0
 20
0
 39
0
 70
1
 66
1
  0
VERTEX
  8
0
 10
31.906911849975589
 20
718.42421248125083
 42
-0.11044000089168549
  0
VERTEX
  8
0
 10
73.054916381835938
 20
744.59480765031822
 42
-0
  0
VERTEX
  8
0
 10
73.054916381835952
 20
534.4051733271981
 42
-0.11044000089168549
  0
VERTEX
  8
0
 10
31.9069118499756
 20
560.57576658891685
 42
-0
  0
SEQEND
  0
POLYLINE
  8
0
 10
0
 20
0
 39
0
 70
1
 66
1
  0
VERTEX
  8
0
 10
190.09309387207031
 20
718.42421248125083
 42
0
  0
VERTEX
  8
0
 10
190.09309387207031
 20
560.57576658891685
 42
-0.11044000089168549
  0
VERTEX
  8
0
 10
148.94508361816409
 20
534.4051733271981
 42
0
  0
VERTEX
  8
0
 10
148.94508361816406
 20
744.59480765031822
 42
-0.11044000089168549
  0
SEQEND
  0
POLYLINE
  8
0
 10
0
 20
0
 39
0
 70
1
 66
1
  0
VERTEX
  8
0
 10
434
 20
729.99999144243247
 42
-0
  0
VERTEX
  8
0
 10
1084
 20
729.99999144243247
 42
-0
  0
VERTEX
  8
0
 10
1084
 20
769.99999144243247
 42
-0
  0
VERTEX
  8
0
 10
434
 20
769.99999144243247
 42
-0
  0
SEQEND
  0
ENDSEC
  0
EOF
