  0
SECTION
  2
ENTITIES
  0
POLYLINE
  8
0
 10
0
 20
0
 39
0
 70
1
 66
1
  0
VERTEX
  8
0
 10
0
 20
0
 42
-0
  0
VERTEX
  8
0
 10
700
 20
0
 42
-0
  0
VERTEX
  8
0
 10
700
 20
400
 42
-0
  0
VERTEX
  8
0
 10
0
 20
400
 42
-0
  0
SEQEND
  0
POLYLINE
  8
0
 10
0
 20
0
 39
0
 70
1
 66
1
  0
VERTEX
  8
0
 10
77.5
 20
299.20000457763672
 42
0
  0
VERTEX
  8
0
 10
84.600000381469727
 20
270.60000610351562
 42
0.34649235010147095
  0
VERTEX
  8
0
 10
107.20221328735352
 20
252.80000305175781
 42
0
  0
VERTEX
  8
0
 10
117
 20
252.80000305175781
 42
0
  0
VERTEX
  8
0
 10
117
 20
364.20000457763672
 42
0
  0
VERTEX
  8
0
 10
68.5
 20
364.20000457763672
 42
0
  0
VERTEX
  8
0
 10
68.5
 20
299.20000457763672
 42
-0
  0
SEQEND
  0
POLYLINE
  8
0
 10
0
 20
0
 39
0
 70
1
 66
1
  0
VERTEX
  8
0
 10
136
 20
56.400001525878906
 42
0
  0
VERTEX
  8
0
 10
143.10000038146973
 20
27.800003051757813
 42
0.34649235010147095
  0
VERTEX
  8
0
 10
165.70221328735352
 20
10
 42
0
  0
VERTEX
  8
0
 10
175.5
 20
10
 42
0
  0
VERTEX
  8
0
 10
175.5
 20
121.40000152587891
 42
0
  0
VERTEX
  8
0
 10
127
 20
121.40000152587891
 42
0
  0
VERTEX
  8
0
 10
127
 20
56.400001525878906
 42
-0
  0
SEQEND
  0
POLYLINE
  8
0
 10
0
 20
0
 39
0
 70
1
 66
1
  0
VERTEX
  8
0
 10
19.000000000000004
 20
299.20000457763672
 42
0
  0
VERTEX
  8
0
 10
26.100000381469734
 20
270.60000610351562
 42
0.34649235010147095
  0
VERTEX
  8
0
 10
48.702213287353523
 20
252.80000305175781
 42
0
  0
VERTEX
  8
0
 10
58.500000000000007
 20
252.80000305175781
 42
0
  0
VERTEX
  8
0
 10
58.5
 20
364.20000457763672
 42
0
  0
VERTEX
  8
0
 10
10
 20
364.20000457763672
 42
0
  0
VERTEX
  8
0
 10
10.000000000000004
 20
299.20000457763672
 42
-0
  0
SEQEND
  0
POLYLINE
  8
0
 10
0
 20
0
 39
0
 70
1
 66
1
  0
VERTEX
  8
0
 10
77.5
 20
177.80000305175781
 42
0
  0
VERTEX
  8
0
 10
84.600000381469727
 20
149.20000457763672
 42
0.34649235010147095
  0
VERTEX
  8
0
 10
107.20221328735352
 20
131.40000152587891
 42
0
  0
VERTEX
  8
0
 10
117
 20
131.40000152587891
 42
0
  0
VERTEX
  8
0
 10
117
 20
242.80000305175781
 42
0
  0
VERTEX
  8
0
 10
68.5
 20
242.80000305175781
 42
0
  0
VERTEX
  8
0
 10
68.5
 20
177.80000305175781
 42
-0
  0
SEQEND
  0
POLYLINE
  8
0
 10
0
 20
0
 39
0
 70
1
 66
1
  0
VERTEX
  8
0
 10
19.000000000000004
 20
177.80000305175781
 42
0
  0
VERTEX
  8
0
 10
26.100000381469734
 20
149.20000457763672
 42
0.34649235010147095
  0
VERTEX
  8
0
 10
48.702213287353523
 20
131.40000152587891
 42
0
  0
VERTEX
  8
0
 10
58.500000000000007
 20
131.40000152587891
 42
0
  0
VERTEX
  8
0
 10
58.5
 20
242.80000305175781
 42
0
  0
VERTEX
  8
0
 10
10
 20
242.80000305175781
 42
0
  0
VERTEX
  8
0
 10
10.000000000000004
 20
177.80000305175781
 42
-0
  0
SEQEND
  0
POLYLINE
  8
0
 10
0
 20
0
 39
0
 70
1
 66
1
  0
VERTEX
  8
0
 10
136
 20
177.80000305175781
 42
0
  0
VERTEX
  8
0
 10
143.10000038146973
 20
149.20000457763672
 42
0.34649235010147095
  0
VERTEX
  8
0
 10
165.70221328735352
 20
131.40000152587891
 42
0
  0
VERTEX
  8
0
 10
175.5
 20
131.40000152587891
 42
0
  0
VERTEX
  8
0
 10
175.5
 20
242.80000305175781
 42
0
  0
VERTEX
  8
0
 10
127
 20
242.80000305175781
 42
0
  0
VERTEX
  8
0
 10
127
 20
177.80000305175781
 42
-0
  0
SEQEND
  0
POLYLINE
  8
0
 10
0
 20
0
 39
0
 70
1
 66
1
  0
VERTEX
  8
0
 10
77.5
 20
56.400001525878906
 42
0
  0
VERTEX
  8
0
 10
84.600000381469727
 20
27.800003051757813
 42
0.34649235010147095
  0
VERTEX
  8
0
 10
107.20221328735352
 20
10
 42
0
  0
VERTEX
  8
0
 10
117
 20
10
 42
0
  0
VERTEX
  8
0
 10
117
 20
121.40000152587891
 42
0
  0
VERTEX
  8
0
 10
68.5
 20
121.40000152587891
 42
0
  0
VERTEX
  8
0
 10
68.5
 20
56.400001525878906
 42
-0
  0
SEQEND
  0
POLYLINE
  8
0
 10
0
 20
0
 39
0
 70
1
 66
1
  0
VERTEX
  8
0
 10
19.000000000000004
 20
56.400001525878906
 42
0
  0
VERTEX
  8
0
 10
26.100000381469734
 20
27.800003051757813
 42
0.34649235010147095
  0
VERTEX
  8
0
 10
48.702213287353523
 20
10
 42
0
  0
VERTEX
  8
0
 10
58.500000000000007
 20
10
 42
0
  0
VERTEX
  8
0
 10
58.5
 20
121.40000152587891
 42
0
  0
VERTEX
  8
0
 10
10
 20
121.40000152587891
 42
0
  0
VERTEX
  8
0
 10
10.000000000000004
 20
56.400001525878906
 42
-0
  0
SEQEND
  0
POLYLINE
  8
0
 10
0
 20
0
 39
0
 70
1
 66
1
  0
VERTEX
  8
0
 10
283.0121319916384
 20
23.473385981583192
 42
0
  0
VERTEX
  8
0
 10
265.06069051443853
 20
251.56806134588385
 42
0.41421356797218323
  0
VERTEX
  8
0
 10
263.7702421086525
 20
252.67020839310192
 42
0
  0
VERTEX
  8
0
 10
244.14658145210811
 20
251.12579270132062
 42
0.3868708610534668
  0
VERTEX
  8
0
 10
243.04088289654433
 20
249.94834428359343
 42
0
  0
VERTEX
  8
0
 10
241.4703297641129
 20
149.97169331640123
 42
0
  0
VERTEX
  8
0
 10
240.77042441843403
 20
149.9827007539285
 42
0.41421356797218323
  0
VERTEX
  8
0
 10
240.2626222490758
 20
149.49061275056727
 42
0
  0
VERTEX
  8
0
 10
239.65003450291331
 20
110.49542194610501
 42
0.41421356797218323
  0
VERTEX
  8
0
 10
240.14212130908371
 20
109.98763498849769
 42
0
  0
VERTEX
  8
0
 10
240.84203306344719
 20
109.97664336131675
 42
0
  0
VERTEX
  8
0
 10
239.27147933242034
 20
10
 42
-0
  0
VERTEX
  8
0
 10
273.82754990722106
 20
12.719621918463304
 42
0.41421356797218323
  0
SEQEND
  0
POLYLINE
  8
0
 10
0
 20
0
 39
0
 70
1
 66
1
  0
VERTEX
  8
0
 10
390.55509065647914
 20
23.473385981583192
 42
0
  0
VERTEX
  8
0
 10
372.60364917927927
 20
251.56806134588385
 42
0.41421356797218323
  0
VERTEX
  8
0
 10
371.31320077349324
 20
252.67020839310192
 42
0
  0
VERTEX
  8
0
 10
351.68954011694882
 20
251.12579270132062
 42
0.3868708610534668
  0
VERTEX
  8
0
 10
350.58384156138504
 20
249.94834428359343
 42
0
  0
VERTEX
  8
0
 10
349.01328842895362
 20
149.97169331640123
 42
0
  0
VERTEX
  8
0
 10
348.31338308327474
 20
149.9827007539285
 42
0.41421356797218323
  0
VERTEX
  8
0
 10
347.80558091391651
 20
149.49061275056727
 42
0
  0
VERTEX
  8
0
 10
347.19299316775403
 20
110.49542194610501
 42
0.41421356797218323
  0
VERTEX
  8
0
 10
347.68507997392442
 20
109.98763498849769
 42
0
  0
VERTEX
  8
0
 10
348.3849917282879
 20
109.97664336131675
 42
0
  0
VERTEX
  8
0
 10
346.81443799726105
 20
10
 42
-0
  0
VERTEX
  8
0
 10
381.37050857206179
 20
12.719621918463304
 42
0.41421356797218323
  0
SEQEND
  0
POLYLINE
  8
0
 10
0
 20
0
 39
0
 70
1
 66
1
  0
VERTEX
  8
0
 10
140.47338598158319
 20
316.47621359010122
 42
0
  0
VERTEX
  8
0
 10
368.56806134588385
 20
334.42765506730115
 42
0.41421356797218323
  0
VERTEX
  8
0
 10
369.67020839310192
 20
335.71810347308718
 42
0
  0
VERTEX
  8
0
 10
368.12579270132062
 20
355.3417641296316
 42
0.3868708610534668
  0
VERTEX
  8
0
 10
366.94834428359343
 20
356.44746268519538
 42
0
  0
VERTEX
  8
0
 10
266.97169331640123
 20
358.0180158176268
 42
0
  0
VERTEX
  8
0
 10
266.9827007539285
 20
358.71792116330568
 42
0.41421356797218323
  0
VERTEX
  8
0
 10
266.49061275056727
 20
359.2257233326639
 42
0
  0
VERTEX
  8
0
 10
227.49542194610501
 20
359.83831107882639
 42
0.41421356797218323
  0
VERTEX
  8
0
 10
226.98763498849769
 20
359.346224272656
 42
0
  0
VERTEX
  8
0
 10
226.97664336131675
 20
358.64631251829252
 42
0
  0
VERTEX
  8
0
 10
127
 20
360.21686624931931
 42
-0
  0
VERTEX
  8
0
 10
129.7196219184633
 20
325.66079567451857
 42
0.41421356797218323
  0
SEQEND
  0
POLYLINE
  8
0
 10
0
 20
0
 39
0
 70
1
 66
1
  0
VERTEX
  8
0
 10
495.58591732968137
 20
300
 42
0
  0
VERTEX
  8
0
 10
495.58591732968137
 20
250
 42
0
  0
VERTEX
  8
0
 10
545.58591732968137
 20
250
 42
-1
  0
VERTEX
  8
0
 10
545.58591732968137
 20
220
 42
-0
  0
VERTEX
  8
0
 10
495.58591732968137
 20
220
 42
0
  0
VERTEX
  8
0
 10
495.58591732968137
 20
190
 42
0
  0
VERTEX
  8
0
 10
580.58591732968137
 20
190
 42
0
  0
VERTEX
  8
0
 10
580.58591732968137
 20
360
 42
0
  0
VERTEX
  8
0
 10
495.58591732968137
 20
360
 42
0
  0
VERTEX
  8
0
 10
495.58591732968137
 20
330
 42
-0
  0
VERTEX
  8
0
 10
545.58591732968137
 20
330
 42
-1
  0
VERTEX
  8
0
 10
545.58591732968137
 20
300
 42
0
  0
SEQEND
  0
POLYLINE
  8
0
 10
0
 20
0
 39
0
 70
1
 66
1
  0
VERTEX
  8
0
 10
590.58591732968137
 20
300
 42
0
  0
VERTEX
  8
0
 10
590.58591732968137
 20
250
 42
0
  0
VERTEX
  8
0
 10
640.58591732968137
 20
250
 42
-1
  0
VERTEX
  8
0
 10
640.58591732968137
 20
220
 42
-0
  0
VERTEX
  8
0
 10
590.58591732968137
 20
220
 42
0
  0
VERTEX
  8
0
 10
590.58591732968137
 20
190
 42
0
  0
VERTEX
  8
0
 10
675.58591732968137
 20
190
 42
0
  0
VERTEX
  8
0
 10
675.58591732968137
 20
360
 42
0
  0
VERTEX
  8
0
 10
590.58591732968137
 20
360
 42
0
  0
VERTEX
  8
0
 10
590.58591732968137
 20
330
 42
-0
  0
VERTEX
  8
0
 10
640.58591732968137
 20
330
 42
-1
  0
VERTEX
  8
0
 10
640.58591732968137
 20
300
 42
0
  0
SEQEND
  0
POLYLINE
  8
0
 10
0
 20
0
 39
0
 70
1
 66
1
  0
VERTEX
  8
0
 10
140.47338598158319
 20
262.70473425768091
 42
0
  0
VERTEX
  8
0
 10
368.56806134588385
 20
280.65617573488083
 42
0.41421356797218323
  0
VERTEX
  8
0
 10
369.67020839310192
 20
281.94662414066687
 42
0
  0
VERTEX
  8
0
 10
368.12579270132062
 20
301.57028479721129
 42
0.3868708610534668
  0
VERTEX
  8
0
 10
366.94834428359343
 20
302.67598335277506
 42
0
  0
VERTEX
  8
0
 10
266.97169331640123
 20
304.24653648520649
 42
0
  0
VERTEX
  8
0
 10
266.9827007539285
 20
304.94644183088536
 42
0.41421356797218323
  0
VERTEX
  8
0
 10
266.49061275056727
 20
305.45424400024359
 42
0
  0
VERTEX
  8
0
 10
227.49542194610501
 20
306.06683174640608
 42
0.41421356797218323
  0
VERTEX
  8
0
 10
226.98763498849769
 20
305.57474494023569
 42
0
  0
VERTEX
  8
0
 10
226.97664336131675
 20
304.87483318587221
 42
0
  0
VERTEX
  8
0
 10
127
 20
306.445386916899
 42
-0
  0
VERTEX
  8
0
 10
129.7196219184633
 20
271.88931634209825
 42
0.41421356797218323
  0
SEQEND
  0
POLYLINE
  8
0
 10
0
 20
0
 39
0
 70
1
 66
1
  0
VERTEX
  8
0
 10
229.24065265921809
 20
23.473385981583192
 42
0
  0
VERTEX
  8
0
 10
211.28921118201822
 20
251.56806134588385
 42
0.41421356797218323
  0
VERTEX
  8
0
 10
209.99876277623218
 20
252.67020839310192
 42
0
  0
VERTEX
  8
0
 10
190.37510211968777
 20
251.12579270132062
 42
0.3868708610534668
  0
VERTEX
  8
0
 10
189.26940356412399
 20
249.94834428359343
 42
0
  0
VERTEX
  8
0
 10
187.69885043169256
 20
149.97169331640123
 42
0
  0
VERTEX
  8
0
 10
186.99894508601369
 20
149.9827007539285
 42
0.41421356797218323
  0
VERTEX
  8
0
 10
186.49114291665546
 20
149.49061275056727
 42
0
  0
VERTEX
  8
0
 10
185.87855517049297
 20
110.49542194610501
 42
0.41421356797218323
  0
VERTEX
  8
0
 10
186.37064197666336
 20
109.98763498849769
 42
0
  0
VERTEX
  8
0
 10
187.07055373102685
 20
109.97664336131675
 42
0
  0
VERTEX
  8
0
 10
185.5
 20
10
 42
-0
  0
VERTEX
  8
0
 10
220.05607057480074
 20
12.719621918463304
 42
0.41421356797218323
  0
SEQEND
  0
POLYLINE
  8
0
 10
0
 20
0
 39
0
 70
1
 66
1
  0
VERTEX
  8
0
 10
400.58591732968137
 20
120
 42
0
  0
VERTEX
  8
0
 10
400.58591732968137
 20
70
 42
0
  0
VERTEX
  8
0
 10
450.58591732968137
 20
70
 42
-1
  0
VERTEX
  8
0
 10
450.58591732968137
 20
40
 42
-0
  0
VERTEX
  8
0
 10
400.58591732968137
 20
40
 42
0
  0
VERTEX
  8
0
 10
400.58591732968137
 20
10
 42
0
  0
VERTEX
  8
0
 10
485.58591732968137
 20
10
 42
0
  0
VERTEX
  8
0
 10
485.58591732968137
 20
180
 42
0
  0
VERTEX
  8
0
 10
400.58591732968137
 20
180
 42
0
  0
VERTEX
  8
0
 10
400.58591732968137
 20
150
 42
-0
  0
VERTEX
  8
0
 10
450.58591732968137
 20
150
 42
-1
  0
VERTEX
  8
0
 10
450.58591732968137
 20
120
 42
0
  0
SEQEND
  0
POLYLINE
  8
0
 10
0
 20
0
 39
0
 70
1
 66
1
  0
VERTEX
  8
0
 10
590.58591732968137
 20
120
 42
0
  0
VERTEX
  8
0
 10
590.58591732968137
 20
70
 42
0
  0
VERTEX
  8
0
 10
640.58591732968137
 20
70
 42
-1
  0
VERTEX
  8
0
 10
640.58591732968137
 20
40
 42
-0
  0
VERTEX
  8
0
 10
590.58591732968137
 20
40
 42
0
  0
VERTEX
  8
0
 10
590.58591732968137
 20
10
 42
0
  0
VERTEX
  8
0
 10
675.58591732968137
 20
10
 42
0
  0
VERTEX
  8
0
 10
675.58591732968137
 20
180
 42
0
  0
VERTEX
  8
0
 10
590.58591732968137
 20
180
 42
0
  0
VERTEX
  8
0
 10
590.58591732968137
 20
150
 42
-0
  0
VERTEX
  8
0
 10
640.58591732968137
 20
150
 42
-1
  0
VERTEX
  8
0
 10
640.58591732968137
 20
120
 42
0
  0
SEQEND
  0
POLYLINE
  8
0
 10
0
 20
0
 39
0
 70
1
 66
1
  0
VERTEX
  8
0
 10
495.58591732968137
 20
120
 42
0
  0
VERTEX
  8
0
 10
495.58591732968137
 20
70
 42
0
  0
VERTEX
  8
0
 10
545.58591732968137
 20
70
 42
-1
  0
VERTEX
  8
0
 10
545.58591732968137
 20
40
 42
-0
  0
VERTEX
  8
0
 10
495.58591732968137
 20
40
 42
0
  0
VERTEX
  8
0
 10
495.58591732968137
 20
10
 42
0
  0
VERTEX
  8
0
 10
580.58591732968137
 20
10
 42
0
  0
VERTEX
  8
0
 10
580.58591732968137
 20
180
 42
0
  0
VERTEX
  8
0
 10
495.58591732968137
 20
180
 42
0
  0
VERTEX
  8
0
 10
495.58591732968137
 20
150
 42
-0
  0
VERTEX
  8
0
 10
545.58591732968137
 20
150
 42
-1
  0
VERTEX
  8
0
 10
545.58591732968137
 20
120
 42
0
  0
SEQEND
  0
POLYLINE
  8
0
 10
0
 20
0
 39
0
 70
1
 66
1
  0
VERTEX
  8
0
 10
400.58591732968137
 20
300
 42
0
  0
VERTEX
  8
0
 10
400.58591732968137
 20
250
 42
0
  0
VERTEX
  8
0
 10
450.58591732968137
 20
250
 42
-1
  0
VERTEX
  8
0
 10
450.58591732968137
 20
220
 42
-0
  0
VERTEX
  8
0
 10
400.58591732968137
 20
220
 42
0
  0
VERTEX
  8
0
 10
400.58591732968137
 20
190
 42
0
  0
VERTEX
  8
0
 10
485.58591732968137
 20
190
 42
0
  0
VERTEX
  8
0
 10
485.58591732968137
 20
360
 42
0
  0
VERTEX
  8
0
 10
400.58591732968137
 20
360
 42
0
  0
VERTEX
  8
0
 10
400.58591732968137
 20
330
 42
-0
  0
VERTEX
  8
0
 10
450.58591732968137
 20
330
 42
-1
  0
VERTEX
  8
0
 10
450.58591732968137
 20
300
 42
0
  0
SEQEND
  0
POLYLINE
  8
0
 10
0
 20
0
 39
0
 70
1
 66
1
  0
VERTEX
  8
0
 10
336.78361132405882
 20
23.473385981583192
 42
0
  0
VERTEX
  8
0
 10
318.83216984685896
 20
251.56806134588385
 42
0.41421356797218323
  0
VERTEX
  8
0
 10
317.54172144107292
 20
252.67020839310192
 42
0
  0
VERTEX
  8
0
 10
297.91806078452851
 20
251.12579270132062
 42
0.3868708610534668
  0
VERTEX
  8
0
 10
296.81236222896473
 20
249.94834428359343
 42
0
  0
VERTEX
  8
0
 10
295.2418090965333
 20
149.97169331640123
 42
0
  0
VERTEX
  8
0
 10
294.54190375085443
 20
149.9827007539285
 42
0.41421356797218323
  0
VERTEX
  8
0
 10
294.0341015814962
 20
149.49061275056727
 42
0
  0
VERTEX
  8
0
 10
293.42151383533371
 20
110.49542194610501
 42
0.41421356797218323
  0
VERTEX
  8
0
 10
293.9136006415041
 20
109.98763498849769
 42
0
  0
VERTEX
  8
0
 10
294.61351239586759
 20
109.97664336131675
 42
0
  0
VERTEX
  8
0
 10
293.04295866484074
 20
10
 42
-0
  0
VERTEX
  8
0
 10
327.59902923964148
 20
12.719621918463304
 42
0.41421356797218323
  0
SEQEND
  0
ENDSEC
  0
EOF
