  0
SECTION
  2
ENTITIES
  0
POLYLINE
  8
0
 10
0
 20
0
 39
0
 70
1
 66
1
  0
VERTEX
  8
0
 10
0
 20
0
 42
-0
  0
VERTEX
  8
0
 10
700
 20
0
 42
-0
  0
VERTEX
  8
0
 10
700
 20
500
 42
-0
  0
VERTEX
  8
0
 10
0
 20
500
 42
-0
  0
SEQEND
  0
POLYLINE
  8
0
 10
0
 20
0
 39
0
 70
1
 66
1
  0
VERTEX
  8
0
 10
259.65093107843057
 20
339.99923286908523
 42
1
  0
VERTEX
  8
0
 10
260.34906053864614
 20
180.00075874799148
 42
1
  0
SEQEND
  0
POLYLINE
  8
0
 10
0
 20
0
 39
0
 70
1
 66
1
  0
VERTEX
  8
0
 10
260.09817026388117
 20
237.50021038525955
 42
-1
  0
VERTEX
  8
0
 10
259.90182135319554
 20
282.49978123181717
 42
-1
  0
SEQEND
  0
POLYLINE
  8
0
 10
0
 20
0
 39
0
 70
1
 66
1
  0
VERTEX
  8
0
 10
259.65093107843057
 20
169.99923566339299
 42
1
  0
VERTEX
  8
0
 10
260.34906053864614
 20
10.000761542299244
 42
1
  0
SEQEND
  0
POLYLINE
  8
0
 10
0
 20
0
 39
0
 70
1
 66
1
  0
VERTEX
  8
0
 10
260.09817026388117
 20
67.500213179567311
 42
-1
  0
VERTEX
  8
0
 10
259.90182135319554
 20
112.49978402612493
 42
-1
  0
SEQEND
  0
POLYLINE
  8
0
 10
0
 20
0
 39
0
 70
1
 66
1
  0
VERTEX
  8
0
 10
89.650933872738335
 20
169.99923566339299
 42
1
  0
VERTEX
  8
0
 10
90.349063332953904
 20
10.000761542299244
 42
1
  0
SEQEND
  0
POLYLINE
  8
0
 10
0
 20
0
 39
0
 70
1
 66
1
  0
VERTEX
  8
0
 10
90.098173058188934
 20
67.500213179567311
 42
-1
  0
VERTEX
  8
0
 10
89.901824147503305
 20
112.49978402612493
 42
-1
  0
SEQEND
  0
POLYLINE
  8
0
 10
0
 20
0
 39
0
 70
1
 66
1
  0
VERTEX
  8
0
 10
429.65092828412281
 20
339.99923286908523
 42
1
  0
VERTEX
  8
0
 10
430.34905774433838
 20
180.00075874799148
 42
1
  0
SEQEND
  0
POLYLINE
  8
0
 10
0
 20
0
 39
0
 70
1
 66
1
  0
VERTEX
  8
0
 10
430.09816746957341
 20
237.50021038525955
 42
-1
  0
VERTEX
  8
0
 10
429.90181855888778
 20
282.49978123181717
 42
-1
  0
SEQEND
  0
POLYLINE
  8
0
 10
0
 20
0
 39
0
 70
1
 66
1
  0
VERTEX
  8
0
 10
599.65092548981511
 20
169.99923566339299
 42
1
  0
VERTEX
  8
0
 10
600.34905495003068
 20
10.000761542299244
 42
1
  0
SEQEND
  0
POLYLINE
  8
0
 10
0
 20
0
 39
0
 70
1
 66
1
  0
VERTEX
  8
0
 10
600.09816467526571
 20
67.500213179567311
 42
-1
  0
VERTEX
  8
0
 10
599.90181576458008
 20
112.49978402612493
 42
-1
  0
SEQEND
  0
POLYLINE
  8
0
 10
0
 20
0
 39
0
 70
1
 66
1
  0
VERTEX
  8
0
 10
345
 20
349.99999441138448
 42
-0
  0
VERTEX
  8
0
 10
670
 20
349.99999441138448
 42
-0
  0
VERTEX
  8
0
 10
670
 20
474.99999441138448
 42
-0
  0
VERTEX
  8
0
 10
345
 20
474.99999441138448
 42
-0
  0
SEQEND
  0
POLYLINE
  8
0
 10
0
 20
0
 39
0
 70
1
 66
1
  0
VERTEX
  8
0
 10
390
 20
379.99999441138448
 42
0
  0
VERTEX
  8
0
 10
390
 20
444.99999441138448
 42
0
  0
VERTEX
  8
0
 10
545
 20
444.99999441138448
 42
0
  0
VERTEX
  8
0
 10
545
 20
379.99999441138448
 42
0
  0
SEQEND
  0
POLYLINE
  8
0
 10
0
 20
0
 39
0
 70
1
 66
1
  0
VERTEX
  8
0
 10
10
 20
349.99999441138448
 42
-0
  0
VERTEX
  8
0
 10
335
 20
349.99999441138448
 42
-0
  0
VERTEX
  8
0
 10
335
 20
474.99999441138448
 42
-0
  0
VERTEX
  8
0
 10
10
 20
474.99999441138448
 42
-0
  0
SEQEND
  0
POLYLINE
  8
0
 10
0
 20
0
 39
0
 70
1
 66
1
  0
VERTEX
  8
0
 10
55
 20
379.99999441138448
 42
0
  0
VERTEX
  8
0
 10
55
 20
444.99999441138448
 42
0
  0
VERTEX
  8
0
 10
210
 20
444.99999441138448
 42
0
  0
VERTEX
  8
0
 10
210
 20
379.99999441138448
 42
0
  0
SEQEND
  0
POLYLINE
  8
0
 10
0
 20
0
 39
0
 70
1
 66
1
  0
VERTEX
  8
0
 10
429.65092828412281
 20
169.99923566339299
 42
1
  0
VERTEX
  8
0
 10
430.34905774433838
 20
10.000761542299244
 42
1
  0
SEQEND
  0
POLYLINE
  8
0
 10
0
 20
0
 39
0
 70
1
 66
1
  0
VERTEX
  8
0
 10
430.09816746957341
 20
67.500213179567311
 42
-1
  0
VERTEX
  8
0
 10
429.90181855888778
 20
112.49978402612493
 42
-1
  0
SEQEND
  0
POLYLINE
  8
0
 10
0
 20
0
 39
0
 70
1
 66
1
  0
VERTEX
  8
0
 10
599.65092548981511
 20
339.99923286908523
 42
1
  0
VERTEX
  8
0
 10
600.34905495003068
 20
180.00075874799148
 42
1
  0
SEQEND
  0
POLYLINE
  8
0
 10
0
 20
0
 39
0
 70
1
 66
1
  0
VERTEX
  8
0
 10
600.09816467526571
 20
237.50021038525955
 42
-1
  0
VERTEX
  8
0
 10
599.90181576458008
 20
282.49978123181717
 42
-1
  0
SEQEND
  0
POLYLINE
  8
0
 10
0
 20
0
 39
0
 70
1
 66
1
  0
VERTEX
  8
0
 10
89.650933872738335
 20
339.99923286908523
 42
1
  0
VERTEX
  8
0
 10
90.349063332953904
 20
180.00075874799148
 42
1
  0
SEQEND
  0
POLYLINE
  8
0
 10
0
 20
0
 39
0
 70
1
 66
1
  0
VERTEX
  8
0
 10
90.098173058188934
 20
237.50021038525955
 42
-1
  0
VERTEX
  8
0
 10
89.901824147503305
 20
282.49978123181717
 42
-1
  0
SEQEND
  0
ENDSEC
  0
EOF
