  0
SECTION
  2
ENTITIES
  0
POLYLINE
  8
0
 10
0
 20
0
 39
0
 70
1
 66
1
  0
VERTEX
  8
0
 10
0
 20
0
 42
-0
  0
VERTEX
  8
0
 10
3000
 20
0
 42
-0
  0
VERTEX
  8
0
 10
3000
 20
1500
 42
-0
  0
VERTEX
  8
0
 10
0
 20
1500
 42
-0
  0
SEQEND
  0
POLYLINE
  8
0
 10
0
 20
0
 39
0
 70
1
 66
1
  0
VERTEX
  8
0
 10
10.050048828125
 20
1118.200439453125
 42
-0
  0
VERTEX
  8
0
 10
1224.050048828125
 20
1118.200439453125
 42
-0
  0
VERTEX
  8
0
 10
1224.050048828125
 20
1412.200439453125
 42
-0
  0
VERTEX
  8
0
 10
10.050048828125
 20
1412.200439453125
 42
-0
  0
SEQEND
  0
POLYLINE
  8
0
 10
0
 20
0
 39
0
 70
1
 66
1
  0
VERTEX
  8
0
 10
1234.10009765625
 20
510.0999755859375
 42
-0
  0
VERTEX
  8
0
 10
2448.10009765625
 20
510.0999755859375
 42
-0
  0
VERTEX
  8
0
 10
2448.10009765625
 20
804.0999755859375
 42
-0
  0
VERTEX
  8
0
 10
1234.10009765625
 20
804.0999755859375
 42
-0
  0
SEQEND
  0
POLYLINE
  8
0
 10
0
 20
0
 39
0
 70
1
 66
1
  0
VERTEX
  8
0
 10
1234.10009765625
 20
814.14996337890625
 42
-0
  0
VERTEX
  8
0
 10
2448.10009765625
 20
814.14996337890625
 42
-0
  0
VERTEX
  8
0
 10
2448.10009765625
 20
1108.14990234375
 42
-0
  0
VERTEX
  8
0
 10
1234.10009765625
 20
1108.14990234375
 42
-0
  0
SEQEND
  0
POLYLINE
  8
0
 10
0
 20
0
 39
0
 70
1
 66
1
  0
VERTEX
  8
0
 10
10.04998779296875
 20
510.1004638671875
 42
-0
  0
VERTEX
  8
0
 10
1224.050048828125
 20
510.1004638671875
 42
-0
  0
VERTEX
  8
0
 10
1224.050048828125
 20
804.1004638671875
 42
-0
  0
VERTEX
  8
0
 10
10.04998779296875
 20
804.1004638671875
 42
-0
  0
SEQEND
  0
POLYLINE
  8
0
 10
0
 20
0
 39
0
 70
1
 66
1
  0
VERTEX
  8
0
 10
10.04998779296875
 20
814.15045166015625
 42
-0
  0
VERTEX
  8
0
 10
1224.050048828125
 20
814.15045166015625
 42
-0
  0
VERTEX
  8
0
 10
1224.050048828125
 20
1108.150390625
 42
-0
  0
VERTEX
  8
0
 10
10.04998779296875
 20
1108.150390625
 42
-0
  0
SEQEND
  0
POLYLINE
  8
0
 10
0
 20
0
 39
0
 70
1
 66
1
  0
VERTEX
  8
0
 10
1234.10009765625
 20
1118.199951171875
 42
-0
  0
VERTEX
  8
0
 10
2448.10009765625
 20
1118.199951171875
 42
-0
  0
VERTEX
  8
0
 10
2448.10009765625
 20
1412.199951171875
 42
-0
  0
VERTEX
  8
0
 10
1234.10009765625
 20
1412.199951171875
 42
-0
  0
SEQEND
  0
POLYLINE
  8
0
 10
0
 20
0
 39
0
 70
1
 66
1
  0
VERTEX
  8
0
 10
1280.0498046875
 20
500.05047607421875
 42
-0
  0
VERTEX
  8
0
 10
70.0498046875
 20
400.05001831054687
 42
-0
  0
VERTEX
  8
0
 10
70.0499267578125
 20
182.55001831054687
 42
-0
  0
VERTEX
  8
0
 10
10.0499267578125
 20
175.04998779296875
 42
-0
  0
VERTEX
  8
0
 10
10.050048828125
 20
10.04998779296875
 42
-0
  0
VERTEX
  8
0
 10
1340.050048828125
 20
10.050506591796875
 42
-0
  0
VERTEX
  8
0
 10
1340.0499267578125
 20
175.05050659179687
 42
-0
  0
VERTEX
  8
0
 10
1280.0499267578125
 20
182.55047607421875
 42
-0
  0
SEQEND
  0
POLYLINE
  8
0
 10
0
 20
0
 39
0
 70
1
 66
1
  0
VERTEX
  8
0
 10
1350.10009765625
 20
10.049997329711914
 42
-0
  0
VERTEX
  8
0
 10
2560.10009765625
 20
110.04999542236328
 42
-0
  0
VERTEX
  8
0
 10
2560.10009765625
 20
327.54998779296875
 42
-0
  0
VERTEX
  8
0
 10
2620.10009765625
 20
335.04998779296875
 42
-0
  0
VERTEX
  8
0
 10
2620.10009765625
 20
500.04998779296875
 42
-0
  0
VERTEX
  8
0
 10
1290.10009765625
 20
500.04998779296875
 42
-0
  0
VERTEX
  8
0
 10
1290.10009765625
 20
335.04998779296875
 42
-0
  0
VERTEX
  8
0
 10
1350.10009765625
 20
327.54998779296875
 42
-0
  0
SEQEND
  0
POLYLINE
  8
0
 10
0
 20
0
 39
0
 70
1
 66
1
  0
VERTEX
  8
0
 10
2468.150146484375
 20
1110.48681640625
 42
-0
  0
VERTEX
  8
0
 10
2458.150146484375
 20
1100.48681640625
 42
-0
  0
VERTEX
  8
0
 10
2458.150390625
 20
850.48681640625
 42
-0
  0
VERTEX
  8
0
 10
2468.150390625
 20
840.48681640625
 42
-0
  0
VERTEX
  8
0
 10
2832.150390625
 20
840.4871826171875
 42
-0
  0
VERTEX
  8
0
 10
2832.150390625
 20
875.4871826171875
 42
-0
  0
VERTEX
  8
0
 10
2698.150390625
 20
875.487060546875
 42
-1
  0
VERTEX
  8
0
 10
2698.150146484375
 20
1075.487060546875
 42
-0
  0
VERTEX
  8
0
 10
2832.150146484375
 20
1075.4871826171875
 42
-0
  0
VERTEX
  8
0
 10
2832.150146484375
 20
1110.4871826171875
 42
-0
  0
SEQEND
  0
POLYLINE
  8
0
 10
0
 20
0
 39
0
 70
1
 66
1
  0
VERTEX
  8
0
 10
2468.150146484375
 20
1390.537109375
 42
-0
  0
VERTEX
  8
0
 10
2458.150146484375
 20
1380.537109375
 42
-0
  0
VERTEX
  8
0
 10
2458.150146484375
 20
1130.537109375
 42
-0
  0
VERTEX
  8
0
 10
2468.150146484375
 20
1120.537109375
 42
-0
  0
VERTEX
  8
0
 10
2832.150146484375
 20
1120.537109375
 42
-0
  0
VERTEX
  8
0
 10
2832.150146484375
 20
1155.5372314453125
 42
-0
  0
VERTEX
  8
0
 10
2698.150146484375
 20
1155.537109375
 42
-1
  0
VERTEX
  8
0
 10
2698.150146484375
 20
1355.537109375
 42
-0
  0
VERTEX
  8
0
 10
2832.150146484375
 20
1355.5372314453125
 42
-0
  0
VERTEX
  8
0
 10
2832.150146484375
 20
1390.5372314453125
 42
-0
  0
SEQEND
  0
POLYLINE
  8
0
 10
0
 20
0
 39
0
 70
1
 66
1
  0
VERTEX
  8
0
 10
2719.949951171875
 20
20.050003051757812
 42
-0
  0
VERTEX
  8
0
 10
2729.949951171875
 20
10.050003051757812
 42
-0
  0
VERTEX
  8
0
 10
2979.949951171875
 20
10.050003051757812
 42
-0
  0
VERTEX
  8
0
 10
2989.949951171875
 20
20.050003051757812
 42
-0
  0
VERTEX
  8
0
 10
2989.949951171875
 20
384.04998779296875
 42
-0
  0
VERTEX
  8
0
 10
2954.949951171875
 20
384.04998779296875
 42
-0
  0
VERTEX
  8
0
 10
2954.949951171875
 20
250.05000305175781
 42
-1
  0
VERTEX
  8
0
 10
2754.949951171875
 20
250.05000305175781
 42
-0
  0
VERTEX
  8
0
 10
2754.949951171875
 20
384.04998779296875
 42
-0
  0
VERTEX
  8
0
 10
2719.949951171875
 20
384.04998779296875
 42
-0
  0
SEQEND
  0
POLYLINE
  8
0
 10
0
 20
0
 39
0
 70
1
 66
1
  0
VERTEX
  8
0
 10
2822.150390625
 20
560.43701171875
 42
-0
  0
VERTEX
  8
0
 10
2832.150390625
 20
570.43701171875
 42
-0
  0
VERTEX
  8
0
 10
2832.150146484375
 20
820.43701171875
 42
-0
  0
VERTEX
  8
0
 10
2822.150146484375
 20
830.43701171875
 42
-0
  0
VERTEX
  8
0
 10
2458.150146484375
 20
830.436767578125
 42
-0
  0
VERTEX
  8
0
 10
2458.150390625
 20
795.436767578125
 42
-0
  0
VERTEX
  8
0
 10
2592.150146484375
 20
795.4368896484375
 42
-1
  0
VERTEX
  8
0
 10
2592.150390625
 20
595.4368896484375
 42
-0
  0
VERTEX
  8
0
 10
2458.150390625
 20
595.436767578125
 42
-0
  0
VERTEX
  8
0
 10
2458.150390625
 20
560.436767578125
 42
-0
  0
SEQEND
  0
POLYLINE
  8
0
 10
0
 20
0
 39
0
 70
1
 66
1
  0
VERTEX
  8
0
 10
2905.798095703125
 20
540.38690185546875
 42
-0
  0
VERTEX
  8
0
 10
2895.798095703125
 20
550.38690185546875
 42
-0
  0
VERTEX
  8
0
 10
2645.798095703125
 20
550.38677978515625
 42
-0
  0
VERTEX
  8
0
 10
2635.798095703125
 20
540.38677978515625
 42
-0
  0
VERTEX
  8
0
 10
2635.79833984375
 20
176.38681030273437
 42
-0
  0
VERTEX
  8
0
 10
2670.79833984375
 20
176.38681030273437
 42
-0
  0
VERTEX
  8
0
 10
2670.798095703125
 20
310.38681030273437
 42
-1
  0
VERTEX
  8
0
 10
2870.798095703125
 20
310.38690185546875
 42
-0
  0
VERTEX
  8
0
 10
2870.79833984375
 20
176.38690185546875
 42
-0
  0
VERTEX
  8
0
 10
2905.79833984375
 20
176.38690185546875
 42
-0
  0
SEQEND
  0
ENDSEC
  0
EOF
