  0
SECTION
  2
ENTITIES
  0
POLYLINE
  8
0
 10
0
 20
0
 39
0
 70
1
 66
1
  0
VERTEX
  8
0
 10
0
 20
0
 42
-0
  0
VERTEX
  8
0
 10
700
 20
0
 42
-0
  0
VERTEX
  8
0
 10
700
 20
500
 42
-0
  0
VERTEX
  8
0
 10
0
 20
500
 42
-0
  0
SEQEND
  0
POLYLINE
  8
0
 10
0
 20
0
 39
0
 70
1
 66
1
  0
VERTEX
  8
0
 10
689.93846153846152
 20
261.24330115685092
 42
-0
  0
VERTEX
  8
0
 10
689.93846153846152
 20
10.06153846153844
 42
-0
  0
VERTEX
  8
0
 10
364.79583763709434
 20
10.06153846153844
 42
-0
  0
VERTEX
  8
0
 10
364.79583763709434
 20
261.24330115685092
 42
-0
  0
SEQEND
  0
POLYLINE
  8
0
 10
0
 20
0
 39
0
 70
1
 66
1
  0
VERTEX
  8
0
 10
635.36715721717246
 20
135.6524198091947
 42
-0
  0
VERTEX
  8
0
 10
653.76980614295371
 20
237.7123563326322
 42
-0
  0
VERTEX
  8
0
 10
583.41503929725059
 20
227.9705350435697
 42
0.2797943651676178
  0
VERTEX
  8
0
 10
471.31927513709434
 20
227.9705350435697
 42
0
  0
VERTEX
  8
0
 10
400.96450829139121
 20
237.7123563326322
 42
0
  0
VERTEX
  8
0
 10
419.36715721717246
 20
135.6524198091947
 42
-0
  0
VERTEX
  8
0
 10
400.96450829139121
 20
33.59248328575719
 42
-0
  0
VERTEX
  8
0
 10
471.31927513709434
 20
43.334296945425159
 42
0.2797943651676178
  0
VERTEX
  8
0
 10
583.41503929725059
 20
43.334296945425159
 42
0
  0
VERTEX
  8
0
 10
653.76980614295371
 20
33.59248328575719
 42
0
  0
SEQEND
  0
POLYLINE
  8
0
 10
0
 20
0
 39
0
 70
1
 66
1
  0
VERTEX
  8
0
 10
354.7461538461539
 20
261.24330115685098
 42
-0
  0
VERTEX
  8
0
 10
354.7461538461539
 20
10.061538461538461
 42
-0
  0
VERTEX
  8
0
 10
29.603529944786715
 20
10.061538461538461
 42
-0
  0
VERTEX
  8
0
 10
29.603529944786715
 20
261.24330115685098
 42
-0
  0
SEQEND
  0
POLYLINE
  8
0
 10
0
 20
0
 39
0
 70
1
 66
1
  0
VERTEX
  8
0
 10
300.17484952486484
 20
135.65241980919473
 42
-0
  0
VERTEX
  8
0
 10
318.57749845064609
 20
237.71235633263223
 42
-0
  0
VERTEX
  8
0
 10
248.22273160494296
 20
227.97053504356973
 42
0.2797943651676178
  0
VERTEX
  8
0
 10
136.12696744478671
 20
227.97053504356973
 42
0
  0
VERTEX
  8
0
 10
65.77220059908359
 20
237.71235633263223
 42
0
  0
VERTEX
  8
0
 10
84.17484952486484
 20
135.65241980919473
 42
-0
  0
VERTEX
  8
0
 10
65.77220059908359
 20
33.592483285757211
 42
-0
  0
VERTEX
  8
0
 10
136.12696744478671
 20
43.33429694542518
 42
0.2797943651676178
  0
VERTEX
  8
0
 10
248.22273160494296
 20
43.33429694542518
 42
0
  0
VERTEX
  8
0
 10
318.57749845064609
 20
33.592483285757211
 42
0
  0
SEQEND
  0
POLYLINE
  8
0
 10
0
 20
0
 39
0
 70
1
 66
1
  0
VERTEX
  8
0
 10
689.93846153846152
 20
271.32307692307683
 42
0
  0
VERTEX
  8
0
 10
474.93846153846152
 20
271.32307692307683
 42
0
  0
VERTEX
  8
0
 10
474.93846153846152
 20
471.32307692307683
 42
0
  0
VERTEX
  8
0
 10
689.93846153846152
 20
471.32307692307683
 42
0
  0
SEQEND
  0
POLYLINE
  8
0
 10
0
 20
0
 39
0
 70
1
 66
1
  0
VERTEX
  8
0
 10
639.93846153846152
 20
321.32307692307683
 42
0
  0
VERTEX
  8
0
 10
639.93846153846152
 20
351.32307692307683
 42
0
  0
VERTEX
  8
0
 10
509.93846153846152
 20
351.32307692307683
 42
0
  0
VERTEX
  8
0
 10
509.93846153846152
 20
321.32307692307683
 42
0
  0
SEQEND
  0
POLYLINE
  8
0
 10
0
 20
0
 39
0
 70
1
 66
1
  0
VERTEX
  8
0
 10
639.93846153846152
 20
391.32307692307683
 42
0
  0
VERTEX
  8
0
 10
639.93846153846152
 20
421.32307692307683
 42
0
  0
VERTEX
  8
0
 10
509.93846153846152
 20
421.32307692307683
 42
0
  0
VERTEX
  8
0
 10
509.93846153846152
 20
391.32307692307683
 42
0
  0
SEQEND
  0
POLYLINE
  8
0
 10
0
 20
0
 39
0
 70
1
 66
1
  0
VERTEX
  8
0
 10
464.9153846153846
 20
271.32307692307683
 42
0
  0
VERTEX
  8
0
 10
249.9153846153846
 20
271.32307692307683
 42
0
  0
VERTEX
  8
0
 10
249.9153846153846
 20
471.32307692307683
 42
0
  0
VERTEX
  8
0
 10
464.9153846153846
 20
471.32307692307683
 42
0
  0
SEQEND
  0
POLYLINE
  8
0
 10
0
 20
0
 39
0
 70
1
 66
1
  0
VERTEX
  8
0
 10
414.9153846153846
 20
321.32307692307683
 42
0
  0
VERTEX
  8
0
 10
414.9153846153846
 20
351.32307692307683
 42
0
  0
VERTEX
  8
0
 10
284.9153846153846
 20
351.32307692307683
 42
0
  0
VERTEX
  8
0
 10
284.9153846153846
 20
321.32307692307683
 42
0
  0
SEQEND
  0
POLYLINE
  8
0
 10
0
 20
0
 39
0
 70
1
 66
1
  0
VERTEX
  8
0
 10
414.9153846153846
 20
391.32307692307683
 42
0
  0
VERTEX
  8
0
 10
414.9153846153846
 20
421.32307692307683
 42
0
  0
VERTEX
  8
0
 10
284.9153846153846
 20
421.32307692307683
 42
0
  0
VERTEX
  8
0
 10
284.9153846153846
 20
391.32307692307683
 42
0
  0
SEQEND
  0
POLYLINE
  8
0
 10
0
 20
0
 39
0
 70
1
 66
1
  0
VERTEX
  8
0
 10
239.89230769230775
 20
271.32307692307688
 42
0
  0
VERTEX
  8
0
 10
24.892307692307753
 20
271.32307692307688
 42
0
  0
VERTEX
  8
0
 10
24.892307692307753
 20
471.32307692307688
 42
0
  0
VERTEX
  8
0
 10
239.89230769230775
 20
471.32307692307688
 42
0
  0
SEQEND
  0
POLYLINE
  8
0
 10
0
 20
0
 39
0
 70
1
 66
1
  0
VERTEX
  8
0
 10
189.89230769230775
 20
321.32307692307688
 42
0
  0
VERTEX
  8
0
 10
189.89230769230775
 20
351.32307692307688
 42
0
  0
VERTEX
  8
0
 10
59.892307692307753
 20
351.32307692307688
 42
0
  0
VERTEX
  8
0
 10
59.892307692307753
 20
321.32307692307688
 42
0
  0
SEQEND
  0
POLYLINE
  8
0
 10
0
 20
0
 39
0
 70
1
 66
1
  0
VERTEX
  8
0
 10
189.89230769230775
 20
391.32307692307688
 42
0
  0
VERTEX
  8
0
 10
189.89230769230775
 20
421.32307692307688
 42
0
  0
VERTEX
  8
0
 10
59.892307692307753
 20
421.32307692307688
 42
0
  0
VERTEX
  8
0
 10
59.892307692307753
 20
391.32307692307688
 42
0
  0
SEQEND
  0
POLYLINE
  8
0
 10
0
 20
0
 39
0
 70
1
 66
1
  0
VERTEX
  8
0
 10
448.46999519315989
 20
118.19521709178562
 42
-1
  0
VERTEX
  8
0
 10
608.46846931425364
 20
117.49708763157005
 42
-1
  0
SEQEND
  0
POLYLINE
  8
0
 10
0
 20
0
 39
0
 70
1
 66
1
  0
VERTEX
  8
0
 10
550.96901767698557
 20
117.74797790633502
 42
1
  0
VERTEX
  8
0
 10
505.96944683042796
 20
117.94432681702065
 42
1
  0
SEQEND
  0
POLYLINE
  8
0
 10
0
 20
0
 39
0
 70
1
 66
1
  0
VERTEX
  8
0
 10
113.27768750085227
 20
118.19521709178564
 42
-1
  0
VERTEX
  8
0
 10
273.27616162194602
 20
117.49708763157007
 42
-1
  0
SEQEND
  0
POLYLINE
  8
0
 10
0
 20
0
 39
0
 70
1
 66
1
  0
VERTEX
  8
0
 10
215.77670998467795
 20
117.74797790633504
 42
1
  0
VERTEX
  8
0
 10
170.77713913812033
 20
117.94432681702067
 42
1
  0
SEQEND
  0
ENDSEC
  0
EOF
