  0
SECTION
  2
ENTITIES
  0
POLYLINE
  8
0
 10
0
 20
0
 39
0
 70
1
 66
1
  0
VERTEX
  8
0
 10
0
 20
0
 42
-0
  0
VERTEX
  8
0
 10
1200
 20
0
 42
-0
  0
VERTEX
  8
0
 10
1200
 20
900
 42
-0
  0
VERTEX
  8
0
 10
0
 20
900
 42
-0
  0
SEQEND
  0
POLYLINE
  8
0
 10
0
 20
0
 39
0
 70
1
 66
1
  0
VERTEX
  8
0
 10
10.159999999999968
 20
310.16000000000003
 42
-0
  0
VERTEX
  8
0
 10
1000.16
 20
310.16000000000003
 42
-0
  0
VERTEX
  8
0
 10
1000.16
 20
10.160000000000025
 42
-0
  0
VERTEX
  8
0
 10
10.159999999999968
 20
10.160000000000025
 42
-0
  0
SEQEND
  0
POLYLINE
  8
0
 10
0
 20
0
 39
0
 70
1
 66
1
  0
VERTEX
  8
0
 10
162.65999999999997
 20
153.16000000000003
 42
1
  0
VERTEX
  8
0
 10
37.659999999999968
 20
153.16000000000003
 42
1
  0
SEQEND
  0
POLYLINE
  8
0
 10
0
 20
0
 39
0
 70
1
 66
1
  0
VERTEX
  8
0
 10
742.65999999999997
 20
153.16000000000003
 42
1
  0
VERTEX
  8
0
 10
617.65999999999997
 20
153.16000000000003
 42
1
  0
SEQEND
  0
POLYLINE
  8
0
 10
0
 20
0
 39
0
 70
1
 66
1
  0
VERTEX
  8
0
 10
930.15999999999997
 20
153.16000000000003
 42
1
  0
VERTEX
  8
0
 10
790.15999999999997
 20
153.16000000000003
 42
1
  0
SEQEND
  0
POLYLINE
  8
0
 10
0
 20
0
 39
0
 70
1
 66
1
  0
VERTEX
  8
0
 10
542.65999999999997
 20
153.16000000000003
 42
1
  0
VERTEX
  8
0
 10
417.65999999999997
 20
153.16000000000003
 42
1
  0
SEQEND
  0
POLYLINE
  8
0
 10
0
 20
0
 39
0
 70
1
 66
1
  0
VERTEX
  8
0
 10
10.159999999999968
 20
620.24000000000001
 42
-0
  0
VERTEX
  8
0
 10
1000.16
 20
620.24000000000001
 42
-0
  0
VERTEX
  8
0
 10
1000.16
 20
320.24000000000001
 42
-0
  0
VERTEX
  8
0
 10
10.159999999999968
 20
320.24000000000001
 42
-0
  0
SEQEND
  0
POLYLINE
  8
0
 10
0
 20
0
 39
0
 70
1
 66
1
  0
VERTEX
  8
0
 10
162.65999999999997
 20
463.24000000000001
 42
1
  0
VERTEX
  8
0
 10
37.659999999999968
 20
463.24000000000001
 42
1
  0
SEQEND
  0
POLYLINE
  8
0
 10
0
 20
0
 39
0
 70
1
 66
1
  0
VERTEX
  8
0
 10
742.65999999999997
 20
463.24000000000001
 42
1
  0
VERTEX
  8
0
 10
617.65999999999997
 20
463.24000000000001
 42
1
  0
SEQEND
  0
POLYLINE
  8
0
 10
0
 20
0
 39
0
 70
1
 66
1
  0
VERTEX
  8
0
 10
930.15999999999997
 20
463.24000000000001
 42
1
  0
VERTEX
  8
0
 10
790.15999999999997
 20
463.24000000000001
 42
1
  0
SEQEND
  0
POLYLINE
  8
0
 10
0
 20
0
 39
0
 70
1
 66
1
  0
VERTEX
  8
0
 10
542.65999999999997
 20
463.24000000000001
 42
1
  0
VERTEX
  8
0
 10
417.65999999999997
 20
463.24000000000001
 42
1
  0
SEQEND
  0
POLYLINE
  8
0
 10
0
 20
0
 39
0
 70
1
 66
1
  0
VERTEX
  8
0
 10
269.7969323730469
 20
768.9011920166015
 42
0
  0
VERTEX
  8
0
 10
342.7969323730469
 20
768.9011920166015
 42
0
  0
VERTEX
  8
0
 10
342.7969323730469
 20
630.31999999999994
 42
0
  0
VERTEX
  8
0
 10
10.160000000000025
 20
630.31999999999994
 42
0
  0
VERTEX
  8
0
 10
10.160000000000025
 20
768.9011920166015
 42
0
  0
VERTEX
  8
0
 10
80.3256188964844
 20
768.9011920166015
 42
0
  0
VERTEX
  8
0
 10
167.7969323730469
 20
725.08961517333978
 42
0
  0
VERTEX
  8
0
 10
269.7969323730469
 20
725.08961517333978
 42
0
  0
SEQEND
  0
POLYLINE
  8
0
 10
0
 20
0
 39
0
 70
1
 66
1
  0
VERTEX
  8
0
 10
211.80000000000001
 20
751.15999999999997
 42
0
  0
VERTEX
  8
0
 10
138.80000000000001
 20
751.15999999999997
 42
0
  0
VERTEX
  8
0
 10
138.79999999999998
 20
889.74119201660153
 42
0
  0
VERTEX
  8
0
 10
471.43693237304683
 20
889.74119201660153
 42
0
  0
VERTEX
  8
0
 10
471.43693237304683
 20
751.15999999999997
 42
0
  0
VERTEX
  8
0
 10
401.27131347656245
 20
751.15999999999997
 42
0
  0
VERTEX
  8
0
 10
313.79999999999995
 20
794.97157684326169
 42
0
  0
VERTEX
  8
0
 10
211.80000000000001
 20
794.97157684326169
 42
0
  0
SEQEND
  0
POLYLINE
  8
0
 10
0
 20
0
 39
0
 70
1
 66
1
  0
VERTEX
  8
0
 10
741.27693237304686
 20
768.9011920166015
 42
0
  0
VERTEX
  8
0
 10
814.27693237304686
 20
768.9011920166015
 42
0
  0
VERTEX
  8
0
 10
814.27693237304686
 20
630.31999999999994
 42
0
  0
VERTEX
  8
0
 10
481.63999999999999
 20
630.31999999999994
 42
0
  0
VERTEX
  8
0
 10
481.63999999999999
 20
768.9011920166015
 42
0
  0
VERTEX
  8
0
 10
551.80561889648436
 20
768.9011920166015
 42
0
  0
VERTEX
  8
0
 10
639.27693237304686
 20
725.08961517333978
 42
0
  0
VERTEX
  8
0
 10
741.27693237304686
 20
725.08961517333978
 42
0
  0
SEQEND
  0
POLYLINE
  8
0
 10
0
 20
0
 39
0
 70
1
 66
1
  0
VERTEX
  8
0
 10
683.27999999999997
 20
751.15999999999997
 42
0
  0
VERTEX
  8
0
 10
610.27999999999997
 20
751.15999999999997
 42
0
  0
VERTEX
  8
0
 10
610.27999999999997
 20
889.74119201660153
 42
0
  0
VERTEX
  8
0
 10
942.91693237304685
 20
889.74119201660153
 42
0
  0
VERTEX
  8
0
 10
942.91693237304685
 20
751.15999999999997
 42
0
  0
VERTEX
  8
0
 10
872.75131347656247
 20
751.15999999999997
 42
0
  0
VERTEX
  8
0
 10
785.27999999999997
 20
794.97157684326169
 42
0
  0
VERTEX
  8
0
 10
683.27999999999997
 20
794.97157684326169
 42
0
  0
SEQEND
  0
POLYLINE
  8
0
 10
0
 20
0
 39
0
 70
1
 66
1
  0
VERTEX
  8
0
 10
1110.1600488281247
 20
10.159999999999854
 42
-0
  0
VERTEX
  8
0
 10
1069.4644921874997
 20
33.655605468749854
 42
-0
  0
VERTEX
  8
0
 10
1044.9600976562497
 20
58.159999999999854
 42
-0
  0
VERTEX
  8
0
 10
1044.9600976562497
 20
85.659999999999854
 42
-0
  0
VERTEX
  8
0
 10
1010.3599999999997
 20
85.659999999999854
 42
-0
  0
VERTEX
  8
0
 10
1010.3599999999997
 20
375.65999999999985
 42
0
  0
VERTEX
  8
0
 10
1044.9600976562497
 20
375.65999999999985
 42
-0
  0
VERTEX
  8
0
 10
1044.9600976562497
 20
403.15999999999985
 42
0
  0
VERTEX
  8
0
 10
1069.4644921874997
 20
427.66439453124985
 42
0
  0
VERTEX
  8
0
 10
1110.1600488281247
 20
451.15999999999985
 42
0
  0
SEQEND
  0
POLYLINE
  8
0
 10
0
 20
0
 39
0
 70
1
 66
1
  0
VERTEX
  8
0
 10
1010.3600000000001
 20
841.40000000000009
 42
-0
  0
VERTEX
  8
0
 10
1051.0555566406251
 20
817.90439453125009
 42
-0
  0
VERTEX
  8
0
 10
1075.5599511718751
 20
793.40000000000009
 42
-0
  0
VERTEX
  8
0
 10
1075.5599511718751
 20
765.90000000000009
 42
-0
  0
VERTEX
  8
0
 10
1110.1600488281251
 20
765.90000000000009
 42
-0
  0
VERTEX
  8
0
 10
1110.1600488281251
 20
475.90000000000009
 42
0
  0
VERTEX
  8
0
 10
1075.5599511718751
 20
475.90000000000009
 42
-0
  0
VERTEX
  8
0
 10
1075.5599511718751
 20
448.40000000000009
 42
0
  0
VERTEX
  8
0
 10
1051.0555566406251
 20
423.89560546875009
 42
0
  0
VERTEX
  8
0
 10
1010.3600000000001
 20
400.40000000000009
 42
0
  0
SEQEND
  0
ENDSEC
  0
EOF
