  0
SECTION
  2
ENTITIES
  0
POLYLINE
  8
0
 10
0
 20
0
 39
0
 70
1
 66
1
  0
VERTEX
  8
0
 10
0
 20
0
 42
-0
  0
VERTEX
  8
0
 10
1000
 20
0
 42
-0
  0
VERTEX
  8
0
 10
1000
 20
600
 42
-0
  0
VERTEX
  8
0
 10
0
 20
600
 42
-0
  0
SEQEND
  0
POLYLINE
  8
0
 10
0
 20
0
 39
0
 70
1
 66
1
  0
VERTEX
  8
0
 10
10
 20
140
 42
0
  0
VERTEX
  8
0
 10
600
 20
140
 42
-0
  0
VERTEX
  8
0
 10
600
 20
260
 42
-0
  0
VERTEX
  8
0
 10
10
 20
260
 42
-0
  0
SEQEND
  0
POLYLINE
  8
0
 10
0
 20
0
 39
0
 70
1
 66
1
  0
VERTEX
  8
0
 10
156.4320068359375
 20
270
 42
0
  0
VERTEX
  8
0
 10
746.4320068359375
 20
270
 42
-0
  0
VERTEX
  8
0
 10
746.4320068359375
 20
390
 42
-0
  0
VERTEX
  8
0
 10
156.4320068359375
 20
390
 42
-0
  0
SEQEND
  0
POLYLINE
  8
0
 10
0
 20
0
 39
0
 70
1
 66
1
  0
VERTEX
  8
0
 10
216.30960083007812
 20
400
 42
0
  0
VERTEX
  8
0
 10
272.30960083007812
 20
400
 42
0
  0
VERTEX
  8
0
 10
286.30960083007812
 20
414
 42
0
  0
VERTEX
  8
0
 10
286.30960083007812
 20
558
 42
0
  0
VERTEX
  8
0
 10
272.30960083007812
 20
572
 42
0
  0
VERTEX
  8
0
 10
216.30960083007812
 20
572
 42
0
  0
SEQEND
  0
POLYLINE
  8
0
 10
0
 20
0
 39
0
 70
1
 66
1
  0
VERTEX
  8
0
 10
756.4320068359375
 20
220
 42
0
  0
VERTEX
  8
0
 10
956.4320068359375
 20
220
 42
0
  0
VERTEX
  8
0
 10
956.4320068359375
 20
420
 42
0
  0
VERTEX
  8
0
 10
756.4320068359375
 20
420
 42
0
  0
SEQEND
  0
POLYLINE
  8
0
 10
0
 20
0
 39
0
 70
1
 66
1
  0
VERTEX
  8
0
 10
46.431999206542969
 20
420
 42
0
  0
VERTEX
  8
0
 10
46.431999206542969
 20
405
 42
0
  0
VERTEX
  8
0
 10
131.4320068359375
 20
270
 42
0
  0
VERTEX
  8
0
 10
146.4320068359375
 20
270
 42
0
  0
VERTEX
  8
0
 10
146.4320068359375
 20
420
 42
0
  0
SEQEND
  0
POLYLINE
  8
0
 10
0
 20
0
 39
0
 70
1
 66
1
  0
VERTEX
  8
0
 10
110
 20
270
 42
0
  0
VERTEX
  8
0
 10
110
 20
285
 42
0
  0
VERTEX
  8
0
 10
25
 20
420
 42
0
  0
VERTEX
  8
0
 10
10
 20
420
 42
0
  0
VERTEX
  8
0
 10
10
 20
270
 42
0
  0
SEQEND
  0
POLYLINE
  8
0
 10
0
 20
0
 39
0
 70
1
 66
1
  0
VERTEX
  8
0
 10
670
 20
10
 42
0
  0
VERTEX
  8
0
 10
870
 20
10
 42
0
  0
VERTEX
  8
0
 10
870
 20
210
 42
0
  0
VERTEX
  8
0
 10
670
 20
210
 42
0
  0
SEQEND
  0
POLYLINE
  8
0
 10
0
 20
0
 39
0
 70
1
 66
1
  0
VERTEX
  8
0
 10
10
 20
10
 42
0
  0
VERTEX
  8
0
 10
600
 20
10
 42
-0
  0
VERTEX
  8
0
 10
600
 20
130
 42
-0
  0
VERTEX
  8
0
 10
10
 20
130
 42
-0
  0
SEQEND
  0
POLYLINE
  8
0
 10
0
 20
0
 39
0
 70
1
 66
1
  0
VERTEX
  8
0
 10
880
 20
210
 42
0
  0
VERTEX
  8
0
 10
880
 20
10
 42
0
  0
VERTEX
  8
0
 10
930
 20
10
 42
0
  0
VERTEX
  8
0
 10
930
 20
210
 42
0
  0
SEQEND
  0
POLYLINE
  8
0
 10
0
 20
0
 39
0
 70
1
 66
1
  0
VERTEX
  8
0
 10
610
 20
210
 42
0
  0
VERTEX
  8
0
 10
610
 20
10
 42
0
  0
VERTEX
  8
0
 10
660
 20
10
 42
0
  0
VERTEX
  8
0
 10
660
 20
210
 42
0
  0
SEQEND
  0
POLYLINE
  8
0
 10
0
 20
0
 39
0
 70
1
 66
1
  0
VERTEX
  8
0
 10
526.3095703125
 20
492
 42
0
  0
VERTEX
  8
0
 10
746.3095703125
 20
492
 42
0
  0
VERTEX
  8
0
 10
746.3095703125
 20
559
 42
0
  0
VERTEX
  8
0
 10
731.3095703125
 20
574
 42
0
  0
VERTEX
  8
0
 10
541.3095703125
 20
574
 42
0
  0
VERTEX
  8
0
 10
526.3095703125
 20
559
 42
0
  0
SEQEND
  0
POLYLINE
  8
0
 10
0
 20
0
 39
0
 70
1
 66
1
  0
VERTEX
  8
0
 10
30
 20
430
 42
0
  0
VERTEX
  8
0
 10
152
 20
552
 42
0
  0
VERTEX
  8
0
 10
152
 20
572
 42
0
  0
VERTEX
  8
0
 10
20
 20
572
 42
-0
  0
VERTEX
  8
0
 10
10
 20
562
 42
0
  0
VERTEX
  8
0
 10
10
 20
430
 42
0
  0
SEQEND
  0
POLYLINE
  8
0
 10
0
 20
0
 39
0
 70
1
 66
1
  0
VERTEX
  8
0
 10
186.30960083007812
 20
572
 42
0
  0
VERTEX
  8
0
 10
64.309600830078125
 20
450
 42
0
  0
VERTEX
  8
0
 10
64.309600830078125
 20
430
 42
0
  0
VERTEX
  8
0
 10
196.30960083007812
 20
430
 42
-0
  0
VERTEX
  8
0
 10
206.30960083007812
 20
440
 42
0
  0
VERTEX
  8
0
 10
206.30960083007812
 20
572
 42
0
  0
SEQEND
  0
POLYLINE
  8
0
 10
0
 20
0
 39
0
 70
1
 66
1
  0
VERTEX
  8
0
 10
776.3095703125
 20
430
 42
0
  0
VERTEX
  8
0
 10
898.3095703125
 20
552
 42
0
  0
VERTEX
  8
0
 10
898.3095703125
 20
572
 42
0
  0
VERTEX
  8
0
 10
766.3095703125
 20
572
 42
-0
  0
VERTEX
  8
0
 10
756.3095703125
 20
562
 42
0
  0
VERTEX
  8
0
 10
756.3095703125
 20
430
 42
0
  0
SEQEND
  0
POLYLINE
  8
0
 10
0
 20
0
 39
0
 70
1
 66
1
  0
VERTEX
  8
0
 10
932.61920166015625
 20
572
 42
0
  0
VERTEX
  8
0
 10
810.61920166015625
 20
450
 42
0
  0
VERTEX
  8
0
 10
810.61920166015625
 20
430
 42
0
  0
VERTEX
  8
0
 10
942.61920166015625
 20
430
 42
-0
  0
VERTEX
  8
0
 10
952.61920166015625
 20
440
 42
0
  0
VERTEX
  8
0
 10
952.61920166015625
 20
572
 42
0
  0
SEQEND
  0
POLYLINE
  8
0
 10
0
 20
0
 39
0
 70
1
 66
1
  0
VERTEX
  8
0
 10
940
 20
210
 42
0
  0
VERTEX
  8
0
 10
940
 20
10
 42
0
  0
VERTEX
  8
0
 10
990
 20
10
 42
0
  0
VERTEX
  8
0
 10
990
 20
210
 42
0
  0
SEQEND
  0
POLYLINE
  8
0
 10
0
 20
0
 39
0
 70
1
 66
1
  0
VERTEX
  8
0
 10
526.3095703125
 20
400
 42
0
  0
VERTEX
  8
0
 10
746.3095703125
 20
400
 42
0
  0
VERTEX
  8
0
 10
746.3095703125
 20
467
 42
0
  0
VERTEX
  8
0
 10
731.3095703125
 20
482
 42
0
  0
VERTEX
  8
0
 10
541.3095703125
 20
482
 42
0
  0
VERTEX
  8
0
 10
526.3095703125
 20
467
 42
0
  0
SEQEND
  0
POLYLINE
  8
0
 10
0
 20
0
 39
0
 70
1
 66
1
  0
VERTEX
  8
0
 10
296.30960083007812
 20
400
 42
0
  0
VERTEX
  8
0
 10
516.3095703125
 20
400
 42
0
  0
VERTEX
  8
0
 10
516.3095703125
 20
467
 42
0
  0
VERTEX
  8
0
 10
501.30960083007812
 20
482
 42
0
  0
VERTEX
  8
0
 10
311.30960083007812
 20
482
 42
0
  0
VERTEX
  8
0
 10
296.30960083007812
 20
467
 42
0
  0
SEQEND
  0
POLYLINE
  8
0
 10
0
 20
0
 39
0
 70
1
 66
1
  0
VERTEX
  8
0
 10
296.30960083007812
 20
492
 42
0
  0
VERTEX
  8
0
 10
516.3095703125
 20
492
 42
0
  0
VERTEX
  8
0
 10
516.3095703125
 20
559
 42
0
  0
VERTEX
  8
0
 10
501.30960083007812
 20
574
 42
0
  0
VERTEX
  8
0
 10
311.30960083007812
 20
574
 42
0
  0
VERTEX
  8
0
 10
296.30960083007812
 20
559
 42
0
  0
SEQEND
  0
ENDSEC
  0
EOF
