  0
SECTION
  2
ENTITIES
  0
POLYLINE
  8
0
 10
0
 20
0
 39
0
 70
1
 66
1
  0
VERTEX
  8
0
 10
0
 20
0
 42
-0
  0
VERTEX
  8
0
 10
700
 20
0
 42
-0
  0
VERTEX
  8
0
 10
700
 20
500
 42
-0
  0
VERTEX
  8
0
 10
0
 20
500
 42
-0
  0
SEQEND
  0
POLYLINE
  8
0
 10
0
 20
0
 39
0
 70
1
 66
1
  0
VERTEX
  8
0
 10
188.33602905273437
 20
365.05984497070312
 42
1
  0
VERTEX
  8
0
 10
186.78704833984375
 20
10.063227653503418
 42
1
  0
SEQEND
  0
POLYLINE
  8
0
 10
0
 20
0
 39
0
 70
1
 66
1
  0
VERTEX
  8
0
 10
188.21603393554687
 20
337.56011962890625
 42
-1
  0
VERTEX
  8
0
 10
186.90704345703125
 20
37.562965393066406
 42
-1
  0
SEQEND
  0
POLYLINE
  8
0
 10
0
 20
0
 39
0
 70
1
 66
1
  0
VERTEX
  8
0
 10
178.32107543945312
 20
316.79876708984375
 42
1
  0
VERTEX
  8
0
 10
177.18661499023437
 20
56.801239013671875
 42
1
  0
SEQEND
  0
POLYLINE
  8
0
 10
0
 20
0
 39
0
 70
1
 66
1
  0
VERTEX
  8
0
 10
178.1378173828125
 20
274.79916381835937
 42
-1
  0
VERTEX
  8
0
 10
177.369873046875
 20
98.800834655761719
 42
-1
  0
SEQEND
  0
POLYLINE
  8
0
 10
0
 20
0
 39
0
 70
1
 66
1
  0
VERTEX
  8
0
 10
454.98260498046875
 20
489.86029052734375
 42
1
  0
VERTEX
  8
0
 10
453.84814453125
 20
229.86277770996094
 42
1
  0
SEQEND
  0
POLYLINE
  8
0
 10
0
 20
0
 39
0
 70
1
 66
1
  0
VERTEX
  8
0
 10
454.79934692382812
 20
447.86068725585937
 42
-1
  0
VERTEX
  8
0
 10
454.03140258789062
 20
271.86236572265625
 42
-1
  0
SEQEND
  0
POLYLINE
  8
0
 10
0
 20
0
 39
0
 70
1
 66
1
  0
VERTEX
  8
0
 10
675.13848876953125
 20
10.061538696289062
 42
-0
  0
VERTEX
  8
0
 10
675.13848876953125
 20
190.06153869628906
 42
-0
  0
VERTEX
  8
0
 10
375.13845825195312
 20
190.06153869628906
 42
-0
  0
VERTEX
  8
0
 10
375.13845825195312
 20
10.061538696289062
 42
-0
  0
SEQEND
  0
POLYLINE
  8
0
 10
0
 20
0
 39
0
 70
1
 66
1
  0
VERTEX
  8
0
 10
645.13848876953125
 20
100.06153869628906
 42
-1
  0
VERTEX
  8
0
 10
525.13848876953125
 20
100.06153869628906
 42
-1
  0
SEQEND
  0
POLYLINE
  8
0
 10
0
 20
0
 39
0
 70
1
 66
1
  0
VERTEX
  8
0
 10
10.061538696289062
 20
353.546142578125
 42
-0
  0
VERTEX
  8
0
 10
100.06153869628906
 20
353.546142578125
 42
0
  0
VERTEX
  8
0
 10
100.06153869628906
 20
390.546142578125
 42
-1
  0
VERTEX
  8
0
 10
100.06153869628906
 20
426.546142578125
 42
0
  0
VERTEX
  8
0
 10
100.06153869628906
 20
463.546142578125
 42
0
  0
VERTEX
  8
0
 10
78.061538696289063
 20
463.546142578125
 42
-1
  0
VERTEX
  8
0
 10
32.061538696289063
 20
463.546142578125
 42
0
  0
VERTEX
  8
0
 10
10.061538696289062
 20
463.546142578125
 42
0
  0
SEQEND
  0
POLYLINE
  8
0
 10
0
 20
0
 39
0
 70
1
 66
1
  0
VERTEX
  8
0
 10
32.061538696289063
 20
364.86428833007812
 42
-1
  0
VERTEX
  8
0
 10
32.061538696289063
 20
390.86428833007812
 42
-1
  0
SEQEND
  0
POLYLINE
  8
0
 10
0
 20
0
 39
0
 70
1
 66
1
  0
VERTEX
  8
0
 10
110.16153717041016
 20
375.08462524414062
 42
-0
  0
VERTEX
  8
0
 10
200.16154479980469
 20
375.08462524414062
 42
0
  0
VERTEX
  8
0
 10
200.16154479980469
 20
412.08462524414062
 42
-1
  0
VERTEX
  8
0
 10
200.16154479980469
 20
448.08462524414062
 42
0
  0
VERTEX
  8
0
 10
200.16154479980469
 20
485.08462524414062
 42
0
  0
VERTEX
  8
0
 10
178.16154479980469
 20
485.08462524414062
 42
-1
  0
VERTEX
  8
0
 10
132.16154479980469
 20
485.08462524414062
 42
0
  0
VERTEX
  8
0
 10
110.16153717041016
 20
485.08462524414062
 42
0
  0
SEQEND
  0
POLYLINE
  8
0
 10
0
 20
0
 39
0
 70
1
 66
1
  0
VERTEX
  8
0
 10
132.16154479980469
 20
386.40274047851562
 42
-1
  0
VERTEX
  8
0
 10
132.16154479980469
 20
412.40274047851562
 42
-1
  0
SEQEND
  0
POLYLINE
  8
0
 10
0
 20
0
 39
0
 70
1
 66
1
  0
VERTEX
  8
0
 10
122.65384674072266
 20
131.75384521484375
 42
-0
  0
VERTEX
  8
0
 10
212.65383911132812
 20
131.75384521484375
 42
0
  0
VERTEX
  8
0
 10
212.65383911132812
 20
168.75384521484375
 42
-1
  0
VERTEX
  8
0
 10
212.65383911132812
 20
204.75384521484375
 42
0
  0
VERTEX
  8
0
 10
212.65383911132812
 20
241.75384521484375
 42
0
  0
VERTEX
  8
0
 10
190.65383911132812
 20
241.75384521484375
 42
-1
  0
VERTEX
  8
0
 10
144.65383911132812
 20
241.75384521484375
 42
0
  0
VERTEX
  8
0
 10
122.65384674072266
 20
241.75384521484375
 42
0
  0
SEQEND
  0
POLYLINE
  8
0
 10
0
 20
0
 39
0
 70
1
 66
1
  0
VERTEX
  8
0
 10
144.65383911132812
 20
143.07199096679687
 42
-1
  0
VERTEX
  8
0
 10
144.65383911132812
 20
169.07199096679687
 42
-1
  0
SEQEND
  0
POLYLINE
  8
0
 10
0
 20
0
 39
0
 70
1
 66
1
  0
VERTEX
  8
0
 10
210.26153564453125
 20
373.84616088867187
 42
-0
  0
VERTEX
  8
0
 10
300.26153564453125
 20
373.84616088867187
 42
0
  0
VERTEX
  8
0
 10
300.26153564453125
 20
410.84616088867187
 42
-1
  0
VERTEX
  8
0
 10
300.26153564453125
 20
446.84616088867187
 42
0
  0
VERTEX
  8
0
 10
300.26153564453125
 20
483.84616088867187
 42
0
  0
VERTEX
  8
0
 10
278.26153564453125
 20
483.84616088867187
 42
-1
  0
VERTEX
  8
0
 10
232.26153564453125
 20
483.84616088867187
 42
0
  0
VERTEX
  8
0
 10
210.26153564453125
 20
483.84616088867187
 42
0
  0
SEQEND
  0
POLYLINE
  8
0
 10
0
 20
0
 39
0
 70
1
 66
1
  0
VERTEX
  8
0
 10
232.26153564453125
 20
385.164306640625
 42
-1
  0
VERTEX
  8
0
 10
232.26153564453125
 20
411.164306640625
 42
-1
  0
SEQEND
  0
POLYLINE
  8
0
 10
0
 20
0
 39
0
 70
1
 66
1
  0
VERTEX
  8
0
 10
399.31539916992187
 20
304.81539916992187
 42
-0
  0
VERTEX
  8
0
 10
489.31539916992187
 20
304.81539916992187
 42
0
  0
VERTEX
  8
0
 10
489.31539916992187
 20
341.81539916992187
 42
-1
  0
VERTEX
  8
0
 10
489.31539916992187
 20
377.81539916992187
 42
0
  0
VERTEX
  8
0
 10
489.31539916992187
 20
414.81539916992187
 42
0
  0
VERTEX
  8
0
 10
467.31539916992187
 20
414.81539916992187
 42
-1
  0
VERTEX
  8
0
 10
421.31539916992187
 20
414.81539916992187
 42
0
  0
VERTEX
  8
0
 10
399.31539916992187
 20
414.81539916992187
 42
0
  0
SEQEND
  0
POLYLINE
  8
0
 10
0
 20
0
 39
0
 70
1
 66
1
  0
VERTEX
  8
0
 10
421.31539916992187
 20
316.13351440429687
 42
-1
  0
VERTEX
  8
0
 10
421.31539916992187
 20
342.13351440429687
 42
-1
  0
SEQEND
  0
POLYLINE
  8
0
 10
0
 20
0
 39
0
 70
1
 66
1
  0
VERTEX
  8
0
 10
585.4615478515625
 20
200.08460998535156
 42
-0
  0
VERTEX
  8
0
 10
675.4615478515625
 20
200.08460998535156
 42
0
  0
VERTEX
  8
0
 10
675.4615478515625
 20
237.08460998535156
 42
-1
  0
VERTEX
  8
0
 10
675.4615478515625
 20
273.08462524414062
 42
0
  0
VERTEX
  8
0
 10
675.4615478515625
 20
310.08462524414062
 42
0
  0
VERTEX
  8
0
 10
653.4615478515625
 20
310.08462524414062
 42
-1
  0
VERTEX
  8
0
 10
607.4615478515625
 20
310.08462524414062
 42
0
  0
VERTEX
  8
0
 10
585.4615478515625
 20
310.08462524414062
 42
0
  0
SEQEND
  0
POLYLINE
  8
0
 10
0
 20
0
 39
0
 70
1
 66
1
  0
VERTEX
  8
0
 10
607.4615478515625
 20
211.40275573730469
 42
-1
  0
VERTEX
  8
0
 10
607.4615478515625
 20
237.40275573730469
 42
-1
  0
SEQEND
  0
POLYLINE
  8
0
 10
0
 20
0
 39
0
 70
1
 66
1
  0
VERTEX
  8
0
 10
593.16156005859375
 20
379.60769653320312
 42
-0
  0
VERTEX
  8
0
 10
683.16156005859375
 20
379.60769653320312
 42
0
  0
VERTEX
  8
0
 10
683.16156005859375
 20
416.60769653320312
 42
-1
  0
VERTEX
  8
0
 10
683.16156005859375
 20
452.60769653320312
 42
0
  0
VERTEX
  8
0
 10
683.16156005859375
 20
489.60769653320312
 42
0
  0
VERTEX
  8
0
 10
661.16156005859375
 20
489.60769653320312
 42
-1
  0
VERTEX
  8
0
 10
615.16156005859375
 20
489.60769653320312
 42
0
  0
VERTEX
  8
0
 10
593.16156005859375
 20
489.60769653320312
 42
0
  0
SEQEND
  0
POLYLINE
  8
0
 10
0
 20
0
 39
0
 70
1
 66
1
  0
VERTEX
  8
0
 10
615.16156005859375
 20
390.92584228515625
 42
-1
  0
VERTEX
  8
0
 10
615.16156005859375
 20
416.92584228515625
 42
-1
  0
SEQEND
  0
ENDSEC
  0
EOF
