  0
SECTION
  2
ENTITIES
  0
POLYLINE
  8
0
 10
0
 20
0
 39
0
 70
1
 66
1
  0
VERTEX
  8
0
 10
0
 20
0
 42
-0
  0
VERTEX
  8
0
 10
700
 20
0
 42
-0
  0
VERTEX
  8
0
 10
700
 20
300
 42
-0
  0
VERTEX
  8
0
 10
0
 20
300
 42
-0
  0
SEQEND
  0
POLYLINE
  8
0
 10
0
 20
0
 39
0
 70
1
 66
1
  0
VERTEX
  8
0
 10
214
 20
154
 42
0
  0
VERTEX
  8
0
 10
359
 20
154
 42
-0
  0
VERTEX
  8
0
 10
359
 20
234
 42
-0
  0
VERTEX
  8
0
 10
214
 20
234
 42
-0
  0
SEQEND
  0
POLYLINE
  8
0
 10
0
 20
0
 39
0
 70
1
 66
1
  0
VERTEX
  8
0
 10
369
 20
275
 42
0
  0
VERTEX
  8
0
 10
369
 20
130
 42
-0
  0
VERTEX
  8
0
 10
449
 20
130
 42
-0
  0
VERTEX
  8
0
 10
449
 20
275
 42
-0
  0
SEQEND
  0
POLYLINE
  8
0
 10
0
 20
0
 39
0
 70
1
 66
1
  0
VERTEX
  8
0
 10
639
 20
288
 42
0
  0
VERTEX
  8
0
 10
639
 20
154
 42
0
  0
VERTEX
  8
0
 10
659
 20
154
 42
0
  0
VERTEX
  8
0
 10
659
 20
288
 42
0
  0
SEQEND
  0
POLYLINE
  8
0
 10
0
 20
0
 39
0
 70
1
 66
1
  0
VERTEX
  8
0
 10
459
 20
275
 42
0
  0
VERTEX
  8
0
 10
459
 20
130
 42
-0
  0
VERTEX
  8
0
 10
539
 20
130
 42
-0
  0
VERTEX
  8
0
 10
539
 20
275
 42
-0
  0
SEQEND
  0
POLYLINE
  8
0
 10
0
 20
0
 39
0
 70
1
 66
1
  0
VERTEX
  8
0
 10
549
 20
275
 42
0
  0
VERTEX
  8
0
 10
549
 20
130
 42
-0
  0
VERTEX
  8
0
 10
629
 20
130
 42
-0
  0
VERTEX
  8
0
 10
629
 20
275
 42
-0
  0
SEQEND
  0
POLYLINE
  8
0
 10
0
 20
0
 39
0
 70
1
 66
1
  0
VERTEX
  8
0
 10
669
 20
144
 42
0
  0
VERTEX
  8
0
 10
669
 20
10
 42
0
  0
VERTEX
  8
0
 10
689
 20
10
 42
0
  0
VERTEX
  8
0
 10
689
 20
144
 42
0
  0
SEQEND
  0
POLYLINE
  8
0
 10
0
 20
0
 39
0
 70
1
 66
1
  0
VERTEX
  8
0
 10
639
 20
144
 42
0
  0
VERTEX
  8
0
 10
639
 20
10
 42
0
  0
VERTEX
  8
0
 10
659
 20
10
 42
0
  0
VERTEX
  8
0
 10
659
 20
144
 42
0
  0
SEQEND
  0
POLYLINE
  8
0
 10
0
 20
0
 39
0
 70
1
 66
1
  0
VERTEX
  8
0
 10
106.70765686035156
 20
287.99935913085937
 42
1
  0
VERTEX
  8
0
 10
107.29234313964844
 20
154.00064086914063
 42
1
  0
SEQEND
  0
POLYLINE
  8
0
 10
0
 20
0
 39
0
 70
1
 66
1
  0
VERTEX
  8
0
 10
214
 20
244
 42
0
  0
VERTEX
  8
0
 10
348
 20
244
 42
0
  0
VERTEX
  8
0
 10
348
 20
264
 42
0
  0
VERTEX
  8
0
 10
214
 20
264
 42
0
  0
SEQEND
  0
POLYLINE
  8
0
 10
0
 20
0
 39
0
 70
1
 66
1
  0
VERTEX
  8
0
 10
10
 20
288
 42
0
  0
VERTEX
  8
0
 10
10
 20
154
 42
0
  0
VERTEX
  8
0
 10
30
 20
154
 42
0
  0
VERTEX
  8
0
 10
30
 20
288
 42
0
  0
SEQEND
  0
POLYLINE
  8
0
 10
0
 20
0
 39
0
 70
1
 66
1
  0
VERTEX
  8
0
 10
184
 20
288
 42
0
  0
VERTEX
  8
0
 10
184
 20
154
 42
0
  0
VERTEX
  8
0
 10
204
 20
154
 42
0
  0
VERTEX
  8
0
 10
204
 20
288
 42
0
  0
SEQEND
  0
POLYLINE
  8
0
 10
0
 20
0
 39
0
 70
1
 66
1
  0
VERTEX
  8
0
 10
10
 20
144
 42
0
  0
VERTEX
  8
0
 10
10
 20
10
 42
0
  0
VERTEX
  8
0
 10
30
 20
10
 42
0
  0
VERTEX
  8
0
 10
30
 20
144
 42
0
  0
SEQEND
  0
POLYLINE
  8
0
 10
0
 20
0
 39
0
 70
1
 66
1
  0
VERTEX
  8
0
 10
250.70765686035156
 20
143.99935913085937
 42
1
  0
VERTEX
  8
0
 10
251.29234313964844
 20
10.000638008117676
 42
1
  0
SEQEND
  0
POLYLINE
  8
0
 10
0
 20
0
 39
0
 70
1
 66
1
  0
VERTEX
  8
0
 10
106.70765686035156
 20
143.99935913085937
 42
1
  0
VERTEX
  8
0
 10
107.29234313964844
 20
10.000638008117676
 42
1
  0
SEQEND
  0
POLYLINE
  8
0
 10
0
 20
0
 39
0
 70
1
 66
1
  0
VERTEX
  8
0
 10
669
 20
288
 42
0
  0
VERTEX
  8
0
 10
669
 20
154
 42
0
  0
VERTEX
  8
0
 10
689
 20
154
 42
0
  0
VERTEX
  8
0
 10
689
 20
288
 42
0
  0
SEQEND
  0
POLYLINE
  8
0
 10
0
 20
0
 39
0
 70
1
 66
1
  0
VERTEX
  8
0
 10
328
 20
70
 42
0
  0
VERTEX
  8
0
 10
620
 20
70
 42
0
  0
VERTEX
  8
0
 10
620
 20
120
 42
0
  0
VERTEX
  8
0
 10
328
 20
120
 42
0
  0
SEQEND
  0
POLYLINE
  8
0
 10
0
 20
0
 39
0
 70
1
 66
1
  0
VERTEX
  8
0
 10
328
 20
10
 42
0
  0
VERTEX
  8
0
 10
620
 20
10
 42
0
  0
VERTEX
  8
0
 10
620
 20
60
 42
0
  0
VERTEX
  8
0
 10
328
 20
60
 42
0
  0
SEQEND
  0
ENDSEC
  0
EOF
