  0
SECTION
  2
ENTITIES
  0
POLYLINE
  8
0
 10
0
 20
0
 39
0
 70
1
 66
1
  0
VERTEX
  8
0
 10
0
 20
0
 42
-0
  0
VERTEX
  8
0
 10
3000
 20
0
 42
-0
  0
VERTEX
  8
0
 10
3000
 20
1500
 42
-0
  0
VERTEX
  8
0
 10
0
 20
1500
 42
-0
  0
SEQEND
  0
POLYLINE
  8
0
 10
0
 20
0
 39
0
 70
1
 66
1
  0
VERTEX
  8
0
 10
877.22384643554687
 20
887.22384643554687
 42
0
  0
VERTEX
  8
0
 10
877.22384643554687
 20
1452.2238464355469
 42
-0
  0
VERTEX
  8
0
 10
501.34602558612823
 20
1452.2238464355469
 42
0
  0
VERTEX
  8
0
 10
501.34602558612823
 20
1429.2238464355469
 42
0
  0
VERTEX
  8
0
 10
441
 20
1429.2238464355469
 42
0
  0
VERTEX
  8
0
 10
441
 20
1452.2238464355469
 42
-0
  0
VERTEX
  8
0
 10
33
 20
1452.2238464355469
 42
-0
  0
VERTEX
  8
0
 10
33
 20
1409.2238464355469
 42
0
  0
VERTEX
  8
0
 10
10
 20
1409.2238464355469
 42
-0
  0
VERTEX
  8
0
 10
10
 20
930.22384643554687
 42
-0
  0
VERTEX
  8
0
 10
33
 20
930.22384643554687
 42
0
  0
VERTEX
  8
0
 10
33
 20
887.22384643554687
 42
0
  0
VERTEX
  8
0
 10
412
 20
887.22384643554687
 42
-0
  0
VERTEX
  8
0
 10
412
 20
910.22384643554687
 42
-0
  0
VERTEX
  8
0
 10
457
 20
910.22384643554687
 42
0
  0
VERTEX
  8
0
 10
457
 20
887.22384643554687
 42
0
  0
SEQEND
  0
POLYLINE
  8
0
 10
0
 20
0
 39
0
 70
1
 66
1
  0
VERTEX
  8
0
 10
1160
 20
10
 42
0
  0
VERTEX
  8
0
 10
1725
 20
10.000000000000057
 42
-0
  0
VERTEX
  8
0
 10
1725
 20
385.8778208494187
 42
0
  0
VERTEX
  8
0
 10
1702
 20
385.8778208494187
 42
0
  0
VERTEX
  8
0
 10
1702
 20
446.22384643554693
 42
0
  0
VERTEX
  8
0
 10
1725
 20
446.22384643554693
 42
-0
  0
VERTEX
  8
0
 10
1725
 20
854.22384643554687
 42
-0
  0
VERTEX
  8
0
 10
1682
 20
854.22384643554687
 42
0
  0
VERTEX
  8
0
 10
1682
 20
877.22384643554687
 42
-0
  0
VERTEX
  8
0
 10
1203
 20
877.22384643554687
 42
-0
  0
VERTEX
  8
0
 10
1203
 20
854.22384643554687
 42
0
  0
VERTEX
  8
0
 10
1160
 20
854.22384643554687
 42
0
  0
VERTEX
  8
0
 10
1160
 20
475.22384643554687
 42
-0
  0
VERTEX
  8
0
 10
1183
 20
475.22384643554687
 42
-0
  0
VERTEX
  8
0
 10
1183
 20
430.22384643554687
 42
0
  0
VERTEX
  8
0
 10
1160
 20
430.22384643554687
 42
0
  0
SEQEND
  0
POLYLINE
  8
0
 10
0
 20
0
 39
0
 70
1
 66
1
  0
VERTEX
  8
0
 10
2353
 20
10
 42
0
  0
VERTEX
  8
0
 10
2832
 20
10.000000000000057
 42
0
  0
VERTEX
  8
0
 10
2832
 20
33.000000000000057
 42
-0
  0
VERTEX
  8
0
 10
2875
 20
33.000000000000057
 42
-0
  0
VERTEX
  8
0
 10
2875
 20
256.00000000000006
 42
0
  0
VERTEX
  8
0
 10
2852
 20
256.00000000000006
 42
-0
  0
VERTEX
  8
0
 10
2852
 20
301.00000000000006
 42
-0
  0
VERTEX
  8
0
 10
2875
 20
301.00000000000006
 42
-0
  0
VERTEX
  8
0
 10
2875
 20
445.00000000000006
 42
0
  0
VERTEX
  8
0
 10
2852
 20
445.00000000000006
 42
0
  0
VERTEX
  8
0
 10
2852
 20
490.00000000000006
 42
-0
  0
VERTEX
  8
0
 10
2875
 20
490.00000000000006
 42
-0
  0
VERTEX
  8
0
 10
2875
 20
598
 42
0
  0
VERTEX
  8
0
 10
2852
 20
598
 42
0
  0
VERTEX
  8
0
 10
2852
 20
648
 42
-0
  0
VERTEX
  8
0
 10
2875
 20
648
 42
-0
  0
VERTEX
  8
0
 10
2875
 20
877.22384643554687
 42
-0
  0
VERTEX
  8
0
 10
2310
 20
877.22384643554687
 42
0
  0
VERTEX
  8
0
 10
2310
 20
373
 42
0
  0
VERTEX
  8
0
 10
2333
 20
373
 42
0
  0
VERTEX
  8
0
 10
2333
 20
328
 42
-0
  0
VERTEX
  8
0
 10
2310
 20
328
 42
0
  0
VERTEX
  8
0
 10
2310
 20
138.00000000000003
 42
0
  0
VERTEX
  8
0
 10
2333
 20
138.00000000000003
 42
0
  0
VERTEX
  8
0
 10
2333
 20
93
 42
-0
  0
VERTEX
  8
0
 10
2310
 20
93
 42
0
  0
VERTEX
  8
0
 10
2310
 20
33
 42
0
  0
VERTEX
  8
0
 10
2353
 20
33
 42
-0
  0
SEQEND
  0
POLYLINE
  8
0
 10
0
 20
0
 39
0
 70
1
 66
1
  0
VERTEX
  8
0
 10
1778
 20
10
 42
0
  0
VERTEX
  8
0
 10
2257
 20
10.000000000000057
 42
0
  0
VERTEX
  8
0
 10
2257
 20
33.000000000000057
 42
-0
  0
VERTEX
  8
0
 10
2300
 20
33.000000000000057
 42
-0
  0
VERTEX
  8
0
 10
2300
 20
256.00000000000006
 42
0
  0
VERTEX
  8
0
 10
2277
 20
256.00000000000006
 42
-0
  0
VERTEX
  8
0
 10
2277
 20
301.00000000000006
 42
-0
  0
VERTEX
  8
0
 10
2300
 20
301.00000000000006
 42
-0
  0
VERTEX
  8
0
 10
2300
 20
445.00000000000006
 42
0
  0
VERTEX
  8
0
 10
2277
 20
445.00000000000006
 42
0
  0
VERTEX
  8
0
 10
2277
 20
490.00000000000006
 42
-0
  0
VERTEX
  8
0
 10
2300
 20
490.00000000000006
 42
-0
  0
VERTEX
  8
0
 10
2300
 20
598
 42
0
  0
VERTEX
  8
0
 10
2277
 20
598
 42
0
  0
VERTEX
  8
0
 10
2277
 20
648
 42
-0
  0
VERTEX
  8
0
 10
2300
 20
648
 42
-0
  0
VERTEX
  8
0
 10
2300
 20
877.22384643554687
 42
-0
  0
VERTEX
  8
0
 10
1735
 20
877.22384643554687
 42
0
  0
VERTEX
  8
0
 10
1735
 20
373
 42
0
  0
VERTEX
  8
0
 10
1758
 20
373
 42
0
  0
VERTEX
  8
0
 10
1758
 20
328
 42
-0
  0
VERTEX
  8
0
 10
1735
 20
328
 42
0
  0
VERTEX
  8
0
 10
1735
 20
138.00000000000003
 42
0
  0
VERTEX
  8
0
 10
1758
 20
138.00000000000003
 42
0
  0
VERTEX
  8
0
 10
1758
 20
93
 42
-0
  0
VERTEX
  8
0
 10
1735
 20
93
 42
0
  0
VERTEX
  8
0
 10
1735
 20
33
 42
0
  0
VERTEX
  8
0
 10
1778
 20
33
 42
-0
  0
SEQEND
  0
POLYLINE
  8
0
 10
0
 20
0
 39
0
 70
1
 66
1
  0
VERTEX
  8
0
 10
53
 20
10
 42
0
  0
VERTEX
  8
0
 10
532
 20
10.000000000000057
 42
0
  0
VERTEX
  8
0
 10
532
 20
33.000000000000057
 42
-0
  0
VERTEX
  8
0
 10
575
 20
33.000000000000057
 42
-0
  0
VERTEX
  8
0
 10
575
 20
256.00000000000006
 42
0
  0
VERTEX
  8
0
 10
552
 20
256.00000000000006
 42
-0
  0
VERTEX
  8
0
 10
552
 20
301.00000000000006
 42
-0
  0
VERTEX
  8
0
 10
575
 20
301.00000000000006
 42
-0
  0
VERTEX
  8
0
 10
575
 20
445.00000000000006
 42
0
  0
VERTEX
  8
0
 10
552
 20
445.00000000000006
 42
0
  0
VERTEX
  8
0
 10
552
 20
490.00000000000006
 42
-0
  0
VERTEX
  8
0
 10
575
 20
490.00000000000006
 42
-0
  0
VERTEX
  8
0
 10
575
 20
598
 42
0
  0
VERTEX
  8
0
 10
552
 20
598
 42
0
  0
VERTEX
  8
0
 10
552
 20
648
 42
-0
  0
VERTEX
  8
0
 10
575
 20
648
 42
-0
  0
VERTEX
  8
0
 10
575
 20
877.22384643554687
 42
-0
  0
VERTEX
  8
0
 10
10
 20
877.22384643554687
 42
0
  0
VERTEX
  8
0
 10
10
 20
373
 42
0
  0
VERTEX
  8
0
 10
33
 20
373
 42
0
  0
VERTEX
  8
0
 10
33
 20
328
 42
-0
  0
VERTEX
  8
0
 10
10
 20
328
 42
0
  0
VERTEX
  8
0
 10
10
 20
138.00000000000003
 42
0
  0
VERTEX
  8
0
 10
33
 20
138.00000000000003
 42
0
  0
VERTEX
  8
0
 10
33
 20
93
 42
-0
  0
VERTEX
  8
0
 10
10
 20
93
 42
0
  0
VERTEX
  8
0
 10
10
 20
33
 42
0
  0
VERTEX
  8
0
 10
53
 20
33
 42
-0
  0
SEQEND
  0
POLYLINE
  8
0
 10
0
 20
0
 39
0
 70
1
 66
1
  0
VERTEX
  8
0
 10
2733.6715393066406
 20
1246.2238311767578
 42
0
  0
VERTEX
  8
0
 10
2733.6715393066406
 20
928.22384643554687
 42
1
  0
VERTEX
  8
0
 10
2815.6715393066406
 20
928.22384643554687
 42
0
  0
VERTEX
  8
0
 10
2815.6715393066406
 20
1246.2238311767578
 42
1
  0
SEQEND
  0
POLYLINE
  8
0
 10
0
 20
0
 39
0
 70
1
 66
1
  0
VERTEX
  8
0
 10
2774.6715393066406
 20
1261.7238311767578
 42
-1
  0
VERTEX
  8
0
 10
2774.6715393066406
 20
1230.7238311767578
 42
-1
  0
SEQEND
  0
POLYLINE
  8
0
 10
0
 20
0
 39
0
 70
1
 66
1
  0
VERTEX
  8
0
 10
2774.6715393066406
 20
943.72384643554687
 42
-1
  0
VERTEX
  8
0
 10
2774.6715393066406
 20
912.72384643554687
 42
-1
  0
SEQEND
  0
POLYLINE
  8
0
 10
0
 20
0
 39
0
 70
1
 66
1
  0
VERTEX
  8
0
 10
2774.6715393066406
 20
1141.7238616943359
 42
-1
  0
VERTEX
  8
0
 10
2774.6715393066406
 20
1110.7238616943359
 42
-1
  0
SEQEND
  0
POLYLINE
  8
0
 10
0
 20
0
 39
0
 70
1
 66
1
  0
VERTEX
  8
0
 10
2774.6715393066406
 20
1043.7238616943359
 42
-1
  0
VERTEX
  8
0
 10
2774.6715393066406
 20
1012.7238616943359
 42
-1
  0
SEQEND
  0
POLYLINE
  8
0
 10
0
 20
0
 39
0
 70
1
 66
1
  0
VERTEX
  8
0
 10
1754.4476928710937
 20
887.22384643554687
 42
0
  0
VERTEX
  8
0
 10
1754.4476928710937
 20
1452.2238464355469
 42
-0
  0
VERTEX
  8
0
 10
1378.5698720216751
 20
1452.2238464355469
 42
0
  0
VERTEX
  8
0
 10
1378.5698720216751
 20
1429.2238464355469
 42
0
  0
VERTEX
  8
0
 10
1318.2238464355469
 20
1429.2238464355469
 42
0
  0
VERTEX
  8
0
 10
1318.2238464355469
 20
1452.2238464355469
 42
-0
  0
VERTEX
  8
0
 10
910.22384643554687
 20
1452.2238464355469
 42
-0
  0
VERTEX
  8
0
 10
910.22384643554687
 20
1409.2238464355469
 42
0
  0
VERTEX
  8
0
 10
887.22384643554687
 20
1409.2238464355469
 42
-0
  0
VERTEX
  8
0
 10
887.22384643554687
 20
930.22384643554687
 42
-0
  0
VERTEX
  8
0
 10
910.22384643554687
 20
930.22384643554687
 42
0
  0
VERTEX
  8
0
 10
910.22384643554687
 20
887.22384643554687
 42
0
  0
VERTEX
  8
0
 10
1289.2238464355469
 20
887.22384643554687
 42
-0
  0
VERTEX
  8
0
 10
1289.2238464355469
 20
910.22384643554687
 42
-0
  0
VERTEX
  8
0
 10
1334.2238464355469
 20
910.22384643554687
 42
0
  0
VERTEX
  8
0
 10
1334.2238464355469
 20
887.22384643554687
 42
0
  0
SEQEND
  0
POLYLINE
  8
0
 10
0
 20
0
 39
0
 70
1
 66
1
  0
VERTEX
  8
0
 10
2631.6715393066406
 20
930.22384643554687
 42
0
  0
VERTEX
  8
0
 10
2631.6715393066406
 20
1409.2238464355469
 42
0
  0
VERTEX
  8
0
 10
2608.6715393066406
 20
1409.2238464355469
 42
-0
  0
VERTEX
  8
0
 10
2608.6715393066406
 20
1452.2238464355469
 42
-0
  0
VERTEX
  8
0
 10
2385.6715393066406
 20
1452.2238464355469
 42
0
  0
VERTEX
  8
0
 10
2385.6715393066406
 20
1429.2238464355469
 42
-0
  0
VERTEX
  8
0
 10
2340.6715393066406
 20
1429.2238464355469
 42
-0
  0
VERTEX
  8
0
 10
2340.6715393066406
 20
1452.2238464355469
 42
-0
  0
VERTEX
  8
0
 10
2196.6715393066406
 20
1452.2238464355469
 42
0
  0
VERTEX
  8
0
 10
2196.6715393066406
 20
1429.2238464355469
 42
0
  0
VERTEX
  8
0
 10
2151.6715393066406
 20
1429.2238464355469
 42
-0
  0
VERTEX
  8
0
 10
2151.6715393066406
 20
1452.2238464355469
 42
-0
  0
VERTEX
  8
0
 10
2043.6715393066406
 20
1452.2238464355469
 42
0
  0
VERTEX
  8
0
 10
2043.6715393066406
 20
1429.2238464355469
 42
0
  0
VERTEX
  8
0
 10
1993.6715393066406
 20
1429.2238464355469
 42
-0
  0
VERTEX
  8
0
 10
1993.6715393066406
 20
1452.2238464355469
 42
-0
  0
VERTEX
  8
0
 10
1764.4476928710937
 20
1452.2238464355469
 42
-0
  0
VERTEX
  8
0
 10
1764.4476928710937
 20
887.22384643554687
 42
0
  0
VERTEX
  8
0
 10
2268.6715393066406
 20
887.22384643554687
 42
0
  0
VERTEX
  8
0
 10
2268.6715393066406
 20
910.22384643554687
 42
0
  0
VERTEX
  8
0
 10
2313.6715393066406
 20
910.22384643554687
 42
-0
  0
VERTEX
  8
0
 10
2313.6715393066406
 20
887.22384643554687
 42
0
  0
VERTEX
  8
0
 10
2503.6715393066406
 20
887.22384643554687
 42
0
  0
VERTEX
  8
0
 10
2503.6715393066406
 20
910.22384643554687
 42
0
  0
VERTEX
  8
0
 10
2548.6715393066406
 20
910.22384643554687
 42
-0
  0
VERTEX
  8
0
 10
2548.6715393066406
 20
887.22384643554687
 42
0
  0
VERTEX
  8
0
 10
2608.6715393066406
 20
887.22384643554687
 42
0
  0
VERTEX
  8
0
 10
2608.6715393066406
 20
930.22384643554687
 42
-0
  0
SEQEND
  0
POLYLINE
  8
0
 10
0
 20
0
 39
0
 70
1
 66
1
  0
VERTEX
  8
0
 10
2641.6715393066406
 20
1246.2238311767578
 42
0
  0
VERTEX
  8
0
 10
2641.6715393066406
 20
928.22384643554687
 42
1
  0
VERTEX
  8
0
 10
2723.6715393066406
 20
928.22384643554687
 42
0
  0
VERTEX
  8
0
 10
2723.6715393066406
 20
1246.2238311767578
 42
1
  0
SEQEND
  0
POLYLINE
  8
0
 10
0
 20
0
 39
0
 70
1
 66
1
  0
VERTEX
  8
0
 10
2682.6715393066406
 20
1261.7238311767578
 42
-1
  0
VERTEX
  8
0
 10
2682.6715393066406
 20
1230.7238311767578
 42
-1
  0
SEQEND
  0
POLYLINE
  8
0
 10
0
 20
0
 39
0
 70
1
 66
1
  0
VERTEX
  8
0
 10
2682.6715393066406
 20
943.72384643554687
 42
-1
  0
VERTEX
  8
0
 10
2682.6715393066406
 20
912.72384643554687
 42
-1
  0
SEQEND
  0
POLYLINE
  8
0
 10
0
 20
0
 39
0
 70
1
 66
1
  0
VERTEX
  8
0
 10
2682.6715393066406
 20
1141.7238616943359
 42
-1
  0
VERTEX
  8
0
 10
2682.6715393066406
 20
1110.7238616943359
 42
-1
  0
SEQEND
  0
POLYLINE
  8
0
 10
0
 20
0
 39
0
 70
1
 66
1
  0
VERTEX
  8
0
 10
2682.6715393066406
 20
1043.7238616943359
 42
-1
  0
VERTEX
  8
0
 10
2682.6715393066406
 20
1012.7238616943359
 42
-1
  0
SEQEND
  0
POLYLINE
  8
0
 10
0
 20
0
 39
0
 70
1
 66
1
  0
VERTEX
  8
0
 10
585
 20
10
 42
0
  0
VERTEX
  8
0
 10
1150
 20
10.000000000000057
 42
-0
  0
VERTEX
  8
0
 10
1150
 20
385.8778208494187
 42
0
  0
VERTEX
  8
0
 10
1127
 20
385.8778208494187
 42
0
  0
VERTEX
  8
0
 10
1127
 20
446.22384643554693
 42
0
  0
VERTEX
  8
0
 10
1150
 20
446.22384643554693
 42
-0
  0
VERTEX
  8
0
 10
1150
 20
854.22384643554687
 42
-0
  0
VERTEX
  8
0
 10
1107
 20
854.22384643554687
 42
0
  0
VERTEX
  8
0
 10
1107
 20
877.22384643554687
 42
-0
  0
VERTEX
  8
0
 10
628
 20
877.22384643554687
 42
-0
  0
VERTEX
  8
0
 10
628
 20
854.22384643554687
 42
0
  0
VERTEX
  8
0
 10
585
 20
854.22384643554687
 42
0
  0
VERTEX
  8
0
 10
585
 20
475.22384643554687
 42
-0
  0
VERTEX
  8
0
 10
608
 20
475.22384643554687
 42
-0
  0
VERTEX
  8
0
 10
608
 20
430.22384643554687
 42
0
  0
VERTEX
  8
0
 10
585
 20
430.22384643554687
 42
0
  0
SEQEND
  0
ENDSEC
  0
EOF
