  0
SECTION
  2
ENTITIES
  0
POLYLINE
  8
0
 10
0
 20
0
 39
0
 70
1
 66
1
  0
VERTEX
  8
0
 10
0
 20
0
 42
-0
  0
VERTEX
  8
0
 10
700
 20
0
 42
-0
  0
VERTEX
  8
0
 10
700
 20
500
 42
-0
  0
VERTEX
  8
0
 10
0
 20
500
 42
-0
  0
SEQEND
  0
POLYLINE
  8
0
 10
0
 20
0
 39
0
 70
1
 66
1
  0
VERTEX
  8
0
 10
495
 20
400
 42
0
  0
VERTEX
  8
0
 10
495
 20
430
 42
0
  0
VERTEX
  8
0
 10
420
 20
430
 42
-0
  0
VERTEX
  8
0
 10
410
 20
420
 42
0
  0
VERTEX
  8
0
 10
410
 20
240
 42
0
  0
VERTEX
  8
0
 10
420
 20
230
 42
0
  0
VERTEX
  8
0
 10
440
 20
230
 42
-0
  0
SEQEND
  0
POLYLINE
  8
0
 10
0
 20
0
 39
0
 70
1
 66
1
  0
VERTEX
  8
0
 10
460.46299999999997
 20
260
 42
0
  0
VERTEX
  8
0
 10
460.46299999999997
 20
229.99999999999997
 42
0
  0
VERTEX
  8
0
 10
535.46299999999997
 20
230
 42
-0
  0
VERTEX
  8
0
 10
545.46299999999997
 20
240
 42
0
  0
VERTEX
  8
0
 10
545.46299999999997
 20
420
 42
0
  0
VERTEX
  8
0
 10
535.46299999999997
 20
430
 42
0
  0
VERTEX
  8
0
 10
515.46299999999997
 20
430
 42
-0
  0
SEQEND
  0
POLYLINE
  8
0
 10
0
 20
0
 39
0
 70
1
 66
1
  0
VERTEX
  8
0
 10
320
 20
440
 42
-0
  0
VERTEX
  8
0
 10
620
 20
440
 42
-0
  0
VERTEX
  8
0
 10
620
 20
490
 42
-0
  0
VERTEX
  8
0
 10
320
 20
490
 42
-0
  0
SEQEND
  0
POLYLINE
  8
0
 10
0
 20
0
 39
0
 70
1
 66
1
  0
VERTEX
  8
0
 10
100
 20
410
 42
-0
  0
VERTEX
  8
0
 10
100.00000000000003
 20
10
 42
-0
  0
VERTEX
  8
0
 10
180.00000000000003
 20
10
 42
-0
  0
VERTEX
  8
0
 10
180
 20
410
 42
-0
  0
SEQEND
  0
POLYLINE
  8
0
 10
0
 20
0
 39
0
 70
1
 66
1
  0
VERTEX
  8
0
 10
10
 20
410
 42
-0
  0
VERTEX
  8
0
 10
10.000000000000025
 20
10
 42
-0
  0
VERTEX
  8
0
 10
90.000000000000028
 20
10
 42
-0
  0
VERTEX
  8
0
 10
90
 20
410
 42
-0
  0
SEQEND
  0
POLYLINE
  8
0
 10
0
 20
0
 39
0
 70
1
 66
1
  0
VERTEX
  8
0
 10
350
 20
310
 42
-0
  0
VERTEX
  8
0
 10
350
 20
10
 42
-0
  0
VERTEX
  8
0
 10
400
 20
10
 42
-0
  0
VERTEX
  8
0
 10
400
 20
310
 42
-0
  0
SEQEND
  0
POLYLINE
  8
0
 10
0
 20
0
 39
0
 70
1
 66
1
  0
VERTEX
  8
0
 10
565
 20
180.00000000000003
 42
0
  0
VERTEX
  8
0
 10
565
 20
210.00000000000003
 42
0
  0
VERTEX
  8
0
 10
490
 20
210.00000000000003
 42
-0
  0
VERTEX
  8
0
 10
480
 20
200.00000000000003
 42
0
  0
VERTEX
  8
0
 10
480
 20
20.000000000000028
 42
0
  0
VERTEX
  8
0
 10
490
 20
10.000000000000028
 42
0
  0
VERTEX
  8
0
 10
510
 20
10.000000000000028
 42
-0
  0
SEQEND
  0
POLYLINE
  8
0
 10
0
 20
0
 39
0
 70
1
 66
1
  0
VERTEX
  8
0
 10
530.46299999999997
 20
40.000000000000014
 42
0
  0
VERTEX
  8
0
 10
530.46299999999997
 20
10.000000000000012
 42
0
  0
VERTEX
  8
0
 10
605.46299999999997
 20
10.000000000000027
 42
-0
  0
VERTEX
  8
0
 10
615.46299999999997
 20
20.000000000000028
 42
0
  0
VERTEX
  8
0
 10
615.46299999999997
 20
200.00000000000003
 42
0
  0
VERTEX
  8
0
 10
605.46299999999997
 20
210.00000000000003
 42
0
  0
VERTEX
  8
0
 10
585.46299999999997
 20
210.00000000000003
 42
-0
  0
SEQEND
  0
POLYLINE
  8
0
 10
0
 20
0
 39
0
 70
1
 66
1
  0
VERTEX
  8
0
 10
10
 20
420
 42
-0
  0
VERTEX
  8
0
 10
310
 20
420
 42
-0
  0
VERTEX
  8
0
 10
310
 20
470
 42
-0
  0
VERTEX
  8
0
 10
10
 20
470
 42
-0
  0
SEQEND
  0
POLYLINE
  8
0
 10
0
 20
0
 39
0
 70
1
 66
1
  0
VERTEX
  8
0
 10
190
 20
410
 42
-0
  0
VERTEX
  8
0
 10
190.00000000000003
 20
10
 42
-0
  0
VERTEX
  8
0
 10
270
 20
10
 42
-0
  0
VERTEX
  8
0
 10
270
 20
410
 42
-0
  0
SEQEND
  0
POLYLINE
  8
0
 10
0
 20
0
 39
0
 70
1
 66
1
  0
VERTEX
  8
0
 10
555.46299999999997
 20
430
 42
-0
  0
VERTEX
  8
0
 10
555.46299999999997
 20
220
 42
-0
  0
VERTEX
  8
0
 10
615.46299999999997
 20
220
 42
-0
  0
VERTEX
  8
0
 10
615.46299999999997
 20
430
 42
-0
  0
SEQEND
  0
POLYLINE
  8
0
 10
0
 20
0
 39
0
 70
1
 66
1
  0
VERTEX
  8
0
 10
675.46299999999997
 20
322
 42
0
  0
VERTEX
  8
0
 10
625.46299999999997
 20
322
 42
0
  0
VERTEX
  8
0
 10
625.46299999999997
 20
171
 42
0
  0
VERTEX
  8
0
 10
685.46299999999997
 20
171
 42
-0
  0
SEQEND
  0
POLYLINE
  8
0
 10
0
 20
0
 39
0
 70
1
 66
1
  0
VERTEX
  8
0
 10
680
 20
483
 42
0
  0
VERTEX
  8
0
 10
630
 20
483
 42
0
  0
VERTEX
  8
0
 10
630
 20
332
 42
0
  0
VERTEX
  8
0
 10
690
 20
332
 42
-0
  0
SEQEND
  0
POLYLINE
  8
0
 10
0
 20
0
 39
0
 70
1
 66
1
  0
VERTEX
  8
0
 10
410
 20
220
 42
-0
  0
VERTEX
  8
0
 10
410
 20
10
 42
-0
  0
VERTEX
  8
0
 10
470
 20
10
 42
-0
  0
VERTEX
  8
0
 10
470
 20
220
 42
-0
  0
SEQEND
  0
POLYLINE
  8
0
 10
0
 20
0
 39
0
 70
1
 66
1
  0
VERTEX
  8
0
 10
280
 20
381
 42
-0
  0
VERTEX
  8
0
 10
280
 20
171
 42
-0
  0
VERTEX
  8
0
 10
340
 20
171
 42
-0
  0
VERTEX
  8
0
 10
340
 20
381
 42
-0
  0
SEQEND
  0
POLYLINE
  8
0
 10
0
 20
0
 39
0
 70
1
 66
1
  0
VERTEX
  8
0
 10
330
 20
161
 42
0
  0
VERTEX
  8
0
 10
280
 20
161
 42
0
  0
VERTEX
  8
0
 10
280
 20
10
 42
0
  0
VERTEX
  8
0
 10
340
 20
10
 42
-0
  0
SEQEND
  0
POLYLINE
  8
0
 10
0
 20
0
 39
0
 70
1
 66
1
  0
VERTEX
  8
0
 10
675.46299999999997
 20
161
 42
0
  0
VERTEX
  8
0
 10
625.46299999999997
 20
161
 42
0
  0
VERTEX
  8
0
 10
625.46299999999997
 20
10
 42
0
  0
VERTEX
  8
0
 10
685.46299999999997
 20
10
 42
-0
  0
SEQEND
  0
ENDSEC
  0
EOF
